<?xml version="1.0" encoding="utf-8"?>
<!-- Generator: Adobe Illustrator 25.4.1, SVG Export Plug-In . SVG Version: 6.00 Build 0)  -->
<svg version="1.1" id="Layer_1" xmlns="http://www.w3.org/2000/svg" xmlns:xlink="http://www.w3.org/1999/xlink" x="0px" y="0px"
	 viewBox="0 0 199.9 200.9" style="enable-background:new 0 0 199.9 200.9;" xml:space="preserve">
<style type="text/css">
	.st0{fill:#003774;}
	.st1{fill:#B3B3B3;}
</style>
<g>
	<g>
		<path class="st0" d="M71.3,84.6c4.3,0,7.3,1.1,9,3.2s2.5,4.4,2.5,7c0,2.2-0.6,4.3-1.9,6.2c-1.3,1.9-3.2,3.9-6,6.2l-5.3,4.4h13.8
			l1,5.5H60v-4.9l11-9.6c2.1-1.8,3.5-3.3,4.2-4.4c0.7-1.1,1.1-2.2,1.1-3.4c0-1.2-0.4-2.2-1.3-3c-0.9-0.8-2.1-1.2-3.8-1.2
			c-1.4,0-3,0.5-4.8,1.5c-1.8,1-2.7,1.5-2.9,1.6l-3.1-4.9c1-0.8,2.5-1.7,4.3-2.6C66.5,85.1,68.7,84.6,71.3,84.6z"/>
		<path class="st0" d="M91.5,105.5l1-20.2h20.5l-0.8,5.9H98.7l-0.3,6.7c0.6-0.3,1.3-0.5,2-0.6c0.7-0.1,1.4-0.2,2.2-0.2
			c4.2,0,7.3,1.2,9.4,3.5c2.1,2.4,3.1,5.1,3.1,8.2c0,3.7-1.2,6.7-3.7,9c-2.5,2.3-5.8,3.5-10.1,3.5c-2.1,0-4.2-0.4-6.4-1.1
			c-2.2-0.7-4.1-1.5-5.7-2.4l3.6-5.1c1.5,0.8,2.9,1.4,4.2,1.8c1.3,0.4,2.8,0.6,4.5,0.6c2,0,3.6-0.6,5-1.7c1.3-1.1,2-2.7,2-4.7
			c0-1.8-0.5-3.3-1.6-4.3c-1.1-1.1-2.4-1.6-4-1.6c-1.3,0-2.4,0.3-3.2,0.9c-0.8,0.6-1.4,1.2-1.6,1.8H91.5z"/>
		<path class="st0" d="M123.5,94.2c1.5,0,2.7,0.5,3.7,1.5c0.9,1,1.4,2.3,1.4,4.1c0,1.7-0.5,3-1.5,4c-1,1-2.2,1.5-3.6,1.5
			c-1.5,0-2.8-0.5-3.7-1.4c-0.9-1-1.4-2.3-1.4-4.1c0-1.7,0.5-3,1.5-4S122,94.2,123.5,94.2z M123.5,95.9c-0.7,0-1.4,0.3-2.1,0.9
			c-0.7,0.6-1,1.6-1,3c0,1.3,0.3,2.3,0.9,2.9s1.3,0.9,2.1,0.9c0.7,0,1.4-0.3,2-0.9c0.7-0.6,1-1.6,1-3c0-1.4-0.3-2.4-0.9-3
			S124.3,95.9,123.5,95.9z M136.9,94.1l-10.1,23.1l-1.9-0.1l10-23.1L136.9,94.1z M138.4,106.1c1.5,0,2.7,0.5,3.7,1.5
			c0.9,1,1.4,2.3,1.4,4.1c0,1.7-0.5,3-1.5,4c-1,1-2.2,1.5-3.6,1.5c-1.5,0-2.7-0.5-3.7-1.4c-0.9-1-1.4-2.3-1.4-4.1c0-1.7,0.5-3,1.5-4
			C135.8,106.6,137,106.1,138.4,106.1z M138.4,107.7c-0.7,0-1.4,0.3-2.1,0.9c-0.6,0.6-1,1.6-1,3c0,1.4,0.3,2.4,0.9,2.9
			c0.6,0.6,1.3,0.9,2.1,0.9c0.7,0,1.4-0.3,2-0.9c0.6-0.6,1-1.6,1-3c0-1.4-0.3-2.4-0.9-3S139.2,107.7,138.4,107.7z"/>
	</g>
	<g>
		<g>
			<g>
				<path class="st1" d="M184.7,150.3c-27.1,47-87.2,63-134.1,35.9c-47-27.1-63-87.2-35.9-134.1C32.7,20.8,63.6,3,99.7,3v39.6h0
					c-32.4,0-58.6,26.3-58.6,58.6c0,32.4,26.2,58.6,58.6,58.6c21.7,0,40.7-11.8,50.8-29.3L184.7,150.3z"/>
			</g>
		</g>
		<g>
			<g>
				<g>
					<path class="st0" d="M197.9,101.2c0,18-4.1,33.4-13.1,49.1l-34.2-19.8c5-8.6,7.8-18.6,7.8-29.3c0-32.4-26.2-58.6-58.6-58.6V3
						C153.9,3,197.9,46.9,197.9,101.2z"/>
				</g>
			</g>
		</g>
	</g>
</g>
</svg>
