<?xml version="1.0" encoding="utf-8"?>
<!-- Generator: Adobe Illustrator 26.0.1, SVG Export Plug-In . SVG Version: 6.00 Build 0)  -->
<svg version="1.1" xmlns="http://www.w3.org/2000/svg" xmlns:xlink="http://www.w3.org/1999/xlink" x="0px" y="0px" width="160px"
	 height="60px" viewBox="0 0 160 60" style="enable-background:new 0 0 160 60;" xml:space="preserve">
<style type="text/css">
	.st0{display:none;}
	.st1{display:inline;}
	.st2{fill-rule:evenodd;clip-rule:evenodd;fill:#FF3862;}
	.st3{fill-rule:evenodd;clip-rule:evenodd;}
	.st4{fill:#6ABF4B;}
	.st5{fill:#0047BA;}
	.st6{fill:#066069;}
	.st7{fill:#F58220;}
	.st8{fill:#FFFFFF;}
	.st9{fill:#F7B5C9;}
	.st10{fill:#23418D;}
	.stack_icon {display: none;}
	.stack_icon:target {display: inline;}
	rect, line {shape-redering: crispEdges;}
</style>
<g id="accountor" class="stack_icon">
	<g transform="translate(0.000000,2282.000000) scale(0.100000,-0.100000)">
		<path d="M858.8190918,22819.5078125c-7.6846313-0.8417969-14.3692017-2.1855469-19.4747925-3.921875
			c-6.5266724-2.2109375-11.8953857-4.6054688-17.1851807-7.6054688c-1.5790405-0.8945312-2.9738159-1.6328125-3.1317139-1.6328125
			c-0.1842651,0-0.1842651-0.1035156-0.0263062-0.3144531c0.1578979-0.1855469,2.9475098-5.6328125,6.2371826-12.1054688
			c3.2896729-6.5019531,6.0266113-11.7910156,6.0792847-11.7910156c0.0263062,0,1.0789795,0.5253906,2.315918,1.1835938
			c6.0266724,3.2109375,13.3955078,5.8164062,19.6589966,6.921875c5.9213867,1.0800781,7.9215088,1.2363281,15.2640381,1.2363281
			c6.6582642,0,7.4477539-0.0527344,10.0005493-0.6308594c9.1057739-2.0527344,14.4481812-6.7636719,16.7904053-14.7636719
			c0.6052856-2.0800781,0.657959-2.7636719,0.7631836-9.3945312c0.0789795-3.9492188,0.0789795-7.1855469,0.0263672-7.1855469
			c-0.0526733,0-1.4738159,0.4746094-3.1580811,1.0253906c-3.6054688,1.2109375-9.5531616,2.5019531-14.2902832,3.0800781
			c-4.6055298,0.578125-17.4746704,0.7890625-22.053894,0.3691406
			c-17.5009766-1.5800781-30.8701782-7.1582031-39.5285645-16.5546875
			c-7.8425293-8.4746094-11.447998-18.4746094-11.447998-31.84375c-0.0263062-11.8164062,2.3422241-20.4746094,8.0004883-29.2382812
			c6.131897-9.5,15.9482422-16.421875,27.3962402-19.2382812c6.4740601-1.6054688,11.6322632-2.1835938,17.9220581-2
			c9.8426514,0.2890625,16.6062012,2.2363281,25.7909546,7.4746094c4.6055298,2.6054688,7.131958,4.3164062,9.7900391,6.6054688
			l1.6316528,1.421875v-6.2109375v-6.2109375h15.3956299h15.3955688v53.3710938
			c0,46.1074219-0.0526123,53.7929688-0.3947754,56.5019531c-1.5263672,11.9492188-5.8950195,21.1855469-13.1323242,27.765625
			c-8.3688354,7.6328125-19.7905884,12.34375-33.4492188,13.8164062
			C875.1884766,22820.1660156,864.3720703,22820.1132812,858.8190918,22819.5078125z M874.5042114,22736.34375
			c7.0003662-0.578125,13.263916-1.9472656,18.7115479-4.1308594l2.973877-1.1835938v-10.0546875v-10.0527344l-2.4212036-2.6054688
			c-6.9214478-7.3691406-14.6323853-12-23.1065674-13.8945312c-2.1317139-0.4746094-3.3948975-0.5527344-8.4215088-0.5527344
			c-5.2897949-0.0273438-6.2371826,0.0527344-8.8162842,0.6054688c-3.5528564,0.7617188-7.3425293,2.3945312-9.605835,4.1054688
			c-4.7107544,3.5527344-7.5793457,9.0527344-8.1057129,15.5273438
			c-1.0263672,12.6308594,6.9741211,20.3945312,22.9749756,22.3164062
			C860.5297241,22736.6601562,871.3724365,22736.5820312,874.5042114,22736.34375z"/>
		<path d="M1001.0639648,22819.875c-0.4210815-0.0527344-2.15802-0.2890625-3.815979-0.5253906
			c-5.9213867-0.8164062-13.0534058-3.0273438-18.2905273-5.6855469c-3.2106934-1.6054688-8.5531006-5.1054688-11.0532837-7.1835938
			c-12.1585693-10.1054688-20.8432617-25.5019531-24.3171387-43.0546875
			c-2.5264282-12.7636719-2.5791016-28.5292969-0.1315918-41.5546875
			c2.2633057-12.1855469,7.5267334-24.1347656,14.6323853-33.2402344
			c8.4215698-10.7890625,19.4747925-18.2363281,32.159729-21.6054688c6.0266724-1.6054688,8.3425903-1.8691406,16.4746094-1.8691406
			c9.7110596,0,12.605957,0.4746094,21.211792,3.3945312c5.5528564,1.8945312,8.5267334,3.3164062,12.9217529,6.2636719
			c5.9476318,3.9746094,12.3164062,9.8964844,16.8956299,15.7382812l2.3685303,3.0273438l-9.9742432,9.9726562
			l-9.9742432,10.0019531l-3.6317139-3.5527344c-7.5793457-7.3691406-13.3692017-11.5019531-18.6326294-13.3183594
			c-6.0266724-2.078125-14.7113647-2.2363281-20.711731-0.3945312c-6.2108765,1.921875-12.6322632,7.1855469-16.3167114,13.34375
			c-5.6845093,9.5273438-8.1583252,21.921875-7.5267334,37.8964844c0.657959,17.3964844,6.3161621,30.6601562,16.0272217,37.5820312
			c4.8424072,3.4199219,10.0005493,4.9199219,17.1062622,4.9199219c4.3949585,0,8.0530396-0.578125,11.8427734-1.8417969
			c6.3161621-2.1054688,13.7375488-7.0527344,20.5274658-13.6054688c1.5263672-1.5,2.8422852-2.7109375,2.9475098-2.7109375
			c0.2368164,0,18.6063232,21.7636719,18.6063232,22.0546875c0,0.4726562-6.0793457,6.8417969-8.8688965,9.3164062
			c-9.5794678,8.4472656-20.6064453,13.7636719-33.0281982,15.8945312
			c-3.4212646,0.5800781-4.973999,0.6835938-10.3427124,0.7636719
			C1004.6957397,22819.9550781,1001.5113525,22819.9550781,1001.0639648,22819.875z"/>
		<path d="M594.4620972,22646.4453125c-0.4210815-0.0527344-2.15802-0.2890625-3.815979-0.5273438
			c-10.7901001-1.4726562-21.6591187-6.3164062-30.0806885-13.3691406c-3.7370605-3.1308594-6.131897-5.6308594-8.7636108-9.1054688
			c-12.0533447-15.8691406-17.5273438-35.3710938-16.6588745-59.2128906
			c0.6316528-16.8710938,4.5266113-30.5546875,12.1849365-42.8984375c8.7109985-14,21.1853638-23.4472656,36.3178101-27.4746094
			c6.0792847-1.6308594,8.3162842-1.8691406,16.8693848-1.8691406c10.2900391,0,13.421814,0.5,21.5275269,3.4472656
			c11.0795898,4.0273438,20.8695679,11.34375,29.1332397,21.7910156l2.4738159,3.1328125l-9.5795288,9.4472656
			c-5.2897339,5.1855469-9.8689575,9.6328125-10.2110596,9.8691406c-0.6052856,0.421875-0.657959,0.3691406-4.6055298-3.5273438
			c-11.3953857-11.2109375-18.0010376-14.5527344-28.84375-14.5527344c-6.4213867,0-11.3953857,1.4472656-16.737793,4.8417969
			c-5.2371216,3.34375-10.0794678,9.7910156-12.9217529,17.1855469c-2.15802,5.6054688-3.6844482,13.8691406-4.0002441,21.5019531
			c-0.8421631,20.421875,3.6054688,35.2910156,13.263916,44.3710938c5.3161011,5,11.1848145,7.1054688,19.7379761,7.1054688
			c6.7634888,0,11.6585083-1.2109375,17.9220581-4.4472656c5.3687134-2.8164062,9.947937-6.2636719,14.9481812-11.3164062
			c1.2895508-1.3164062,2.4475098-2.3964844,2.5527954-2.3964844s4.3686523,4.9746094,9.447876,11.0800781l9.2110596,11.0527344
			l-1.000061,1.2382812c-0.5526733,0.6835938-2.8422852,3.078125-5.1055298,5.3417969
			c-10.4743042,10.4472656-21.4749146,16.2382812-35.3704224,18.5527344
			c-3.2896729,0.5527344-5.0266113,0.6855469-10.5269165,0.7636719
			C598.2254639,22646.5234375,594.9094849,22646.5234375,594.4620972,22646.4453125z"/>
		<path d="M719.9954834,22646.4453125c-0.5789795-0.0800781-2.5791016-0.3417969-4.473938-0.6328125
			c-17.5535889-2.6582031-32.8966064-12.6582031-42.3970947-27.6328125
			c-9.447937-14.8945312-14.0534668-33.6074219-13.2113037-53.5546875c0.8421631-19.3964844,6.289856-35.5820312,16.4746094-48.6875
			c9.947937-12.7910156,23.0539551-20.7109375,38.6074219-23.34375c4.7108154-0.7890625,16.1851807-0.8671875,21.1854248-0.1308594
			c11.0532837,1.6582031,21.6854248,6.1582031,30.001709,12.7636719c3.5527954,2.8164062,5.7371826,4.9746094,8.7636719,8.6054688
			c9.4215698,11.2636719,15.1850586,25.6074219,17.2114868,42.7910156c0.6842041,5.8164062,0.6842041,20.5820312,0,26.0292969
			c-2.6580811,20.9746094-11.1848755,37.9746094-24.7908936,49.34375c-8.789978,7.34375-18.737915,11.8691406-30.2648315,13.84375
			c-2.4475098,0.4199219-4.631897,0.5527344-9.605835,0.6308594
			C723.9430542,22646.4980469,720.5744629,22646.4980469,719.9954834,22646.4453125z M731.5750732,22616.2070312
			c10.6585083-1.7109375,18.9221191-8.2910156,24.2382202-19.2128906c3.5791626-7.421875,5.0792236-14.6308594,5.2897949-25.7910156
			c0.1578979-7.3164062-0.1578979-11.3945312-1.2369385-16.6835938c-2.6054077-12.7910156-8.6057129-22.34375-17.7641602-28.2402344
			c-5.2371216-3.3945312-9.6057739-4.6835938-15.7640381-4.6835938c-8.9215698,0-15.921936,2.8417969-22.0012207,8.9472656
			c-7.9478149,7.9492188-12.0270386,19.1601562-12.6060181,34.7402344
			c-0.4473877,12.2890625,0.8684692,21.8945312,4.1581421,30.0800781
			c4.7108154,11.7636719,12.6586304,18.84375,23.4487305,20.8691406
			C721.8377075,22616.6796875,728.6012573,22616.6796875,731.5750732,22616.2070312z"/>
		<path d="M1003.6956787,22646.0761719c-5.4213257-0.7890625-11.6585083-2.6582031-15.2639771-4.5
			c-3.0264893-1.578125-7.5267944-4.7636719-9.8690186-7l-2.3685303-2.2382812v5.6855469v5.6835938h-15.7903442h-15.7904053
			v-74.4765625v-74.4785156h15.7904053h15.7903442v42.84375c0.0263062,46.609375,0.1052856,49.7402344,1.4211426,56.109375
			c0.3947144,1.8164062,0.9473877,4.0527344,1.2631836,5c2.6317749,8,8.1057739,14.3164062,14.6324463,16.7910156
			c3.9475708,1.5253906,5.6582031,1.7636719,11.8953857,1.7363281c5.1582031-0.0527344,5.8950806-0.1054688,8.289917-0.7363281
			c3.2633667-0.8417969,6.8425293-2.5800781,9.3426514-4.5273438c4.3949585-3.4472656,7.5530396-9.1308594,9.0795288-16.421875
			c1.3684082-6.4746094,1.2894287-3.4199219,1.3684082-53.8710938l0.1053467-46.9238281h15.7640381h15.7902832v46.265625
			c0,38.4765625-0.0788574,46.9765625-0.3947754,50.5820312c-2.0527344,23.1855469-9.5004883,38.4238281-23.0275879,47.1875
			c-5.8687744,3.7890625-12.3164062,6.0527344-20.7379761,7.2890625
			C1016.3806152,22646.7597656,1008.2749023,22646.7597656,1003.6956787,22646.0761719z"/>
		<path d="M807.3162231,22597.3359375c0.1315918-49.7382812,0.1052246-49.3710938,1.500061-58.3964844
			c4.7634277-31.1601562,22.2907104-47.109375,51.7134399-47.0820312c9.6847534,0.0253906,16.3430176,1.5,24.1592407,5.421875
			c3.973938,2,6.5530396,3.8417969,9.8690186,7.0527344l1.6316528,1.578125v-5.578125v-5.5800781h15.7903442h15.7904053v74.4785156
			v74.4765625h-15.7904053h-15.7640381l-0.0789185-47.2910156l-0.0789795-47.3183594l-0.8684692-3.9472656
			c-1.1053467-5.0800781-2.7896118-9.4746094-5.0003052-12.8964844c-3.6580811-5.6835938-7.9214478-8.8164062-14.3955078-10.5800781
			c-2.4738159-0.65625-2.973877-0.7089844-8.289978-0.7089844c-5.31604,0-5.8161011,0.0527344-8.289917,0.7089844
			c-3.6580811,0.9746094-7.8425293,3.1855469-10.5532227,5.5546875c-4.8424072,4.2617188-7.3951416,10.0527344-8.9215698,20.1835938
			c-0.7631836,5.0546875-0.9210815,14.1855469-0.9210815,55.3203125v40.9746094h-15.8167114h-15.7903442L807.3162231,22597.3359375z
			"/>
		<path d="M857.3716431,22473.0136719c-0.4210815-0.0527344-2.2106323-0.2890625-3.9475708-0.5253906
			c-14.7639771-1.9472656-29.1332397-10.0800781-38.4758911-21.765625
			c-11.0795288-13.8691406-16.6851196-30.1054688-17.4219971-50.3183594
			c-0.4210815-12.0800781,0.8158569-22.8964844,3.6843872-32.5019531
			c8.0794067-27.0019531,26.4225464-44.4765625,51.2134399-48.7382812
			c4.6581421-0.7910156,16.2114258-0.8691406,20.8695679-0.1054688c11.7112427,1.8671875,21.9486084,6.1835938,30.001709,12.6054688
			c2.8422852,2.2636719,7.6057129,7.0273438,10.0005493,9.9472656c8.5267944,10.4492188,14.2113647,24.765625,16.3693848,41.2929688
			c0.7894897,5.9726562,0.8684692,20.3417969,0.1315918,25.7910156
			c-1.5527344,11.5527344-4.2108154,20.5527344-8.6583862,29.3164062
			c-3.3949585,6.6855469-6.2108765,10.6328125-11.3690796,15.8964844c-9.6847534,9.921875-21.6328125,16.2363281-34.975647,18.5
			c-2.5264893,0.421875-4.6318359,0.5527344-9.9216309,0.6328125
			C861.1876831,22473.09375,857.8190308,22473.0664062,857.3716431,22473.0136719z M870.2407837,22442.8027344
			c9.8163452-2.2636719,17.1062622-7.8964844,22.1065063-17.1074219c4.3423462-7.9472656,6.4740601-17.7910156,6.4740601-29.7636719
			c0-15.7128906-4.6844482-29.3183594-13.1586304-38.1074219c-4.7371216-4.9492188-9.4742432-7.5546875-16.2904053-9.0019531
			c-2.4475098-0.5-8.0794067-0.5253906-11.2374878,0c-14.921875,2.421875-25.2119141,14.7382812-28.1068115,33.6875
			c-1.000061,6.3945312-1.2895508,16.0273438-0.6842651,21.9746094c1.4211426,13.921875,5.8424683,24.2636719,13.5270996,31.5273438
			c4.0002441,3.7890625,8.3162231,5.9746094,13.9481201,7.0273438
			C859.3717651,22443.5390625,867.7669678,22443.3808594,870.2407837,22442.8027344z"/>
		<path d="M1003.0377808,22472.671875c-10.3164062-1.6582031-18.5537109-5.6054688-25.3172607-12.1054688l-1.5263672-1.4472656
			v5.7109375v5.7109375h-15.7903442h-15.7904053V22396.0625v-74.4785156h15.7904053h15.7903442v42.8457031
			c0.0263062,46.6074219,0.1052856,49.765625,1.4211426,56.1074219c1.7369385,8.2910156,6.0529785,15.6582031,11.2901001,19.2636719
			c2.2633057,1.5273438,4.973938,2.7636719,7.9478149,3.5273438c3.5791626,0.9472656,10.0795288,1.1835938,13.1849365,0.5
			c7.789917-1.6835938,14.8165894-6.3945312,22.6854858-15.2382812l1.6053467-1.7890625l14.7640381,8.2109375
			c8.1057129,4.5,14.7376709,8.3164062,14.7376709,8.421875c0,0.1308594-0.4211426,0.7890625-0.9737549,1.5
			c-11.5006104,15.1855469-24.6329346,24.1582031-39.949646,27.2128906
			c-3.6054688,0.7363281-4.5265503,0.8144531-10.3953247,0.8945312
			C1007.1432495,22473.1191406,1005.564209,22473.0664062,1003.0377808,22472.671875z"/>
		<path d="M699.3364258,22442.3808594v-30.5273438h-26.0540771h-26.0541382v-14.6074219v-14.6054688h26.0541382h26.0540771
			V22352.375v-30.2636719h16.0535278h16.0535278v30.1328125v30.1328125h26.0541382h26.0540771v14.8691406v14.8691406h-26.0540771
			h-26.0541382v30.3964844v30.3964844h-16.0535278h-16.0535278V22442.3808594z"/>
		<path d="M998.3006592,22356.8496094v-2.6308594h5.3950195h5.3950806v-15.7910156v-15.7910156h2.7633057h2.7633057v15.7910156
			v15.7910156h5.3950195h5.3950806v2.6308594v2.6308594h-13.5534058h-13.5534058V22356.8496094z"/>
		<path d="M1029.0919189,22341.0585938v-18.421875h2.6317139h2.6317139l0.0262451,12.9746094
			c0,11.2109375,0.0527344,12.84375,0.3685303,12.1582031c0.2104492-0.4199219,2.6317139-6.1054688,5.4212646-12.6308594
			c2.7633057-6.5019531,5.1845703-12.1328125,5.3687744-12.4746094c0.2894287-0.5800781,0.7631836,0.4472656,5.6318359,11.8417969
			c2.9212646,6.8691406,5.4213867,12.7109375,5.5529785,13.0019531c0.1315918,0.3144531,0.2369385-4.5019531,0.2369385-12.1601562
			l0.0262451-12.7109375h2.6317139h2.6317139v18.421875v18.421875h-2.815918l-2.8422852-0.0253906l-4.3948975-10.5800781
			c-2.4212646-5.8164062-4.8424072-11.6835938-5.3687744-13.0273438l-0.9737549-2.4726562l-0.8947754,2.3417969
			c-0.5,1.2636719-1.1315918,2.9746094-1.4211426,3.7636719c-0.2894287,0.7890625-2.3422852,5.6054688-4.5266113,10.6582031
			l-4.0001221,9.2109375l-2.973877,0.078125l-2.9475098,0.0800781V22341.0585938z"/>
		<path d="M528.8004761,22241.9746094V22220H800h271.1994629v21.9746094v21.9746094H800H528.8004761V22241.9746094z"/>
	</g>
</g>
<g id="ethica" class="st0 stack_icon">
	<g class="st1">
		<path class="st2" d="M0,56.2593422h158.3475037V60H0V56.2593422z"/>
		<path class="st3" d="M80.2484131,39.726059h-5.2493134c-1.5913315,0-2.3766556-0.7646637-2.3766556-2.3146591V22.8621101
			c0-2.1493263-0.5166702-3.8026543-1.5499954-4.9806499c-1.0333328-1.1779957-2.5419922-1.7773285-4.5466537-1.7773285
			c-1.5086594,0-2.6659927,0.2479992-3.4926567,0.7233315c-0.6331406,0.3436852-1.2287865,0.7523289-1.7773285,1.2193298
			c-0.3708611,0.2878647-0.7041321,0.6211338-0.991993,0.9919987c-0.4210396,0.574728-0.7942848,1.1829815-1.1159973,1.8186607
			V36.026741h2.9346542c0.4753304,0,0.7233315,0.2273331,0.7233315,0.6613312v2.3766556
			c0,0.4339981-0.2480011,0.6613312-0.7233315,0.6613312H51.5425072c-0.4753342,0-0.7233315-0.2273331-0.7233315-0.6613312
			v-2.3766594c0-0.4339981,0.2479973-0.6613312,0.7233315-0.6613312h3.0379944V3.7248373h-3.0379944
			c-0.4753342,0-0.7233315-0.2273326-0.7233315-0.6613314V0.6661801c0-0.4339985,0.2479973-0.6613312,0.7233315-0.6613312h6.9646454
			c0.3237953-0.0414506,0.6198883,0.1874336,0.661335,0.5112271c0.0063782,0.0498314,0.0063782,0.1002728,0,0.1501042v12.3379612
			c0.0026894,1.1268072-0.0732727,2.2524271-0.2273331,3.3686552h0.1033325
			c1.7979927-2.8313236,4.6913147-4.2573195,8.6386414-4.2573195c2.9553146,0,5.2493134,0.8679972,6.9233093,2.6039915
			s2.5006561,4.0713196,2.5419922,7.0266457v14.2806187h3.0999832c0.4753342,0,0.7233353,0.2273369,0.7233353,0.6613312v2.3766632
			C80.9717484,39.5193939,80.7237549,39.726059,80.2484131,39.726059z M48.4218483,37.4113998
			c-0.0049286-0.1894264-0.0870552-0.3686066-0.2273331-0.4959984l-1.3226624-1.7153282
			c-0.2893295-0.3719978-0.6199989-0.392662-0.9919968-0.0620003c-0.7026634,0.7026672-1.7566643,1.0540009-3.1619911,1.053997
			c-1.3639984,0-2.4799919-0.4546623-3.3273239-1.3846588c-0.8059959-0.9506683-1.2193298-2.3559914-1.2193298-4.195322V16.2281322
			h7.0266457c0.5166664,0,0.7646637-0.2479992,0.7646637-0.7233315v-2.2733259c0-0.4753332-0.2479973-0.7233315-0.7646637-0.7233315
			h-7.0266457V6.9281607c0-0.516665-0.2479973-0.7646642-0.7233315-0.7646642h-3.099987
			c-0.5166664,0-0.7646637,0.2479992-0.7646637,0.7646642v5.5799828h-3.0999928
			c-0.5166645,0-0.7646637,0.2479982-0.7646637,0.7233315v2.2733259c0,0.4753323,0.2479992,0.7233315,0.7646637,0.7233315h3.0999928
			v14.4872894c0,3.0586567,0.7646637,5.3939838,2.3146553,7.0266438c1.5913277,1.5913277,3.5959892,2.3766594,6.0346489,2.3766594
			c2.4799919,0,4.5259857-0.7233315,6.1379814-2.1493263C48.3185158,37.7420654,48.4218483,37.5560646,48.4218483,37.4113998z
			 M6.0346479,26.6854343h19.9226036c0.5166645,0,0.7646637-0.2479992,0.7646637-0.7233315v-0.434
			c0-4.0919857-1.0677738-7.3366432-3.2033234-9.7339697c-2.1493263-2.4593258-5.1046486-3.6855431-8.8659716-3.6786556
			c-3.7199888,0-6.8750896,1.2537737-9.4653034,3.761323c-2.5626588,2.4799919-3.8646548,5.8693142-3.8646548,10.1886349
			c0,4.2779865,1.2882183,7.6879749,3.8646548,10.2299671c2.6246581,2.541996,5.8693156,3.816433,9.7339706,3.8233223
			c1.6125736,0.0097122,3.2166271-0.2343826,4.7533188-0.7233315c1.3110867-0.3812637,2.5479717-0.982235,3.6579876-1.7773285
			c0.7916908-0.5597229,1.5317459-1.1891174,2.2113266-1.880661c0.3728981-0.370182,0.7054291-0.7789154,0.9919968-1.2193298
			c0.1478634-0.1681633,0.2415066-0.3770561,0.2686672-0.5993309c-0.0210342-0.2373848-0.1410675-0.4549446-0.3306675-0.5993271
			l-1.4879951-1.4879951c-0.3719997-0.2479992-0.7026634-0.2066669-0.9919968,0.1653328
			c-0.5579987,0.9299965-1.6326618,1.859993-3.2653236,2.8313255c-1.5913277,0.9506645-3.5133228,1.4466591-5.7453165,1.4466591
			s-4.2779865-0.826664-6.0759811-2.4799919C7.1299777,32.1000824,6.1793141,29.7440891,6.0346479,26.6854343z
			 M19.9639378,17.8194599c1.3226624,1.3639946,2.0459938,3.1826572,2.1493263,5.4766502H6.1379809
			c0.2893324-2.5006599,1.239996-4.381319,2.8313251-5.641983s3.4926558-1.880661,5.7039814-1.880661
			S18.6412754,16.4554634,19.9639378,17.8194599z M85.5804062,39.726059H96.141037
			c0.4753342,0,0.7233353-0.2273331,0.7233353-0.6613312v-2.3766594c0-0.4339981-0.2480011-0.6613312-0.7233353-0.6613312
			h-2.9346542V13.1694736c0.0414429-0.3237934-0.187439-0.6198807-0.5112305-0.6613302
			c-0.0498352-0.0063791-0.1002731-0.0063791-0.1501083,0h-6.9646378c-0.4753342,0-0.7233353,0.2273321-0.7233353,0.6613302
			v2.3766594c0,0.4339991,0.2480011,0.6613312,0.7233353,0.6613312h3.0379944v19.798605h-3.0379944
			c-0.4753342,0-0.7233353,0.2273331-0.7233353,0.6613312v2.3973274
			C84.8570709,39.5193939,85.1050644,39.726059,85.5804062,39.726059z M93.9297104,6.5354948
			c0.0088959-0.8381424-0.3363113-1.6411247-0.9506683-2.2113266c-0.5496826-0.6066959-1.3306503-0.9521258-2.1493225-0.9506636
			c-0.8381424-0.0088999-1.6411209,0.3363075-2.2113266,0.9506636c-0.5814133,0.5876966-0.9017181,1.3847337-0.8886642,2.2113266
			c-0.0205383,0.8097796,0.3022537,1.5904951,0.8886642,2.1493273c0.5876923,0.5814133,1.3847351,0.9017172,2.2113266,0.8886633
			c0.8097839,0.0205393,1.5904922-0.3022566,2.1493225-0.8886633C93.5978851,8.1439953,93.9458923,7.3571963,93.9297104,6.5354948z
			 M157.3555145,39.726059h-4.8153229c-1.5913239,0-2.3766479-0.7646637-2.3766479-2.3146591v-2.8313255h-0.1033325
			c-2.6866608,3.7199898-6.2826538,5.5799828-10.7879791,5.5799828c-2.6453247,0-4.8359833-0.6819954-6.5306396-2.04599
			c-1.6946564-1.4053268-2.5419922-3.2859917-2.5419922-5.641983c0-3.0173264,1.302002-5.228653,3.926651-6.6339817
			c2.6660004-1.4466629,6.2826538-2.1493263,10.8913116-2.1493263h4.6499786v-0.6613312
			c0-4.608654-2.3973236-6.9164257-7.1919708-6.9233131c-2.2526703,0-3.8646545,0.2273331-4.8773193,0.6613312
			c-0.7340393,0.2911034-1.4515686,0.6222668-2.1493378,0.9919987c-0.4133301,0.2479973-0.7233276,0.4546642-0.9506531,0.5993309
			c-0.5580139,0.4339981-0.9506683,0.4753323-1.2193451,0.1033325l-1.5499878-1.9426594
			c-0.2480011-0.2893333-0.2273254-0.5993328,0.1033325-0.8886652c0.6199951-0.8059978,1.9219818-1.6119957,3.8646545-2.3766594
			s4.257309-1.1573296,6.9233093-1.1573296c7.7499847,0,11.621521,3.685545,11.6146393,11.056632V35.985405h3.0999908
			c0.3237915-0.0414505,0.6198883,0.1874352,0.6613312,0.5112305c0.0063782,0.0498314,0.0063782,0.1002693,0,0.1501007v2.4179916
			C158.0168457,39.5193939,157.789505,39.726059,157.3555145,39.726059z M149.6675262,27.016098h-4.3606415
			c-1.7763367-0.0276909-3.5521393,0.0828629-5.3113251,0.3306675c-1.2989807,0.1806526-2.533783,0.6774063-3.595993,1.446661
			c-0.9456024,0.7187405-1.4847107,1.8508396-1.4466553,3.0379906c-0.0159912,1.2521439,0.558197,2.4388123,1.5499878,3.2033234
			c1.0746765,0.8059959,2.4593353,1.2193298,4.1539917,1.2193298c3.5753174,0,6.5926514-1.5913277,9.0106354-4.7533207V27.016098
			L149.6675262,27.016098z M115.0716476,20.1547871l0.6819992-2.293993c0.0881958-0.2774925,0.382019-0.433588,0.6613312-0.3513317
			c0,0,1.9839859,0.5993309,4.3399887,1.3019962c-0.3120728-0.3493423-0.6506271-0.6740837-1.0126724-0.9713287
			c-1.4673233-1.2193298-3.3479919-1.8186626-5.6419754-1.8186626c-2.2526703,0-4.3193283,0.9093304-6.1999817,2.707325
			c-1.880661,1.7979946-2.8313293,4.2779865-2.8313293,7.4193096c0,3.0999889,0.9300003,5.5799828,2.7693329,7.4193077
			c1.8393326,1.7979927,3.9059906,2.7073288,6.1999741,2.7073288c2.2939911,0,4.2159958-0.4753342,5.807312-1.4466629
			c1.6326675-0.9920006,2.7073212-1.9633293,3.2653198-2.8726578c0.2480011-0.434,0.5786667-0.4959965,0.9506607-0.1653328
			l1.6119919,1.5499954c0.1899948,0.1254196,0.3118896,0.3311157,0.330658,0.5579987
			c-0.0308609,0.2399635-0.123436,0.467823-0.2686615,0.6613274c-0.3062744,0.4433022-0.659668,0.8521309-1.0539932,1.2193298
			c-0.6795807,0.6915436-1.4196396,1.3209381-2.2113266,1.880661c-0.9299927,0.7026634-2.1493301,1.2813301-3.6579895,1.7773285
			c-1.5366898,0.488945-3.1407471,0.7330437-4.7533188,0.7233315c-3.8646469,0-7.109314-1.274437-9.7339706-3.8233185
			c-2.5833282-2.541996-3.8715439-5.9519844-3.8646545-10.2299709c0-4.3193188,1.2882156-7.7155304,3.8646545-10.1886349
			c2.6246567-2.500658,5.8142014-3.7544317,9.5686417-3.7613211c3.7544327-0.0068884,6.5926361,1.3571081,8.5146408,4.0919886
			h0.0619965l-0.0619965-3.0379906c0-0.4753323,0.2480011-0.7233305,0.7233276-0.7233305h2.1080017
			c0.4339905,0,0.6613312,0.2479982,0.6613312,0.7233305v7.522644c-0.0037842,0.0908089-0.017662,0.1809177-0.0413361,0.2686653
			c-0.0241394,0.1906033-0.1031189,0.3700924-0.2273254,0.5166664c-0.0422058,0.0600948-0.0907059,0.1155186-0.1446686,0.1653328
			c-0.0512619,0.0462246-0.1065979,0.0877247-0.165329,0.1239986c-0.3720016,0.3099995-0.8473282,0.7026653-1.3846664,1.1159973
			c-0.3926697,0.2893333-0.8060074,0.2893333-1.6119919,0l-6.8819809-2.0666599
			C115.1550369,20.7564793,114.9929123,20.4502392,115.0716476,20.1547871z"/>
	</g>
</g>
<g id="helsinki" class="st0 stack_icon">
	<path class="st1" d="M140.97052,3.7311287v34.5291176c-0.0646973,6.642704-5.4780884,11.991375-12.1423492,11.9482384H91.9266663
		C87.5269547,50.1869164,83.2782135,51.8260269,80,54.780735c-3.2782211-2.9547081-7.5269547-4.5722504-11.9266663-4.5722504
		H31.0639915c-6.6211338,0.0215683-12.0129375-5.3271027-12.0345039-11.9482384V3.7311287H140.97052z M81.962616,58.0805206
		c2.6312027-2.6527672,6.2329254-4.1409073,9.9640579-4.1193428h36.9230576
		c8.7131653,0.0431366,15.8087769-6.9877777,15.8519135-15.6793671V0H15.2983589v38.2602425
		c0.0215673,8.6915894,7.0740471,15.7009354,15.7656326,15.6793671h37.0093422
		c3.7311249-0.0215683,7.3112869,1.466568,9.9640579,4.119339L79.9784393,60L81.962616,58.0805206z M126.7792892,19.4536304
		c0.0431366,1.1430645-0.8626862,2.1135883-2.0057449,2.156723c-1.1430588,0.0431328-2.1135864-0.86269-2.156723-2.0057526
		s0.8626862-2.1135883,2.0057526-2.1567211c0.0215683,0,0.0431366,0,0.0862656,0
		c1.0999298-0.0431347,2.0273132,0.7979851,2.0704498,1.8979149
		C126.7792892,19.3889294,126.7792892,19.4320641,126.7792892,19.4536304 M122.8971863,35.7800179h3.6017227v-12.789362h-3.6017303
		v12.789362H122.8971863z M116.4485931,28.0589523l4.7016449,7.7210655h-3.9036636l-3.1488113-5.1114311l-1.7038116,2.156723
		v2.9762764h-3.580162v-18.396841h3.580162v8.4759159c0,1.5744076-0.1725388,3.1488152-0.1725388,3.1488152h0.0862732
		c0,0,0.8411179-1.4018688,1.5528412-2.393961l2.7390366-3.6448593h4.1840363L116.4485931,28.0589523z M105.190506,27.5844727
		c0-3.1703796-1.5528488-4.8957577-4.0115051-4.8957577c-1.6391144-0.0215664-3.148819,0.9273911-3.8389587,2.4370975h-0.0862732
		l0.1725388-2.1135883h-3.580162v12.789362h3.580162v-7.6132298c0-1.4665718,0.8626862-2.4802303,2.1998596-2.4802303
		c1.3371658,0,1.9410477,0.8842564,1.9410477,2.5880661v7.4838257h3.6017227L105.190506,27.5844727z M90.43853,19.4536304
		c0.0431366,1.1430645-0.8626862,2.1135883-2.0057449,2.156723c-1.1430664,0.0431328-2.1135864-0.86269-2.156723-2.0057526
		s0.8626862-2.1135883,2.0057449-2.1567211c0.0215683,0,0.0431366,0,0.0862656,0
		c1.0999298-0.0431347,2.0273209,0.7979851,2.0704575,1.8979149C90.43853,19.3889294,90.43853,19.4320641,90.43853,19.4536304
		 M86.5564346,35.7800179h3.6017227v-12.789362h-3.6017227V35.7800179z M80.3666458,32.2214241
		c0-1.0136566-1.423439-1.2508984-3.0625458-1.7038078c-1.9410477-0.4960461-4.3350143-1.4665718-4.3350143-3.9036655
		s2.3076935-3.9252357,5.04673-3.9252357c2.5449295,0,4.852623,1.2077637,5.8662796,2.9115753l-3.0625458,1.725378
		c-0.3019409-1.2077656-1.4018707-2.0704536-2.6743317-2.027319c-0.9058228,0-1.6822433,0.4097767-1.6822433,1.1430626
		c0,0.9705257,1.6822433,1.0783634,3.580162,1.6822414c2.0057449,0.6254482,3.8389587,1.5528393,3.8389587,3.8820992
		c0,2.5664978-2.393959,4.0762024-5.1545563,4.0762024c-2.9978485,0-5.348671-1.2724648-6.4054718-3.2997856l3.1272507-1.7469444
		c0.3666458,1.4665718,1.703804,2.4802322,3.2135086,2.4370956C79.6333542,33.4507561,80.3666458,33.019413,80.3666458,32.2214241
		 M68.7850494,17.5341492h-3.6017227v14.7088432c0,1.3156013,0.2803726,2.2861252,0.8411179,2.8900032
		c0.5607452,0.6038818,1.466568,0.9058228,2.6959,0.9058228c0.4313431,0,0.8626938-0.0431328,1.2940369-0.1509705
		c0.3666382-0.0647011,0.733284-0.1941032,1.0783615-0.3882103l0.3019409-2.4370956
		c-0.2372437,0.0862694-0.4960403,0.1509705-0.7548523,0.2156715c-0.2372437,0.0431366-0.496048,0.0647049-0.7548523,0.0647049
		c-0.3235092,0.0431328-0.6470184-0.0862694-0.8411179-0.3450775c-0.2156754-0.3882103-0.3019409-0.8195572-0.258812-1.2724648
		V17.5341492z M56.7936783,25.2983475c-1.3156013,0-2.3939629,0.9489574-2.6743355,2.6959019h5.0467262
		C59.1876373,26.4414101,58.2171135,25.2983475,56.7936783,25.2983475 M62.3364525,30.3666439H54.07621
		c0.1509705,2.09202,1.3156013,3.1056767,2.8253059,3.1056767c1.229332,0.0215683,2.3076897-0.8842545,2.4586601-2.1135864
		l3.0194092,1.7038078c-1.1214943,1.9410515-3.2350807,3.1056786-5.4780693,3.0409813
		c-3.5801582,0-6.1897888-2.4802322-6.1897888-6.7074089s2.6743317-6.7074032,6.1250877-6.7074032
		c3.4507523,0,5.7153091,2.4370956,5.7153091,5.9094181C62.5305557,29.2020149,62.4658546,29.7843285,62.3364525,30.3666439
		 M44.306263,35.7800179h3.7311287V18.2242985H44.306263v6.944643h-7.009346v-6.944643h-3.7311287v17.5557194h3.7311287v-7.2897224
		h7.009346V35.7800179z"/>
</g>
<g id="oph" class="st0 stack_icon">
	<g class="st1">
		<path d="M160,32.0750504v-5.6240387h-0.6035614v4.4992294l-2.9903412-4.4992294h-0.5624084v5.6240387h0.6035614v-4.5266666
			l2.9903564,4.5129452H160V32.0750504z M153.9918976,32.0750504v-0.5486889H151.09758v-2.0301399h2.4690857v-0.5349693H151.09758
			v-1.9889889h2.8943176V26.437294h-3.497879v5.6240387h3.497879V32.0750504z M148.6559143,30.5250092
			c0-0.466383-0.1645966-0.8504639-0.4801025-1.1110916c-0.2331848-0.2057571-0.4938202-0.3154964-1.0287933-0.3977966
			l-0.6172638-0.0960197c-0.2880707-0.041153-0.5898438-0.1646061-0.7544556-0.3017788
			c-0.1783295-0.1508884-0.2469177-0.3703613-0.2469177-0.6447048c0-0.630991,0.4389496-1.0425053,1.1796875-1.0425053
			c0.5898438,0,0.9601898,0.1646042,1.3168335,0.4801006l0.3840942-0.3840809
			c-0.4801025-0.4389496-0.9602051-0.6172733-1.6734924-0.6172733c-1.111084,0-1.7969513,0.630991-1.7969513,1.5911922
			c0,0.4526672,0.1371765,0.7955952,0.4252319,1.056221c0.2469177,0.2194748,0.5898438,0.3566475,1.0287933,0.4252338
			l0.658432,0.0960197c0.4115143,0.0685844,0.5486908,0.1097374,0.7407227,0.2743435
			c0.1783295,0.1646042,0.274353,0.4115143,0.274353,0.6995754c0,0.6584244-0.5075378,1.0425053-1.3305664,1.0425053
			c-0.6309814,0-1.0699463-0.1508904-1.5363159-0.6172714l-0.4115143,0.4115143
			c0.5349731,0.5349674,1.0836639,0.7407246,1.9341125,0.7407246
			C147.8740234,32.1161995,148.6559143,31.5126438,148.6559143,30.5250092 M143.9371948,32.0750504v-0.5486889h-2.8806v-5.0890694
			h-0.6035614v5.6240368h3.4841614V32.0750504z M138.6149445,32.0750504v-0.5486889h-2.8943176v-2.0301399h2.4690857v-0.5349693
			h-2.4690857v-1.9889889h2.8943176V26.437294h-3.497879v5.6240387h3.497879V32.0750504z M132.5656586,28.0147667
			c0,0.6858578-0.4663849,1.0287876-1.1248016,1.0287876h-1.5088959v-2.0575752h1.5088959
			C132.0992889,26.9722633,132.5656586,27.3289089,132.5656586,28.0147667 M133.2789612,32.0750504l-1.3305664-2.5513954
			c0.727005-0.1508904,1.2208252-0.6858578,1.2208252-1.5088882c0-0.9739189-0.6858521-1.563755-1.6734924-1.563755h-2.153595
			v5.6240387h0.6035614v-2.4965248h1.3580017l1.2756958,2.4965248H133.2789612z M127.8743973,26.4372921h-0.6447067
			l-1.3168488,2.702282l-1.3305664-2.702282h-0.6447067l1.6735001,3.3058376v2.3319206h0.6035538v-2.3319206L127.8743973,26.4372921
			z M122.922493,26.9722633V26.437294h-3.8545227v0.5349693h1.6323471v5.102787h0.6035614v-5.0890713h1.6186142V26.9722633z
			 M118.1900711,30.5250092c0-0.466383-0.1646042-0.8504639-0.4801025-1.1110916
			c-0.2331924-0.2057571-0.4938126-0.3154964-1.0287857-0.3977966l-0.6172714-0.0960197
			c-0.2880554-0.041153-0.5898361-0.1646061-0.7544479-0.3017788c-0.1783218-0.1508884-0.2469025-0.3703613-0.2469025-0.6447048
			c0-0.630991,0.4389496-1.0425053,1.1796722-1.0425053c0.5898361,0,0.9601974,0.1646042,1.3168411,0.4801006l0.384079-0.3840809
			c-0.4800949-0.4389496-0.9601974-0.6172733-1.6734924-0.6172733c-1.1110916,0-1.7969437,0.630991-1.7969437,1.5911922
			c0,0.4526672,0.1371689,0.7955952,0.4252243,1.056221c0.2469101,0.2194748,0.5898361,0.3566475,1.0287857,0.4252338
			l0.6584244,0.0960197c0.4115143,0.0685844,0.5486908,0.1097374,0.7407303,0.2743435
			c0.1783218,0.1646042,0.2743454,0.4115143,0.2743454,0.6995754c0,0.6584244-0.5075378,1.0425053-1.3305664,1.0425053
			c-0.6309891,0-1.0699387-0.1508904-1.5363235-0.6172714l-0.4115143,0.4115143
			c0.5349731,0.5349674,1.0836563,0.7407246,1.9341125,0.7407246
			C117.4081879,32.1161995,118.1900711,31.5126438,118.1900711,30.5250092 M113.0735703,30.5250092
			c0-0.466383-0.1646118-0.8504639-0.4801025-1.1110916c-0.2331924-0.2057571-0.4938126-0.3154964-1.0287857-0.3977966
			l-0.6172714-0.0960197c-0.288063-0.041153-0.5898361-0.1646061-0.7544479-0.3017788
			c-0.1783218-0.1508884-0.2469101-0.3703613-0.2469101-0.6447048c0-0.630991,0.4389572-1.0425053,1.1796799-1.0425053
			c0.5898361,0,0.9601974,0.1646042,1.3168411,0.4801006l0.384079-0.3840809
			c-0.4801025-0.4389496-0.9601974-0.6172733-1.6734924-0.6172733c-1.1110916,0-1.7969513,0.630991-1.7969513,1.5911922
			c0,0.4526672,0.1371765,0.7955952,0.4252319,1.056221c0.2469101,0.2194748,0.5898361,0.3566475,1.0287857,0.4252338
			l0.6584244,0.0960197c0.4115143,0.0685844,0.5486832,0.1097374,0.7407303,0.2743435
			c0.1783218,0.1646042,0.2743454,0.4115143,0.2743454,0.6995754c0,0.6584244-0.5075378,1.0425053-1.3305664,1.0425053
			c-0.6309891,0-1.0699387-0.1508904-1.5363312-0.6172714l-0.4115143,0.4115143
			c0.5349731,0.5349674,1.0836639,0.7407246,1.9341202,0.7407246
			C112.291687,32.1161995,113.0735703,31.5126438,113.0735703,30.5250092 M107.682724,30.0174732v-0.8916149h-1.9889908v0.5349674
			h1.3854294v0.4252338c0,0.4389496-0.0822983,0.7407265-0.3154907,1.01507
			c-0.2606277,0.3154945-0.6584244,0.4801006-1.0699387,0.4801006c-0.3703613,0-0.727005-0.1371727-0.9739151-0.3977966
			c-0.3566437-0.3703632-0.3978043-0.7544441-0.3978043-1.9341221c0-1.1796761,0.041153-1.563755,0.3978043-1.9204025
			c0.2469101-0.2469101,0.6035614-0.3977966,0.9739151-0.3977966c0.6995697,0,1.2071075,0.4389477,1.3717194,1.1522408h0.6035538
			c-0.1646042-0.9876366-0.8916092-1.687212-1.9752731-1.687212c-0.5624008,0-1.056221,0.2057571-1.4403,0.589838
			c-0.5349731,0.5349693-0.5349731,1.0836563-0.5349731,2.27705s0,1.7420807,0.5349731,2.27705
			c0.384079,0.3840809,0.8916168,0.589838,1.4403,0.589838c0.5761261,0,1.1110916-0.2194748,1.5088882-0.6447048
			C107.5455551,31.1011295,107.682724,30.6621799,107.682724,30.0174732 M101.7294693,32.0750504v-5.6240387h-0.6035614v4.4992294
			l-2.9903412-4.4992294h-0.5624008v5.6240387h0.6035614v-4.5266666l2.9903412,4.5129452h0.5624008V32.0750504z
			 M95.3509827,26.4372921h-0.6035538v5.6240368h0.6035538V26.4372921z M92.5252533,32.0750504v-5.6240387h-0.6035614v4.4992294
			l-2.9903412-4.512949h-0.5624008v5.6240368h0.6035614v-4.5129452l2.9766159,4.5266666H92.5252533z M85.7626877,29.1944447
			c0,0.6858578,0.0137177,1.5226059-0.3703613,1.9341202c-0.288063,0.3017769-0.6721497,0.4115143-1.1110916,0.4115143h-1.2208328
			V26.985981h1.2208328c0.4389496,0,0.8093185,0.1097374,1.1110916,0.4115162
			C85.7764053,27.7952938,85.7626877,28.508585,85.7626877,29.1944447 M86.3525238,29.1944447
			c0-0.7818794,0.0274353-1.6460609-0.5486832-2.235899c-0.3429337-0.3429298-0.8367462-0.5212536-1.42659-0.5212536h-1.9341202
			v5.6240368h1.9341202c0.5898361,0,1.0836563-0.1783218,1.42659-0.5212517
			C86.3936768,30.9639568,86.3525238,29.9763222,86.3525238,29.1944447 M80.8107834,32.0750504v-0.5486889h-2.8806v-5.0890694
			H77.326622v5.6240368h3.4841614V32.0750504z M75.1044464,26.4372921H74.500885v5.6240368h0.6035614V26.4372921z
			 M71.8946228,30.4975739c0,0.630991-0.4389496,1.0287876-1.1248093,1.0287876H69.23349v-2.0575752h1.5363235
			C71.4693985,29.4687862,71.8946228,29.8665848,71.8946228,30.4975739 M71.8123245,27.9461803
			c0,0.6721401-0.4801025,0.9739208-1.111084,0.9739208h-1.4677429v-1.9478378h1.4677429
			C71.332222,26.9722633,71.8123245,27.2740402,71.8123245,27.9461803 M72.4981842,30.5112934
			c0-0.672142-0.384079-1.1385269-0.9190521-1.3305664c0.4801025-0.1783218,0.8367462-0.6447048,0.8367462-1.2345448
			c0-0.9464836-0.6858597-1.5088882-1.6597748-1.5088882h-2.1261597v5.6240387h2.1947403
			C71.8123245,32.0750504,72.4981842,31.5263615,72.4981842,30.5112934 M66.9838791,26.9722633V26.437294h-3.8545227v0.5349693
			h1.6323395v5.102787h0.6035538v-5.0890713h1.6186295V26.9722633z M61.5655975,30.2095127v-3.7722206h-0.6035538v3.7173538
			c0,0.8504639-0.548687,1.4128685-1.3717155,1.4128685c-0.8230324,0-1.3580017-0.5624046-1.3580017-1.4128685v-3.7173538
			h-0.6035538v3.7722206c0,1.1248074,0.8230324,1.9066868,1.9615555,1.9066868S61.5655975,31.334322,61.5655975,30.2095127"/>
		<path d="M129.4107208,18.9202881c0-0.466383-0.1646118-0.8504639-0.4801025-1.1110916
			c-0.2332001-0.2057571-0.4938202-0.3154945-1.0287933-0.3977985l-0.6172714-0.0960197
			c-0.2880554-0.041151-0.5898361-0.1646042-0.7544479-0.3017769c-0.1783218-0.1508884-0.2469025-0.3703632-0.2469025-0.6447067
			c0-0.6309891,0.4389496-1.0425034,1.1796722-1.0425034c0.5898285,0,0.9602051,0.1646051,1.3168488,0.4801006l0.384079-0.3840809
			c-0.4801025-0.4389496-0.9602051-0.6172724-1.6735001-0.6172724c-1.1110916,0-1.7969437,0.6309891-1.7969437,1.5911913
			c0,0.4526653,0.1371689,0.7955952,0.4252243,1.056221c0.2469101,0.2194748,0.5898361,0.3566456,1.0287933,0.4252319
			l0.6584167,0.0960197c0.4115219,0.0685844,0.5486832,0.1097374,0.7407303,0.2743435
			c0.1783295,0.1646042,0.274353,0.4115143,0.274353,0.6995754c0,0.6584244-0.5075378,1.0425053-1.330574,1.0425053
			c-0.6309891,0-1.0699387-0.1508884-1.5363235-0.6172714l-0.4115143,0.4115143
			c0.5349731,0.5349693,1.0836563,0.7407265,1.9341125,0.7407265
			C128.6425629,20.5251961,129.4107208,19.9079227,129.4107208,18.9202881 M123.8826981,18.6185093v-3.7722216h-0.6035614v3.7173529
			c0,0.8504639-0.5486832,1.4128685-1.3717117,1.4128685c-0.8230362,0-1.3580093-0.5624046-1.3580093-1.4128685v-3.7173519
			h-0.6035538v3.7722206c0,1.1248055,0.8230286,1.9066849,1.9615479,1.9066849
			C123.0459518,20.5251961,123.8826981,19.7433186,123.8826981,18.6185093 M118.3821182,15.381259v-0.5349703h-3.8545227v0.5349703
			h1.6323471v5.0890665h0.6035538V15.381258C116.7634964,15.381258,118.3821182,15.381258,118.3821182,15.381259z
			 M112.8815231,14.8462887h-0.6035538v5.6240368h0.6035538V14.8462887z M110.6319122,20.4703255V19.935358h-2.8806v-5.0890694
			h-0.6035614v5.6240368H110.6319122z M105.5154114,20.4703255V19.935358h-2.8806076v-5.0890694H102.03125v5.6240368H105.5154114z
			 M99.260376,18.673378h-2.0987244l1.0562286-2.9766245L99.260376,18.673378z M100.5360718,20.4703255l-2.0575714-5.6240377
			h-0.5075378l-2.0712891,5.6240377h0.6447067l0.4526672-1.2756958h2.4553757l0.4526672,1.2756958H100.5360718z
			 M94.3907852,20.4703255v-5.6240377h-0.6035614v2.5239592h-2.6748505v-2.5239592h-0.6035538v5.6240377h0.6035538v-2.5651093
			h2.6748505v2.5651093H94.3907852z M88.670723,18.9202881c0-0.466383-0.1646118-0.8504639-0.4801025-1.1110916
			c-0.2331924-0.2057571-0.4938126-0.3154945-1.0287857-0.3977985l-0.6172714-0.0960197
			c-0.288063-0.041151-0.5898361-0.1646042-0.7544479-0.3017769c-0.1646042-0.1371708-0.2469101-0.3703632-0.2469101-0.6447067
			c0-0.6309891,0.4389572-1.0425034,1.1796799-1.0425034c0.5898361,0,0.9601974,0.1646051,1.3168411,0.4801006l0.384079-0.3840809
			c-0.4801025-0.4389496-0.9602051-0.6172724-1.6734924-0.6172724c-1.1110916,0-1.7969513,0.6309891-1.7969513,1.5911913
			c0,0.4526653,0.1371765,0.7955952,0.4252319,1.056221c0.2469101,0.2194748,0.5898361,0.3566456,1.0287857,0.4252319
			l0.6584244,0.0960197c0.4115143,0.0685844,0.5486832,0.1097374,0.7407303,0.2743435
			c0.1783218,0.1646042,0.2743454,0.4115143,0.2743454,0.6995754c0,0.6584244-0.5075378,1.0425053-1.3305664,1.0425053
			c-0.6309891,0-1.0699387-0.1508884-1.5363312-0.6172714l-0.4115143,0.4115143
			c0.5349731,0.5349693,1.0836639,0.7407265,1.9341202,0.7407265C87.8888474,20.5251961,88.670723,19.9079227,88.670723,18.9202881
			 M83.1289902,18.6185093v-3.7722216h-0.6035614v3.7173529c0,0.8504639-0.5486832,1.4128685-1.3717117,1.4128685
			c-0.8230362,0-1.3580093-0.5624046-1.3580093-1.4128685v-3.7173519h-0.6035538v3.7722206
			c0,1.1248055,0.8230286,1.9066849,1.9615555,1.9066849C82.3059616,20.5251961,83.1289902,19.7433186,83.1289902,18.6185093
			 M77.6421204,15.381259v-0.5349703h-3.8545227v0.5349703h1.6323471v5.0890665h0.6035614V15.381258
			C76.0235062,15.381258,77.6421204,15.381258,77.6421204,15.381259z M72.5118942,20.4703255V19.935358h-2.8943176v-2.0301418
			h2.4690857v-0.5349693H69.617569V15.381258h2.8943176v-0.5349703h-3.497879v5.6240377H72.5118942z M66.6820984,16.4923496
			c0,0.7407265-0.4938202,1.1248055-1.1933899,1.1248055h-1.4403076V15.381259h1.4403076
			C66.1882858,15.381259,66.6820984,15.7516222,66.6820984,16.4923496 M67.2856598,16.4923496
			c0-1.0150709-0.713295-1.6460609-1.7420807-1.6460609h-2.0987282v5.6240368h0.6035576v-2.3181992h1.4951706
			C66.5723648,18.1521263,67.2856598,17.5074196,67.2856598,16.4923496 M60.8385887,17.658308
			c0,1.1796761-0.0411491,1.5637569-0.3977966,1.9204025c-0.2469063,0.2469082-0.6035538,0.3977966-0.9739189,0.3977966
			s-0.7270088-0.1508904-0.9739189-0.3977966c-0.3566475-0.3703632-0.3977966-0.7407265-0.3977966-1.9204044
			c0-1.1796761,0.0411491-1.5637569,0.3977966-1.9204025c0.2469063-0.2469091,0.6035538-0.3977976,0.9739189-0.3977976
			s0.7270088,0.1508884,0.9739189,0.3977976C60.7974358,16.1082687,60.8385887,16.478632,60.8385887,17.658308
			 M61.4421463,17.658308c0-1.1933937,0-1.7420797-0.5349693-2.2770491c-0.384079-0.3840809-0.8778992-0.589839-1.4403038-0.589839
			s-1.0562248,0.2057581-1.4403038,0.589839C57.4916,15.9162283,57.4916,16.4649143,57.4916,17.658308
			s0,1.7420807,0.5349693,2.27705c0.384079,0.3840809,0.8778992,0.589838,1.4403038,0.589838
			s1.0562248-0.2057571,1.4403038-0.589838C61.4421463,19.4003887,61.4421463,18.8517017,61.4421463,17.658308"/>
		<path class="st4" d="M13.1165562,13.0081882c3.5527477-7.1466427,8.8887272-13.3879528,5.3496971-12.9901543
			c-1.892971,0.2194747-3.8545256,0.8230299-5.774929,1.7832315c0.8230305-0.3977977,1.6597776-0.7407269,2.5239592-1.0287874
			c0,0-7.3524022,3.0314937-10.1095524,11.6733074c1.0150704-0.9876356,2.2221813-1.9341202,3.6350493-2.8394547
			c6.1041412-3.8682404-0.1097364,3.8545237-1.4677367,13.6485806c1.2208276-1.5774746,2.7708678-4.0465641,4.5403819-6.7351284
			C12.1426363,15.2852383,12.5815868,14.0918446,13.1165562,13.0081882 M32.3617439,12.0205536
			c-1.4265823-0.4115152-2.9080372,0.4252319-4.389492,2.0164223c-0.5212536,1.2756968-1.0699406,2.7297173-1.6323433,4.3757744
			c-2.3730698,6.8997345-5.3359776,19.670414-9.6568871,18.0929413c-0.3703632-0.1371727-0.7407274-0.3154945-1.0699396-0.5349693
			c-0.6447067,1.0699387-1.2482624,1.9204025-1.7969494,2.4416542c-0.4115143,0.3977966-0.9602013,0.8093109-1.6323433,1.1110916
			c8.2028666,8.0656929,23.3054695,7.7364807,22.4412918-2.3044815
			c-1.0562248-12.2768631-0.9464836-17.2424774-0.8504639-24.6223125
			C33.3356628,12.3360472,32.8692818,12.1440067,32.3617439,12.0205536 M46.2023697,22.3770123
			c-0.0137177-1.7009277-0.2057571-3.4292908-0.6035576-5.1439362c-1.4265823-6.2550268-6.9271698-13.6348629-10.0135307-13.1547623
			c-0.6447067,0.0960202-1.7832336,0.3154945-3.3332748,2.1398773c0.5624046,0.6995754,1.1248093,1.4540195,1.7009277,2.2633328
			c1.1385269-11.2892284,8.0245476,2.784585,9.8489304,14.7459517c0.3292122,0.2606258,0.6172714,0.3840809,0.9876366,0.466383
			C45.9828949,23.9682026,46.1749344,22.6102047,46.2023697,22.3770123"/>
		<path class="st5" d="M29.151926,3.1866982C18.6994438-3.1780665,5.3937898,32.596302,4.3924365,23.5978394
			C1.8273257,6.2730608,15.2015657,0.7861944,15.2015657,0.7861944C6.6009007,3.6256475-0.1616639,12.3634825,0.0029422,22.4593143
			C0.153831,32.6100159,5.8190222,38.4260941,7.8628802,39.4274445c2.5788283,1.2756958,4.8421617,0.0685883,5.9532514-1.0287857
			c4.2797585-4.0739975,12.0299587-28.2573624,18.5456123-26.378109c7.2975388,1.7420797,6.3373337,17.1464577,6.6802635,20.0956459
			c0.6995773,5.8846664,2.3456383,5.1850891,4.6364021,0.8641815c1.5363235-2.8943214,2.5376778-6.2413101,2.5102425-10.6308022
			c0,0-0.1097374,1.646059-1.4265862,1.3717155c-1.1796761-0.2469082-1.6186256-0.9190483-4.595253-5.5828857
			C37.0530167,13.268815,32.2931595,5.1071014,29.151926,3.1866982"/>
	</g>
</g>
<g id="tieteentekijat" class="st0 stack_icon">
	<g class="st1">
		<path class="st6" d="M45.3438759,24.2488117c-0.0700798-0.0700817-0.0700798-0.1401653-0.0700798-0.2803326v-7.1484947h-2.4529152
			c-0.0700836,0-0.2102509,0-0.2803345-0.0700817c-0.0700836-0.0700836-0.0700836-0.1401672-0.0700836-0.2803345v-1.5418329
			c0-0.0700836,0-0.2102489,0.0700836-0.2803326s0.1401634-0.0700836,0.2803345-0.0700836h7.498909
			c0.0700798,0,0.2102509,0,0.2803345,0.0700836c0.0700798,0.0700836,0.0700798,0.1401672,0.0700798,0.2803326v1.5418329
			c0,0.0700817,0,0.2102489-0.0700798,0.2803345c-0.0700836,0.0700817-0.1401672,0.0700817-0.2803345,0.0700817h-2.4529152
			v7.1484947c0,0.0700817,0,0.2102489-0.0700836,0.2803326c-0.0700798,0.0700836-0.1401634,0.0700836-0.2803345,0.0700836
			h-1.9623337C45.4840431,24.3188953,45.4139595,24.3188953,45.3438759,24.2488117"/>
		<path class="st6" d="M52.0017891,24.1787281c-0.0700836-0.0700817-0.0700836-0.1401672-0.0700836-0.2102489v-9.0407429
			c0-0.0700827,0-0.2102489,0.0700836-0.2803326c0.0700798-0.0700836,0.1401634-0.0700836,0.2102509-0.0700836h1.9623337
			c0.0700836,0,0.2102509,0,0.2803345,0.0700836s0.0700836,0.1401672,0.0700836,0.2803326v9.0407429
			c0,0.0700817,0,0.1401672-0.0700836,0.2102489s-0.1401634,0.0700817-0.2803345,0.0700817h-1.9623337
			C52.1419525,24.3188953,52.0718689,24.2488117,52.0017891,24.1787281"/>
		<path class="st6" d="M56.6272812,24.1787281c-0.0700798-0.0700817-0.0700798-0.1401672-0.0700798-0.2102489v-9.0407429
			c0-0.0700827,0-0.2102489,0.0700798-0.2803326c0.0700836-0.0700836,0.1401672-0.0700836,0.2803345-0.0700836h6.5878296
			c0.0700836,0,0.2102509,0,0.2803345,0.0700836s0.0700836,0.1401672,0.0700836,0.2803326v1.4016647
			c0,0.0700817,0,0.2102489-0.0700836,0.2803345c-0.0700836,0.0700817-0.1401634,0.0700817-0.2803345,0.0700817h-4.4152489
			v1.7520809h4.0648308c0.0700836,0,0.2102547,0,0.2803345,0.0700836c0.0700836,0.0700817,0.0700836,0.1401672,0.0700836,0.2803345
			v1.2614975c0,0.0700817,0,0.2102489-0.0700836,0.2803345c-0.0700798,0.0700817-0.1401634,0.0700817-0.2803345,0.0700817
			h-4.0648308v1.8221645h4.4853325c0.0700798,0,0.2102509,0,0.2803345,0.0700817
			c0.0700798,0.0700817,0.0700798,0.1401672,0.0700798,0.2803345v1.4016647c0,0.0700817,0,0.2102489-0.0700798,0.2803345
			c-0.0700836,0.0700817-0.1401672,0.0700817-0.2803345,0.0700817h-6.6579132
			C56.7674484,24.3188953,56.6973648,24.2488117,56.6272812,24.1787281"/>
		<path class="st6" d="M67.9807739,24.2488117c-0.0700836-0.0700817-0.0700836-0.1401653-0.0700836-0.2803326v-7.1484947h-2.452919
			c-0.070076,0-0.2102509,0-0.2803345-0.0700817c-0.070076-0.0700836-0.070076-0.1401672-0.070076-0.2803345v-1.5418329
			c0-0.0700836,0-0.2102489,0.070076-0.2803326c0.0700836-0.0700836,0.1401672-0.0700836,0.2803345-0.0700836h7.5690002
			c0.070076,0,0.2102509,0,0.2803345,0.0700836c0.070076,0.0700836,0.070076,0.1401672,0.070076,0.2803326v1.5418329
			c0,0.0700817,0,0.2102489-0.070076,0.2803345c-0.0700836,0.0700817-0.1401672,0.0700817-0.2803345,0.0700817h-2.452919v7.1484947
			c0,0.0700817,0,0.2102489-0.0700836,0.2803326c-0.070076,0.0700836-0.1401596,0.0700836-0.2803345,0.0700836h-1.9623337
			C68.1209412,24.3188953,68.0508575,24.3188953,67.9807739,24.2488117"/>
		<path class="st6" d="M74.6386795,24.1787281c-0.0700836-0.0700817-0.0700836-0.1401672-0.0700836-0.2102489v-9.0407429
			c0-0.0700827,0-0.2102489,0.0700836-0.2803326s0.1401672-0.0700836,0.2803345-0.0700836h6.5878296
			c0.0700836,0,0.2102509,0,0.2803345,0.0700836s0.0700836,0.1401672,0.0700836,0.2803326v1.4016647
			c0,0.0700817,0,0.2102489-0.0700836,0.2803345c-0.0700836,0.0700817-0.1401672,0.0700817-0.2803345,0.0700817h-4.4152451
			v1.7520809h4.064827c0.0700836,0,0.2102509,0,0.2803345,0.0700836c0.0700836,0.0700817,0.0700836,0.1401672,0.0700836,0.2803345
			v1.2614975c0,0.0700817,0,0.2102489-0.0700836,0.2803345c-0.0700836,0.0700817-0.1401596,0.0700817-0.2803345,0.0700817h-4.064827
			v1.8221645h4.4853287c0.0700836,0,0.2102509,0,0.2803345,0.0700817s0.0700836,0.1401672,0.0700836,0.2803345v1.4016647
			c0,0.0700817,0,0.2102489-0.0700836,0.2803345c-0.0700836,0.0700817-0.1401672,0.0700817-0.2803345,0.0700817H74.919014
			C74.7788544,24.3188953,74.7087708,24.2488117,74.6386795,24.1787281"/>
		<path class="st6" d="M83.6093445,24.1787281c-0.0700836-0.0700817-0.0700836-0.1401672-0.0700836-0.2102489v-9.0407429
			c0-0.0700827,0-0.2102489,0.0700836-0.2803326c0.070076-0.0700836,0.1401596-0.0700836,0.2803345-0.0700836h6.587822
			c0.0700912,0,0.2102585,0,0.2803345,0.0700836c0.0700836,0.0700836,0.0700836,0.1401672,0.0700836,0.2803326v1.4016647
			c0,0.0700817,0,0.2102489-0.0700836,0.2803345c-0.0700912,0.0700817-0.1401672,0.0700817-0.2803345,0.0700817h-4.4152451
			v1.7520809h4.0648346c0.0700836,0,0.2102509,0,0.2803268,0.0700836c0.0700836,0.0700817,0.0700836,0.1401672,0.0700836,0.2803345
			v1.2614975c0,0.0700817,0,0.2102489-0.0700836,0.2803345c-0.0700912,0.0700817-0.1401672,0.0700817-0.2803268,0.0700817
			h-4.0648346v1.8221645h4.4853287c0.0700836,0,0.2102509,0,0.2803268,0.0700817
			c0.0700836,0.0700817,0.0700836,0.1401672,0.0700836,0.2803345v1.4016647c0,0.0700817,0,0.2102489-0.0700836,0.2803345
			c-0.0700912,0.0700817-0.1401672,0.0700817-0.2803268,0.0700817h-6.6579132
			C83.7495041,24.3188953,83.6794205,24.2488117,83.6093445,24.1787281"/>
		<path class="st6" d="M92.5099182,24.1787281c-0.0700912-0.0700817-0.0700912-0.1401672-0.0700912-0.2102489v-9.0407429
			c0-0.0700827,0-0.2102489,0.0700912-0.2803326c0.0700836-0.0700836,0.1401596-0.0700836,0.2803268-0.0700836h1.541832
			c0.2102509,0,0.3504105,0.0700836,0.4905777,0.2803335l3.2939148,5.186162v-5.1160774
			c0-0.0700836,0-0.2102489,0.0700836-0.2803326c0.0700912-0.0700836,0.1401672-0.0700836,0.2803268-0.0700836h1.7520828
			c0.0700912,0,0.2102509,0,0.2803268,0.0700836c0.0700912,0.0700836,0.0700912,0.1401663,0.0700912,0.2803326v9.040741
			c0,0.0700817,0,0.2102489-0.0700912,0.2803326c-0.0700836,0.0700836-0.1401596,0.0700836-0.2803268,0.0700836h-1.541832
			c-0.2102509,0-0.3504105-0.0700836-0.4905777-0.2803345l-3.2939148-4.9759121v4.9058304
			c0,0.0700817,0,0.2102489-0.0700836,0.2803326c-0.0700912,0.0700836-0.1401672,0.0700836-0.2803268,0.0700836h-1.7520828
			C92.6500778,24.3188953,92.5800018,24.2488117,92.5099182,24.1787281"/>
		<path class="st6" d="M104.7044144,24.2488117c-0.0700912-0.0700817-0.0700912-0.1401653-0.0700912-0.2803326v-7.1484947
			h-2.4529114c-0.0700912,0-0.2102585,0-0.2803345-0.0700817c-0.0700836-0.0700836-0.0700836-0.1401672-0.0700836-0.2803345
			v-1.5418329c0-0.0700836,0-0.2102489,0.0700836-0.2803326c0.0700912-0.0700836,0.1401672-0.0700836,0.2803345-0.0700836h7.5689926
			c0.0700836,0,0.2102509,0,0.2803268,0.0700836c0.0700912,0.0700836,0.0700912,0.1401672,0.0700912,0.2803326v1.5418329
			c0,0.0700817,0,0.2102489-0.0700912,0.2803345c-0.0700836,0.0700817-0.1401596,0.0700817-0.2803268,0.0700817h-2.4529114
			v7.1484947c0,0.0700817,0,0.2102489-0.0700912,0.2803326c-0.0700836,0.0700836-0.1401672,0.0700836-0.2803268,0.0700836
			h-1.9623337C104.844574,24.3188953,104.7744904,24.3188953,104.7044144,24.2488117"/>
		<path class="st6" d="M111.3623199,24.1787281c-0.0700836-0.0700817-0.0700836-0.1401672-0.0700836-0.2102489v-9.0407429
			c0-0.0700827,0-0.2102489,0.0700836-0.2803326c0.0700912-0.0700836,0.1401672-0.0700836,0.2803268-0.0700836h6.5878296
			c0.0700836,0,0.2102509,0,0.2803268,0.0700836c0.0700836,0.0700836,0.0700836,0.1401672,0.0700836,0.2803326v1.4016647
			c0,0.0700817,0,0.2102489-0.0700836,0.2803345c-0.0700912,0.0700817-0.1401672,0.0700817-0.2803268,0.0700817h-4.4152527
			v1.7520809h4.0648346c0.0700836,0,0.2102509,0,0.2803268,0.0700836c0.0700912,0.0700817,0.0700912,0.1401672,0.0700912,0.2803345
			v1.2614975c0,0.0700817,0,0.2102489-0.0700912,0.2803345c-0.0700836,0.0700817-0.1401672,0.0700817-0.2803268,0.0700817
			h-4.0648346v1.8221645h4.4853287c0.0700836,0,0.2102509,0,0.2803268,0.0700817
			c0.0700836,0.0700817,0.0700836,0.1401672,0.0700836,0.2803345v1.4016647c0,0.0700817,0,0.2102489-0.0700836,0.2803345
			c-0.0700912,0.0700817-0.1401672,0.0700817-0.2803268,0.0700817h-6.6579132
			C111.5725632,24.3188953,111.4323959,24.2488117,111.3623199,24.1787281"/>
		<path class="st6" d="M120.3329697,24.1787281c-0.0700836-0.0700817-0.0700836-0.1401672-0.0700836-0.2102489v-9.0407429
			c0-0.0700827,0-0.2102489,0.0700836-0.2803326c0.0700912-0.0700836,0.1401672-0.0700836,0.2803268-0.0700836h1.8922501
			c0.0700836,0,0.2102509,0,0.2803268,0.0700836c0.0700912,0.0700836,0.0700912,0.1401672,0.0700912,0.2803326v3.0135822
			l2.4529114-3.0836639c0.0700912-0.2102489,0.2803268-0.2803326,0.5606689-0.2803326h2.1025009
			c0.0700836,0,0.1401672,0,0.2102509,0.0700836s0.0700836,0.1401663,0.0700836,0.2102489
			c0,0.0700836,0,0.1401672-0.0700836,0.1401672l-3.2238388,4.204998l3.5041733,4.625494
			c0.0700836,0.0700817,0.0700836,0.0700817,0.0700836,0.1401672c0,0.0700817,0,0.1401672-0.0700836,0.2102489
			c-0.0700989,0.0700817-0.1401672,0.0700817-0.2102661,0.0700817h-2.2426453c-0.1401672,0-0.2803268,0-0.3504181-0.0700817
			c-0.0700836-0.0700817-0.1401596-0.1401672-0.2102509-0.2102489l-2.6631622-3.3639965v3.3639946
			c0,0.0700817,0,0.1401672-0.0700912,0.2102489c-0.0700836,0.0700817-0.1401672,0.0700817-0.2803268,0.0700817h-1.8922501
			C120.4731445,24.3188953,120.4030609,24.2488117,120.3329697,24.1787281"/>
		<path class="st6" d="M129.9343872,24.1787281c-0.0700836-0.0700817-0.0700836-0.1401672-0.0700836-0.2102489v-9.0407429
			c0-0.0700827,0-0.2102489,0.0700836-0.2803326s0.1401672-0.0700836,0.2102509-0.0700836h1.9623413
			c0.0700836,0,0.2102509,0,0.2803192,0.0700836c0.0700989,0.0700836,0.0700989,0.1401672,0.0700989,0.2803326v9.0407429
			c0,0.0700817,0,0.1401672-0.0700989,0.2102489c-0.0700836,0.0700817-0.1401672,0.0700817-0.2803192,0.0700817h-1.9623413
			C130.0745544,24.3188953,130.0044708,24.2488117,129.9343872,24.1787281"/>
		<path class="st6" d="M135.8213806,24.1086464c-0.6307526-0.2803345-1.1213379-0.6307507-1.471756-1.1213322
			c-0.3504181-0.4905834-0.5606689-1.0512486-0.5606689-1.7520809c0-0.0700836,0-0.1401672,0.0700836-0.2102509
			c0.0700989-0.0700817,0.1401672-0.0700817,0.2102509-0.0700817h1.9623413c0.1401672,0,0.2102509,0,0.2803345,0.0700817
			c0.0700836,0.0700836,0.140152,0.1401672,0.2102509,0.2803345c0.140152,0.7008324,0.6307373,1.0512486,1.3315735,1.0512486
			c0.4205017,0,0.7709198-0.1401653,1.0512543-0.4204979c0.2102509-0.2803345,0.3504028-0.7008324,0.3504028-1.2614975v-3.9246635
			h-4.485321c-0.0700836,0-0.1401672,0-0.2102509-0.0700817s-0.0700836-0.1401672-0.0700836-0.2102489v-1.4717493
			c0-0.0700827,0-0.2102489,0.0700836-0.2803326s0.1401672-0.0700836,0.2102509-0.0700836h6.7980804
			c0.0700836,0,0.2102509,0,0.2803192,0.0700836c0.0700989,0.0700836,0.0700989,0.1401672,0.0700989,0.2803326v5.8169127
			c0,0.7709141-0.1401672,1.4717484-0.4905853,2.0324154s-0.8410034,0.9811668-1.471756,1.2614994
			c-0.6307373,0.2803345-1.3315735,0.4204979-2.1725769,0.4204979
			C137.0828857,24.4590626,136.3820496,24.3188953,135.8213806,24.1086464"/>
		<path class="st6" d="M148.22612,13.8064041c-0.0700989-0.0700836-0.0700989-0.1401672-0.0700989-0.2102489v-1.3315821
			c0-0.0700836,0-0.1401672,0.0700989-0.2102489c0.0700836-0.0700836,0.140152-0.0700836,0.2102509-0.0700836h1.3315735
			c0.0700836,0,0.1401672,0,0.2102509,0.0700836c0.0700836,0.0700827,0.0700836,0.1401663,0.0700836,0.2102489v1.3315821
			c0,0.0700836,0,0.1401672-0.0700836,0.2102489c-0.0700836,0.0700836-0.1401672,0.0700836-0.2102509,0.0700836h-1.3315735
			C148.366272,13.8764877,148.22612,13.8764877,148.22612,13.8064041 M146.1937103,20.6044827h2.4529114l-1.2615051-3.5742474
			L146.1937103,20.6044827z M144.8621216,13.8064041c-0.0700989-0.0700836-0.0700989-0.1401672-0.0700989-0.2102489v-1.3315821
			c0-0.0700836,0-0.1401672,0.0700989-0.2102489c0.0700836-0.0700836,0.140152-0.0700836,0.2102509-0.0700836h1.3315735
			c0.0700836,0,0.1401672,0,0.2102509,0.0700836c0.0700836,0.0700827,0.0700836,0.1401663,0.0700836,0.2102489v1.3315821
			c0,0.0700836,0,0.1401672-0.0700836,0.2102489c-0.0700836,0.0700836-0.1401672,0.0700836-0.2102509,0.0700836h-1.3315735
			C145.0022888,13.8764877,144.9322052,13.8764877,144.8621216,13.8064041 M142.6194611,24.2488117
			c-0.0700989-0.0700817-0.0700989-0.1401653-0.0700989-0.2102489c0-0.0700817,0-0.0700817,0-0.1401672l3.2238312-8.9005756
			c0.0700989-0.2803326,0.2803345-0.4204998,0.5606689-0.4204998h2.1725922c0.2803345,0,0.4905853,0.1401672,0.5606689,0.4204998
			l3.2238312,8.9005756c0,0,0,0.0700836,0,0.1401672s0,0.1401672-0.0700836,0.2102489
			c-0.0700836,0.0700836-0.1401672,0.0700836-0.2102509,0.0700836h-1.8221741c-0.2102509,0-0.3504181-0.0700836-0.4905853-0.2803345
			l-0.4905701-1.331583h-3.5742493l-0.4905853,1.331583c-0.0700836,0.2102489-0.2803345,0.2803345-0.4905853,0.2803345h-1.8221588
			C142.759613,24.3188953,142.6895447,24.3188953,142.6194611,24.2488117"/>
		<path class="st6" d="M154.6036987,24.2488117c-0.0700836-0.0700817-0.0700836-0.1401653-0.0700836-0.2803326v-7.1484947
			h-2.4529266c-0.0700836,0-0.2102509,0-0.2803192-0.0700817c-0.0700836-0.0700836-0.0700836-0.1401672-0.0700836-0.2803345
			v-1.5418329c0-0.0700836,0-0.2102489,0.0700836-0.2803326s0.1401672-0.0700836,0.2803192-0.0700836h7.5690002
			c0.0700836,0,0.2102509,0,0.2803345,0.0700836s0.0700836,0.1401672,0.0700836,0.2803326v1.5418329
			c0,0.0700817,0,0.2102489-0.0700836,0.2803345c-0.0700989,0.0700817-0.1401672,0.0700817-0.2803345,0.0700817h-2.4529114
			v7.1484947c0,0.0700817-0.0700836,0.2102489-0.0700836,0.2803326c-0.0700989,0.0700836-0.1401672,0.0700836-0.2803345,0.0700836
			h-1.962326C154.8139496,24.3188953,154.6737671,24.3188953,154.6036987,24.2488117"/>
		<rect x="0" class="st7" width="36.4433022" height="36.4432983"/>
		<rect x="15.2080698" y="6.2374115" class="st8" width="5.9570794" height="23.9684792"/>
		<polygon class="st9" points="4.9759126,6.2374115 15.2080698,6.2374115 4.9759126,16.4695683 		"/>
		<circle class="st6" cx="27.4726429" cy="10.2321568" r="4.4853296"/>
	</g>
</g>
<g id="oulunyliopisto" class="st0 stack_icon">
	<g class="st1">
		<polygon class="st10" points="11.6046743,40.7534027 11.4670382,40.7534027 6.2328439,29.9062157 0,29.9062157 
			8.6088333,46.1252289 8.6088333,53.3222923 14.4628801,53.3222923 14.4628801,46.1252289 23.0717106,29.9062157 
			16.8388691,29.9062157 		"/>
		<polygon class="st10" points="30.1756401,29.9062157 24.6659565,29.9062157 24.6659565,53.3222923 39.8175583,53.3222923 
			39.8175583,48.3635864 30.1756401,48.3635864 		"/>
		<rect x="42.5531807" y="29.9062157" class="st10" width="5.5096836" height="23.4160767"/>
		<path class="st10" d="M55.7570839,29.9062157l-4.270092,4.2700882v14.8761139l4.2700844,4.2699814h9.3664284l4.269989-4.2699814
			V34.1763039l-4.269989-4.2700882H55.7570839z M63.8838043,47.3304977l-1.0330849,1.0330887H57.995327l-0.9986458-1.0330887
			V35.8980064l1.0330811-1.0330887h4.8209572l1.0330849,1.0330887V47.3304977z"/>
		<path class="st10" d="M72.8176193,29.9062157v23.4160767h5.5096893v-6.7838249h8.1268311l4.2699814-4.2700882v-8.0920753
			l-4.2699814-4.2700882H72.8176193z M85.214325,40.5467834l-0.9986496,1.0330887h-5.8884811v-6.7149506h5.8540497
			l1.0330811,1.0330849V40.5467834z"/>
		<rect x="93.8038864" y="29.9062157" class="st10" width="5.5096869" height="23.4160767"/>
		<polygon class="st10" points="108.2128372,38.1019249 108.2128372,35.8980064 109.2459183,34.8649216 119.4388123,34.8649216 
			119.4388123,29.9062157 106.9732361,29.9062157 102.7031479,34.1763039 102.7031479,39.6514435 105.1481171,42.5784111 
			114.4112396,45.1266899 114.4112396,47.3304977 113.3781586,48.3635864 102.2211533,48.3635864 102.2211533,53.3222923 
			115.6509399,53.3222923 119.920929,49.0524178 119.920929,43.5770607 117.4759521,40.6500931 		"/>
		<polygon class="st10" points="121.4513779,34.8649216 127.9941559,34.8649216 127.9941559,53.3222923 133.5038452,53.3222923 
			133.5038452,34.8649216 140.0466003,34.8649216 140.0466003,29.9062157 121.4513779,29.9062157 		"/>
		<path class="st10" d="M155.7298126,29.9062157h-9.3664398l-4.2699738,4.2700882v14.8761139l4.2699738,4.2699814h9.3664398
			l4.2700806-4.2699814V34.1763039L155.7298126,29.9062157z M154.4902191,47.3304977l-1.0330963,1.0330887h-4.8553925
			l-0.9986572-1.0330887V35.8980064l1.0330811-1.0330887h4.8209686l1.0330963,1.0330887V47.3304977z"/>
		<polygon class="st10" points="130.2895813,23.4160748 130.2895813,0 124.779892,0 125.1242599,14.7728052 116.3088074,0 
			110.3170166,0 110.3170166,23.4160748 115.8266983,23.4160748 115.4823303,8.6432695 124.2977829,23.4160748 		"/>
		<path class="st10" d="M43.3614578,23.443037l4.2758293-4.274744V4.274745L43.3614578,0h-9.376503l-4.274744,4.274745v14.8936567
			l4.274744,4.2747459h9.376503V23.443037z M35.2261772,5.9985046l1.0336266-1.0336275h4.8269157l1.0336304,1.033627v11.4460297
			l-1.0336304,1.0336266h-4.8604851l-0.9999504-1.0336266V5.9985046H35.2261772z"/>
		<polygon class="st10" points="86.9530334,18.4781609 77.3004913,18.4781609 77.3004913,0 71.7845383,0 71.7845383,23.443037 
			86.9530334,23.443037 		"/>
		<polygon class="st10" points="64.1391525,23.443037 68.4150848,19.168293 68.4150848,0 62.897934,0 62.897934,17.2725697 
			61.8644142,18.3061981 57.0388031,18.3061981 56.0052834,17.2725697 56.0052834,0 50.4881248,0 50.4881248,19.168293 
			54.764061,23.443037 		"/>
		<polygon class="st10" points="106.873291,19.168293 106.873291,0 101.3562393,0 101.3562393,17.2725697 100.3226166,18.3061981 
			95.496994,18.3061981 94.4634781,17.2725697 94.4634781,0 88.9464264,0 88.9464264,19.168293 93.2223663,23.443037 
			102.5973511,23.443037 		"/>
	</g>
</g>
<g id="turunyliopisto" class="st0 stack_icon">
	<g class="st1">
		<path d="M18.365406,5.330729c0.0740376-0.4442272,0.1480751-0.9624929,0.1480751-1.5177772
			c0-0.518265-0.0740376-1.0735495-0.2221127-1.5918148c0.5182667,0.4442272,0.8144169,0.9995115,0.9254742,1.5918148
			C19.1428032,4.2571793,18.7726154,4.7754445,18.365406,5.330729 M23.955265,11.5869312
			c-0.8144169-0.3331709-1.7769089-0.481246-2.7394028-0.481246c-0.4072075,0-0.7773972,0-1.1846066,0.0740376
			c-0.2221127-0.5552835-0.3331699-1.0735493-0.3331699-1.5547962c0-1.2216244,0.6663399-2.2951746,1.4067192-3.2576666
			c0.2221127-0.3331704,0.4442272-0.6663413,0.7033615-0.9624929l0.2591324-0.3331704
			c0.1850948-0.2591324,0.4072075-0.5182652,0.5923023-0.7773981c0.1110573-0.1850948,0.2221127-0.3331702,0.3331718-0.4812462
			c0.1110554-0.2221138,0.2221146-0.4072087,0.3331699-0.5923033c0.1480751-0.2961516,0.2961521-0.5923033,0.4072075-0.8514359
			c0.1110573,0.5182652,0.1480751,1.0365305,0.1480751,1.5547957c0,0.1850948,0,0.3701892,0,0.5182652
			c-0.0370178,0.2591324-0.0740356,0.555284-0.1850948,0.8514357c-0.0370178,0.1850948-0.1110573,0.3701897-0.1850948,0.555284
			c-0.1110573,0.2591333-0.2591305,0.5182652-0.3701878,0.7033601c-0.0740395,0.1850948-0.1850948,0.3701897-0.2961521,0.5182652
			c-0.1110573,0.1850948-0.2221127,0.3331704-0.2961521,0.5182652c-0.4072075,0.6293221-0.7403774,1.1475878-0.7773972,1.7028713
			c0,0.1110563,0,0.1850948,0.0370197,0.2591333c0.0740376,0.2591324,0.1850948,0.6663408,0.6663399,0.7033596
			c0.2591324,0,0.4442272-0.1110563,0.5552845-0.3701897c0.0740376-0.1480751,0.1110573-0.3331699,0.1110573-0.5552835
			c0-0.2591333-0.0370197-0.5182657-0.1850948-0.7773981c0.1850967-0.2961521,0.4072094-0.6663413,0.629324-1.0365305
			c0.1480751-0.1850948,0.2591305-0.4442277,0.4072075-0.6663408c0.5182648,0.9254737,0.7773972,1.7769089,0.7773972,2.554307
			C24.7696838,10.2172298,24.5105495,10.9205904,23.955265,11.5869312 M18.2543488,11.6609688
			c-0.3331718-0.4072084-0.8514347-1.2586441-0.8514347-2.4432507c0-0.1850948,0-0.3331699,0-0.481246
			c0.1110554-0.8884544,0.7033596-1.7028713,1.3697014-2.5172887l0.1110554-0.1850948
			c0.5923023-0.7403789,1.2216263-1.517777,1.2216263-2.4432507c0-0.1110568,0-0.2221138-0.0370197-0.2961516
			c-0.0370178-0.3331704-0.0370178-0.6663411-0.0370178-0.9624925c0-0.9624927,0.2591324-1.7028716,0.7773972-2.3321939
			c0,0.0740379,0,0.1480758,0,0.1850947c0,1.3326821,0.6293221,2.5543075,1.1846066,3.5167997
			c-0.2591324,0.3701894-0.5552845,0.7773983-0.8884544,1.1846063c-0.2221146,0.2961516-0.4812469,0.6293221-0.7403793,0.9624925
			c-0.7773972,1.1105685-1.5547962,2.2951746-1.5547962,3.7759323c0,0.5552845,0.1110554,1.1475878,0.3701897,1.7398911
			C18.846653,11.4388552,18.5505009,11.5499115,18.2543488,11.6609688 M31.0258865,13.2527838
			c0-0.0740385-0.0370178-0.1850948-0.0740356-0.2591333c-0.148077-0.2591324-0.3701897-0.5182657-0.6293221-0.7403784
			l3.5538177-9.1806993c0.0740356,0,0.1480751,0,0.2591286,0c0.5552864,0,1.110569,0.2591326,1.5177765,0.7403789
			c0.3331718,0.3701894,0.5182686,0.8514359,0.5552864,1.3697011L31.0258865,13.2527838z M6.1861725,5.182653
			c0.0370188-0.5182652,0.2221136-0.9995117,0.555284-1.3697011C7.148665,3.3317056,7.7039495,3.0725729,8.2962523,3.0725729
			c0.0740385,0,0.1480761,0,0.2221146,0l3.5538187,9.1806993c-0.2591324,0.2221127-0.4442272,0.4442272-0.5923023,0.7403784
			c-0.0370188,0.0740385-0.0740385,0.1850948-0.1110563,0.2591333L6.1861725,5.182653z M31.7662659,15.0296926
			c-0.1850948-0.1480761-0.4072075-0.2591324-0.6293201-0.3331709l5.7009144-8.8475285
			c0.5923042,0.0370193,1.110569,0.4072089,1.4437408,0.9995122c0.3331718,0.5182652,0.4072075,1.1475873,0.2591324,1.7398911
			L31.7662659,15.0296926z M3.8539782,8.5883961C3.7059026,7.9960928,3.7799404,7.3667712,4.1131105,6.848506
			C4.446281,6.2562027,5.0015659,5.886013,5.55685,5.8489943l5.7009177,8.8475285
			c-0.2221136,0.0740385-0.4442272,0.1850948-0.6293221,0.3331718L3.8539782,8.5883961z M1.966012,12.2532721
			c-0.2591325-0.5552845-0.2591325-1.2586441,0-1.8509474C2.2621636,9.8100214,2.7434096,9.402812,3.3357131,9.2547369
			l6.700429,6.4412966c0,0.0370188-0.0370188,0.0370188-0.0370188,0.0740385
			C9.8510485,16.0662231,9.77701,16.399395,9.77701,16.732563v0.0370197L1.966012,12.2532721z M32.6547203,16.7325649
			c0-0.3331699-0.0740395-0.6663399-0.2591324-0.962492c0-0.0370178-0.0370178-0.0370178-0.0370178-0.0740376l6.7374496-6.4412975
			c0.5552826,0.1480761,1.0365295,0.5552845,1.3326797,1.1475878c0.2591324,0.5923033,0.2591324,1.2956629,0,1.8509474
			L32.6547203,16.7325649L32.6547203,16.7325649z M32.6917381,18.6575489
			c-0.0740356-0.2591324-0.2221107-0.481245-0.4072075-0.6663399l8.6254158-4.9975586
			c0.4442253,0.2221136,0.814415,0.6663408,0.9995079,1.2216253c0.1850967,0.6293221,0.1110611,1.3326817-0.2591286,1.8509474
			L32.6917381,18.6575489z M0.7443867,16.0662231c-0.3331706-0.5182657-0.4442274-1.2216253-0.2221137-1.8509474
			c0.1480758-0.5552845,0.5182652-0.9995117,0.9995117-1.2216253l8.6254148,4.9975586
			c-0.1850948,0.1850948-0.3331709,0.4072075-0.4442282,0.6663399L0.7443867,16.0662231z M32.5806808,20.5084972
			c0.1850967-0.2961521,0.2591324-0.6293221,0.296154-0.9995117l8.8475304-2.5543079
			c0.4442253,0.3331699,0.7033577,0.8884544,0.7033577,1.5547962c0,0.5552826-0.2221107,1.1475868-0.5923004,1.5177765
			L32.5806808,20.5084972z M0.559292,20.06427c-0.3701895-0.4072075-0.5923032-0.9995117-0.5552842-1.5547962
			c0-0.6293221,0.2221137-1.2216244,0.666341-1.5547962l8.8845472,2.5913277c0,0.3331699,0.1110563,0.6663399,0.2591324,0.962492
			L0.559292,20.06427z M32.7287598,22.3964634c0-0.3701897-0.0740395-0.7033596-0.296154-1.0365295l9.4398308-0.4442272
			c0.296154,0.3701897,0.4442253,0.9254723,0.3701897,1.4807568c-0.0740356,0.6663418-0.4442253,1.258646-0.9254723,1.5918159
			L32.7287598,22.3964634z M1.1145762,23.9882793c-0.5182654-0.3331718-0.8514358-0.9254742-0.9624926-1.5918159
			c-0.037019-0.5552845,0.0740379-1.1105671,0.4072084-1.4807568l9.402813,0.4442272
			c-0.1850948,0.3331718-0.2961512,0.6663399-0.2961512,1.0365295L1.1145762,23.9882793z M2.2621636,27.3570023
			c-0.4812464-0.2221127-0.8884549-0.7033615-1.0365305-1.2956638c-0.1110569-0.4442253-0.037019-0.8884544,0.1480758-1.2216263
			l8.44032-1.5918121c0.1480761,0.2961502,0.3331709,0.5552845,0.5552845,0.7773972L2.2621636,27.3570023z M32.0253983,24.0252972
			c0.2591324-0.2221127,0.4442253-0.4812469,0.5552826-0.7773972l8.4773407,1.5918159
			c0.1850929,0.3331699,0.2221146,0.7773972,0.1110573,1.2216263c-0.1480751,0.5923023-0.5552826,1.0735493-1.0365295,1.2956619
			L32.0253983,24.0252972z M31.9143391,26.1723976c0.148077-0.2591324,0.1850948-0.5552845,0.1850948-0.8514385
			c0-0.1110573,0-0.2221127,0-0.3331699l7.5148468,3.0725727c0.1480789,0.4072094,0.0740395,0.8884563-0.1110573,1.3326817
			c-0.2591324,0.4812489-0.6293221,0.8514385-1.110569,0.9995117L31.9143391,26.1723976z M4.0020542,30.3925571
			c-0.4442272-0.1480751-0.8514359-0.5182648-1.0735497-0.9995098c-0.2221138-0.4442272-0.2591326-0.9254742-0.1110568-1.3326817
			l7.5148458-3.0725746c-0.0370188,0.1110592-0.0370188,0.2221146-0.0370188,0.3331718
			c0,0.2961521,0.0740376,0.5923023,0.1850939,0.8514366L4.0020542,30.3925571z M6.112134,32.9468613
			c-0.5182648-0.1110573-0.9995112-0.4072075-1.2956629-0.8884544c-0.2221141-0.2961521-0.3331704-0.5923023-0.3331704-0.9254723
			l6.5153346-4.2571793c0.2591333,0.2591305,0.5552845,0.4072075,0.8884554,0.5182648v0.0370197L6.112134,32.9468613z
			 M30.5076218,27.4310417v-0.0370178c0.3331699-0.1110592,0.6293201-0.2591324,0.8884544-0.5182667l6.5153351,4.2571793
			c0,0.2961521-0.1110573,0.6293201-0.296154,0.9254742c-0.3331718,0.4812469-0.814415,0.7773972-1.3326797,0.8884544
			L30.5076218,27.4310417z M8.5924044,34.8718491c-0.481246,0-0.9624934-0.2221107-1.3697019-0.5923004
			c-0.2221136-0.2221146-0.3701892-0.4812508-0.481246-0.7403793l5.182653-4.9605408
			c0.1110563,0.2591324,0.2221127,0.4812469,0.4072075,0.6663418c0,0.0370197,0.0370188,0.0740376,0.0740385,0.1110592
			L8.5924044,34.8718491z M29.9893551,29.3560257c0.0370197-0.0370178,0.0740376-0.0740356,0.1110592-0.1110573
			c0.1480751-0.1850948,0.2961521-0.4072075,0.3701878-0.6663418l5.1826534,4.9605389
			c-0.1110573,0.2591324-0.2591324,0.5182648-0.4812469,0.7403793c-0.3701897,0.3701897-0.8514366,0.5923004-1.3697014,0.5923004
			L29.9893551,29.3560257z M31.2480011,36.4636612c-0.1110592,0-0.1850948,0-0.296154,0l-2.8134384-6.3672562h-0.0370197
			c0,0,0.0370197,0,0.0370197-0.0370178c0.0740356,0,0.1110573,0.0370178,0.1850948,0.0370178
			c0.3331699,0,0.6663418-0.0740376,0.962492-0.2221127l3.8129539,5.4788036
			c-0.1480789,0.2591324-0.3701897,0.5182686-0.6293221,0.7033615
			C32.0994339,36.3155899,31.6922264,36.4636612,31.2480011,36.4636612 M11.1467113,36.4636612
			c-0.4072084,0-0.8514357-0.1480751-1.2216253-0.4072075c-0.2591324-0.1850929-0.481246-0.4442253-0.5923033-0.7033577
			l3.7759333-5.4788074c0.3331709,0.148077,0.6293221,0.2221127,0.962492,0.2221127
			c0.0740385,0,0.1480761-0.0370178,0.2221127-0.0370178c0,0.0370178,0,0.0370178,0,0.0370178l-2.8504591,6.36726
			C11.3318052,36.4636612,11.2577677,36.4636612,11.1467113,36.4636612 M13.6640005,37.6482697
			c-0.2591333,0-0.5182667-0.0370178-0.7403793-0.1480751c-0.3331709-0.1110573-0.5923023-0.3331718-0.7403793-0.5923042
			l2.5913267-5.737936c0.0370188,0.0370197,0.1110563,0.1110592,0.1480761,0.148077
			c0.1850948,0.1850948,0.4072084,0.2961521,0.629323,0.4072075l-1.258647,5.7749557
			C14.1082268,37.6112518,13.8861132,37.6482697,13.6640005,37.6482697 M28.7677288,37.6482697
			c-0.2591305,0-0.4812469-0.0370178-0.6663418-0.1480751l-1.2586422-5.7749557
			c0.2591324-0.1110573,0.4442272-0.2221127,0.6293221-0.4072075c0.0740356-0.0370178,0.1110573-0.1110573,0.1480751-0.148077
			l2.5913258,5.737936c-0.1480751,0.2591324-0.4072075,0.4812508-0.7033596,0.5923042
			C29.2489758,37.6112518,28.9898453,37.6482697,28.7677288,37.6482697 M16.4034004,38.0554771
			c-0.0370178,0-0.1110554-0.0370178-0.1480751-0.0370178c-0.4442282-0.0370178-0.8144178-0.1850929-1.0365305-0.4812469
			l1.1846056-5.5898609c0.0370197,0,0.0370197,0,0.0740395,0c0.3701897,0,0.7403793-0.1110573,1.0735493-0.2591305
			l-0.2591324,6.1451454C17.0327244,37.9814415,16.6995525,38.0554771,16.4034004,38.0554771 M25.9913082,38.0554771
			c-0.2961521,0-0.5923023-0.0740356-0.8514366-0.2221107l-0.296154-6.1451454
			c0.3331718,0.148077,0.7033615,0.2591305,1.0735512,0.2591305c0.0370178,0,0.0740356,0,0.0740356,0l1.2216263,5.5898609
			c-0.2591305,0.296154-0.6293201,0.4442253-1.0735493,0.4812469
			C26.1023655,38.0184593,26.0653477,38.0554771,25.9913082,38.0554771 M20.6975994,48.6428986l-0.0370178-1.9990234
			c0-0.1480751-0.0740376-0.2961502-0.2221127-0.3701897c-0.5182667-0.2591286-0.8144169-0.7403793-0.8144169-1.2956619
			c0-0.5182648,0.2961502-0.9995117,0.7773972-1.2956619c0.1110554-0.0740395,0.2221127-0.2221146,0.1850948-0.3701897
			c-0.0370197-3.4057426-0.1110573-6.1081276-0.2591343-8.2182083c-0.0740376-1.1846046-0.1480751-2.1100807-0.2591324-2.7764206
			c-0.1480751-0.8144169-0.2591324-1.2956638-0.5182648-1.6288357c-0.2961521-0.3331718-0.6663418-0.5182667-0.9995117-0.5182667
			c-0.5182667,0.0370197-0.8514366,0.296154-1.0365314,0.4812489c-0.2961502,0.2961521-0.6663399,0.4072075-1.0365295,0.4072075
			c-0.3331718,0-0.7033606-0.1110573-0.9254742-0.3701897c-0.2591324-0.2221127-0.4072075-0.5552845-0.4072075-0.9254742
			c0-0.0740356,0-0.1110573,0-0.1850948c0.0370178-0.1480751-0.0370188-0.2961521-0.1850948-0.3701897
			c-0.0740385-0.0740356-0.1480761-0.1110573-0.2591333-0.1110573c-0.0370178,0-0.1110563,0.0370178-0.1480761,0.0370178
			c-0.1480761,0.0740376-0.3331709,0.0740376-0.481246,0.0740376c-0.4072075,0-0.8144169-0.1850948-1.0735502-0.4812469
			c-0.1850948-0.2591324-0.2961512-0.5182667-0.2961512-0.8144169c0-0.2221127,0.0740385-0.4442253,0.1850948-0.6663418
			c0.0740385-0.1110573,0.0740385-0.2961521,0-0.4072075c-0.0740385-0.148077-0.2221136-0.2221127-0.3701897-0.2221127
			c-0.5182657,0-0.962492-0.296154-1.1846066-0.7033615c-0.1110563-0.1850948-0.1480761-0.4072075-0.1480761-0.5923023
			c0-0.3701897,0.1480761-0.7033615,0.3701887-0.9254742c0.1110573-0.1110573,0.148077-0.2591305,0.1110573-0.4072075
			s-0.1110573-0.2591324-0.2591333-0.2961521c-0.5182648-0.2221127-0.8884544-0.7033596-0.8514357-1.2586441
			c0-0.4442272,0.2221146-0.8514347,0.5923033-1.110569c0.1480761-0.0740376,0.2221146-0.2221127,0.2221146-0.3701878
			c0-0.148077-0.1110573-0.2961521-0.2221146-0.3701897c-0.4442272-0.2221146-0.7403784-0.6663418-0.7403784-1.1475868
			c0-0.4442291,0.2221136-0.8144188,0.5923033-1.0735512c0.1110563-0.0740376,0.1850948-0.1850948,0.1850948-0.3331699
			c0-0.1110573-0.0370197-0.2221146-0.1110573-0.3331718c-0.2961512-0.2591324-0.4442272-0.5923023-0.4442272-0.962492
			c0-0.1850948,0.0740385-0.3701897,0.1480761-0.5552845c0.2221136-0.4442272,0.7033596-0.7403784,1.2586441-0.7403784
			c0.1480761,0,0.2961512-0.0740385,0.3701887-0.2221136c0.0740385-0.1480751,0.0740385-0.3331709-0.0370178-0.481246
			c-0.148077-0.2221127-0.2591333-0.481246-0.2591333-0.7773972c0-0.1850948,0.0370188-0.3701897,0.148077-0.5552845
			c0.1850939-0.4072075,0.5923023-0.6663408,1.0365295-0.7403784c0.1110573,0,0.2221136-0.0740385,0.2591333-0.1850948
			c0.0740376-0.0740385,0.1110563-0.1850948,0.0740376-0.2961521c0-0.2221136-0.1850939-0.3701887-0.4072075-0.3701887
			c-0.0370188,0-0.0370188,0-0.0740385,0c-0.0740376,0.0370188-0.1850939,0.0370188-0.2591324,0.0740376L9.295763,2.6283438
			c0.1110563-0.6293221,0.5552845-1.1846063,1.1475878-1.5547957c0.3701897-0.2221137,0.8144169-0.3331705,1.1846056-0.3331705
			c0.3701878,0,0.7033606,0.1110569,0.9995117,0.2591326l0.0740385,0.5552843
			c0.5923023,3.590838,1.9249859,11.9201012,2.221137,13.215764c0.0370178,0.2221136,0.0740376,0.3701897,0.0740376,0.5182657
			c0,0.3331709-0.1480761,0.5182657-0.4072075,0.962492l-0.0740385,0.1110573
			c-0.3701887,0.6293221-0.8144169,1.3697014-1.2216244,2.702383c-0.2221136,0.7773972-0.3331709,1.591814-0.3331709,2.4802685
			c0,2.9244976,1.2216244,5.7009201,2.9985342,6.9225426c0.7033606,0.4812469,1.3326807,0.7033615,1.9249849,0.7033615
			c0.6663418,0,1.2216244-0.3331718,1.591814-0.8884563c0.2961521-0.5182648,0.4812469-1.2216263,0.4812469-2.073061
			c0-0.0740356,0-0.1480751,0-0.2591305c-0.0370178-0.5552845-0.0370178-1.3326817-0.0370178-2.2211361
			c0-0.8884563-0.0370197-1.9249859-0.0370197-2.9244976c-0.0740376-1.6288357-0.1480751-3.331707-0.4442272-4.2201614
			l-0.0370178-0.0740376c0-0.0370197,0-0.1110573-0.0370197-0.148077l-0.0370178-0.0370178
			c-0.3331699-0.629323-0.962492-1.0735502-1.9620037-1.4067202c0-0.1480761,0-0.3331709,0-0.481246
			c0-0.3701897,0.0370178-0.7773972,0.0740376-1.1846066c0.7033615-0.7773972,2.1841183-1.2956629,3.7389145-1.2956629h0.0370178
			c0.962492,0,1.8879662,0.1850939,2.6283455,0.5182657c0.0370178,0.0370178,0.0740356,0.0740376,0.1480751,0.0740376
			c0.4072075,0.1850948,0.7403793,0.4442282,0.962492,0.7033606c0.0740376,0.4072084,0.0740376,0.8144178,0.0740376,1.1846066
			c0,0.148077,0,0.2961521,0,0.481246c-0.9995098,0.3331718-1.6288338,0.7773981-1.9620037,1.4067192v0.0370197h-0.0370197
			c0,0.0370178-0.0370178,0.0740376-0.0370178,0.1480751c-0.0370178,0.0370197-0.0370178,0.0370197-0.0370178,0.0740395
			c-0.2591324,0.7773972-0.3701897,2.1841183-0.4072075,4.2201595c-0.0370197,0.9995117-0.0370197,2.0360413-0.0370197,2.9244976
			c-0.0370178,0.8884544-0.0370178,1.6658516-0.0370178,2.2211361c0,0.1110573-0.0370178,0.1850948-0.0370178,0.2591305
			c0,0.8514385,0.1850948,1.5547962,0.5182648,2.073061c0.3331699,0.5552845,0.9254761,0.8884563,1.5547962,0.8884563
			c0.5923023,0,1.258646-0.2221146,1.9620056-0.7033615c1.7769108-1.2216263,2.9615154-3.9980469,2.9615154-6.9225426
			c0-0.8884563-0.1110573-1.7028713-0.3331699-2.4802704c-0.4072075-1.3326817-0.8144169-2.073061-1.2216263-2.702383
			l-0.0740376-0.148077c-0.2591305-0.4072075-0.3701897-0.5923023-0.3701897-0.9254732c0-0.1480761,0-0.2961512,0.0370178-0.5182657
			c0.296154-1.3326817,1.8139305-10.6244383,2.2951736-13.69701l0.0370159-0.0740331
			c0.2591324-0.1480759,0.5923023-0.2591327,0.962492-0.2591327c0.4072094,0,0.8144169,0.1110568,1.1846066,0.3331705
			c0.5923004,0.3701894,1.0365295,0.9254737,1.1475868,1.5547957l-3.5538197,9.2547369
			c-0.1110573-0.0370188-0.1850948-0.0370188-0.2961521-0.0740385H29.211956c-0.2221146,0-0.4072094,0.1480761-0.4442272,0.3701897
			c-0.0370178,0.1110563,0,0.2221127,0.0740376,0.3331709c0.0740356,0.0740385,0.1850948,0.148077,0.2961521,0.148077
			c0.4442272,0.0740376,0.814415,0.3331709,1.0365314,0.7403784c0.0740376,0.1850948,0.1110592,0.3701897,0.1110592,0.5552845
			c0,0.2961512-0.0740376,0.5552845-0.2591324,0.7773972L29.9893589,14.80758
			c-0.0370197,0.1110563-0.0370197,0.1850948-0.0370197,0.2221127v0.1110563
			c0.0740376,0.148077,0.2221146,0.2591333,0.3701897,0.2961521h0.1110592c0.4812469,0,0.962492,0.2961512,1.1846046,0.7403793
			c0.1110573,0.1850948,0.148077,0.3701878,0.148077,0.5552826c0,0.3701897-0.148077,0.7033615-0.4072094,0.962492
			c-0.1110573,0.0740395-0.1480751,0.2221146-0.1480751,0.3331718c0,0.148077,0.0740356,0.2591324,0.1850948,0.3331718
			c0.3701897,0.2591324,0.5923023,0.6293221,0.5923023,1.0735493c0,0.4812469-0.2591324,0.9254742-0.7033615,1.1475868
			c-0.1480751,0.0740376-0.2221127,0.2221127-0.2221127,0.3701897c-0.0370178,0.148077,0.0370178,0.2961521,0.1850948,0.3701897
			c0.3701897,0.2591324,0.6293221,0.6663399,0.6293221,1.110569c0,0.5552826-0.3331718,1.0365295-0.8884563,1.2586441
			c-0.148077,0.0370178-0.2221127,0.1480751-0.2591305,0.2961521c-0.0370197,0.1480751,0,0.2961521,0.1110573,0.4072075
			c0.2591305,0.2221127,0.4072075,0.5552845,0.4072075,0.9254723c0,0.1850948-0.0740376,0.4072094-0.148077,0.5923042
			c-0.2591305,0.4072075-0.7033596,0.6663418-1.1846046,0.7033596c-0.148077,0-0.2961521,0.0740376-0.3701897,0.2221127
			c-0.0740356,0.1110592-0.0740356,0.296154,0,0.4072094c0.1110592,0.2221127,0.148077,0.4072075,0.148077,0.6663418
			c0,0.2961521-0.1110573,0.5552845-0.2961521,0.814415c-0.2591324,0.296154-0.6293221,0.4812469-1.0735512,0.4812469
			c-0.148077,0-0.3331699-0.0370178-0.4812469-0.0740356c-0.0370178,0-0.1110573-0.0370178-0.148077-0.0370178
			c-0.1110573,0-0.1850948,0.0370178-0.2591305,0.1110573c-0.1110592,0.0740376-0.1850948,0.2221127-0.1850948,0.3701897
			c0,0.0740356,0.0370178,0.1110573,0.0370178,0.1850948c0,0.3701897-0.148077,0.7033596-0.4072075,0.9254742
			c-0.2591324,0.2591305-0.5923023,0.3701878-0.962492,0.3701878s-0.7403793-0.1110573-0.9995117-0.3701878
			c-0.2221127-0.2221146-0.5552826-0.4812489-1.0365314-0.5182667c-0.3701897,0-0.7403774,0.1850948-1.0365295,0.5182667
			c-0.2591324,0.3331699-0.3701897,0.814415-0.5182667,1.591814c-0.3331699,2.2581558-0.4442272,6.6634102-0.5182648,11.0316467
			c0,0.1480789,0.0740376,0.296154,0.2221127,0.3701897c0.4442272,0.296154,0.7403793,0.7773972,0.7403793,1.2956657
			c0,0.5182648-0.2961521,1.0365295-0.7773972,1.2956619c-0.148077,0.0740356-0.2591324,0.2221146-0.2591324,0.3701897v1.9990196
			H20.6975994z"/>
		<path d="M60.7150841,6.4412975v12.0311565H57.56847V6.4412975h-4.0720825V3.8129518h11.3278008v2.6283457H60.7150841z"/>
		<path d="M78.9654236,13.1417274c0,3.4427624-2.2581558,5.6268806-6.1081238,5.6268806s-6.1451492-2.1841183-6.1451492-5.6268806
			V3.8129518h3.1466141v9.0326233c0,1.9249859,1.0735474,3.0355539,2.9985352,3.0355539s2.9615173-1.110568,2.9615173-3.0355539
			V3.8129518h3.1466064V13.1417274z"/>
		<path d="M85.3326797,6.4412975v4.3682356h2.221138c1.406723,0,2.3692093-0.6663399,2.3692093-2.1470985
			S88.9235229,6.441298,87.4797745,6.441298C87.4797745,6.441298,85.3326797,6.441298,85.3326797,6.4412975z M87.4057465,3.8129518
			c3.4057388,0,5.6639023,1.702872,5.6639023,4.8494825c0,2.1100788-1.2216263,3.516799-2.813446,4.146121l3.0725784,5.6638985
			h-3.2946854l-2.5913315-5.108614h-2.1100845v5.108614h-3.0725708V3.8129518H87.4057465z"/>
		<path d="M107.914238,13.1417274c0,3.4427624-2.2581558,5.6268806-6.1451416,5.6268806
			c-3.849968,0-6.1081314-2.1841183-6.1081314-5.6268806V3.8129518h3.1095886v9.0326233
			c0,1.9249859,1.0735474,3.0355539,2.9985428,3.0355539c1.9249878,0,2.9985352-1.110568,2.9985352-3.0355539V3.8129518h3.1466064
			V13.1417274z"/>
		<path d="M123.2400818,18.6945686l-8.0331116-7.6999407l-0.9625015-0.8514347v8.3292627h-3.0725632V3.590838h0.1480713
			l7.9960938,7.7369599l0.9624939,0.8144169V3.8129518h3.0725708v14.8816166H123.2400818z"/>
		<path d="M56.3468437,23.5440502l3.331707,5.9970703l3.3687248-5.9970703h3.5538216l-5.3307304,8.9585857v5.7009201h-3.1466103
			V32.502636l-5.3307266-8.9585857H56.3468437z"/>
		<path d="M68.0078125,38.2035561V23.5440502h3.1095886v12.0311604h5.6639023v2.6283455H68.0078125z"/>
		<path d="M79.0394592,23.5440502h3.1466141v14.659502h-3.1466141V23.5440502z"/>
		<path d="M92.4033051,35.6122284c2.6283493,0,4.5163116-2.1100769,4.5163116-4.7384262s-1.8879623-4.7384262-4.516304-4.7384262
			c-2.6653671,0-4.5163116,2.1100788-4.5163116,4.7384262S89.7379379,35.6122284,92.4033051,35.6122284 M92.4033051,23.2479
			c4.4052505,0,7.6629257,3.3687229,7.6629257,7.6259022s-3.2206497,7.5888824-7.6629181,7.5888824
			s-7.6999435-3.3317032-7.6999435-7.5888824C84.7033615,26.6536407,87.9610291,23.2479,92.4033051,23.2479z"/>
		<path d="M105.7671432,26.1723976v4.3682365h1.7769089c1.3697052,0,2.3321915-0.7033615,2.3321915-2.1841183
			c0-1.4437408-0.9995193-2.1841183-2.4062347-2.1841183H105.7671432z M105.7671432,33.1689796v5.0345764h-3.1466064V23.5440502
			h4.775444c3.368721,0,5.6268845,1.6658554,5.6268845,4.8124657s-2.2581635,4.8124638-5.6268845,4.8124638H105.7671432z"/>
		<path d="M115.3180313,23.5440502h3.1466064v14.659502h-3.1466064V23.5440502z"/>
		<path d="M121.2780838,37.6482697v-3.035553c0.9995117,0.5552864,2.3321915,0.9995117,3.6648712,1.0735512
			c0.4812469,0.0370178,0.9254761,0,1.2956619-0.0740356c1.1475906-0.1850967,1.7769012-0.5923042,1.7769012-1.2956657
			c0-0.9995079-0.888443-1.4807549-2.8874664-2.2211342c-2.554306-0.962492-4.0720825-2.0360432-4.0720825-4.5533333
			c0-2.6283436,2.1470947-4.2941971,5.3307266-4.2941971c1.4437332,0,2.8874741,0.3331718,3.8129501,0.7403793v2.8874798
			c-0.8514404-0.5182667-2.2581635-0.8884563-3.5908508-0.8884563c-1.5177765,0-2.4802704,0.5923023-2.4802704,1.5177765
			c0,0.8514366,0.8144226,1.4437389,2.7764206,2.1841183c2.5913315,0.9995117,4.1831436,2.073061,4.1831436,4.5533314
			c0,2.6653633-1.9990234,4.2201614-5.4788055,4.2201614C123.9434433,38.4626846,122.3146057,38.1295166,121.2780838,37.6482697
			L121.2780838,37.6482697z"/>
		<path d="M139.3433228,26.1723976v12.0311584h-3.1095886V26.1723976h-4.1091003v-2.6283455h11.3648224v2.6283455H139.3433228z"/>
		<path d="M152.2999573,35.6122284c2.6653748,0,4.5163116-2.1100769,4.5163116-4.7384262s-1.8509369-4.7384262-4.5163116-4.7384262
			c-2.6283417,0-4.5163116,2.1100788-4.5163116,4.7384262S149.6716156,35.6122284,152.2999573,35.6122284 M152.2999573,23.2479
			c4.442276,0,7.6999359,3.3687229,7.6999359,7.6259022s-3.2576599,7.5888824-7.6999359,7.5888824
			s-7.6629333-3.3317032-7.6629333-7.5888824C144.6370392,26.6536407,147.8576813,23.2479,152.2999573,23.2479z"/>
	</g>
</g>
</svg>
