<?xml version="1.0" encoding="utf-8"?>
<!-- Generator: Adobe Illustrator 25.4.2, SVG Export Plug-In . SVG Version: 6.00 Build 0)  -->
<svg version="1.1" id="Layer_1" xmlns="http://www.w3.org/2000/svg" xmlns:xlink="http://www.w3.org/1999/xlink" x="0px" y="0px"
	 viewBox="0 0 634.3 377.9" style="enable-background:new 0 0 634.3 377.9;" xml:space="preserve">
<style type="text/css">
	.st0{fill:url(#SVGID_1_);}
	.st1{fill:url(#SVGID_00000066518138649327659720000007719703393290429096_);}
	.st2{fill:#3D3D3D;}
	.st3{fill:url(#SVGID_00000122684832310448739050000003749922954182187950_);}
	.st4{fill:url(#SVGID_00000061452824091602313410000003042564829444905661_);}
	.st5{fill:url(#SVGID_00000079465519876258692960000004388945975092372391_);}
	.st6{fill:url(#SVGID_00000076594396844778397810000000729992402632904893_);}
	.st7{fill:url(#SVGID_00000063603989922828353330000005318067302449057180_);}
	.st8{fill:url(#SVGID_00000008110936018129833730000011899195684235743147_);}
	.st9{filter:url(#Adobe_OpacityMaskFilter);}
	.st10{filter:url(#Adobe_OpacityMaskFilter_00000130626195175702204370000015555716961324083087_);}
	
		.st11{mask:url(#SVGID_00000088848916020090411950000002622084253698807943_);fill:url(#SVGID_00000135664268617416976960000015371922214046346382_);}
	.st12{fill:url(#SVGID_00000002342663467445613250000018410406064542950533_);}
	.st13{fill:url(#SVGID_00000166634738970490024200000013275908447600114852_);}
	.st14{fill:#1E1E1E;}
</style>
<g>
	
		<image style="overflow:visible;opacity:0.25;" width="661" height="389" xlink:href="E5E76CE42320A82C.png"  transform="matrix(1 0 0 1 -8.152 -7.152)">
	</image>
	<g>
		<g>
			<g>
				<g>
					<linearGradient id="SVGID_1_" gradientUnits="userSpaceOnUse" x1="316.7551" y1="338.2203" x2="316.7551" y2="3.7536">
						<stop  offset="0" style="stop-color:#9A9A9A"/>
						<stop  offset="9.364340e-02" style="stop-color:#A2A2A2"/>
						<stop  offset="0.2383" style="stop-color:#B8B8B8"/>
						<stop  offset="0.415" style="stop-color:#DBDBDB"/>
						<stop  offset="0.447" style="stop-color:#E2E2E2"/>
						<stop  offset="1" style="stop-color:#C5C5C5"/>
					</linearGradient>
					<path class="st0" d="M555.4,3.8H78.2c-8.6,0-15.5,6.8-15.5,15.3v319.2h2.2V16.8c0-0.7,0.1-1.3,0.2-2c0-0.2,0.1-0.4,0.1-0.6
						c0-0.2,0.1-0.4,0.1-0.6c0.1-0.2,0.1-0.4,0.2-0.6c0.5-1.7,1.5-3.3,2.6-4.7c0.1-0.2,0.3-0.3,0.4-0.5c0.1-0.1,0.1-0.1,0.2-0.2
						c0.7-0.7,1.4-1.3,2.2-1.8c0.3-0.2,0.5-0.3,0.8-0.5c0.3-0.2,0.6-0.3,0.9-0.4c0,0,0,0,0,0c0.2-0.1,0.4-0.2,0.6-0.2c0,0,0,0,0,0
						c1.5-0.6,3.1-0.9,4.8-0.9L555.4,3.8c2.2,0,4.4,0.6,6.3,1.6c0.3,0.2,0.6,0.3,0.8,0.5c0.4,0.2,0.7,0.5,1,0.7c0,0,0,0,0,0
						c0.2,0.1,0.3,0.3,0.5,0.4c0,0,0,0,0,0c0.2,0.2,0.5,0.4,0.7,0.6c0.1,0.1,0.2,0.1,0.2,0.2c0.1,0.2,0.3,0.3,0.4,0.5
						c2,2.3,3.2,5.3,3.2,8.5v321.4h2.2V18.1C570.3,10.1,563.6,3.8,555.4,3.8z"/>
					
						<linearGradient id="SVGID_00000148654510027317486760000007282585144107924867_" gradientUnits="userSpaceOnUse" x1="316.7393" y1="19.0261" x2="316.7393" y2="1.5696">
						<stop  offset="0" style="stop-color:#3E3E3E"/>
						<stop  offset="0.2791" style="stop-color:#414141"/>
						<stop  offset="0.4461" style="stop-color:#494949"/>
						<stop  offset="0.5837" style="stop-color:#575757"/>
						<stop  offset="0.7052" style="stop-color:#6B6B6B"/>
						<stop  offset="0.816" style="stop-color:#868686"/>
						<stop  offset="0.9178" style="stop-color:#A5A5A5"/>
						<stop  offset="1" style="stop-color:#C5C5C5"/>
					</linearGradient>
					<path style="fill:url(#SVGID_00000148654510027317486760000007282585144107924867_);" d="M62.7,16.8c0-8.4,6.9-15.3,15.5-15.3
						h477.2c8.6,0,15.5,6.8,15.5,15.3v1.2c-0.5-8-7.2-14.3-15.5-14.3H78.2c-8.6,0-15.5,6.8-15.5,15.3L62.7,16.8z"/>
					<g>
						<rect x="64.9" y="329.3" width="503.7" height="8.9"/>
						<path class="st2" d="M568.6,16.9v312.4H64.9V16.9c0-7.2,5.9-13.1,13.2-13.1h477.2C562.6,3.8,568.6,9.7,568.6,16.9z"/>
						<polygon points="570.8,338.2 570.8,339 568.6,339 568.6,339 64.9,339 64.9,339 62.7,339 62.7,338.2 						"/>
					</g>
				</g>
				<g>
					<g>
						<g>
							
								<linearGradient id="SVGID_00000007409946876390319170000005855990658808701353_" gradientUnits="userSpaceOnUse" x1="0.7216" y1="344.2548" x2="314.1978" y2="344.2548">
								<stop  offset="0" style="stop-color:#929292"/>
								<stop  offset="1.390270e-02" style="stop-color:#C1C1C1"/>
								<stop  offset="2.710927e-02" style="stop-color:#B2B2B2"/>
								<stop  offset="4.865940e-02" style="stop-color:#9C9C9C"/>
								<stop  offset="7.067415e-02" style="stop-color:#A4A4A4"/>
								<stop  offset="9.091140e-02" style="stop-color:#B0B0B0"/>
								<stop  offset="1" style="stop-color:#CFCFCF"/>
							</linearGradient>
							
								<rect x="0.7" y="339.5" style="fill:url(#SVGID_00000007409946876390319170000005855990658808701353_);" width="313.5" height="9.5"/>
							
								<linearGradient id="SVGID_00000016793928306260163030000008896293097163711910_" gradientUnits="userSpaceOnUse" x1="0.7216" y1="339.2741" x2="627.6741" y2="339.2741">
								<stop  offset="5.456970e-03" style="stop-color:#F7F7F7"/>
								<stop  offset="6.385440e-02" style="stop-color:#D0D0D0"/>
								<stop  offset="0.5025" style="stop-color:#F7F7F7"/>
								<stop  offset="0.8664" style="stop-color:#D0D0D0"/>
								<stop  offset="0.8728" style="stop-color:#D2D2D2"/>
								<stop  offset="0.9501" style="stop-color:#E8E8E8"/>
								<stop  offset="1" style="stop-color:#F0F0F0"/>
							</linearGradient>
							
								<rect x="0.7" y="339" style="fill:url(#SVGID_00000016793928306260163030000008896293097163711910_);" width="627" height="0.5"/>
							
								<linearGradient id="SVGID_00000029027425005977222680000011583657970970278822_" gradientUnits="userSpaceOnUse" x1="314.1978" y1="344.2548" x2="627.6741" y2="344.2548">
								<stop  offset="0" style="stop-color:#CFCFCF"/>
								<stop  offset="0.9091" style="stop-color:#B0B0B0"/>
								<stop  offset="0.9293" style="stop-color:#A4A4A4"/>
								<stop  offset="0.9513" style="stop-color:#9C9C9C"/>
								<stop  offset="0.9729" style="stop-color:#B2B2B2"/>
								<stop  offset="0.9861" style="stop-color:#C1C1C1"/>
								<stop  offset="1" style="stop-color:#929292"/>
							</linearGradient>
							
								<rect x="314.2" y="339.5" style="fill:url(#SVGID_00000029027425005977222680000011583657970970278822_);" width="313.5" height="9.5"/>
						</g>
						<g>
							
								<linearGradient id="SVGID_00000169528292979335098650000007428918868918415781_" gradientUnits="userSpaceOnUse" x1="0.7216" y1="343.9746" x2="314.1978" y2="343.9746">
								<stop  offset="0" style="stop-color:#666666"/>
								<stop  offset="1.390270e-02" style="stop-color:#D5D5D5"/>
								<stop  offset="2.104948e-02" style="stop-color:#BEBEBE"/>
								<stop  offset="3.965440e-02" style="stop-color:#878787"/>
								<stop  offset="4.865940e-02" style="stop-color:#717171"/>
								<stop  offset="5.727778e-02" style="stop-color:#797979"/>
								<stop  offset="7.067029e-02" style="stop-color:#8F8F8F"/>
								<stop  offset="8.708397e-02" style="stop-color:#B3B3B3"/>
								<stop  offset="9.091140e-02" style="stop-color:#BCBCBC"/>
								<stop  offset="1" style="stop-color:#F0F0F0"/>
							</linearGradient>
							
								<rect x="0.7" y="339.5" style="fill:url(#SVGID_00000169528292979335098650000007428918868918415781_);" width="313.5" height="8.9"/>
							
								<linearGradient id="SVGID_00000138560525258041278850000008333628949656064445_" gradientUnits="userSpaceOnUse" x1="314.1978" y1="343.9746" x2="627.6741" y2="343.9746">
								<stop  offset="0" style="stop-color:#F0F0F0"/>
								<stop  offset="0.9091" style="stop-color:#BCBCBC"/>
								<stop  offset="0.9129" style="stop-color:#B3B3B3"/>
								<stop  offset="0.9293" style="stop-color:#8F8F8F"/>
								<stop  offset="0.9427" style="stop-color:#797979"/>
								<stop  offset="0.9513" style="stop-color:#717171"/>
								<stop  offset="0.9603" style="stop-color:#878787"/>
								<stop  offset="0.979" style="stop-color:#BEBEBE"/>
								<stop  offset="0.9861" style="stop-color:#D5D5D5"/>
								<stop  offset="1" style="stop-color:#666666"/>
							</linearGradient>
							
								<rect x="314.2" y="339.5" style="fill:url(#SVGID_00000138560525258041278850000008333628949656064445_);" width="313.5" height="8.9"/>
						</g>
						
							<linearGradient id="SVGID_00000036252360945300289480000015850693496471754905_" gradientUnits="userSpaceOnUse" x1="269.5797" y1="342.6725" x2="358.816" y2="342.6725">
							<stop  offset="0" style="stop-color:#9F9F9F"/>
							<stop  offset="3.953490e-02" style="stop-color:#ADADAD"/>
							<stop  offset="0.514" style="stop-color:#E5E5E5"/>
							<stop  offset="0.9628" style="stop-color:#ADADAD"/>
							<stop  offset="1" style="stop-color:#9F9F9F"/>
						</linearGradient>
						<path style="fill:url(#SVGID_00000036252360945300289480000015850693496471754905_);" d="M358.8,339c0,2-0.8,3.8-2.1,5.1
							c-1.3,1.3-3.1,2.1-5.1,2.1h-74.7c-4,0-7.3-3.3-7.3-7.3H358.8z"/>
						<defs>
							<filter id="Adobe_OpacityMaskFilter" filterUnits="userSpaceOnUse" x="269.2" y="339" width="89.9" height="7.8">
								<feFlood  style="flood-color:white;flood-opacity:1" result="back"/>
								<feBlend  in="SourceGraphic" in2="back" mode="normal"/>
							</filter>
						</defs>
						
							<mask maskUnits="userSpaceOnUse" x="269.2" y="339" width="89.9" height="7.8" id="SVGID_00000074403200863903229110000012404603628762569655_">
							<g class="st9">
								<defs>
									
										<filter id="Adobe_OpacityMaskFilter_00000181058473274030960210000016423115156772558738_" filterUnits="userSpaceOnUse" x="269.2" y="339" width="89.9" height="7.8">
										<feFlood  style="flood-color:white;flood-opacity:1" result="back"/>
										<feBlend  in="SourceGraphic" in2="back" mode="normal"/>
									</filter>
								</defs>
								
									<mask maskUnits="userSpaceOnUse" x="269.2" y="339" width="89.9" height="7.8" id="SVGID_00000074403200863903229110000012404603628762569655_">
									<g style="filter:url(#Adobe_OpacityMaskFilter_00000181058473274030960210000016423115156772558738_);">
									</g>
								</mask>
								
									<linearGradient id="SVGID_00000098899282315977188920000009757569811903710605_" gradientUnits="userSpaceOnUse" x1="269.2278" y1="342.9403" x2="359.1679" y2="342.9403">
									<stop  offset="4.122200e-04" style="stop-color:#CCCCCC"/>
									<stop  offset="0.5247" style="stop-color:#B3B3B3"/>
									<stop  offset="0.7671" style="stop-color:#B5B5B5"/>
									<stop  offset="0.891" style="stop-color:#BDBDBD"/>
									<stop  offset="0.988" style="stop-color:#CACACA"/>
									<stop  offset="1" style="stop-color:#CCCCCC"/>
								</linearGradient>
								
									<path style="mask:url(#SVGID_00000074403200863903229110000012404603628762569655_);fill:url(#SVGID_00000098899282315977188920000009757569811903710605_);" d="
									M358.8,339c0,2-0.8,3.8-2.1,5.1c-1.3,1.3-3.1,2.1-5.1,2.1h-74.7c-4,0-7.3-3.3-7.3-7.3h-0.4v0.5c0,4,3.3,7.3,7.3,7.3h75.4
									c4,0,7.3-3.2,7.3-7.3V339H358.8z"/>
							</g>
						</mask>
						
							<linearGradient id="SVGID_00000180325057378774856400000011357395699522465466_" gradientUnits="userSpaceOnUse" x1="269.2278" y1="342.9403" x2="359.1679" y2="342.9403">
							<stop  offset="4.122200e-04" style="stop-color:#F6F6F6"/>
							<stop  offset="0.5247" style="stop-color:#F7F7F7"/>
							<stop  offset="1" style="stop-color:#F6F6F6"/>
						</linearGradient>
						<path style="fill:url(#SVGID_00000180325057378774856400000011357395699522465466_);" d="M358.8,339c0,2-0.8,3.8-2.1,5.1
							c-1.3,1.3-3.1,2.1-5.1,2.1h-74.7c-4,0-7.3-3.3-7.3-7.3h-0.4v0.5c0,4,3.3,7.3,7.3,7.3h75.4c4,0,7.3-3.2,7.3-7.3V339H358.8z"/>
					</g>
					
						<linearGradient id="SVGID_00000152947994702846270990000011922166906950327466_" gradientUnits="userSpaceOnUse" x1="314.1978" y1="357.3604" x2="314.1978" y2="348.999">
						<stop  offset="0" style="stop-color:#565656"/>
						<stop  offset="0.7389" style="stop-color:#B9B9B9"/>
						<stop  offset="0.8472" style="stop-color:#B6B6B6"/>
						<stop  offset="0.9363" style="stop-color:#ACACAC"/>
						<stop  offset="1" style="stop-color:#9F9F9F"/>
					</linearGradient>
					<path style="fill:url(#SVGID_00000152947994702846270990000011922166906950327466_);" d="M0.7,349c22,5.5,45,8.4,68.1,8.4
						h245.4h245.4c23.1,0,46-2.8,68.1-8.4H314.2H0.7z"/>
				</g>
			</g>
			<rect x="75.3" y="22.8" class="st14" width="482.8" height="298.7"/>
		</g>
	</g>
</g>
</svg>
