<?xml version="1.0" encoding="utf-8"?>
<!-- Generator: Adobe Illustrator 25.4.2, SVG Export Plug-In . SVG Version: 6.00 Build 0)  -->
<svg version="1.1" id="Layer_1" xmlns="http://www.w3.org/2000/svg" xmlns:xlink="http://www.w3.org/1999/xlink" x="0px" y="0px"
	 viewBox="0 0 354.8 677" style="enable-background:new 0 0 354.8 677;" xml:space="preserve">
<style type="text/css">
	.st0{fill:url(#SVGID_1_);}
	.st1{opacity:0.5;fill:url(#SVGID_00000025413419696983010460000008391692422395411335_);}
	.st2{fill:url(#SVGID_00000072262294569906002210000008940235225886837398_);}
	.st3{opacity:0.5;fill:url(#SVGID_00000135663338144327330770000008889182024287560368_);}
	.st4{fill:url(#SVGID_00000097477163190406032870000013191747599959648146_);}
	.st5{opacity:0.5;fill:url(#SVGID_00000106107612072030672340000016800469200730019259_);}
	.st6{fill:url(#SVGID_00000084520427291479603630000008589234954263690143_);}
	.st7{opacity:0.5;fill:url(#SVGID_00000132071666568634919960000010978787445787270326_);}
	.st8{fill:url(#SVGID_00000100380546349637796860000010288170749506604420_);}
	.st9{opacity:0.5;fill:url(#SVGID_00000146492249229928900840000007878276350705573552_);}
	.st10{fill:url(#SVGID_00000003821073501948810310000012832806345437376654_);}
	.st11{opacity:0.5;fill:url(#SVGID_00000144315578190361065080000007580626745771326135_);}
	.st12{fill:url(#SVGID_00000134230586792803675000000003100823038503334788_);}
	.st13{opacity:0.5;fill:url(#SVGID_00000017481651972624806880000001036713268941297572_);}
	.st14{fill:url(#SVGID_00000137106403620696635770000017422918808879476378_);}
	.st15{opacity:0.5;fill:url(#SVGID_00000156552976163741234460000011038658193759812746_);}
	.st16{fill:#16161E;}
</style>
<g>
	
		<image style="overflow:visible;opacity:0.5;" width="370" height="687" xlink:href="9561AF2976093932.png"  transform="matrix(1 0 0 1 -7.5585 -8.3969)">
	</image>
	<g>
		<g>
			<g>
				<linearGradient id="SVGID_1_" gradientUnits="userSpaceOnUse" x1="1.6937" y1="200.7408" x2="1.6937" y2="250.0641">
					<stop  offset="2.962960e-03" style="stop-color:#4D4F4F"/>
					<stop  offset="1.629630e-02" style="stop-color:#7C7C7C"/>
					<stop  offset="3.264040e-02" style="stop-color:#333435"/>
					<stop  offset="5.342890e-02" style="stop-color:#4B4B4B"/>
					<stop  offset="6.103363e-02" style="stop-color:#545454"/>
					<stop  offset="9.161291e-02" style="stop-color:#737374"/>
					<stop  offset="0.8915" style="stop-color:#737374"/>
					<stop  offset="0.9436" style="stop-color:#5A5A5A"/>
					<stop  offset="0.9525" style="stop-color:#4B4B4C"/>
					<stop  offset="0.9688" style="stop-color:#333435"/>
					<stop  offset="0.9822" style="stop-color:#7C7C7C"/>
					<stop  offset="1" style="stop-color:#4D4F4F"/>
				</linearGradient>
				<path class="st0" d="M1.7,200.8C1.3,201,1,201.6,1,202.4l0.1,7.1v33.1L1,248.5c0,0.8,0.3,1.5,0.7,1.6c0.4-0.1,0.7-0.8,0.7-1.6
					v-46.1C2.4,201.6,2.1,201,1.7,200.8z"/>
				
					<linearGradient id="SVGID_00000110458859679710008260000001855033956612284041_" gradientUnits="userSpaceOnUse" x1="0.9585" y1="225.4973" x2="2.2858" y2="225.4973">
					<stop  offset="0" style="stop-color:#292929"/>
					<stop  offset="7.434541e-02" style="stop-color:#313131"/>
					<stop  offset="0.1921" style="stop-color:#484848"/>
					<stop  offset="0.3384" style="stop-color:#6D6D6D"/>
					<stop  offset="0.5077" style="stop-color:#A1A1A1"/>
					<stop  offset="0.6943" style="stop-color:#E3E3E3"/>
					<stop  offset="0.7086" style="stop-color:#E8E8E8"/>
					<stop  offset="1" style="stop-color:#3D3D3D"/>
				</linearGradient>
				<path style="opacity:0.5;fill:url(#SVGID_00000110458859679710008260000001855033956612284041_);" d="M1.6,200.8
					C1.2,201,1,201.6,1,202.4l0.1,7.1v33.1L1,248.5c0,0.8,0.3,1.5,0.7,1.6c0.4-0.1,0.7-0.8,0.7-1.6v-46.1C2.3,201.6,2,201,1.6,200.8
					z"/>
				
					<linearGradient id="SVGID_00000057136768613226136070000017507193121178208934_" gradientUnits="userSpaceOnUse" x1="3.2496" y1="198.636" x2="3.3677" y2="251.9711">
					<stop  offset="0" style="stop-color:#1F1F28"/>
					<stop  offset="3.304060e-02" style="stop-color:#1F1F28"/>
					<stop  offset="5.997153e-02" style="stop-color:#39393C"/>
					<stop  offset="7.780150e-02" style="stop-color:#4C4C4C"/>
					<stop  offset="9.029819e-02" style="stop-color:#4B4B4B"/>
					<stop  offset="0.9142" style="stop-color:#21212A"/>
					<stop  offset="0.9704" style="stop-color:#1F1F28"/>
					<stop  offset="1" style="stop-color:#1F1F28"/>
				</linearGradient>
				<path style="fill:url(#SVGID_00000057136768613226136070000017507193121178208934_);" d="M5,202.5c0-0.9-0.4-1.6-0.8-1.6
					c0,0-2.5,0-2.5,0c0.4,0.1,0.7,0.8,0.7,1.6v46.1c0,0.8-0.3,1.5-0.7,1.6c0,0,2.6,0,2.6,0c0.5,0,0.8-0.8,0.8-1.6L5,202.5z"/>
				
					<linearGradient id="SVGID_00000075842263988699782740000008046445362214449047_" gradientUnits="userSpaceOnUse" x1="5.1993" y1="225.4998" x2="2.0517" y2="225.4998">
					<stop  offset="0" style="stop-color:#1F1F1F"/>
					<stop  offset="8.344229e-02" style="stop-color:#272727"/>
					<stop  offset="0.2157" style="stop-color:#3E3E3E"/>
					<stop  offset="0.3801" style="stop-color:#636363"/>
					<stop  offset="0.5703" style="stop-color:#979797"/>
					<stop  offset="0.7797" style="stop-color:#D9D9D9"/>
					<stop  offset="0.8548" style="stop-color:#F2F2F2"/>
				</linearGradient>
				<path style="opacity:0.5;fill:url(#SVGID_00000075842263988699782740000008046445362214449047_);" d="M5,202.5
					c0-0.9-0.4-1.6-0.8-1.6c0,0-2.5,0-2.5,0c0.4,0.1,0.7,0.8,0.7,1.6v46.1c0,0.8-0.3,1.5-0.7,1.6c0,0,2.6,0,2.6,0
					c0.5,0,0.8-0.8,0.8-1.6L5,202.5z"/>
			</g>
			<g>
				
					<linearGradient id="SVGID_00000183928513683868063580000008472108566812202175_" gradientUnits="userSpaceOnUse" x1="1.4247" y1="139.4495" x2="1.4247" y2="188.7728">
					<stop  offset="2.962960e-03" style="stop-color:#4D4F4F"/>
					<stop  offset="1.629630e-02" style="stop-color:#7C7C7C"/>
					<stop  offset="3.264040e-02" style="stop-color:#333435"/>
					<stop  offset="5.342890e-02" style="stop-color:#4B4B4B"/>
					<stop  offset="6.103363e-02" style="stop-color:#545454"/>
					<stop  offset="9.161291e-02" style="stop-color:#737374"/>
					<stop  offset="0.8915" style="stop-color:#737374"/>
					<stop  offset="0.9436" style="stop-color:#5A5A5A"/>
					<stop  offset="0.9525" style="stop-color:#4B4B4C"/>
					<stop  offset="0.9688" style="stop-color:#333435"/>
					<stop  offset="0.9822" style="stop-color:#7C7C7C"/>
					<stop  offset="1" style="stop-color:#4D4F4F"/>
				</linearGradient>
				<path style="fill:url(#SVGID_00000183928513683868063580000008472108566812202175_);" d="M1.4,139.5c-0.4,0.1-0.7,0.8-0.7,1.6
					l0.1,7.1v33.1l-0.1,5.9c0,0.8,0.3,1.5,0.7,1.6c0.4-0.1,0.7-0.8,0.7-1.6v-46.1C2.1,140.3,1.8,139.7,1.4,139.5z"/>
				
					<linearGradient id="SVGID_00000070819139478860198740000008327749840359432364_" gradientUnits="userSpaceOnUse" x1="0.6896" y1="164.2061" x2="2.017" y2="164.2061">
					<stop  offset="0" style="stop-color:#292929"/>
					<stop  offset="7.434541e-02" style="stop-color:#313131"/>
					<stop  offset="0.1921" style="stop-color:#484848"/>
					<stop  offset="0.3384" style="stop-color:#6D6D6D"/>
					<stop  offset="0.5077" style="stop-color:#A1A1A1"/>
					<stop  offset="0.6943" style="stop-color:#E3E3E3"/>
					<stop  offset="0.7086" style="stop-color:#E8E8E8"/>
					<stop  offset="1" style="stop-color:#3D3D3D"/>
				</linearGradient>
				<path style="opacity:0.5;fill:url(#SVGID_00000070819139478860198740000008327749840359432364_);" d="M1.3,139.5
					c-0.4,0.1-0.7,0.8-0.7,1.6l0.1,7.1v33.1l-0.1,5.9c0,0.8,0.3,1.5,0.7,1.6c0.4-0.1,0.7-0.8,0.7-1.6v-46.1
					C2,140.3,1.7,139.7,1.3,139.5z"/>
				
					<linearGradient id="SVGID_00000075148092478040896330000012118502196573124516_" gradientUnits="userSpaceOnUse" x1="2.9807" y1="137.3447" x2="3.0987" y2="190.6798">
					<stop  offset="0" style="stop-color:#1F1F28"/>
					<stop  offset="3.304060e-02" style="stop-color:#1F1F28"/>
					<stop  offset="5.997153e-02" style="stop-color:#39393C"/>
					<stop  offset="7.780150e-02" style="stop-color:#4C4C4C"/>
					<stop  offset="9.029819e-02" style="stop-color:#4B4B4B"/>
					<stop  offset="0.9142" style="stop-color:#21212A"/>
					<stop  offset="0.9704" style="stop-color:#1F1F28"/>
					<stop  offset="1" style="stop-color:#1F1F28"/>
				</linearGradient>
				<path style="fill:url(#SVGID_00000075148092478040896330000012118502196573124516_);" d="M4.7,141.2c0-0.9-0.4-1.6-0.8-1.6
					c0,0-2.5,0-2.5,0c0.4,0.1,0.7,0.8,0.7,1.6v46.1c0,0.8-0.3,1.5-0.7,1.6c0,0,2.6,0,2.6,0c0.5,0,0.8-0.8,0.8-1.6L4.7,141.2z"/>
				
					<linearGradient id="SVGID_00000142134997698030293830000017263297397678094002_" gradientUnits="userSpaceOnUse" x1="4.9303" y1="164.2085" x2="1.7829" y2="164.2085">
					<stop  offset="0" style="stop-color:#1F1F1F"/>
					<stop  offset="8.344229e-02" style="stop-color:#272727"/>
					<stop  offset="0.2157" style="stop-color:#3E3E3E"/>
					<stop  offset="0.3801" style="stop-color:#636363"/>
					<stop  offset="0.5703" style="stop-color:#979797"/>
					<stop  offset="0.7797" style="stop-color:#D9D9D9"/>
					<stop  offset="0.8548" style="stop-color:#F2F2F2"/>
				</linearGradient>
				<path style="opacity:0.5;fill:url(#SVGID_00000142134997698030293830000017263297397678094002_);" d="M4.7,141.2
					c0-0.9-0.4-1.6-0.8-1.6c0,0-2.5,0-2.5,0c0.4,0.1,0.7,0.8,0.7,1.6v46.1c0,0.8-0.3,1.5-0.7,1.6c0,0,2.6,0,2.6,0
					c0.5,0,0.8-0.8,0.8-1.6L4.7,141.2z"/>
			</g>
			<g>
				
					<linearGradient id="SVGID_00000094617447073816595080000001250018076029322138_" gradientUnits="userSpaceOnUse" x1="-1098.3894" y1="149.7928" x2="-1098.3894" y2="228.7642" gradientTransform="matrix(-1 0 0 1 -759.0408 0)">
					<stop  offset="2.962960e-03" style="stop-color:#4D4F4F"/>
					<stop  offset="1.629630e-02" style="stop-color:#7C7C7C"/>
					<stop  offset="3.264040e-02" style="stop-color:#333435"/>
					<stop  offset="5.342890e-02" style="stop-color:#4B4B4B"/>
					<stop  offset="6.103363e-02" style="stop-color:#545454"/>
					<stop  offset="9.161291e-02" style="stop-color:#737374"/>
					<stop  offset="0.8915" style="stop-color:#737374"/>
					<stop  offset="0.9436" style="stop-color:#5A5A5A"/>
					<stop  offset="0.9525" style="stop-color:#4B4B4C"/>
					<stop  offset="0.9688" style="stop-color:#333435"/>
					<stop  offset="0.9822" style="stop-color:#7C7C7C"/>
					<stop  offset="1" style="stop-color:#4D4F4F"/>
				</linearGradient>
				<path style="fill:url(#SVGID_00000094617447073816595080000001250018076029322138_);" d="M339.3,149.9c0.4,0.1,0.7,0.8,0.7,1.6
					l-0.1,7.1v62.7l0.1,5.9c0,0.8-0.3,1.5-0.7,1.6c-0.4-0.1-0.7-0.8-0.7-1.6v-75.8C338.7,150.7,339,150.1,339.3,149.9z"/>
				
					<linearGradient id="SVGID_00000057833875129348770810000002953776939287932318_" gradientUnits="userSpaceOnUse" x1="-1099.1237" y1="189.4305" x2="-1097.7977" y2="189.4305" gradientTransform="matrix(-1 0 0 1 -759.0408 0)">
					<stop  offset="0" style="stop-color:#292929"/>
					<stop  offset="7.434541e-02" style="stop-color:#313131"/>
					<stop  offset="0.1921" style="stop-color:#484848"/>
					<stop  offset="0.3384" style="stop-color:#6D6D6D"/>
					<stop  offset="0.5077" style="stop-color:#A1A1A1"/>
					<stop  offset="0.6943" style="stop-color:#E3E3E3"/>
					<stop  offset="0.7086" style="stop-color:#E8E8E8"/>
					<stop  offset="1" style="stop-color:#3D3D3D"/>
				</linearGradient>
				<path style="opacity:0.5;fill:url(#SVGID_00000057833875129348770810000002953776939287932318_);" d="M339.4,149.9
					c0.4,0.1,0.7,0.8,0.7,1.6l-0.1,7.1v62.7l0.1,5.9c0,0.8-0.3,1.5-0.7,1.6c-0.4-0.1-0.7-0.8-0.7-1.6v-75.8
					C338.8,150.7,339.1,150.1,339.4,149.9z"/>
				
					<linearGradient id="SVGID_00000110469114280952630900000001207308681398240652_" gradientUnits="userSpaceOnUse" x1="-1096.8705" y1="146.4253" x2="-1096.6815" y2="231.8155" gradientTransform="matrix(-1 0 0 1 -759.0408 0)">
					<stop  offset="0" style="stop-color:#1F1F28"/>
					<stop  offset="3.304060e-02" style="stop-color:#1F1F28"/>
					<stop  offset="5.997153e-02" style="stop-color:#39393C"/>
					<stop  offset="7.780150e-02" style="stop-color:#4C4C4C"/>
					<stop  offset="9.029819e-02" style="stop-color:#4B4B4B"/>
					<stop  offset="0.9142" style="stop-color:#21212A"/>
					<stop  offset="0.9704" style="stop-color:#1F1F28"/>
					<stop  offset="1" style="stop-color:#1F1F28"/>
				</linearGradient>
				<path style="fill:url(#SVGID_00000110469114280952630900000001207308681398240652_);" d="M336,151.6c0-0.9,0.4-1.6,0.8-1.6
					c0,0,2.5,0,2.5,0c-0.4,0.1-0.7,0.8-0.7,1.6v75.8c0,0.8,0.3,1.5,0.7,1.6c0,0-2.5,0-2.5,0c-0.5,0-0.8-0.8-0.8-1.6L336,151.6z"/>
				
					<linearGradient id="SVGID_00000075883180056047813960000000586496249755166398_" gradientUnits="userSpaceOnUse" x1="-1094.8868" y1="189.4329" x2="-1098.0314" y2="189.4329" gradientTransform="matrix(-1 0 0 1 -759.0408 0)">
					<stop  offset="0" style="stop-color:#1F1F1F"/>
					<stop  offset="8.344229e-02" style="stop-color:#272727"/>
					<stop  offset="0.2157" style="stop-color:#3E3E3E"/>
					<stop  offset="0.3801" style="stop-color:#636363"/>
					<stop  offset="0.5703" style="stop-color:#979797"/>
					<stop  offset="0.7797" style="stop-color:#D9D9D9"/>
					<stop  offset="0.8548" style="stop-color:#F2F2F2"/>
				</linearGradient>
				<path style="opacity:0.5;fill:url(#SVGID_00000075883180056047813960000000586496249755166398_);" d="M336,151.6
					c0-0.9,0.4-1.6,0.8-1.6c0,0,2.5,0,2.5,0c-0.4,0.1-0.7,0.8-0.7,1.6v75.8c0,0.8,0.3,1.5,0.7,1.6c0,0-2.5,0-2.5,0
					c-0.5,0-0.8-0.8-0.8-1.6L336,151.6z"/>
			</g>
			<g>
				
					<linearGradient id="SVGID_00000002380305027412885480000017646647723542160527_" gradientUnits="userSpaceOnUse" x1="1.4247" y1="87.4862" x2="1.4247" y2="114.1771">
					<stop  offset="2.962960e-03" style="stop-color:#4D4F4F"/>
					<stop  offset="1.629630e-02" style="stop-color:#7C7C7C"/>
					<stop  offset="3.264040e-02" style="stop-color:#333435"/>
					<stop  offset="5.342890e-02" style="stop-color:#4B4B4B"/>
					<stop  offset="6.103363e-02" style="stop-color:#545454"/>
					<stop  offset="9.161291e-02" style="stop-color:#737374"/>
					<stop  offset="0.8915" style="stop-color:#737374"/>
					<stop  offset="0.9436" style="stop-color:#5A5A5A"/>
					<stop  offset="0.9525" style="stop-color:#4B4B4C"/>
					<stop  offset="0.9688" style="stop-color:#333435"/>
					<stop  offset="0.9822" style="stop-color:#7C7C7C"/>
					<stop  offset="1" style="stop-color:#4D4F4F"/>
				</linearGradient>
				<path style="fill:url(#SVGID_00000002380305027412885480000017646647723542160527_);" d="M1.4,87.5c-0.4,0.1-0.7,0.8-0.7,1.6
					l0.1,7.1v10.4l-0.1,5.9c0,0.8,0.3,1.5,0.7,1.6c0.4-0.1,0.7-0.8,0.7-1.6V89.1C2.1,88.3,1.8,87.7,1.4,87.5z"/>
				
					<linearGradient id="SVGID_00000129926867072766195350000011092407992839607214_" gradientUnits="userSpaceOnUse" x1="0.6896" y1="100.883" x2="2.017" y2="100.883">
					<stop  offset="0" style="stop-color:#292929"/>
					<stop  offset="7.434541e-02" style="stop-color:#313131"/>
					<stop  offset="0.1921" style="stop-color:#484848"/>
					<stop  offset="0.3384" style="stop-color:#6D6D6D"/>
					<stop  offset="0.5077" style="stop-color:#A1A1A1"/>
					<stop  offset="0.6943" style="stop-color:#E3E3E3"/>
					<stop  offset="0.7086" style="stop-color:#E8E8E8"/>
					<stop  offset="1" style="stop-color:#3D3D3D"/>
				</linearGradient>
				<path style="opacity:0.5;fill:url(#SVGID_00000129926867072766195350000011092407992839607214_);" d="M1.3,87.5
					c-0.4,0.1-0.7,0.8-0.7,1.6l0.1,7.1v10.4l-0.1,5.9c0,0.8,0.3,1.5,0.7,1.6c0.4-0.1,0.7-0.8,0.7-1.6V89.1C2,88.3,1.7,87.7,1.3,87.5
					z"/>
				
					<linearGradient id="SVGID_00000023249897383096818450000008457760835630042503_" gradientUnits="userSpaceOnUse" x1="3.008" y1="86.3453" x2="3.0718" y2="115.2107">
					<stop  offset="0" style="stop-color:#1F1F28"/>
					<stop  offset="3.304060e-02" style="stop-color:#1F1F28"/>
					<stop  offset="5.997153e-02" style="stop-color:#39393C"/>
					<stop  offset="7.780150e-02" style="stop-color:#4C4C4C"/>
					<stop  offset="9.029819e-02" style="stop-color:#4B4B4B"/>
					<stop  offset="0.9142" style="stop-color:#21212A"/>
					<stop  offset="0.9704" style="stop-color:#1F1F28"/>
					<stop  offset="1" style="stop-color:#1F1F28"/>
				</linearGradient>
				<path style="fill:url(#SVGID_00000023249897383096818450000008457760835630042503_);" d="M4.7,89.2c0-0.9-0.4-1.6-0.8-1.6
					c0,0-2.5,0-2.5,0c0.4,0.1,0.7,0.8,0.7,1.6v23.5c0,0.8-0.3,1.5-0.7,1.6c0,0,2.6,0,2.6,0c0.5,0,0.8-0.8,0.8-1.6L4.7,89.2z"/>
				
					<linearGradient id="SVGID_00000093144956006337999990000003668556048377903007_" gradientUnits="userSpaceOnUse" x1="4.9303" y1="100.8854" x2="1.7829" y2="100.8854">
					<stop  offset="0" style="stop-color:#1F1F1F"/>
					<stop  offset="8.344229e-02" style="stop-color:#272727"/>
					<stop  offset="0.2157" style="stop-color:#3E3E3E"/>
					<stop  offset="0.3801" style="stop-color:#636363"/>
					<stop  offset="0.5703" style="stop-color:#979797"/>
					<stop  offset="0.7797" style="stop-color:#D9D9D9"/>
					<stop  offset="0.8548" style="stop-color:#F2F2F2"/>
				</linearGradient>
				<path style="opacity:0.5;fill:url(#SVGID_00000093144956006337999990000003668556048377903007_);" d="M4.7,89.2
					c0-0.9-0.4-1.6-0.8-1.6c0,0-2.5,0-2.5,0c0.4,0.1,0.7,0.8,0.7,1.6v23.5c0,0.8-0.3,1.5-0.7,1.6c0,0,2.6,0,2.6,0
					c0.5,0,0.8-0.8,0.8-1.6L4.7,89.2z"/>
			</g>
			<g>
				
					<image style="overflow:visible;" width="334" height="657" xlink:href="9561AF2976093936.png"  transform="matrix(1 0 0 1 3.4415 -0.3969)">
				</image>
			</g>
			<path class="st16" d="M284.1,656.3H56.7c-29.2,0-52.8-23.6-52.8-52.8V53.3c0-29.2,23.6-52.8,52.8-52.8h227.4
				c29.2,0,52.8,23.6,52.8,52.8v550.2C336.9,632.7,313.2,656.3,284.1,656.3z"/>
		</g>
	</g>
</g>
</svg>
