<?xml version="1.0" encoding="utf-8"?>
<!-- Generator: Adobe Illustrator 26.0.1, SVG Export Plug-In . SVG Version: 6.00 Build 0)  -->
<svg version="1.1" xmlns="http://www.w3.org/2000/svg" xmlns:xlink="http://www.w3.org/1999/xlink" x="0px" y="0px" width="100px"
	 height="60px" viewBox="0 0 100 60" style="enable-background:new 0 0 100 60;" xml:space="preserve">
<style type="text/css">
	.st0{display:none;}
	.st1{display:inline;}
	.st2{fill:#252F3E;}
	.st3{fill-rule:evenodd;clip-rule:evenodd;fill:#FF9900;}
	.st4{display:inline;fill:#DA1F26;}
	.st5{fill:#264DE4;}
	.st6{fill:#2965F1;}
	.st7{fill:#EBEBEB;}
	.st8{fill:#FFFFFF;}
	.st9{clip-path:url(#SVGID_00000015318745050365492500000010470355158941287319_);}
	.st10{fill:url(#SVGID_00000021814323254772686040000009453016463550713770_);}
	.st11{fill:url(#SVGID_00000000915482814761918060000000615008756904987294_);}
	.st12{fill:none;stroke:url(#SVGID_00000065773123921255820740000012676288743227275422_);stroke-width:26.3736267;stroke-miterlimit:13.7931032;}
	.st13{fill:#E44D26;}
	.st14{fill:#F16529;}
	.st15{fill:#330000;}
	.st16{fill:#FF9A00;}
	.st17{fill:#49021F;}
	.st18{fill:#FF3366;}
	.st19{fill:#F7DF1E;}
	.st20{fill-rule:evenodd;clip-rule:evenodd;fill:#404137;}
	.st21{fill-rule:evenodd;clip-rule:evenodd;fill:#83CD29;}
	.st22{fill-rule:evenodd;clip-rule:evenodd;fill:url(#SVGID_00000078025739416769349270000009110835454947339916_);}
	.st23{fill-rule:evenodd;clip-rule:evenodd;fill:url(#SVGID_00000103264476913818528880000014451586323868809640_);}
	.st24{fill:#61DAFB;}
	.stack_icon {display: none;}
	.stack_icon:target {display: inline;}
	rect, line {shape-redering: crispEdges;}
</style>
<g id="aws" class="st0 stack_icon">
	<g class="st1">
		<path class="st2" d="M28.1809769,21.8183002c0,1.2305794,0.1330376,2.2283478,0.3658485,2.9600468
			c0.2660732,0.7316952,0.5986614,1.529911,1.0642853,2.3946438c0.1662941,0.2660732,0.232811,0.5321426,0.232811,0.7649574
			c0,0.3325882-0.1995525,0.6651783-0.6319199,0.9977684l-2.095314,1.3968735
			c-0.2993317,0.1995544-0.5986633,0.2993317-0.8647327,0.2993317c-0.3325901,0-0.6651783-0.1662941-0.9977684-0.4656258
			c-0.4656239-0.4988842-0.8647289-1.0310268-1.197319-1.5631695c-0.3325901-0.5654011-0.6651783-1.1973209-1.0310268-1.9622784
			c-2.5941982,3.0598221-5.8535748,4.589735-9.7781315,4.589735c-2.7937517,0-5.0221004-0.798214-6.6517892-2.3946419
			C4.9662318,27.2395096,4.134758,25.110939,4.134758,22.4502201c0-2.8270092,0.9977684-5.1218777,3.0265646-6.8513422
			s4.7227707-2.5941973,8.1484423-2.5941973c1.1308041,0,2.2948685,0.0997763,3.5254498,0.2660713
			c1.2305813,0.1662941,2.494421,0.4323654,3.8247776,0.7316971v-2.4279032c0-2.5276804-0.5321426-4.2904043-1.5631695-5.3214321
			c-1.0642853-1.0310273-2.8602676-1.5299115-5.4212074-1.5299115c-1.1640635,0-2.3613853,0.1330357-3.5919666,0.4323659
			C10.8530674,5.4548988,9.6557465,5.8207474,8.491683,6.2863722C7.9595394,6.5191851,7.5604324,6.6522207,7.3276196,6.7187386
			S6.9285121,6.8185148,6.7954764,6.8185148c-0.4656253,0-0.6984382-0.3325891-0.6984382-1.0310273V4.1577992
			c0-0.5321434,0.0665183-0.9312508,0.2328129-1.1640632c0.1662951-0.2328126,0.4656253-0.4656253,0.9312506-0.6984379
			c1.1640635-0.5986611,2.5609388-1.0975453,4.1906271-1.4966527c1.6296883-0.4323663,3.3591528-0.63192,5.1883945-0.63192
			c3.9578152,0,6.8513432,0.8979917,8.7138462,2.693975c1.8292427,1.7959831,2.7604942,4.5232172,2.7604942,8.1817007v10.7758989
			H28.1809769z M14.677844,26.8736591c1.0975447,0,2.2283506-0.1995525,3.4256716-0.5986614
			c1.1973209-0.399107,2.2616081-1.130806,3.1595993-2.1285744c0.5321426-0.6319199,0.9312515-1.3303566,1.130806-2.1285725
			c0.1995525-0.7982159,0.3325882-1.7627239,0.3325882-2.893528v-1.3968773
			c-0.96451-0.2328129-1.9955368-0.4323654-3.0598221-0.5654011c-1.0642872-0.1330376-2.095314-0.1995544-3.1263409-0.1995544
			c-2.2283497,0-3.8580379,0.4323673-4.9555836,1.3303585s-1.6296883,2.1618309-1.6296883,3.8247776
			c0,1.5631695,0.399107,2.727232,1.2305803,3.5254478C11.9838696,26.4745541,13.147933,26.8736591,14.677844,26.8736591z
			 M41.3847771,30.4656277c-0.5986595,0-0.9977684-0.0997791-1.2638397-0.3325901
			c-0.2660713-0.1995525-0.4988823-0.6651783-0.6984367-1.2971001L31.6066475,3.1267707
			c-0.1995525-0.665179-0.2993317-1.0975454-0.2993317-1.330358c0-0.5321431,0.2660732-0.8314737,0.798214-0.8314737h3.2593803
			c0.6319199,0,1.0642853,0.0997769,1.2971001,0.3325895c0.2660713,0.1995536,0.4656258,0.6651789,0.6651764,1.2970991
			l5.5875015,22.0174217l5.1884003-22.0174217c0.1662941-0.6651791,0.3658485-1.0975455,0.631916-1.2970991
			c0.2660751-0.1995537,0.7316971-0.3325895,1.3303604-0.3325895h2.6607132c0.6319199,0,1.0642853,0.0997769,1.3303604,0.3325895
			c0.2660713,0.1995536,0.4988823,0.6651789,0.631916,1.2970991l5.2549133,22.2834949l5.7537994-22.2834949
			c0.1995544-0.6651791,0.4323654-1.0975455,0.6651764-1.2970991c0.2660751-0.1995537,0.6984406-0.3325895,1.2971039-0.3325895
			h3.0930786c0.5321503,0,0.8314743,0.2660717,0.8314743,0.8314737c0,0.1662947-0.0332565,0.3325894-0.0665131,0.5321431
			c-0.0332642,0.199554-0.0997772,0.4656253-0.232811,0.8314738L63.269165,28.8691959
			c-0.1995583,0.6651802-0.4323692,1.0975475-0.6984406,1.2971001s-0.6984406,0.3325901-1.2638397,0.3325901h-2.8602715
			c-0.6319199,0-1.0642853-0.0997791-1.3303604-0.3325901c-0.2660713-0.232811-0.4988823-0.6651783-0.631916-1.3303585
			L51.3292046,7.3839159l-5.1218758,21.4187622c-0.1662941,0.6651802-0.3658524,1.0975475-0.6319199,1.3303585
			c-0.2660713,0.232811-0.7316933,0.3325901-1.3303566,0.3325901H41.3847771z M84.1225281,31.3636169
			c-1.7294617,0-3.458931-0.1995525-5.1218719-0.5986614c-1.6629486-0.399107-2.9600449-0.8314743-3.8247833-1.3303585
			c-0.5321426-0.2993298-0.8979874-0.6319199-1.0310287-0.9312515c-0.1330338-0.2993298-0.1995544-0.6319199-0.1995544-0.9312515
			v-1.6962051c0-0.6984386,0.2660751-1.0310268,0.7649536-1.0310268c0.1995544,0,0.3991089,0.0332584,0.5986633,0.0997772
			c0.1995544,0.0665169,0.4988861,0.1995525,0.8314743,0.3325901c1.130806,0.4988842,2.3613892,0.8979893,3.6584854,1.1640625
			c1.3303604,0.2660732,2.6274567,0.399107,3.9578094,0.399107c2.095314,0,3.7250061-0.3658485,4.8558121-1.0975475
			c1.1307983-0.7316952,1.7294693-1.7959824,1.7294693-3.1595993c0-0.9312515-0.2993317-1.6962051-0.897995-2.3281269
			c-0.5986557-0.6319199-1.7294693-1.1973209-3.3591614-1.7294655l-4.8225403-1.4966488
			c-2.4279099-0.7649555-4.2238922-1.8957596-5.321434-3.3924122c-1.0975494-1.4633942-1.6629486-3.0930824-1.6629486-4.8225479
			c0-1.3968763,0.2993317-2.6274567,0.8979874-3.6917434c0.5986633-1.0642862,1.3968811-1.995537,2.3946457-2.7272336
			c0.9977722-0.764956,2.1285706-1.330358,3.458931-1.7294654c1.3303528-0.3991074,2.7272339-0.5654022,4.1906281-0.5654022
			c0.7316971,0,1.4966507,0.033259,2.2283554,0.1330358c0.764946,0.0997769,1.4633865,0.2328126,2.1618271,0.3658484
			c0.665184,0.1662948,1.2970963,0.3325895,1.8957672,0.5321432c0.5986557,0.1995537,1.0642929,0.3991075,1.3968811,0.5986609
			c0.4656219,0.2660717,0.7982101,0.5321432,0.9977646,0.8314737c0.1995544,0.2660718,0.2993317,0.6319199,0.2993317,1.0975454
			v1.5631709c0,0.6984382-0.2660675,1.0642867-0.7649536,1.0642867c-0.2660675,0-0.6984406-0.1330357-1.2638321-0.3991079
			c-1.8957672-0.8647327-4.0243378-1.2970986-6.3857269-1.2970986c-1.8957596,0-3.3924103,0.2993302-4.423439,0.9312501
			s-1.5631714,1.5964298-1.5631714,2.9600468c0,0.9312496,0.3325882,1.7294655,0.9977722,2.3613844
			c0.6651764,0.6319208,1.8957596,1.2638397,3.6584854,1.8292427l4.7227707,1.4966526
			c2.3946457,0.7649555,4.1241074,1.8292418,5.1551361,3.1928596s1.5299149,2.9267864,1.5299149,4.6562519
			c0,1.4301357-0.2993317,2.7272339-0.8647385,3.8580379c-0.5986557,1.130806-1.3968735,2.1285744-2.4278946,2.9267883
			c-1.0310287,0.8314743-2.2616043,1.4301357-3.6917496,1.8625011
			C87.3819046,31.130806,85.8187332,31.3636169,84.1225281,31.3636169z"/>
		<g>
			<path class="st3" d="M90.4084702,47.5274658c-10.9421921,8.0819244-26.8399734,12.3723297-40.5094032,12.3723297
				c-19.1571522,0-36.4185448-7.0841599-49.4560509-18.8578262c-1.0310273-0.9312515-0.0997768-2.1950874,1.1308042-1.4633942
				c14.1017942,8.1817017,31.4962234,13.1372833,49.489315,13.1372833c12.1395149,0,25.4763489-2.5276833,37.748909-7.7160759
				C90.6412811,44.1683159,92.2044449,46.1971092,90.4084702,47.5274658z"/>
			<path class="st3" d="M94.9649506,42.3390732c-1.3968811-1.7959824-9.2459869-0.8647308-12.8046951-0.4323692
				c-1.0642853,0.1330376-1.2305832-0.798214-0.2660751-1.4966507c6.2526855-4.3901787,16.5296936-3.1263428,17.7270203-1.6629486
				c1.1973267,1.4966545-0.3325882,11.7736702-6.1861649,16.6959915c-0.897995,0.7649574-1.7627258,0.3658524-1.3636246-0.631916
				C93.4017715,51.5185394,96.3618164,44.1017952,94.9649506,42.3390732z"/>
		</g>
	</g>
</g>
<g id="cc" class="st0 stack_icon">
	<path class="st4" d="M90.6753464,28.6622353v2.6782112c-0.025444,0.1452923-0.057579,0.2879086-0.0743179,0.4325314
		c-0.1385956,1.1650257-0.2283173,2.3374119-0.4198074,3.4937267c-0.6253586,3.7582016-1.9771957,7.2512627-3.9858551,10.4811859
		c-3.0504837,4.9038048-7.174263,8.6432571-12.3565979,11.1969337c-2.9910278,1.4808807-6.2159424,2.4325447-9.5317612,2.8127899
		c-0.7365074,0.0850334-1.4723434,0.1613617-2.2088585,0.2423782H33.5189514
		c-0.1439552-0.026783-0.2872391-0.0696297-0.4325333-0.0783348c-2.8817577-0.1814499-5.6543751-0.8382797-8.297102-1.9945984
		c-5.7534695-2.5175209-10.0432959-6.5977783-12.8514023-12.2139893c-1.2408524-2.4772415-2.0438766-5.1504402-2.3735638-7.9013901
		c-0.0810156-0.6688843-0.1600237-1.337101-0.2397003-2.0053139v-2.5985336
		c0.0274515-0.1439552,0.0696335-0.2879105,0.0783377-0.4325333c0.1493101-2.4967632,0.6615191-4.9212132,1.5634069-7.2512569
		c2.4271297-6.2696953,6.6580353-10.9197416,12.6706219-13.9293833c3.1194477-1.562068,6.4444485-2.3829393,9.9221077-2.5650587
		c1.7026711-0.0883808,3.404007,0.0066957,5.0966377,0.233674c0.1533279,0.0207567,0.374279-0.0475378,0.4807396-0.1566753
		c2.4338226-2.4860506,5.205101-4.5054226,8.3299065-6.0360212c3.0310669-1.4843991,6.2208176-2.4411905,9.5786285-2.8241749
		c0.7900696-0.0903897,1.5821533-0.16471,2.3735619-0.2463955h2.4365044
		c0.1593513,0.0247735,0.3193741,0.0528947,0.4787292,0.0716422c1.2072029,0.1406062,2.4211044,0.2289872,3.6169281,0.4291835
		c3.7307434,0.6260322,7.2037201,1.9651384,10.417572,3.9543805c4.9279099,3.0504842,8.6834335,7.1796179,11.2491608,12.3780289
		c1.4838409,2.992424,2.4365005,6.219902,2.8154755,9.5384521c0.0870361,0.7639599,0.1613617,1.5279217,0.2423782,2.2905426
		 M45.1892586,11.3321924c0.0488815,0.0642776,0.0609322,0.0944071,0.0816879,0.1044502
		c1.6731987,0.8247356,3.2723999,1.7917824,4.7799416,2.89046c0.0950737,0.068965,0.3307571,0.0401735,0.445919-0.0321379
		c4.1431961-2.6253176,8.6345596-3.5312233,13.4593582-2.6755352c4.7277107,0.8382816,8.5749626,3.2004642,11.5143013,6.9733953
		c3.3283539,4.2697392,4.5971527,9.097887,3.6785278,14.4697132c-0.6159897,3.6001854-2.0582047,6.8301086-4.5094376,9.5357704
		c-4.4726181,4.9325981-10.0734253,6.9727287-16.6665154,6.109005c-4.0588303-0.5316238-7.5625992-2.282505-10.4624367-5.2131424
		c-3.7220459-3.7595406-7.4681931-7.4943085-11.2009544-11.2438049c-0.4974785-0.4994869-1.0511971-0.9012203-1.7676201-0.9889317
		c-1.2513924-0.1533279-2.3869553,0.471365-2.9272861,1.5955448c-0.4820786,1.0036621-0.4198093,2.1352043,0.6260319,3.1636353
		c4.161274,4.0849457,8.2857208,8.207386,12.4423065,12.2963409c0.7114105,0.7033882,1.4743729,1.3526497,2.282505,1.9423752
		c3.0364265,2.2048378,6.4598503,3.4240952,10.1671677,3.9148788c2.9098778,0.3843193,5.7969856,0.3019638,8.6620064-0.342144
		c5.4648972-1.2272911,9.991745-4.0166473,13.5571136-8.3205376c2.9440308-3.5566673,4.7243652-7.6436195,5.345047-12.2320633
		c0.3596802-2.616539,0.2845688-5.2745266-0.2222977-7.8665791c-0.8268967-4.2382717-2.619957-8.0306206-5.4930115-11.2585354
		c-5.481636-6.1551933-12.3780365-8.9030399-20.5847473-8.2897282c-3.1569405,0.235683-6.1431503,1.1630135-8.9532661,2.6340222
		C47.9271812,9.2865152,46.500721,10.2365913,45.1892586,11.3321924 M43.1812706,54.3014374
		c-0.1129417-0.1046333-0.2254295-0.2097549-0.3374557-0.315361c-1.7013359-1.6062584-3.4120445-3.2024727-5.0932884-4.8294868
		c-0.3254051-0.3146896-0.6246948-0.4680138-1.0853462-0.4573021c-1.7026711,0.0415077-3.4066849,0.0488739-5.0845871-0.3300858
		C23.2379627,46.482399,18.3937454,37.4119644,21.4683323,29.430891c2.4251213-6.293129,9.138731-10.1256523,15.7592716-8.9438896
		c2.9674568,0.5296154,5.5720177,1.7856979,7.7099037,3.9905357c2.6072388,2.6916046,5.2921448,5.3062077,7.9275055,7.9703617
		c0.5999222,0.6066132,1.2888908,0.8831406,2.1198044,0.7646255c1.0739594-0.1533279,1.9289818-0.6648636,2.3173218-1.7180729
		c0.3803062-1.0364685,0.1961784-2.0180321-0.5885353-2.8127918c-2.7659225-2.8020821-5.4662323-5.6744652-8.3439674-8.3573627
		c-5.5813942-5.2057753-12.163105-6.7537823-19.4424839-4.5402393C19.1362782,18.7588825,13.4062424,28.869133,15.643219,38.8454742
		c2.0387936,9.0898476,9.9883957,15.4693489,19.2904968,15.4773788c2.5971985,0.0026779,5.1950645,0.001339,7.7922592,0
		c0.1285553,0,0.2571106-0.0113792,0.4552994-0.0214233"/>
</g>
<g id="css" class="st0 stack_icon">
	<g id="layer1" transform="translate(-193.633,-276.3622)" class="st1">
		<g id="g3013" transform="translate(119,276.3622)">
			<polygon id="polygon2989" class="st5" points="145.8869476,11.7914028 142.0143738,55.1741066 124.6069794,60.0000076 
				107.2475204,55.1809044 103.3790436,11.7914028 			"/>
			<polygon id="polygon2991" class="st6" points="138.6990204,52.411644 142.0083923,15.3391371 124.6329956,15.3391371 
				124.6329956,56.3112946 			"/>
			<polygon id="polygon2993" class="st7" points="112.2474442,31.4316807 112.7244034,36.7531662 124.6329956,36.7531662 
				124.6329956,31.4316807 			"/>
			<polygon id="polygon2995" class="st7" points="124.6329956,20.6607399 124.6146011,20.6607399 111.2890854,20.6607399 
				111.7728348,25.9823437 124.6329956,25.9823437 			"/>
			<polygon id="polygon2997" class="st7" points="124.6329956,50.7889481 124.6329956,45.2523079 124.6096725,45.2585182 
				118.6830368,43.6582031 118.3041687,39.4140282 115.4242859,39.4140282 112.9621735,39.4140282 113.7077179,47.7696152 
				124.6085052,50.7957458 			"/>
			<path id="path2999" d="M113.3829956-0.0000065h6.4453125v2.695313h-3.75v2.6953132h3.75v2.695313h-6.4453125V-0.0000065z"/>
			<path id="path3001" d="M121.1173706-0.0000065h6.4453125V2.343744h-3.75v0.46875h3.75v5.390626h-6.4453125v-2.460938h3.75
				v-0.46875h-3.75V-0.0000065z"/>
			<path id="path3003" d="M128.8517456-0.0000065h6.4453125V2.343744h-3.75v0.46875h3.75v5.390626h-6.4453125v-2.460938h3.75
				v-0.46875h-3.75V-0.0000065z"/>
			<polygon id="polygon3005" class="st8" points="131.1674805,36.7531662 130.5497894,43.654808 124.6146011,45.2567635 
				124.6146011,50.7931671 135.5240479,47.7696152 135.6040955,46.8705521 136.854599,32.8606644 136.984436,31.4316807 
				137.9451447,20.6607399 124.6146011,20.6607399 124.6146011,25.9823437 132.1131897,25.9823437 131.6289673,31.4316807 
				124.6146011,31.4316807 124.6146011,36.7531662 			"/>
		</g>
	</g>
</g>
<g id="d3" class="st0 stack_icon">
	<g class="st1">
		<defs>
			<path id="SVGID_1_" d="M18.3509998,0.0000035h5.10989c16.5685406,0,29.9999943,13.4314556,29.9999943,29.9999962
				S40.0294304,59.9999962,23.4608898,59.9999962h-5.10989V46.8131866h5.10989
				c9.2856655,0,16.8131847-7.527523,16.8131847-16.8131866s-7.5275192-16.8131847-16.8131847-16.8131847h-5.10989V0.0000035z
				 M42.2527542,0.0000035h21.0988998C73.4566422-0.0000956,81.6484375,8.1915359,81.6485367,18.296524
				C81.6485748,22.5723972,80.151062,26.7132454,77.4160461,30c6.4635544,7.7674522,5.4065323,19.3039589-2.3609161,25.7675095
				c-3.2867584,2.7350159-7.4276047,4.2325287-11.703476,4.2324867H42.2527542
				c5.1917114-3.2520447,9.4506149-7.7957458,12.3602638-13.1868095h8.7379761c2.8221169,0,5.10989-2.2877769,5.10989-5.10989
				c0-2.8221169-2.2877731-5.10989-5.10989-5.10989h-5.10989c0.8259354-4.3568077,0.8259354-8.8300076,0-13.1868134h5.10989
				c2.8221169,0,5.10989-2.2877731,5.10989-5.1098881s-2.2877731-5.10989-5.10989-5.10989H54.613018
				C51.7033691,7.7957473,47.4444656,3.2520461,42.2527542,0.0000035z"/>
		</defs>
		<clipPath id="SVGID_00000132045728274883916100000007689550455770769800_">
			<use xlink:href="#SVGID_1_"  style="overflow:visible;"/>
		</clipPath>
		<g style="clip-path:url(#SVGID_00000132045728274883916100000007689550455770769800_);">
			
				<linearGradient id="SVGID_00000041262593843899294540000001719245855896127391_" gradientUnits="userSpaceOnUse" x1="-372.8166504" y1="248.539856" x2="-364.594696" y2="240.3178864" gradientTransform="matrix(3.4482758 0 0 -3.4482758 1269.3103027 938.4625244)">
				<stop  offset="0" style="stop-color:#F9A03C"/>
				<stop  offset="1" style="stop-color:#F7974E"/>
			</linearGradient>
			<path style="fill:url(#SVGID_00000041262593843899294540000001719245855896127391_);" d="M-66.0445938-67.252739v197.8021851
				h197.8021851L-66.0445938-67.252739z"/>
			
				<linearGradient id="SVGID_00000160156087928303104390000005573029429038080906_" gradientUnits="userSpaceOnUse" x1="-342.2232666" y1="286.0167847" x2="-330.1770935" y2="273.9706421" gradientTransform="matrix(3.4482758 0 0 -3.4482758 1269.3103027 938.4625244)">
				<stop  offset="0" style="stop-color:#B84E51"/>
				<stop  offset="1" style="stop-color:#F68E48"/>
			</linearGradient>
			<path style="fill:url(#SVGID_00000160156087928303104390000005573029429038080906_);" d="M-29.121521-67.252739h197.8021698
				v197.8021851L-29.121521-67.252739z"/>
			
				<linearGradient id="SVGID_00000119101797103993672480000013064861927195638941_" gradientUnits="userSpaceOnUse" x1="-362.5329895" y1="272.4009399" x2="-346.2802429" y2="255.9569855" gradientTransform="matrix(3.4482758 0 0 -3.4482758 1269.3103027 938.4625244)">
				<stop  offset="0" style="stop-color:#F26D58"/>
				<stop  offset="1" style="stop-color:#F9A03C"/>
			</linearGradient>
			
				<path style="fill:none;stroke:url(#SVGID_00000119101797103993672480000013064861927195638941_);stroke-width:26.3736267;stroke-miterlimit:13.7931032;" d="
				M-47.5830574-67.252739l197.8021698,197.8021851"/>
		</g>
	</g>
</g>
<g id="html" class="st0 stack_icon">
	<g class="st1">
		<path d="M32.7031364,0.0000173h2.6953087v2.6718736h2.484375V0.0000173h2.6953087v8.0859327h-2.6953087V5.3906393h-2.4609375
			v2.6953106h-2.7187462 M44.1406288,2.6953282h-2.3789062V0.0000173h7.4648399v2.6953111h-2.3906212v5.3906217h-2.6953125
			 M50.4101562,0.0000173h2.8242188l1.7343712,2.8476546l1.734375-2.8476546h2.8242188v8.0859327h-2.6953087V4.0781398
			l-1.8867188,2.9062481l-1.8867188-2.9062481v4.0078101h-2.6484375 M60.8632774,0.0000173h2.6953087v5.4140596h3.8203125v2.6718731
			h-6.5156212"/>
		<path class="st13" d="M32.6093864,55.1952972l-3.8671856-43.4062233h42.5155945l-3.8671799,43.3827896l-17.4257736,4.8281174"/>
		<path class="st14" d="M50,56.3085785V15.3515711h17.3788986l-3.3164062,37.0312309"/>
		<path class="st7" d="M36.6406326,20.660162H50v5.3203106h-7.5234337l0.4921875,5.4492149H50v5.3085899H38.0937576
			 M38.3281326,39.4101486h5.3437462l0.375,4.2539024L50,45.2578011v5.5546837l-10.9218674-3.0468712"/>
		<path class="st8" d="M63.3124924,20.660162H49.9765625v5.3203106h12.8437424 M62.3398361,31.4296875H49.9765625v5.3203087
			h6.5624962l-0.6210938,6.9140587l-5.9414024,1.59375v5.53125l10.8984299-3.0234375"/>
	</g>
</g>
<g id="illustrator" class="st0 stack_icon">
	<g id="vlpa" class="st1">
		<g id="vlpb">
			<g id="vlpc">
				<g id="vlpd">
					<path class="st15" d="M30.1281929-0.0000188h39.743618c6.0256424,0,10.897438,4.8717976,10.897438,10.8974428v38.2051544
						c0,6.0256424-4.8717957,10.8974419-10.897438,10.8974419h-39.743618c-6.0256443,0-10.8974438-4.8717995-10.8974438-10.8974419
						V10.8974237C19.2307491,4.871779,24.1025486-0.0000188,30.1281929-0.0000188z"/>
				</g>
			</g>
		</g>
		<g id="vlpe">
			<g id="vlpf">
				<path class="st16" d="M48.9743576,35.897438h-9.5384674l-1.948719,6.0256462
					c-0.051281,0.2307663-0.2564087,0.3846169-0.4871788,0.3589745h-4.8205147
					c-0.2820511,0-0.3589764-0.1538506-0.2820511-0.4615402l8.2564163-23.7692451
					c0.0769234-0.2564106,0.1538429-0.5384617,0.2564087-0.8461552c0.1025658-0.5384617,0.1538467-1.1025658,0.1538467-1.6666679
					c-0.0256424-0.1282053,0.0769234-0.2564106,0.2051277-0.2820511h0.0769234h6.564106
					c0.2051315,0,0.3076935,0.0769224,0.3333359,0.2051277l9.3589821,26.4102726
					c0.0769234,0.2820511,0,0.4102592-0.2564125,0.4102592h-5.3589783
					c-0.1794853,0.0256424-0.3589745-0.1025658-0.4102554-0.2820549l-2.1025658-6.1025696L48.9743576,35.897438z
					 M40.923069,30.6923065h6.512825c-0.1538429-0.5384598-0.3589745-1.1794872-0.5897446-1.8461533
					c-0.2307663-0.6923084-0.4615364-1.4358978-0.6923065-2.2051296c-0.2564087-0.7948723-0.4871788-1.5641022-0.7435913-2.3589745
					c-0.2564087-0.7948723-0.4871788-1.5384636-0.6923065-2.282053c-0.2051277-0.7179508-0.384613-1.3846169-0.5641022-2.0000019
					h-0.051281c-0.2307701,1.1025658-0.5128212,2.2051277-0.8717957,3.3076935
					c-0.3846169,1.230772-0.7692299,2.5128231-1.1794891,3.7948761
					C41.6923027,28.4102554,41.3076897,29.615387,40.923069,30.6923065z"/>
				<path class="st16" d="M62.8205223,19.7435837c-0.8461571,0.0256405-1.6666679-0.3076916-2.2820511-0.8974361
					c-0.5897446-0.6410275-0.897438-1.4871826-0.8717957-2.3589764c-0.0256424-0.8717947,0.3076935-1.6923075,0.9230804-2.282052
					c0.615387-0.5897455,1.4358978-0.8974371,2.2820511-0.8974371c0.9999962,0,1.7692299,0.3076925,2.3333321,0.8974371
					c0.5641022,0.6153851,0.8717957,1.4358978,0.8461609,2.282052c0.0256424,0.8717957-0.2820587,1.7179489-0.897438,2.3589764
					c-0.5897446,0.6153851-1.4615402,0.9487171-2.3333359,0.8974361H62.8205223z M59.9487267,42.0000076V22.2564068
					c0-0.2564106,0.102562-0.3589764,0.3333321-0.3589764h5.0769272c0.2307663,0,0.3333359,0.1282063,0.3333359,0.3589764
					v19.7436008c0,0.2820549-0.102562,0.4102592-0.3333359,0.4102592h-5.0256462
					C60.076931,42.4102669,59.9487267,42.2564201,59.9487267,42.0000076z"/>
			</g>
		</g>
	</g>
</g>
<g id="indesign" class="st0 stack_icon">
	<g class="st1">
		<path class="st17" d="M30.1281929-0.0000188h39.743618c6.0256424,0,10.897438,4.8717976,10.897438,10.8974428v38.2051544
			c0,6.0256424-4.8717957,10.8974419-10.897438,10.8974419h-39.743618c-6.0256443,0-10.8974438-4.8717995-10.8974438-10.8974419
			V10.8974237C19.2307491,4.871779,24.1025486-0.0000188,30.1281929-0.0000188z"/>
		<g id="vlpa_00000172405767319569278120000011679945850475997862_">
			<g id="vlpb_00000160167784191370519170000017127144068808040365_">
				<path class="st18" d="M41.5897369,15.6922989v26.4102707c0,0.2820549-0.1282043,0.4102592-0.3589745,0.4102592h-5.0256424
					c-0.2307701,0-0.3333359-0.1282043-0.3333359-0.4102592V15.6922979c0-0.2307701,0.1282043-0.333333,0.3589745-0.333333
					h5.0000038c0.1538467-0.0256405,0.3076935,0.0769224,0.3333359,0.2564096
					C41.5897369,15.641016,41.5897369,15.6666574,41.5897369,15.6922989z"/>
				<path class="st18" d="M56.4102592,42.8205223c-1.8974342,0.0256424-3.7948723-0.3589745-5.5128212-1.1538467
					c-1.615387-0.7435913-2.9487228-1.9743614-3.8717995-3.4871864c-0.9487152-1.5641022-1.4102554-3.5128212-1.4102554-5.8461571
					c-0.0256424-1.8974361,0.4615402-3.7692318,1.4102554-5.4102592C48,25.2564049,49.4102554,23.871788,51.1025658,22.9487114
					c1.7948723-1,3.948719-1.4871807,6.4871826-1.4871807c0.1282082,0,0.3076935,0,0.5384636,0.0256405
					c0.2307739,0.0256405,0.4871788,0.0256405,0.7948761,0.051281v-8.1025686c0-0.1794872,0.0769234-0.2820511,0.2564087-0.2820511
					h5.2051315c0.1282043-0.0256405,0.2307663,0.0769234,0.2564087,0.1794872v0.0512829v24.4102745
					c0,0.4615402,0.0256424,0.9743576,0.0512848,1.5384598c0.0512848,0.5384636,0.0769272,1.0512848,0.102562,1.4871826
					c0,0.1794853-0.0769272,0.3333359-0.2564087,0.4102592c-1.3333359,0.5641022-2.7435913,0.9743614-4.179493,1.2307701
					c-1.2820511,0.2307663-2.6153831,0.3589745-3.948719,0.3589745H56.4102592z M58.9230843,37.6923141V26.4102535
					c-0.2307701-0.051281-0.4615402-0.1025639-0.6923065-0.1282043c-0.2820549-0.0256405-0.5641022-0.051281-0.8461571-0.051281
					c-1,0-2.0000038,0.2051277-2.897438,0.666666c-0.8717957,0.4358978-1.615387,1.0769234-2.1794891,1.897438
					s-0.8461533,1.9230785-0.8461533,3.2564125c-0.0256424,0.8974342,0.1282043,1.7948723,0.435894,2.6410255
					c0.2564125,0.6923065,0.6410255,1.3076973,1.1538467,1.8205185c0.4871788,0.4615364,1.0769234,0.8205109,1.7435913,1.0256386
					c0.6923103,0.2307701,1.4102592,0.3333359,2.1282082,0.3333359c0.3846169,0,0.7435913-0.0256424,1.0769234-0.051281
					c0.3333359,0.0256424,0.6410255-0.0256424,0.9230804-0.1282043V37.6923141z"/>
			</g>
		</g>
	</g>
</g>
<g id="js" class="st0 stack_icon">
	<g class="st1">
		<rect x="20" class="st19" width="60" height="60"/>
		<path d="M60.3047638,46.8752365c1.2085724,1.9733315,2.7809525,3.4238129,5.5619049,3.4238129
			c2.3361893,0,3.8285675-1.1676216,3.8285675-2.7809525c0-1.9333344-1.5333328-2.6180954-4.1047592-3.7428589l-1.409523-0.6047592
			c-4.068573-1.7333374-6.771431-3.9047623-6.771431-8.4952393c0-4.228569,3.2219048-7.4476185,8.2571411-7.4476185
			c3.5847626,0,6.161911,1.2476196,8.0190506,4.5142841l-4.3904724,2.8190498
			c-0.9666672-1.7333374-2.0095215-2.4161911-3.6285706-2.4161911c-1.6514282,0-2.6980972,1.0476189-2.6980972,2.4161911
			c0,1.6914291,1.0476227,2.3761902,3.4666672,3.4238091l1.409523,0.6038094
			c4.7904739,2.054287,7.4952393,4.148571,7.4952393,8.8571434c0,5.0761909-3.9876251,7.8571472-9.3428574,7.8571472
			c-5.2361946,0-8.6190529-2.4952393-10.2742882-5.7657127L60.3047638,46.8752365z M40.387619,47.3638115
			c0.8857155,1.5714264,1.6914291,2.9000015,3.6285744,2.9000015c1.8523788,0,3.0209503-0.724762,3.0209503-3.5428581V27.5495262
			h5.6380959v19.2476196c0,5.8380966-3.4228554,8.4952354-8.4190445,8.4952354c-4.514286,0-7.1285744-2.3361931-8.4580956-5.1500015
			L40.387619,47.3638115z"/>
	</g>
</g>
<g id="node" class="stack_icon">
	<g id="layer1_00000111170460367469456260000013713012540311711916_" transform="translate(-115.94417,-501.42131)">
		<path id="path22" class="st20" d="M166.4605865,517.9667969c-0.0692902,0.0008545-0.1393738,0.017395-0.2012024,0.0536499
			c-0.1234589,0.0725098-0.2012024,0.2056274-0.2012024,0.3487549v10.2615356c0,0.1008301-0.0469513,0.190918-0.13414,0.2414551
			c-0.0874023,0.0507202-0.1940765,0.0507202-0.2816925,0l-1.6767273-0.9657593
			c-0.2498169-0.144043-0.5549469-0.1439819-0.8048248,0l-6.6934814,3.8631592
			c-0.2502441,0.1443481-0.40242,0.4220581-0.40242,0.7109375v7.7263184c0,0.2886353,0.1523895,0.5529175,0.40242,0.6975098
			l6.6934814,3.8631592c0.2502441,0.1444092,0.5545807,0.1444092,0.8048248,0l6.6934814-3.8631592
			c0.2500305-0.1445923,0.40242-0.4088745,0.40242-0.6975098v-19.262207c0-0.2930298-0.1598969-0.5679932-0.4158325-0.7109375
			l-3.983902-2.2266846C166.5992279,517.9721069,166.5298767,517.9660645,166.4605865,517.9667969L166.4605865,517.9667969z
			 M123.4023361,527.6112671c-0.1276474,0.005188-0.2475662,0.0274658-0.362175,0.0939331l-6.6934814,3.8631592
			c-0.2494049,0.1442261-0.4024124,0.4067993-0.4024124,0.6975098l0.013382,10.3688354
			c0,0.1442261,0.0744095,0.2781982,0.20121,0.3488159c0.1242905,0.0744019,0.2785492,0.0744019,0.4024124,0l3.9704819-2.2803955
			c0.2515106-0.1494141,0.4158249-0.4093018,0.4158249-0.6975098v-4.8423462c0-0.2888184,0.151947-0.5539551,0.40242-0.6975098
			l1.6901321-0.979187c0.126152-0.072937,0.2615738-0.1072998,0.4024124-0.1072998
			c0.1379547,0,0.2797623,0.0343018,0.40242,0.1072998l1.6901321,0.979187
			c0.2504654,0.1435547,0.4024124,0.4086914,0.4024124,0.6975098v4.8423462c0,0.288208,0.1659622,0.5498047,0.4158325,0.6975098
			l3.9704819,2.2803955c0.1246948,0.0744019,0.2787323,0.0744019,0.4024048,0
			c0.1232605-0.0706177,0.2012177-0.2045898,0.2012177-0.3488159l0.013382-10.3688354
			c0-0.2907104-0.1513062-0.5532837-0.40242-0.6975098l-6.6934586-3.8631592
			c-0.1132126-0.0664673-0.2336655-0.0886841-0.362175-0.0939331h-0.0804825H123.4023361z M183.5497589,527.7052002
			c-0.1398468-0.0001831-0.2768707,0.0352173-0.40242,0.1072998l-6.6934814,3.8631592
			c-0.2500305,0.1444092-0.40242,0.4086914-0.40242,0.6975708v7.7263184c0,0.2905273,0.1636505,0.5539551,0.4158325,0.6975098
			l6.6398163,3.7827148c0.2452087,0.1400146,0.5446014,0.1504517,0.7914124,0.0133057l4.0241394-2.2401733
			c0.1276855-0.0708008,0.2140808-0.203125,0.2146149-0.3487549c0.0008392-0.1456909-0.075119-0.2762451-0.2012177-0.3487549
			l-6.7337189-3.8631592c-0.1260834-0.0718994-0.2146149-0.2175903-0.2146149-0.3621826v-2.4144897
			c0-0.1443481,0.0895996-0.2766113,0.2146149-0.3486938l2.0925598-1.2072754c0.1244812-0.0720215,0.2773895-0.0720215,0.4024048,0
			l2.0925446,1.2072754c0.1250153,0.0720825,0.2012177,0.2043457,0.2012177,0.3486938v1.9047852
			c0,0.1445923,0.0761871,0.2766724,0.2012024,0.3487549c0.1255493,0.0722656,0.2774048,0.0725708,0.40242,0l4.0107117-2.3339844
			c0.2489624-0.1445923,0.40242-0.4096069,0.40242-0.6975098v-1.864563c0-0.2879639-0.1529236-0.5528564-0.40242-0.6975098
			l-6.6532288-3.8631592c-0.1252899-0.0726318-0.2625885-0.1071167-0.40242-0.1072998L183.5497589,527.7052002z
			 M163.536377,533.4731445c0.0348969,0,0.0759888,0.0085449,0.1073151,0.0266113l2.2937622,1.3280029
			c0.0622406,0.0360107,0.1072998,0.102417,0.1072998,0.1743164v2.6559448c0,0.0720825-0.0446472,0.1385498-0.1072998,0.1743774
			l-2.2937622,1.3279419c-0.0624542,0.0356445-0.1387482,0.0356445-0.2012024,0l-2.2937622-1.3279419
			c-0.0624542-0.0360107-0.1072998-0.1022949-0.1072998-0.1743774v-2.6559448c0-0.0718994,0.0450592-0.1381226,0.1072998-0.1743164
			l2.2937622-1.3278198c0.0313263-0.0180054,0.0589905-0.0266113,0.0938873-0.0266113V533.4731445z"/>
		<path id="path28" class="st21" d="M203.603363,527.517395c-0.2320557,0-0.4576721,0.0480347-0.6572723,0.1609497
			l-6.3179016,3.6485596c-0.408844,0.2354126-0.6572571,0.6803589-0.6572571,1.1536255v7.2836914
			c0,0.4729614,0.2484283,0.9174194,0.6572571,1.1535034l1.6499023,0.9523926
			c0.8016052,0.3950806,1.0972443,0.3890381,1.4620972,0.3890381c1.1868439,0,1.8645172-0.7201538,1.8645172-1.9718018v-7.1898193
			c0-0.1016235-0.0879974-0.1743774-0.1877899-0.1743774h-0.7914124c-0.1014099,0-0.1877899,0.0727539-0.1877899,0.1743774
			v7.1898193c0,0.5547485-0.5778809,1.1126709-1.5157623,0.6438599l-1.7169647-1.0060425
			c-0.0606232-0.03302-0.1072998-0.0913696-0.1072998-0.1609497v-7.2836914c0-0.0691528,0.0461426-0.1394043,0.1072998-0.1743774
			l6.3044891-3.6351318c0.059021-0.0339355,0.129303-0.0339355,0.1877899,0l6.3044739,3.6351318
			c0.0601044,0.0360718,0.1073151,0.1030884,0.1073151,0.1743774v7.2836914c0,0.0695801-0.0349121,0.1408081-0.0939026,0.1743774
			l-6.3178864,3.6351318c-0.0541992,0.0321655-0.1287689,0.0321655-0.1877899,0l-1.6230774-0.9658203
			c-0.0482941-0.0283203-0.1142883-0.0261841-0.160965,0c-0.4480133,0.2540283-0.5322571,0.2835083-0.9523773,0.4292603
			c-0.1035614,0.0360718-0.2607574,0.0921631,0.0536499,0.2682495l2.1193848,1.2474976
			c0.2017517,0.1167603,0.4265594,0.1743774,0.6572723,0.1743774c0.2339325,0,0.4555359-0.0576172,0.6572723-0.1743774
			l6.3178864-3.6351929c0.4088593-0.237793,0.6572723-0.680542,0.6572723-1.1535034v-7.2836914
			c0-0.4732666-0.2484131-0.9172363-0.6572723-1.1536255l-6.3178864-3.6484985
			C204.0626526,527.5654297,203.8354187,527.517395,203.603363,527.517395L203.603363,527.517395z M143.5095978,527.664917
			c-0.1394806,0-0.2774963,0.0352173-0.40242,0.1073608l-6.6934814,3.8497314
			c-0.2502441,0.1442261-0.4024048,0.4223633-0.4024048,0.7109375v7.7263184c0,0.2889404,0.1523285,0.5529785,0.4024048,0.6975098
			l6.6934814,3.8632202c0.2502594,0.1445312,0.5545807,0.1445312,0.8048401,0l6.6934662-3.8632202
			c0.2498169-0.1445312,0.40242-0.4085693,0.40242-0.6975098v-7.7263184c0-0.2890015-0.1521606-0.5667114-0.40242-0.7109375
			l-6.6934662-3.8497314C143.7870941,527.7001343,143.6490631,527.664917,143.5095978,527.664917z M212.979599,527.7053223
			v0.1877441h0.5231323v1.3816528h0.2146149v-1.3816528h0.5365448v-0.1877441H212.979599z M214.4416962,527.7053223v1.569397
			h0.2012024v-0.9255371c0-0.0377808,0.001709-0.0961914,0-0.1743774c-0.0025635-0.0796509,0-0.1490479,0-0.1878052v-0.0404053
			l0.4426575,1.3279419h0.2146149l0.4560699-1.3279419c0,0.0844727-0.0112915,0.1660767-0.013382,0.2414551
			c-0.0008545,0.0734253,0,0.12854,0,0.1609497v0.9255371h0.2012024v-1.569397h-0.2950897l-0.4560699,1.3280029
			l-0.4426575-1.3280029h-0.3085175L214.4416962,527.7053223z M205.2934875,532.7220459
			c-1.799057,0-2.8705444,0.765625-2.8705444,2.0388794c0,1.3812866,1.063446,1.7608032,2.7900696,1.9315796
			c2.0657196,0.2022705,2.2266846,0.5055542,2.2266846,0.9121704c0,0.7052612-0.5623169,1.0059814-1.8913422,1.0059814
			c-1.669754,0-2.0367432-0.4168091-2.1596222-1.2474365c-0.0144653-0.0890503-0.0831604-0.1609497-0.1743774-0.1609497h-0.8182373
			c-0.1008759,0-0.1877899,0.086731-0.1877899,0.1878052c0,1.0632324,0.5783844,2.3206177,3.3400269,2.3206177
			c1.9991913,0,3.1522369-0.78479,3.1522369-2.159668c0-1.3630371-0.9314575-1.7288818-2.8705597-1.9852295
			c-1.9594727-0.2592773-2.1461945-0.3861694-2.1461945-0.8450317c0-0.3788452,0.1582794-0.885376,1.6096497-0.885376
			c1.2963104,0,1.7754517,0.279541,1.9718323,1.1536255c0.0171661,0.0821533,0.0895996,0.147522,0.1743774,0.147522h0.8182373
			c0.0504303,0,0.0992584-0.0308838,0.13414-0.0670776c0.0343475-0.0386353,0.0584869-0.0821533,0.0536499-0.1340942
			C208.3191071,533.4300537,207.3152161,532.7220459,205.2934875,532.7220459L205.2934875,532.7220459z M183.5363312,534.5597534
			c-0.0267487,0-0.0563507,0-0.0804901,0.0133057l-1.2877197,0.7511597
			c-0.0482941,0.0274658-0.0804749,0.0786133-0.0804749,0.1341553v1.4755249c0,0.055542,0.0321808,0.1064453,0.0804749,0.1341553
			l1.2877197,0.7377319c0.0482941,0.0278931,0.0997925,0.0278931,0.1475525,0l1.2877197-0.7377319
			c0.04776-0.0275269,0.0804901-0.0786133,0.0804901-0.1341553v-1.4755249c0-0.055542-0.0327148-0.1065063-0.0804901-0.1341553
			l-1.2877197-0.7511597C183.5795288,534.5588989,183.5630798,534.5597534,183.5363312,534.5597534z"/>
	</g>
</g>
<g id="r" class="st0 stack_icon">
	<g class="st1">
		
			<linearGradient id="SVGID_00000036950621728258229630000004739164582736360886_" gradientUnits="userSpaceOnUse" x1="-507.7314453" y1="375.3764038" x2="-507.6235657" y2="375.2684937" gradientTransform="matrix(721.0939941 0 0 -482.9370117 366133.1875 181283.15625)">
			<stop  offset="0" style="stop-color:#CBCED0"/>
			<stop  offset="1" style="stop-color:#84838B"/>
		</linearGradient>
		<path style="fill-rule:evenodd;clip-rule:evenodd;fill:url(#SVGID_00000036950621728258229630000004739164582736360886_);" d="
			M50,52.1096878c-21.4857998,0-38.9035988-11.6651382-38.9035988-26.0547867
			C11.0964003,11.665143,28.5142002,0.0000082,50,0.0000082c21.4859085,0,38.9036026,11.6651344,38.9036026,26.0548935
			C88.9036026,40.4445496,71.4859085,52.1096878,50,52.1096878z M55.9548721,10.1865673
			c-16.3311234,0-29.5701103,7.9747906-29.5701103,17.8121815s13.238987,17.8121834,29.5701103,17.8121834
			c16.3310165,0,28.3830872-5.4521637,28.3830872-17.8121834C84.3379593,15.6426115,72.2858887,10.1865673,55.9548721,10.1865673z"
			/>
		
			<linearGradient id="SVGID_00000176040041275574236730000011949851987028132538_" gradientUnits="userSpaceOnUse" x1="-507.820282" y1="375.5466919" x2="-507.7124023" y2="375.4387817" gradientTransform="matrix(398 0 0 -406.1240234 202152.921875 152537.46875)">
			<stop  offset="0" style="stop-color:#276DC3"/>
			<stop  offset="1" style="stop-color:#165CAA"/>
		</linearGradient>
		<path style="fill-rule:evenodd;clip-rule:evenodd;fill:url(#SVGID_00000176040041275574236730000011949851987028132538_);" d="
			M70.3445206,40.3552094c0,0,2.3546371,0.7105293,3.7226105,1.4027214
			c0.4746552,0.2401886,1.2958984,0.7194862,1.8882751,1.3487701c0.5802917,0.616333,0.8632126,1.2408676,0.8632126,1.2408676
			l9.279541,15.6457329l-14.9983215,0.006691l-7.0136108-13.1706886c0,0-1.4361649-2.467598-2.3198814-3.1830978
			c-0.7371826-0.5968018-1.0514984-0.8092613-1.7803764-0.8092613c-0.5073509,0-3.5635567,0-3.5635567,0l0.0028038,17.1535492
			l-13.2718964,0.0056114v-43.817543h26.6516953c0,0,12.1389313,0.2189312,12.1389313,11.7679634
			S70.3445206,40.3552094,70.3445206,40.3552094z M64.571785,25.6831799l-8.0346756-0.0051804l-0.0039902,7.4506054
			l8.0386658-0.0025864c0,0,3.7226105-0.0115471,3.7226105-3.7900448
			C68.2943954,25.4815121,64.571785,25.6831799,64.571785,25.6831799z"/>
	</g>
</g>
<g id="react" class="st0 stack_icon">
	<g class="st1">
		<path class="st24" d="M83.6873474,30.0068684c0-4.4632664-5.5893784-8.6930695-14.158844-11.3160954
			c1.9775696-8.7342682,1.0986481-15.6832285-2.7740936-17.9079952c-0.8926544-0.5218592-1.9363708-0.7690548-3.0762253-0.7690548
			V3.07621c0.6317215,0,1.1398468,0.1235983,1.5655823,0.3570611c1.8676987,1.0711844,2.6779556,5.1499205,2.0462341,10.3959761
			c-0.151062,1.2909136-0.398262,2.6504946-0.700386,4.0375376c-2.6916885-0.6591892-5.6305809-1.1673145-8.7205315-1.4969082
			c-1.8539734-2.5406294-3.7766113-4.8477945-5.7129822-6.8665638c4.4770012-4.1611371,8.6793365-6.440836,11.5358315-6.440836
			v-3.0624862l0,0c-3.7766113,0-8.7205353,2.6916924-13.7193947,7.3609538
			c-4.9988556-4.6417971-9.9427795-7.3060222-13.7193909-7.3060222v3.0624874c2.8427582,0,7.0588264,2.2659657,11.5358276,6.3996372
			c-1.9226379,2.0187693-3.8452759,4.3122005-5.6717796,6.8528299c-3.1036873,0.3295937-6.0425758,0.8377209-8.7342682,1.510643
			c-0.3158607-1.373312-0.5493279-2.7054253-0.7141266-3.9826059c-0.6454582-5.2460537,0.1510658-9.3247929,2.0050392-10.4097099
			c0.4119911-0.2471967,0.9475822-0.3570611,1.5793076-0.3570611V0.0686565l0,0c-1.1535797,0-2.1973,0.2471967-3.1036873,0.7690548
			c-3.8590088,2.224767-4.7241936,9.1599951-2.7328911,17.8667965c-8.5420036,2.6367588-14.1039181,6.852829-14.1039181,11.3023605
			c0,4.4632664,5.5893803,8.6930676,14.1588497,11.3160954c-1.9775677,8.7342682-1.09865,15.6832275,2.7740936,17.9079933
			c0.8926544,0.5218582,1.9363708,0.7690506,3.0899544,0.7690506c3.7766075,0,8.7205353-2.6916924,13.7193909-7.3609543
			c4.9988556,4.6417961,9.9427834,7.3060188,13.7193947,7.3060188c1.1535835,0,2.1973-0.2471924,3.1036873-0.7690544
			c3.8590012-2.2247696,4.7241974-9.1599922,2.7328949-17.8667984
			C78.1254349,38.6862068,83.6873474,34.456398,83.6873474,30.0068684z M65.8068161,20.8468742
			c-0.5081253,1.7715721-1.1398468,3.5980778-1.8539696,5.4245815c-0.5630531-1.09865-1.1535873-2.1973-1.7990417-3.2959499
			c-0.6317215-1.09865-1.3046455-2.1698341-1.9775658-3.2135506C62.1263428,20.0503521,64.007782,20.4074135,65.8068161,20.8468742z
			 M59.5170479,35.4726486c-1.0711823,1.8539734-2.1698303,3.6118126-3.3096848,5.2460556
			c-2.0462341,0.1785316-4.1199341,0.2746658-6.2073708,0.2746658c-2.0737038,0-4.1474075-0.0961342-6.1799088-0.2609291
			c-1.1398468-1.634243-2.2522316-3.3783493-3.3234177-5.2185898c-1.0437164-1.7990379-1.9913025-3.6255436-2.8564873-5.4657822
			c0.8514557-1.8402367,1.8127747-3.6804752,2.8427582-5.4795151c1.0711823-1.8539715,2.1698303-3.6118126,3.3096848-5.2460537
			c2.0462341-0.1785316,4.1199379-0.274662,6.2073746-0.274662c2.0737,0,4.1474037,0.0961304,6.1799049,0.2609272
			c1.1398468,1.6342411,2.2522316,3.3783512,3.3234177,5.2185898c1.0437202,1.7990417,1.9913025,3.6255455,2.8564873,5.4657822
			C61.4946213,31.8333721,60.5470352,33.6736145,59.5170479,35.4726486z M63.9528465,33.6873436
			c0.7415962,1.8402367,1.3733101,3.6804771,1.8951683,5.4657822c-1.7990341,0.4394608-3.6942101,0.8102531-5.6580467,1.0986519
			c0.6729202-1.0574532,1.3458443-2.1423683,1.9775696-3.2547531
			C62.7992706,35.8983765,63.3897934,34.7859955,63.9528465,33.6873436z M50.027462,48.3405914
			c-1.2771797-1.3183823-2.5543633-2.7878227-3.8178062-4.3945999c1.235981,0.0549316,2.4994316,0.0961342,3.7766075,0.0961342
			c1.2909164,0,2.5680962-0.0274696,3.8178101-0.0961342C52.5680923,45.5527687,51.2909088,47.0222092,50.027462,48.3405914z
			 M39.8100128,40.2517815c-1.9501038-0.2883987-3.8315392-0.6454582-5.6305809-1.0849152
			c0.5081291-1.7715759,1.1398468-3.5980835,1.8539734-5.4245872c0.5630569,1.0986519,1.1535797,2.1973,1.7990379,3.2959518
			C38.4779015,38.136879,39.1370926,39.2080612,39.8100128,40.2517815z M49.9587975,11.6731453
			c1.2771797,1.3183813,2.5543633,2.7878246,3.8178062,4.3945999c-1.235981-0.0549316-2.4994316-0.0961313-3.7766075-0.0961313
			c-1.2909126,0-2.5680962,0.0274658-3.8178101,0.0961313C47.4181671,14.4609699,48.6953468,12.9915266,49.9587975,11.6731453z
			 M39.7962837,19.7619553c-0.6729202,1.0574512-1.3458443,2.1423683-1.9775696,3.2547512
			c-0.6317253,1.09865-1.2222481,2.197298-1.785305,3.295948c-0.7415886-1.8402386-1.3733139-3.680479-1.8951683-5.4657841
			C35.9372749,20.4211464,37.8324432,20.0503521,39.7962837,19.7619553z M27.3678055,36.9558296
			c-4.8615246-2.0737038-8.0064125-4.7928581-8.0064125-6.9489613s3.1448841-4.8889942,8.0064125-6.9489632
			c1.1810493-0.5081253,2.471962-0.961319,3.8040771-1.3870468c0.7827911,2.6916943,1.8127747,5.4932518,3.0899544,8.3634739
			c-1.2634506,2.8564873-2.2797012,5.6443138-3.0487556,8.3222733
			C29.8534985,37.9308815,28.5625858,37.4639549,27.3678055,36.9558296z M34.7562256,56.5804672
			c-1.8677063-1.0711823-2.6779594-5.1499252-2.0462341-10.3959808c0.1510658-1.2909126,0.3982582-2.6504898,0.7003899-4.0375366
			c2.6916924,0.6591873,5.6305809,1.1673164,8.7205353,1.4969101c1.8539696,2.5406265,3.7766075,4.8477936,5.7129784,6.8665619
			c-4.4769974,4.1611366-8.6793365,6.4408379-11.5358238,6.4408379
			C35.6900749,56.9375267,35.1682205,56.8139305,34.7562256,56.5804672z M67.3311996,46.1158218
			c0.645462,5.2460556-0.151062,9.324791-2.0050354,10.4097099c-0.4119873,0.2471924-0.9475861,0.3570595-1.5793076,0.3570595
			c-2.8427582,0-7.0588226-2.2659645-11.5358238-6.3996353c1.9226379-2.0187721,3.8452759-4.3122025,5.6717796-6.852829
			c3.1036873-0.3295937,6.0425758-0.8377228,8.7342606-1.510643C66.9329376,43.5065269,67.18013,44.8386421,67.3311996,46.1158218z
			 M72.618454,36.9558296c-1.1810455,0.5081291-2.471962,0.961319-3.8040771,1.3870468
			c-0.7827911-2.6916924-1.8127747-5.493248-3.0899506-8.363472c1.263443-2.8564892,2.2796936-5.6443157,3.0487518-8.3222752
			c1.359581,0.4257278,2.6504898,0.8926525,3.8590088,1.4007778c4.8615265,2.0737019,8.0064087,4.7928619,8.0064087,6.9489613
			C80.6248627,32.1629715,77.4799728,34.8958626,72.618454,36.9558296z"/>
		<path class="st24" d="M36.2394028,0.0549215L36.2394028,0.0549215L36.2394028,0.0549215z"/>
		<circle class="st24" cx="49.9862595" cy="30.0068684" r="6.2760396"/>
		<path class="st24" d="M63.6644554,0.0137217L63.6644554,0.0137217L63.6644554,0.0137217z"/>
	</g>
</g>
</svg>
