<?xml version="1.0" encoding="utf-8"?>
<!-- Generator: Adobe Illustrator 25.4.2, SVG Export Plug-In . SVG Version: 6.00 Build 0)  -->
<svg version="1.1" id="Layer_1" xmlns="http://www.w3.org/2000/svg" xmlns:xlink="http://www.w3.org/1999/xlink" x="0px" y="0px"
	 viewBox="0 0 340 1024.7" style="enable-background:new 0 0 340 1024.7;" xml:space="preserve">
<style type="text/css">
	.st0{fill:url(#SVGID_1_);}
	.st1{opacity:0.5;fill:url(#SVGID_00000010285202361712148300000016984671222474818712_);}
	.st2{fill:url(#SVGID_00000116946174338665019270000010762923827790789542_);}
	.st3{opacity:0.5;fill:url(#SVGID_00000072251199349949315310000006474317090848251024_);}
	.st4{fill:url(#SVGID_00000064334523878841744380000001552703144366553491_);}
	.st5{opacity:0.5;fill:url(#SVGID_00000163042636944249759080000005409651657105911178_);}
	.st6{fill:url(#SVGID_00000141453053420504751120000009305913005717228709_);}
	.st7{opacity:0.5;fill:url(#SVGID_00000021092796319903260590000005663521118987615107_);}
	.st8{fill:url(#SVGID_00000038397645473096568760000012100305363280407220_);}
	.st9{opacity:0.5;fill:url(#SVGID_00000061472470690713116830000011801021581708936115_);}
	.st10{fill:url(#SVGID_00000023970228734889242140000013308538633798255283_);}
	.st11{opacity:0.5;fill:url(#SVGID_00000104666527354008520200000016009797230764729279_);}
	.st12{fill:url(#SVGID_00000135649447340916882700000000471240064815124624_);}
	.st13{opacity:0.5;fill:url(#SVGID_00000113312606482408619780000002359142512612260485_);}
	.st14{fill:url(#SVGID_00000090297032098091603910000002710214021046930584_);}
	.st15{opacity:0.5;fill:url(#SVGID_00000008850322260822725450000017139638749507507586_);}
	.st16{fill:#16161E;}
	.st17{filter:url(#Adobe_OpacityMaskFilter);}
	.st18{fill:url(#SVGID_00000080201155903912771570000002891868153055502234_);}
	.st19{mask:url(#SVGID_00000024710725900705077750000011434981997518970558_);}
	.st20{fill:#FFFFFF;}
</style>
<g>
	<linearGradient id="SVGID_1_" gradientUnits="userSpaceOnUse" x1="1.6937" y1="200.7408" x2="1.6937" y2="250.0641">
		<stop  offset="2.962960e-03" style="stop-color:#4D4F4F"/>
		<stop  offset="1.629630e-02" style="stop-color:#7C7C7C"/>
		<stop  offset="3.264040e-02" style="stop-color:#333435"/>
		<stop  offset="5.342890e-02" style="stop-color:#4B4B4B"/>
		<stop  offset="6.103363e-02" style="stop-color:#545454"/>
		<stop  offset="9.161291e-02" style="stop-color:#737374"/>
		<stop  offset="0.8915" style="stop-color:#737374"/>
		<stop  offset="0.9436" style="stop-color:#5A5A5A"/>
		<stop  offset="0.9525" style="stop-color:#4B4B4C"/>
		<stop  offset="0.9688" style="stop-color:#333435"/>
		<stop  offset="0.9822" style="stop-color:#7C7C7C"/>
		<stop  offset="1" style="stop-color:#4D4F4F"/>
	</linearGradient>
	<path class="st0" d="M1.7,200.8C1.3,201,1,201.6,1,202.4l0.1,7.1v33.1L1,248.5c0,0.8,0.3,1.5,0.7,1.6c0.4-0.1,0.7-0.8,0.7-1.6
		v-46.1C2.4,201.6,2.1,201,1.7,200.8z"/>
	
		<linearGradient id="SVGID_00000091715354432313671840000004742562295822340283_" gradientUnits="userSpaceOnUse" x1="0.9585" y1="225.4973" x2="2.2858" y2="225.4973">
		<stop  offset="0" style="stop-color:#292929"/>
		<stop  offset="7.434541e-02" style="stop-color:#313131"/>
		<stop  offset="0.1921" style="stop-color:#484848"/>
		<stop  offset="0.3384" style="stop-color:#6D6D6D"/>
		<stop  offset="0.5077" style="stop-color:#A1A1A1"/>
		<stop  offset="0.6943" style="stop-color:#E3E3E3"/>
		<stop  offset="0.7086" style="stop-color:#E8E8E8"/>
		<stop  offset="1" style="stop-color:#3D3D3D"/>
	</linearGradient>
	<path style="opacity:0.5;fill:url(#SVGID_00000091715354432313671840000004742562295822340283_);" d="M1.6,200.8
		C1.2,201,1,201.6,1,202.4l0.1,7.1v33.1L1,248.5c0,0.8,0.3,1.5,0.7,1.6c0.4-0.1,0.7-0.8,0.7-1.6v-46.1C2.3,201.6,2,201,1.6,200.8z"
		/>
	
		<linearGradient id="SVGID_00000092458504460021425400000001501662645331831223_" gradientUnits="userSpaceOnUse" x1="3.2496" y1="198.636" x2="3.3677" y2="251.9711">
		<stop  offset="0" style="stop-color:#1F1F28"/>
		<stop  offset="3.304060e-02" style="stop-color:#1F1F28"/>
		<stop  offset="5.997153e-02" style="stop-color:#39393C"/>
		<stop  offset="7.780150e-02" style="stop-color:#4C4C4C"/>
		<stop  offset="9.029819e-02" style="stop-color:#4B4B4B"/>
		<stop  offset="0.9142" style="stop-color:#21212A"/>
		<stop  offset="0.9704" style="stop-color:#1F1F28"/>
		<stop  offset="1" style="stop-color:#1F1F28"/>
	</linearGradient>
	<path style="fill:url(#SVGID_00000092458504460021425400000001501662645331831223_);" d="M5,202.5c0-0.9-0.4-1.6-0.8-1.6
		c0,0-2.5,0-2.5,0c0.4,0.1,0.7,0.8,0.7,1.6v46.1c0,0.8-0.3,1.5-0.7,1.6c0,0,2.6,0,2.6,0c0.5,0,0.8-0.8,0.8-1.6L5,202.5z"/>
	
		<linearGradient id="SVGID_00000006666140298210381860000013620247006316820920_" gradientUnits="userSpaceOnUse" x1="5.1993" y1="225.4998" x2="2.0517" y2="225.4998">
		<stop  offset="0" style="stop-color:#1F1F1F"/>
		<stop  offset="8.344229e-02" style="stop-color:#272727"/>
		<stop  offset="0.2157" style="stop-color:#3E3E3E"/>
		<stop  offset="0.3801" style="stop-color:#636363"/>
		<stop  offset="0.5703" style="stop-color:#979797"/>
		<stop  offset="0.7797" style="stop-color:#D9D9D9"/>
		<stop  offset="0.8548" style="stop-color:#F2F2F2"/>
	</linearGradient>
	<path style="opacity:0.5;fill:url(#SVGID_00000006666140298210381860000013620247006316820920_);" d="M5,202.5
		c0-0.9-0.4-1.6-0.8-1.6c0,0-2.5,0-2.5,0c0.4,0.1,0.7,0.8,0.7,1.6v46.1c0,0.8-0.3,1.5-0.7,1.6c0,0,2.6,0,2.6,0
		c0.5,0,0.8-0.8,0.8-1.6L5,202.5z"/>
</g>
<g>
	
		<linearGradient id="SVGID_00000001643286808834042630000010134987173330224297_" gradientUnits="userSpaceOnUse" x1="1.4247" y1="139.4495" x2="1.4247" y2="188.7728">
		<stop  offset="2.962960e-03" style="stop-color:#4D4F4F"/>
		<stop  offset="1.629630e-02" style="stop-color:#7C7C7C"/>
		<stop  offset="3.264040e-02" style="stop-color:#333435"/>
		<stop  offset="5.342890e-02" style="stop-color:#4B4B4B"/>
		<stop  offset="6.103363e-02" style="stop-color:#545454"/>
		<stop  offset="9.161291e-02" style="stop-color:#737374"/>
		<stop  offset="0.8915" style="stop-color:#737374"/>
		<stop  offset="0.9436" style="stop-color:#5A5A5A"/>
		<stop  offset="0.9525" style="stop-color:#4B4B4C"/>
		<stop  offset="0.9688" style="stop-color:#333435"/>
		<stop  offset="0.9822" style="stop-color:#7C7C7C"/>
		<stop  offset="1" style="stop-color:#4D4F4F"/>
	</linearGradient>
	<path style="fill:url(#SVGID_00000001643286808834042630000010134987173330224297_);" d="M1.4,139.5c-0.4,0.1-0.7,0.8-0.7,1.6
		l0.1,7.1v33.1l-0.1,5.9c0,0.8,0.3,1.5,0.7,1.6c0.4-0.1,0.7-0.8,0.7-1.6v-46.1C2.1,140.3,1.8,139.7,1.4,139.5z"/>
	
		<linearGradient id="SVGID_00000149357290583228279180000009081537875555679126_" gradientUnits="userSpaceOnUse" x1="0.6896" y1="164.2061" x2="2.017" y2="164.2061">
		<stop  offset="0" style="stop-color:#292929"/>
		<stop  offset="7.434541e-02" style="stop-color:#313131"/>
		<stop  offset="0.1921" style="stop-color:#484848"/>
		<stop  offset="0.3384" style="stop-color:#6D6D6D"/>
		<stop  offset="0.5077" style="stop-color:#A1A1A1"/>
		<stop  offset="0.6943" style="stop-color:#E3E3E3"/>
		<stop  offset="0.7086" style="stop-color:#E8E8E8"/>
		<stop  offset="1" style="stop-color:#3D3D3D"/>
	</linearGradient>
	<path style="opacity:0.5;fill:url(#SVGID_00000149357290583228279180000009081537875555679126_);" d="M1.3,139.5
		c-0.4,0.1-0.7,0.8-0.7,1.6l0.1,7.1v33.1l-0.1,5.9c0,0.8,0.3,1.5,0.7,1.6c0.4-0.1,0.7-0.8,0.7-1.6v-46.1
		C2,140.3,1.7,139.7,1.3,139.5z"/>
	
		<linearGradient id="SVGID_00000033348878234942218350000010141801925378741170_" gradientUnits="userSpaceOnUse" x1="2.9807" y1="137.3447" x2="3.0987" y2="190.6798">
		<stop  offset="0" style="stop-color:#1F1F28"/>
		<stop  offset="3.304060e-02" style="stop-color:#1F1F28"/>
		<stop  offset="5.997153e-02" style="stop-color:#39393C"/>
		<stop  offset="7.780150e-02" style="stop-color:#4C4C4C"/>
		<stop  offset="9.029819e-02" style="stop-color:#4B4B4B"/>
		<stop  offset="0.9142" style="stop-color:#21212A"/>
		<stop  offset="0.9704" style="stop-color:#1F1F28"/>
		<stop  offset="1" style="stop-color:#1F1F28"/>
	</linearGradient>
	<path style="fill:url(#SVGID_00000033348878234942218350000010141801925378741170_);" d="M4.7,141.2c0-0.9-0.4-1.6-0.8-1.6
		c0,0-2.5,0-2.5,0c0.4,0.1,0.7,0.8,0.7,1.6v46.1c0,0.8-0.3,1.5-0.7,1.6c0,0,2.6,0,2.6,0c0.5,0,0.8-0.8,0.8-1.6L4.7,141.2z"/>
	
		<linearGradient id="SVGID_00000012439515305540489570000014529060954981892784_" gradientUnits="userSpaceOnUse" x1="4.9303" y1="164.2085" x2="1.7829" y2="164.2085">
		<stop  offset="0" style="stop-color:#1F1F1F"/>
		<stop  offset="8.344229e-02" style="stop-color:#272727"/>
		<stop  offset="0.2157" style="stop-color:#3E3E3E"/>
		<stop  offset="0.3801" style="stop-color:#636363"/>
		<stop  offset="0.5703" style="stop-color:#979797"/>
		<stop  offset="0.7797" style="stop-color:#D9D9D9"/>
		<stop  offset="0.8548" style="stop-color:#F2F2F2"/>
	</linearGradient>
	<path style="opacity:0.5;fill:url(#SVGID_00000012439515305540489570000014529060954981892784_);" d="M4.7,141.2
		c0-0.9-0.4-1.6-0.8-1.6c0,0-2.5,0-2.5,0c0.4,0.1,0.7,0.8,0.7,1.6v46.1c0,0.8-0.3,1.5-0.7,1.6c0,0,2.6,0,2.6,0
		c0.5,0,0.8-0.8,0.8-1.6L4.7,141.2z"/>
</g>
<g>
	
		<linearGradient id="SVGID_00000172426045735470351520000002651169141171193003_" gradientUnits="userSpaceOnUse" x1="-1098.3894" y1="149.7928" x2="-1098.3894" y2="228.7642" gradientTransform="matrix(-1 0 0 1 -759.0408 0)">
		<stop  offset="2.962960e-03" style="stop-color:#4D4F4F"/>
		<stop  offset="1.629630e-02" style="stop-color:#7C7C7C"/>
		<stop  offset="3.264040e-02" style="stop-color:#333435"/>
		<stop  offset="5.342890e-02" style="stop-color:#4B4B4B"/>
		<stop  offset="6.103363e-02" style="stop-color:#545454"/>
		<stop  offset="9.161291e-02" style="stop-color:#737374"/>
		<stop  offset="0.8915" style="stop-color:#737374"/>
		<stop  offset="0.9436" style="stop-color:#5A5A5A"/>
		<stop  offset="0.9525" style="stop-color:#4B4B4C"/>
		<stop  offset="0.9688" style="stop-color:#333435"/>
		<stop  offset="0.9822" style="stop-color:#7C7C7C"/>
		<stop  offset="1" style="stop-color:#4D4F4F"/>
	</linearGradient>
	<path style="fill:url(#SVGID_00000172426045735470351520000002651169141171193003_);" d="M339.3,149.9c0.4,0.1,0.7,0.8,0.7,1.6
		l-0.1,7.1v62.7l0.1,5.9c0,0.8-0.3,1.5-0.7,1.6c-0.4-0.1-0.7-0.8-0.7-1.6v-75.8C338.7,150.7,339,150.1,339.3,149.9z"/>
	
		<linearGradient id="SVGID_00000044144661704908368280000015122636030776596616_" gradientUnits="userSpaceOnUse" x1="-1099.1237" y1="189.4305" x2="-1097.7977" y2="189.4305" gradientTransform="matrix(-1 0 0 1 -759.0408 0)">
		<stop  offset="0" style="stop-color:#292929"/>
		<stop  offset="7.434541e-02" style="stop-color:#313131"/>
		<stop  offset="0.1921" style="stop-color:#484848"/>
		<stop  offset="0.3384" style="stop-color:#6D6D6D"/>
		<stop  offset="0.5077" style="stop-color:#A1A1A1"/>
		<stop  offset="0.6943" style="stop-color:#E3E3E3"/>
		<stop  offset="0.7086" style="stop-color:#E8E8E8"/>
		<stop  offset="1" style="stop-color:#3D3D3D"/>
	</linearGradient>
	<path style="opacity:0.5;fill:url(#SVGID_00000044144661704908368280000015122636030776596616_);" d="M339.4,149.9
		c0.4,0.1,0.7,0.8,0.7,1.6l-0.1,7.1v62.7l0.1,5.9c0,0.8-0.3,1.5-0.7,1.6c-0.4-0.1-0.7-0.8-0.7-1.6v-75.8
		C338.8,150.7,339.1,150.1,339.4,149.9z"/>
	
		<linearGradient id="SVGID_00000016774700877046270940000014208230803863618979_" gradientUnits="userSpaceOnUse" x1="-1096.8705" y1="146.4253" x2="-1096.6815" y2="231.8155" gradientTransform="matrix(-1 0 0 1 -759.0408 0)">
		<stop  offset="0" style="stop-color:#1F1F28"/>
		<stop  offset="3.304060e-02" style="stop-color:#1F1F28"/>
		<stop  offset="5.997153e-02" style="stop-color:#39393C"/>
		<stop  offset="7.780150e-02" style="stop-color:#4C4C4C"/>
		<stop  offset="9.029819e-02" style="stop-color:#4B4B4B"/>
		<stop  offset="0.9142" style="stop-color:#21212A"/>
		<stop  offset="0.9704" style="stop-color:#1F1F28"/>
		<stop  offset="1" style="stop-color:#1F1F28"/>
	</linearGradient>
	<path style="fill:url(#SVGID_00000016774700877046270940000014208230803863618979_);" d="M336,151.6c0-0.9,0.4-1.6,0.8-1.6
		c0,0,2.5,0,2.5,0c-0.4,0.1-0.7,0.8-0.7,1.6v75.8c0,0.8,0.3,1.5,0.7,1.6c0,0-2.5,0-2.5,0c-0.5,0-0.8-0.8-0.8-1.6L336,151.6z"/>
	
		<linearGradient id="SVGID_00000006692717154335393820000011799786203965725850_" gradientUnits="userSpaceOnUse" x1="-1094.8868" y1="189.4329" x2="-1098.0314" y2="189.4329" gradientTransform="matrix(-1 0 0 1 -759.0408 0)">
		<stop  offset="0" style="stop-color:#1F1F1F"/>
		<stop  offset="8.344229e-02" style="stop-color:#272727"/>
		<stop  offset="0.2157" style="stop-color:#3E3E3E"/>
		<stop  offset="0.3801" style="stop-color:#636363"/>
		<stop  offset="0.5703" style="stop-color:#979797"/>
		<stop  offset="0.7797" style="stop-color:#D9D9D9"/>
		<stop  offset="0.8548" style="stop-color:#F2F2F2"/>
	</linearGradient>
	<path style="opacity:0.5;fill:url(#SVGID_00000006692717154335393820000011799786203965725850_);" d="M336,151.6
		c0-0.9,0.4-1.6,0.8-1.6c0,0,2.5,0,2.5,0c-0.4,0.1-0.7,0.8-0.7,1.6v75.8c0,0.8,0.3,1.5,0.7,1.6c0,0-2.5,0-2.5,0
		c-0.5,0-0.8-0.8-0.8-1.6L336,151.6z"/>
</g>
<g>
	
		<linearGradient id="SVGID_00000037693210857600620350000008441010451307583880_" gradientUnits="userSpaceOnUse" x1="1.4247" y1="87.4862" x2="1.4247" y2="114.1771">
		<stop  offset="2.962960e-03" style="stop-color:#4D4F4F"/>
		<stop  offset="1.629630e-02" style="stop-color:#7C7C7C"/>
		<stop  offset="3.264040e-02" style="stop-color:#333435"/>
		<stop  offset="5.342890e-02" style="stop-color:#4B4B4B"/>
		<stop  offset="6.103363e-02" style="stop-color:#545454"/>
		<stop  offset="9.161291e-02" style="stop-color:#737374"/>
		<stop  offset="0.8915" style="stop-color:#737374"/>
		<stop  offset="0.9436" style="stop-color:#5A5A5A"/>
		<stop  offset="0.9525" style="stop-color:#4B4B4C"/>
		<stop  offset="0.9688" style="stop-color:#333435"/>
		<stop  offset="0.9822" style="stop-color:#7C7C7C"/>
		<stop  offset="1" style="stop-color:#4D4F4F"/>
	</linearGradient>
	<path style="fill:url(#SVGID_00000037693210857600620350000008441010451307583880_);" d="M1.4,87.5c-0.4,0.1-0.7,0.8-0.7,1.6
		l0.1,7.1v10.4l-0.1,5.9c0,0.8,0.3,1.5,0.7,1.6c0.4-0.1,0.7-0.8,0.7-1.6V89.1C2.1,88.3,1.8,87.7,1.4,87.5z"/>
	
		<linearGradient id="SVGID_00000069399692777207009260000015333866654606601092_" gradientUnits="userSpaceOnUse" x1="0.6896" y1="100.883" x2="2.017" y2="100.883">
		<stop  offset="0" style="stop-color:#292929"/>
		<stop  offset="7.434541e-02" style="stop-color:#313131"/>
		<stop  offset="0.1921" style="stop-color:#484848"/>
		<stop  offset="0.3384" style="stop-color:#6D6D6D"/>
		<stop  offset="0.5077" style="stop-color:#A1A1A1"/>
		<stop  offset="0.6943" style="stop-color:#E3E3E3"/>
		<stop  offset="0.7086" style="stop-color:#E8E8E8"/>
		<stop  offset="1" style="stop-color:#3D3D3D"/>
	</linearGradient>
	<path style="opacity:0.5;fill:url(#SVGID_00000069399692777207009260000015333866654606601092_);" d="M1.3,87.5
		c-0.4,0.1-0.7,0.8-0.7,1.6l0.1,7.1v10.4l-0.1,5.9c0,0.8,0.3,1.5,0.7,1.6c0.4-0.1,0.7-0.8,0.7-1.6V89.1C2,88.3,1.7,87.7,1.3,87.5z"
		/>
	
		<linearGradient id="SVGID_00000140003043221471155600000004601183474481917621_" gradientUnits="userSpaceOnUse" x1="3.008" y1="86.3453" x2="3.0718" y2="115.2107">
		<stop  offset="0" style="stop-color:#1F1F28"/>
		<stop  offset="3.304060e-02" style="stop-color:#1F1F28"/>
		<stop  offset="5.997153e-02" style="stop-color:#39393C"/>
		<stop  offset="7.780150e-02" style="stop-color:#4C4C4C"/>
		<stop  offset="9.029819e-02" style="stop-color:#4B4B4B"/>
		<stop  offset="0.9142" style="stop-color:#21212A"/>
		<stop  offset="0.9704" style="stop-color:#1F1F28"/>
		<stop  offset="1" style="stop-color:#1F1F28"/>
	</linearGradient>
	<path style="fill:url(#SVGID_00000140003043221471155600000004601183474481917621_);" d="M4.7,89.2c0-0.9-0.4-1.6-0.8-1.6
		c0,0-2.5,0-2.5,0c0.4,0.1,0.7,0.8,0.7,1.6v23.5c0,0.8-0.3,1.5-0.7,1.6c0,0,2.6,0,2.6,0c0.5,0,0.8-0.8,0.8-1.6L4.7,89.2z"/>
	
		<linearGradient id="SVGID_00000106120091086299690200000015002606346129622660_" gradientUnits="userSpaceOnUse" x1="4.9303" y1="100.8854" x2="1.7829" y2="100.8854">
		<stop  offset="0" style="stop-color:#1F1F1F"/>
		<stop  offset="8.344229e-02" style="stop-color:#272727"/>
		<stop  offset="0.2157" style="stop-color:#3E3E3E"/>
		<stop  offset="0.3801" style="stop-color:#636363"/>
		<stop  offset="0.5703" style="stop-color:#979797"/>
		<stop  offset="0.7797" style="stop-color:#D9D9D9"/>
		<stop  offset="0.8548" style="stop-color:#F2F2F2"/>
	</linearGradient>
	<path style="opacity:0.5;fill:url(#SVGID_00000106120091086299690200000015002606346129622660_);" d="M4.7,89.2
		c0-0.9-0.4-1.6-0.8-1.6c0,0-2.5,0-2.5,0c0.4,0.1,0.7,0.8,0.7,1.6v23.5c0,0.8-0.3,1.5-0.7,1.6c0,0,2.6,0,2.6,0
		c0.5,0,0.8-0.8,0.8-1.6L4.7,89.2z"/>
</g>
<g>
	
		<image style="overflow:visible;" width="334" height="657" xlink:href="6248801A13608E92.png"  transform="matrix(1 0 0 1 3.4415 -0.3969)">
	</image>
</g>
<path class="st16" d="M284.1,656.3H56.7c-29.2,0-52.8-23.6-52.8-52.8V53.3c0-29.2,23.6-52.8,52.8-52.8h227.4
	c29.2,0,52.8,23.6,52.8,52.8v550.2C336.9,632.7,313.2,656.3,284.1,656.3z"/>
<defs>
	<filter id="Adobe_OpacityMaskFilter" filterUnits="userSpaceOnUse" x="0.9" y="656.1" width="337.3" height="195.5">
		<feColorMatrix  type="matrix" values="1 0 0 0 0  0 1 0 0 0  0 0 1 0 0  0 0 0 1 0"/>
	</filter>
</defs>
<mask maskUnits="userSpaceOnUse" x="0.9" y="656.1" width="337.3" height="195.5" id="SVGID_00000139285491197342409350000005931340625286092960_">
	<g class="st17">
		
			<linearGradient id="SVGID_00000152959121892329773410000012100378962965720218_" gradientUnits="userSpaceOnUse" x1="168.5536" y1="653.4799" x2="168.5536" y2="985.0123">
			<stop  offset="0" style="stop-color:#4D4D4D"/>
			<stop  offset="0.5851" style="stop-color:#000000"/>
		</linearGradient>
		
			<rect x="-46.5" y="653.5" style="fill:url(#SVGID_00000152959121892329773410000012100378962965720218_);" width="430" height="331.5"/>
	</g>
</mask>
<g style="mask:url(#SVGID_00000139285491197342409350000005931340625286092960_);">
	<path class="st16" d="M338.2,708.9v142.7H0.9V708.9c0-29.2,23.9-52.8,53.5-52.8h230.3C314.3,656.1,338.2,679.7,338.2,708.9z"/>
	<path class="st20" d="M329.8,715.2v136.4H9.4V715.2c0-28.1,23.1-50.9,51.6-50.9h217.3C306.7,664.3,329.8,687.1,329.8,715.2z"/>
</g>
</svg>
