<?xml version="1.0" encoding="UTF-8"?><svg enable-background="new 0 0 371.1 839.4" version="1.1" viewBox="0 0 371.1 839.4" xml:space="preserve" xmlns="http://www.w3.org/2000/svg" xmlns:xlink="http://www.w3.org/1999/xlink"><style type="text/css">.st0{fill:none;}.st1{fill:#929292;}.st2{fill:url(#c);}.st3{fill:#DFDFDF;}.st4{fill:url(#SVGID_00000091696784105706174480000008811088604567701916_);}.st5{fill:url(#SVGID_00000129206100049197271860000005589893394781920129_);}.st6{fill:url(#SVGID_00000176738578371300769980000005761765353435734661_);}.st7{fill:url(#SVGID_00000137832386609109411420000015585593437791281599_);}.st8{fill:url(#SVGID_00000003078904081882274890000005600920028678836907_);}.st9{fill:url(#SVGID_00000054243561563114481820000008551280103941608326_);}.st10{fill:url(#SVGID_00000057122239498824522700000006664727653069331379_);}.st11{fill:url(#SVGID_00000029762824954018228380000016856135418510935215_);}.st12{fill:#0C0C0C;}.st13{filter:url(#y);}.st14{fill:url(#SVGID_00000044136792426551448550000000473440524277431741_);}.st15{mask:url(#SVGID_00000018230269058258341450000008718381062189027971_);}.st16{fill:url(#SVGID_00000109733303704096435250000016227774731993492873_);}.st17{fill:url(#SVGID_00000172439192241875825660000011471805406827956891_);}.st18{fill:url(#SVGID_00000132799266166060686070000014989357294262726556_);}.st19{fill:url(#SVGID_00000032629820770631397150000013833509218908406912_);}.st20{fill:url(#SVGID_00000142856240385341705570000014148250548119835806_);}.st21{fill:url(#SVGID_00000014624387463325912100000000048552094713291145_);}.st22{fill:url(#SVGID_00000115485880090362833990000013709608329546547386_);}.st23{fill:url(#SVGID_00000008138171185523127990000011256893020428364186_);}.st24{fill:url(#SVGID_00000098933009186220713020000000837272016500700805_);}.st25{fill:#383C3A;}.st26{clip-path:url(#SVGID_00000047052013120756973890000016221278100557704882_);fill:#FFFFFF;}.st27{fill:#FFFFFF;}.st28{fill:none;stroke:#FFFFFF;stroke-width:1.1282;}.st29{clip-path:url(#SVGID_00000159447236091557580700000018032667404750445246_);fill:#FFFFFF;}</style><path class="st0" d="m369.7 24.7v-0.5-0.8-0.4-0.2-0.3c0-0.2-0.1-0.5-0.1-0.7 0-0.4-0.1-0.8-0.2-1.1-0.1-0.4-0.1-0.7-0.2-1.1s-0.2-0.7-0.3-1.1v-0.1c-0.1-0.3-0.2-0.7-0.3-1-0.1-0.4-0.3-0.7-0.4-1s-0.3-0.7-0.4-1-0.3-0.6-0.4-0.8c0 0-0.1-0.1-0.1-0.2-0.2-0.3-0.3-0.6-0.5-1-0.5-1-1.2-1.9-1.8-2.7-0.4-0.6-0.9-1.1-1.4-1.6-0.2-0.3-0.5-0.5-0.8-0.8l-0.4-0.4c-0.3-0.2-0.5-0.5-0.8-0.7-0.2-0.1-0.3-0.3-0.5-0.4l-1.2-0.9c-0.1-0.1-0.3-0.2-0.5-0.3-0.1-0.1-0.3-0.2-0.4-0.3-0.3-0.2-0.6-0.4-1-0.6-0.2-0.1-0.3-0.2-0.5-0.3-1.5-0.8-3.1-1.4-4.8-1.9-0.1 0-0.3-0.1-0.4-0.1-0.2 0-0.4-0.1-0.5-0.1-1-0.2-1.9-0.4-2.9-0.5h-0.5c-0.6 0-1.2-0.1-1.8-0.1h-322.1c-0.6 0-1.2 0-1.8 0.1-0.2 0-0.4 0-0.5 0.1-1 0.1-1.9 0.2-2.9 0.4-0.2 0-0.4 0.1-0.6 0.1-0.1 0-0.3 0.1-0.5 0.1-1.7 0.4-3.3 1.1-4.8 1.9-0.2 0.1-0.3 0.2-0.5 0.3-0.7 0.4-1.3 0.8-1.9 1.2 0 0-0.2 0.1-0.3 0.2-0.3 0.2-0.5 0.4-0.8 0.6-0.7 0.5-1.3 1.1-1.9 1.7-0.2 0.1-0.3 0.3-0.4 0.4s-0.2 0.1-0.2 0.2c-0.1 0.1-0.2 0.1-0.2 0.2l-0.6 0.6c-0.2 0.2-0.3 0.4-0.5 0.6-0.1 0.1-0.1 0.2-0.2 0.3 0 0-0.1 0.1-0.1 0.2-0.2 0.2-0.3 0.4-0.5 0.7v0.1c-0.2 0.3-0.4 0.6-0.6 0.8v0.1c-0.2 0.3-0.3 0.6-0.5 0.9s-0.4 0.6-0.5 1c0 0.1 0 0.1-0.1 0.2-0.1 0.3-0.3 0.6-0.4 0.8-0.2 0.3-0.3 0.7-0.4 1s-0.3 0.7-0.4 1c-0.4 0.5-0.6 1-0.7 1.6-0.1 0.5-0.3 1.1-0.4 1.7-0.1 0.4-0.1 0.7-0.2 1.1 0 0.3-0.1 0.7-0.1 1v0.2 0.5 0.6 1.1 510.5 1.1 0.6 0.5 0.1c0 0.3 0.1 0.7 0.1 1 0.1 0.4 0.1 0.8 0.2 1.1 0.1 0.6 0.2 1.1 0.4 1.7s0.3 1.1 0.5 1.6c0.1 0.4 0.2 0.7 0.4 1 0.1 0.3 0.3 0.7 0.4 1s0.3 0.6 0.4 0.8c0 0.1 0 0.1 0.1 0.2 0.2 0.3 0.3 0.6 0.5 1 0.2 0.3 0.3 0.6 0.5 0.9v0.1c0.2 0.3 0.4 0.6 0.6 0.8v0.1c0.2 0.2 0.3 0.5 0.5 0.7 0 0.1 0.1 0.1 0.1 0.2 0.1 0.1 0.1 0.2 0.2 0.3 0.2 0.2 0.3 0.4 0.5 0.6l0.6 0.6c0 0.1 0.1 0.1 0.2 0.2l0.6 0.6c0.6 0.6 1.2 1.2 1.9 1.7 0.3 0.2 0.5 0.4 0.8 0.6 0.1 0.1 0.3 0.2 0.4 0.3 0.6 0.4 1.2 0.8 1.9 1.2l0.5 0.3c1.5 0.8 3.1 1.4 4.8 1.9 0.1 0 0.3 0.1 0.5 0.1s0.4 0.1 0.6 0.1c0.9 0.2 1.9 0.4 2.9 0.5h0.5c0.6 0 1.2 0.1 1.8 0.1h321.6c0.6 0 1.2 0 1.8-0.1h0.5c1-0.1 2-0.2 2.9-0.5 0.2 0 0.4-0.1 0.5-0.1s0.3-0.1 0.4-0.1c1.7-0.4 3.3-1.1 4.8-1.9l0.5-0.3c0.3-0.2 0.7-0.4 1-0.6 0.1-0.1 0.3-0.2 0.4-0.3 0.2-0.1 0.3-0.2 0.5-0.3l1.2-0.9c0.2-0.1 0.3-0.3 0.5-0.4 0.3-0.2 0.5-0.5 0.8-0.7l0.4-0.4c0.3-0.2 0.5-0.5 0.8-0.8 0.5-0.5 1-1.1 1.4-1.6 0.7-0.9 1.3-1.8 1.8-2.7 0.2-0.3 0.4-0.6 0.5-1 0 0 0-0.1 0.1-0.2 0.1-0.3 0.3-0.6 0.4-0.8 0.1-0.3 0.3-0.7 0.4-1s0.3-0.7 0.4-1 0.2-0.7 0.3-1 0.2-0.7 0.3-1.1 0.2-0.7 0.2-1.1c0.1-0.4 0.1-0.7 0.2-1.1 0-0.3 0.1-0.7 0.1-1v-0.1-0.3-0.1-0.1-0.1-0.5-0.4-0.6-510.9c0.6-0.2 0.6-0.4 0.6-0.6zm-345.2 532.6c-11.8 0-21.5-9.6-21.5-21.4v-510.6c0-11.8 9.6-21.4 21.5-21.4h321.5c11.8 0 21.5 9.6 21.5 21.5v510.5c0 11.8-9.6 21.4-21.5 21.4h-321.5z"/><path class="st1" d="m346 1.5h-321.5c-13.2 0-23.9 10.7-23.9 23.8v510.5c0 13.2 10.7 23.9 23.9 23.9h321.5c13.2 0 23.9-10.7 23.9-23.9v-510.5c0-13.1-10.7-23.8-23.9-23.8zm23.7 534.3v0.6 0.4 0.5 0.1 0.1 0.1 0.3 0.1c0 0.3-0.1 0.7-0.1 1 0 0.4-0.1 0.8-0.2 1.1-0.1 0.4-0.1 0.7-0.2 1.1s-0.2 0.7-0.3 1.1c-0.1 0.3-0.2 0.7-0.3 1-0.1 0.4-0.3 0.7-0.4 1s-0.3 0.7-0.4 1-0.3 0.6-0.4 0.8c0 0.1-0.1 0.1-0.1 0.2-0.2 0.3-0.3 0.6-0.5 1-0.5 0.9-1.2 1.8-1.8 2.7-0.4 0.6-0.9 1.1-1.4 1.6-0.2 0.3-0.5 0.5-0.8 0.8l-0.4 0.4c-0.3 0.2-0.5 0.5-0.8 0.7-0.2 0.1-0.3 0.3-0.5 0.4l-1.2 0.9c-0.1 0.1-0.3 0.2-0.5 0.3-0.1 0.1-0.3 0.2-0.4 0.3-0.3 0.2-0.6 0.4-1 0.6l-0.5 0.3c-1.5 0.8-3.1 1.4-4.8 1.9-0.1 0-0.3 0.1-0.4 0.1-0.2 0-0.4 0.1-0.5 0.1-1 0.2-1.9 0.4-2.9 0.5h-0.5c-0.6 0-1.2 0.1-1.8 0.1h-322.1c-0.6 0-1.2 0-1.8-0.1h-0.5c-1-0.1-1.9-0.2-2.9-0.5-0.2 0-0.4-0.1-0.6-0.1-0.1 0-0.3-0.1-0.5-0.1-1.7-0.4-3.3-1.1-4.8-1.9l-0.5-0.3c-0.7-0.4-1.3-0.8-1.9-1.2-0.1-0.1-0.3-0.2-0.4-0.3-0.3-0.2-0.5-0.4-0.8-0.6-0.7-0.5-1.3-1.1-1.9-1.7l-1.4-1.4c-0.2-0.2-0.3-0.4-0.5-0.6-0.1-0.1-0.1-0.2-0.2-0.3 0 0-0.1-0.1-0.1-0.2-0.2-0.2-0.3-0.4-0.5-0.7v-0.1c-0.2-0.3-0.4-0.6-0.6-0.8v-0.1c-0.2-0.3-0.3-0.6-0.5-0.9s-0.4-0.6-0.5-1c0 0 0-0.1-0.1-0.2-0.1-0.3-0.3-0.6-0.4-0.8-0.2-0.3-0.3-0.7-0.4-1s-0.3-0.7-0.4-1c-0.2-0.5-0.4-1.1-0.5-1.6s-0.3-1.1-0.4-1.7c-0.1-0.4-0.1-0.8-0.2-1.1 0-0.3-0.1-0.7-0.1-1v-0.1-0.5-0.6-1.1-510.1-1.1-0.6-0.5-0.2c0-0.3 0.1-0.7 0.1-1 0-0.4 0.1-0.8 0.2-1.1 0.1-0.6 0.2-1.1 0.4-1.7 0-0.6 0.2-1.1 0.4-1.6 0.1-0.4 0.2-0.7 0.4-1 0.1-0.3 0.3-0.7 0.4-1s0.3-0.6 0.4-0.8c0 0 0-0.1 0.1-0.2 0.2-0.3 0.3-0.6 0.5-1 0.2-0.3 0.3-0.6 0.5-0.9v-0.1c0.2-0.3 0.4-0.6 0.6-0.8v-0.1c0.2-0.2 0.3-0.5 0.5-0.7 0-0.1 0.1-0.1 0.1-0.2 0.1-0.1 0.1-0.2 0.2-0.3 0.2-0.2 0.3-0.4 0.5-0.6 0.4-0.2 0.6-0.4 0.8-0.6 0-0.1 0.1-0.1 0.2-0.2l0.2-0.2c0.1-0.1 0.2-0.3 0.4-0.4 0.6-0.6 1.2-1.2 1.9-1.7 0.3-0.2 0.5-0.4 0.8-0.6 0.1-0.1 0.3-0.2 0.4-0.3 0.6-0.4 1.3-0.8 1.9-1.2 0.2-0.1 0.3-0.2 0.5-0.3 1.5-0.8 3.1-1.4 4.8-1.9 0.1 0 0.3-0.1 0.5-0.1s0.4-0.1 0.6-0.1c0.9-0.2 1.9-0.4 2.9-0.4 0.2 0 0.4 0 0.5-0.1 0.6 0 1.2-0.1 1.8-0.1h321.4c0.6 0 1.2 0 1.8 0.1h0.5c1 0.1 2 0.2 2.9 0.5 0.2 0 0.4 0.1 0.5 0.1s0.3 0.1 0.4 0.1c1.7 0.5 3.3 1.1 4.8 1.9 0.2 0.1 0.3 0.2 0.5 0.3 0.3 0.2 0.7 0.4 1 0.6 0.1 0.1 0.3 0.2 0.4 0.3 0.2 0.1 0.3 0.2 0.5 0.3l1.2 0.9c0.2 0.1 0.3 0.3 0.5 0.4 0.3 0.2 0.5 0.4 0.8 0.7l0.4 0.4c0.3 0.2 0.5 0.5 0.8 0.8 0.5 0.5 1 1.1 1.4 1.6 0.7 0.9 1.3 1.8 1.8 2.7 0.2 0.3 0.4 0.6 0.5 1 0 0.1 0 0.1 0.1 0.2 0.1 0.3 0.3 0.6 0.4 0.8 0.1 0.3 0.3 0.7 0.4 1s0.3 0.7 0.4 1 0.2 0.7 0.3 1v0.1c0.1 0.3 0.2 0.7 0.3 1.1s0.2 0.7 0.2 1.1c0.1 0.4 0.1 0.8 0.2 1.1 0 0.2 0.1 0.5 0.1 0.7v0.3 0.2 0.4 0.8 0.4 0.6 510.7z"/><path d="m367.5 25.3v510.5c0 11.8-9.6 21.4-21.5 21.4h-321.5c-11.8 0-21.5-9.6-21.5-21.4v-510.5c0-11.8 9.6-21.4 21.5-21.4h321.5c11.9 0 21.5 9.6 21.5 21.4z"/><linearGradient id="c" x1="185.24" x2="185.24" y1="559.45" y2="537.55" gradientUnits="userSpaceOnUse"><stop stop-color="#F0F0F0" offset="0"/><stop stop-color="#E3E3E3" offset=".0081882"/><stop stop-color="#C2C2C2" offset=".03242"/><stop stop-color="#A6A6A6" offset=".059557"/><stop stop-color="#8F8F8F" offset=".089852"/><stop stop-color="#7E7E7E" offset=".1247"/><stop stop-color="#717171" offset=".1668"/><stop stop-color="#6A6A6A" offset=".2238"/><stop stop-color="#686868" offset=".3607"/><stop stop-color="#686868" offset=".369"/><stop stop-color="#666" offset="1"/></linearGradient><path class="st2" d="m369.6 538v-0.2 0.3 0.1c0 0.3-0.1 0.7-0.1 1-0.1 0.4-0.1 0.8-0.2 1.1-0.1 0.4-0.1 0.7-0.2 1.1s-0.2 0.7-0.3 1.1c-0.1 0.3-0.2 0.7-0.3 1-0.1 0.4-0.3 0.7-0.4 1s-0.3 0.7-0.4 1-0.3 0.6-0.4 0.8c0 0.1-0.1 0.1-0.1 0.2-0.2 0.3-0.3 0.6-0.5 1l-1.8 2.7c-0.4 0.6-0.9 1.1-1.4 1.6-0.2 0.3-0.5 0.5-0.8 0.8l-0.4 0.4c-0.3 0.2-0.5 0.5-0.8 0.7-0.2 0.1-0.3 0.3-0.5 0.4l-1.2 0.9c-0.1 0.1-0.3 0.2-0.5 0.3-0.1 0.1-0.3 0.2-0.4 0.3-0.3 0.2-0.6 0.4-1 0.6l-0.5 0.3c-1.5 0.8-3.1 1.4-4.8 1.9-0.1 0-0.3 0.1-0.4 0.1-0.2 0-0.4 0.1-0.5 0.1-1 0.2-1.9 0.4-2.9 0.5h-0.5c-0.6 0-1.2 0.1-1.8 0.1h-322c-0.6 0-1.2 0-1.8-0.1h-0.5c-1-0.1-1.9-0.2-2.9-0.5-0.2 0-0.4-0.1-0.6-0.1-0.1 0-0.3-0.1-0.5-0.1-1.7-0.4-3.3-1.1-4.8-1.9l-0.5-0.3c-0.7-0.4-1.3-0.8-1.9-1.2-0.1-0.1-0.3-0.2-0.4-0.3-0.3-0.2-0.5-0.4-0.8-0.6-0.7-0.5-1.3-1.1-1.9-1.7l-1.4-1.4c-0.2-0.2-0.3-0.4-0.5-0.6-0.1-0.1-0.1-0.2-0.2-0.3 0 0-0.1-0.1-0.1-0.2-0.2-0.2-0.3-0.4-0.5-0.7v-0.1c-0.2-0.3-0.4-0.6-0.6-0.8v-0.1c-0.2-0.3-0.3-0.6-0.5-0.9s-0.4-0.6-0.5-1c0 0 0-0.1-0.1-0.2-0.1-0.3-0.3-0.6-0.4-0.8-0.2-0.3-0.3-0.7-0.4-1s-0.3-0.7-0.4-1c-0.2-0.5-0.4-1.1-0.5-1.6s-0.3-1.1-0.4-1.7c-0.1-0.4-0.1-0.7-0.2-1.1 0-0.3-0.1-0.7-0.1-1v-0.1-0.5 0.4c0 0.3 0.1 0.7 0.1 1 0 0.2 0 0.3 0.1 0.5 0 0.2 0.1 0.4 0.1 0.6 0 0.3 0.1 0.6 0.2 0.9s0.2 0.6 0.3 1c0.1 0.3 0.2 0.5 0.3 0.8 0.2 0.6 0.4 1.1 0.6 1.6 0.1 0.2 0.1 0.3 0.2 0.5 0.1 0.3 0.2 0.5 0.4 0.8v0.1c0.2 0.3 0.3 0.6 0.5 0.8l0.3 0.6c0.1 0.2 0.2 0.3 0.3 0.5 0 0 0 0.1 0.1 0.1 0.2 0.3 0.4 0.5 0.5 0.8 0.2 0.2 0.4 0.5 0.6 0.7 0 0.1 0.1 0.1 0.1 0.1 0.2 0.2 0.4 0.5 0.6 0.7l1.3 1.3c0.1 0 0.1 0.1 0.2 0.2 0.2 0.2 0.5 0.4 0.7 0.6 0.3 0.2 0.5 0.4 0.8 0.6 0.2 0.2 0.4 0.3 0.7 0.5 0.1 0.1 0.2 0.2 0.3 0.2 0.1 0.1 0.3 0.2 0.4 0.3s0.3 0.2 0.4 0.3c0.3 0.2 0.6 0.3 0.9 0.5 0.2 0.1 0.4 0.2 0.5 0.3 0.4 0.2 0.9 0.4 1.3 0.6 0.1 0.1 0.3 0.1 0.4 0.2 0.2 0.1 0.4 0.2 0.7 0.2 0.3 0.1 0.6 0.2 0.9 0.3s0.6 0.2 0.9 0.2c0.3 0.1 0.6 0.2 1 0.2 0.2 0 0.5 0.1 0.7 0.1 1.2 0.2 2.3 0.3 3.6 0.3h325.9 1.3 0.7c0.2 0 0.4 0 0.6-0.1h0.3c0.3 0 0.5-0.1 0.8-0.1h0.1c0.1 0 0.3 0 0.5-0.1h0.2 0.1c0.2 0 0.4-0.1 0.7-0.1 0.1 0 0.2 0 0.3-0.1 0.3-0.1 0.6-0.2 0.9-0.3s0.6-0.2 0.9-0.3c0.1-0.1 0.3-0.1 0.4-0.2 0.2 0 0.3-0.1 0.5-0.2 0.4-0.2 0.9-0.4 1.3-0.6 0.2-0.1 0.4-0.2 0.5-0.3 0.3-0.2 0.6-0.3 0.9-0.5 0.1-0.1 0.3-0.2 0.4-0.3s0.3-0.2 0.4-0.3 0.2-0.1 0.3-0.2c0.2-0.1 0.4-0.3 0.7-0.5s0.5-0.4 0.8-0.6c0.2-0.2 0.4-0.3 0.6-0.5 0 0 0.1 0 0.1-0.1l1.5-1.5c0.1-0.1 0.2-0.2 0.2-0.3 0.2-0.2 0.3-0.4 0.5-0.5l0.2-0.2c0.2-0.2 0.4-0.5 0.6-0.7 0.1-0.2 0.3-0.4 0.4-0.6 0.1-0.1 0.2-0.3 0.3-0.4 0.2-0.2 0.3-0.5 0.5-0.8l0.3-0.5c0.1-0.1 0.1-0.2 0.2-0.3l0.3-0.6c0.1-0.2 0.2-0.5 0.4-0.8l0.3-0.6c0-0.1 0-0.1 0.1-0.2 0.1-0.2 0.1-0.4 0.2-0.6 0-0.1 0.1-0.2 0.1-0.4v-0.1c0.1-0.2 0.1-0.5 0.2-0.7s0.1-0.5 0.2-0.8v-0.1l0.1-0.3c0.1-0.2 0.1-0.5 0.2-0.7 0-0.2 0.1-0.4 0.1-0.6s0.1-0.3 0.1-0.5c0.2 0.2 0.2-0.2 0.3-0.5z"/><path class="st3" d="m369.7 535.8v1.1-1.1z"/><linearGradient id="t" x1="185.21" x2="185.21" y1="23.566" y2="1.6646" gradientUnits="userSpaceOnUse"><stop stop-color="#666" offset="0"/><stop stop-color="#686868" offset=".4216"/><stop stop-color="#6F6F6F" offset=".5734"/><stop stop-color="#7A7A7A" offset=".6817"/><stop stop-color="#8B8B8B" offset=".7693"/><stop stop-color="#A1A1A1" offset=".8442"/><stop stop-color="#BDBDBD" offset=".9105"/><stop stop-color="#DCDCDC" offset=".969"/><stop stop-color="#F0F0F0" offset="1"/></linearGradient><path d="m369.4 21.9c0 0.2 0.1 0.5 0.1 0.7 0-0.2-0.1-0.3-0.1-0.5s0-0.3-0.1-0.5c0-0.2-0.1-0.4-0.1-0.6-0.1-0.3-0.2-0.7-0.2-1-0.1-0.3-0.1-0.6-0.2-0.9-0.1-0.2-0.1-0.5-0.2-0.7-0.2-0.4-0.3-0.9-0.5-1.3l-0.3-0.6c-0.1-0.3-0.2-0.5-0.4-0.8l-0.3-0.6c0-0.1-0.1-0.2-0.2-0.3l-0.3-0.6c-0.1-0.3-0.3-0.5-0.5-0.8-0.1-0.1-0.2-0.3-0.3-0.4-0.1-0.2-0.3-0.4-0.4-0.6-0.2-0.2-0.4-0.5-0.6-0.7 0-0.1-0.1-0.1-0.2-0.2-0.1-0.2-0.3-0.4-0.5-0.5-0.1-0.1-0.1-0.2-0.2-0.3l-1.4-1.4c-0.2-0.2-0.5-0.4-0.7-0.6-0.3-0.2-0.5-0.4-0.8-0.6-0.2-0.2-0.4-0.3-0.7-0.5-0.1-0.1-0.2-0.2-0.3-0.2-0.1-0.1-0.3-0.2-0.4-0.3s-0.3-0.2-0.4-0.3c-0.3-0.2-0.6-0.3-0.9-0.5-0.2-0.1-0.3-0.2-0.5-0.3-0.4-0.2-0.9-0.4-1.3-0.6-0.2-0.1-0.4-0.1-0.5-0.2-0.2-0.1-0.3-0.1-0.5-0.2-0.3-0.1-0.6-0.2-0.9-0.3s-0.6-0.2-0.9-0.3-0.7-0.2-1-0.2c-0.2-0.1-0.5-0.1-0.8-0.1-1.1-0.2-2.3-0.3-3.5-0.3h-326.1c-1.2 0-2.4 0.1-3.6 0.3-0.2 0-0.5 0.1-0.7 0.1-0.3 0.1-0.7 0.1-1 0.2s-0.6 0.2-0.9 0.2c-0.3 0.1-0.6 0.2-0.9 0.3-0.2 0.1-0.4 0.2-0.7 0.2-0.1 0.1-0.3 0.1-0.4 0.2-0.4 0.2-0.9 0.4-1.3 0.6-0.2 0.1-0.4 0.2-0.5 0.3-0.3 0.1-0.6 0.3-0.9 0.5-0.2 0.2-0.4 0.3-0.5 0.4s-0.3 0.2-0.4 0.3-0.2 0.2-0.3 0.2c-0.3 0.2-0.5 0.4-0.7 0.5-0.3 0.2-0.6 0.4-0.8 0.7-0.3 0.2-0.5 0.4-0.7 0.6-0.1 0-0.2 0.1-0.2 0.1l-1.3 1.3c-0.2 0.2-0.4 0.5-0.6 0.7l-0.1 0.1c-0.2 0.2-0.4 0.5-0.6 0.7-0.2 0.3-0.4 0.5-0.5 0.8l-0.1 0.1c-0.1 0.2-0.2 0.3-0.3 0.5l-0.3 0.6c-0.2 0.3-0.3 0.6-0.5 0.8v0.1c-0.1 0.2-0.2 0.5-0.4 0.8-0.1 0.2-0.2 0.3-0.2 0.5-0.2 0.5-0.5 1.1-0.6 1.6-0.1 0.3-0.2 0.5-0.3 0.8s-0.2 0.6-0.3 1c-0.1 0.3-0.1 0.6-0.2 0.9 0 0.2-0.1 0.4-0.1 0.6s-0.1 0.3-0.1 0.5c0 0.3-0.1 0.7-0.1 1v0.4-0.5-0.2c0-0.3 0.1-0.7 0.1-1 0.1-0.4 0.1-0.8 0.2-1.1 0.1-0.6 0.2-1.1 0.4-1.7-0.1-0.3 0.1-0.8 0.3-1.3 0.1-0.4 0.2-0.7 0.4-1 0.1-0.3 0.3-0.7 0.4-1s0.3-0.6 0.4-0.8c0 0 0-0.1 0.1-0.2 0.2-0.3 0.3-0.6 0.5-1 0.2-0.3 0.3-0.6 0.5-0.9v-0.1c0.2-0.3 0.4-0.6 0.6-0.8v-0.1c0.2-0.2 0.3-0.5 0.5-0.7 0-0.1 0.1-0.1 0.1-0.2 0.1-0.1 0.1-0.2 0.2-0.3 0.2-0.2 0.3-0.4 0.5-0.6 0.4-0.2 0.6-0.4 0.8-0.6 0-0.1 0.1-0.1 0.2-0.2l0.2-0.2c0.1-0.1 0.2-0.3 0.4-0.4 0.6-0.6 1.2-1.2 1.9-1.7 0.3-0.2 0.5-0.4 0.8-0.6 0.1-0.1 0.3-0.2 0.4-0.3 0.6-0.4 1.3-0.8 1.9-1.2 0.2-0.1 0.3-0.2 0.5-0.3 1.5-0.8 3.1-1.4 4.8-1.9 0.1 0 0.3-0.1 0.5-0.1s0.4-0.1 0.6-0.1c0.9-0.2 1.9-0.4 2.9-0.4 0.2 0 0.4 0 0.5-0.1 0.6 0 1.2-0.1 1.8-0.1h321.4c0.6 0 1.2 0 1.8 0.1h0.5c1 0.1 2 0.2 2.9 0.5 0.2 0 0.4 0.1 0.5 0.1s0.3 0.1 0.4 0.1c1.7 0.5 3.3 1.1 4.8 1.9 0.2 0.1 0.3 0.2 0.5 0.3 0.3 0.2 0.7 0.4 1 0.6 0.1 0.1 0.3 0.2 0.4 0.3 0.2 0.1 0.3 0.2 0.5 0.3l1.2 0.9c0.2 0.1 0.3 0.3 0.5 0.4 0.3 0.2 0.5 0.4 0.8 0.7l0.4 0.4c0.3 0.2 0.5 0.5 0.8 0.8 0.5 0.5 1 1.1 1.4 1.6 0.7 0.9 1.3 1.8 1.8 2.7 0.2 0.3 0.4 0.6 0.5 1 0 0.1 0 0.1 0.1 0.2 0.1 0.3 0.3 0.6 0.4 0.8 0.1 0.3 0.3 0.7 0.4 1s0.3 0.7 0.4 1 0.2 0.7 0.3 1v0.1c0.1 0.3 0.2 0.7 0.3 1.1s0.2 0.7 0.2 1.1c0.5 0.5 0.6 0.9 0.6 1.3z" fill="url(#t)"/><linearGradient id="p" x1="369.51" x2="369.57" y1="22.893" y2="22.893" gradientUnits="userSpaceOnUse"><stop stop-color="#666" offset="0"/><stop stop-color="#686868" offset=".4216"/><stop stop-color="#6F6F6F" offset=".5734"/><stop stop-color="#7A7A7A" offset=".6817"/><stop stop-color="#8B8B8B" offset=".7693"/><stop stop-color="#A1A1A1" offset=".8442"/><stop stop-color="#BDBDBD" offset=".9105"/><stop stop-color="#DCDCDC" offset=".969"/><stop stop-color="#F0F0F0" offset="1"/></linearGradient><path d="m369.6 23.1v-0.4 0.3c-0.1-0.1-0.1 0 0 0.1z" fill="url(#p)"/><path class="st3" d="m369.7 25.3v-1.1 1.1z"/><linearGradient id="s" x1="12.651" x2="12.651" y1="557.25" y2="3.8575" gradientUnits="userSpaceOnUse"><stop stop-color="#C9C9C9" offset="0"/><stop stop-color="#808080" offset=".2531"/><stop stop-color="#F0F0F0" offset=".4778"/><stop stop-color="#EBEBEB" offset=".5269"/><stop stop-color="#ddd" offset=".5838"/><stop stop-color="#C6C6C6" offset=".6447"/><stop stop-color="#A6A6A6" offset=".7078"/><stop stop-color="#808080" offset=".7674"/><stop stop-color="#A5A5A5" offset=".89"/><stop stop-color="#C9C9C9" offset="1"/></linearGradient><path d="m24.5 557.3h-2.2c-1.2 0-2.4-0.1-3.6-0.3-0.2 0-0.5-0.1-0.7-0.1-0.3-0.1-0.7-0.1-1-0.2s-0.6-0.2-0.9-0.2c-0.3-0.1-0.6-0.2-0.9-0.3-0.2-0.1-0.4-0.2-0.7-0.2-0.1-0.1-0.3-0.1-0.4-0.2-0.4-0.2-0.9-0.4-1.3-0.6-0.2-0.1-0.4-0.2-0.5-0.3-0.3-0.2-0.6-0.3-0.9-0.5-0.1-0.1-0.3-0.2-0.4-0.3s-0.3-0.2-0.4-0.3-0.2-0.1-0.3-0.2c-0.2-0.1-0.4-0.3-0.7-0.5s-0.5-0.4-0.8-0.6c-0.2-0.2-0.5-0.4-0.7-0.6l-1.5-1.5c-0.2-0.2-0.4-0.5-0.6-0.7l-0.1-0.1c-0.2-0.2-0.4-0.5-0.6-0.7-0.2-0.3-0.4-0.5-0.5-0.8l-0.1-0.1c-0.1-0.2-0.2-0.3-0.3-0.5l-0.3-0.6c-0.2-0.3-0.3-0.6-0.5-0.8v-0.1c-0.1-0.2-0.2-0.5-0.4-0.8-0.1-0.2-0.2-0.3-0.2-0.5-0.2-0.5-0.5-1.1-0.6-1.6-0.1-0.3-0.2-0.5-0.3-0.8s-0.2-0.6-0.3-1c-0.1-0.3-0.1-0.6-0.2-0.9 0-0.2-0.1-0.4-0.1-0.6s-0.1-0.3-0.1-0.5c0-0.3-0.1-0.7-0.1-1v-0.4-0.6-1.1-510.9-1.1-0.6-0.4c0-0.3 0.1-0.7 0.1-1 0-0.2 0-0.3 0.1-0.5 0-0.2 0.1-0.4 0.1-0.6 0-0.3 0.1-0.6 0.2-0.9s0.2-0.7 0.3-1 0.2-0.5 0.3-0.8c0.2-0.6 0.4-1.1 0.6-1.6 0.1-0.2 0.1-0.3 0.2-0.5s0.2-0.5 0.4-0.8v-0.1c0.2-0.3 0.3-0.6 0.5-0.8l0.3-0.6c0.1-0.2 0.2-0.3 0.3-0.5 0 0 0-0.1 0.1-0.1 0.2-0.3 0.4-0.5 0.5-0.8 0.2-0.2 0.4-0.5 0.6-0.7l0.1-0.1c0.2-0.2 0.4-0.5 0.6-0.7 0.2-0.3 0.5-0.5 0.7-0.7l0.6-0.6c-0.1-0.3 0-0.4 0.1-0.4 0.2-0.2 0.4-0.4 0.7-0.6s0.5-0.4 0.8-0.6c0.2-0.2 0.4-0.4 0.6-0.5 0.1-0.1 0.2-0.2 0.3-0.2 0.1-0.1 0.3-0.2 0.4-0.3 0.2-0.2 0.4-0.3 0.5-0.3 0.3-0.2 0.6-0.3 0.9-0.5 0.2-0.1 0.4-0.2 0.5-0.3 0.4-0.2 0.9-0.4 1.3-0.6 0.1 0 0.3-0.1 0.4-0.2 0.2-0.1 0.4-0.2 0.7-0.2 0.3-0.1 0.6-0.2 0.9-0.3s0.6-0.2 0.9-0.2c0.3-0.1 0.6-0.2 1-0.2 0.2 0 0.5-0.1 0.7-0.1 1.2-0.2 2.3-0.3 3.6-0.3h2.2c-11.8-0.1-21.4 9.5-21.4 21.3v510.5c0 11.8 9.6 21.5 21.5 21.5z" fill="url(#s)"/><linearGradient id="n" x1="357.85" x2="357.85" y1="557.25" y2="3.8575" gradientUnits="userSpaceOnUse"><stop stop-color="#C9C9C9" offset="0"/><stop stop-color="#808080" offset=".2531"/><stop stop-color="#F0F0F0" offset=".4778"/><stop stop-color="#EBEBEB" offset=".5269"/><stop stop-color="#ddd" offset=".5838"/><stop stop-color="#C6C6C6" offset=".6447"/><stop stop-color="#A6A6A6" offset=".7078"/><stop stop-color="#808080" offset=".7674"/><stop stop-color="#A5A5A5" offset=".89"/><stop stop-color="#C9C9C9" offset="1"/></linearGradient><path d="m369.7 25.3v510.5 0.6 0.4 0.5 0.1 0.1 0.1 0.2c0 0.3-0.1 0.7-0.1 1 0 0.2 0 0.3-0.1 0.5 0 0.2-0.1 0.4-0.1 0.6s-0.1 0.5-0.2 0.7l-0.1 0.3v0.1c-0.1 0.3-0.1 0.5-0.2 0.8-0.1 0.2-0.1 0.5-0.2 0.7v0.1c0 0.1-0.1 0.3-0.1 0.4-0.1 0.2-0.1 0.4-0.2 0.6 0 0.1-0.1 0.1-0.1 0.2l-0.3 0.6c-0.1 0.3-0.2 0.5-0.4 0.8l-0.3 0.6c0 0.1-0.1 0.2-0.2 0.3l-0.3 0.5c-0.1 0.3-0.3 0.5-0.5 0.8-0.1 0.1-0.2 0.3-0.3 0.4-0.1 0.2-0.3 0.4-0.4 0.6-0.2 0.2-0.4 0.5-0.6 0.7 0 0.1-0.1 0.1-0.2 0.2-0.1 0.2-0.3 0.4-0.5 0.5-0.1 0.1-0.1 0.2-0.2 0.3l-1.3 1.3c-0.1 0-0.1 0.1-0.2 0.2 0 0-0.1 0-0.1 0.1-0.2 0.2-0.4 0.3-0.6 0.5-0.3 0.2-0.5 0.4-0.8 0.6-0.2 0.2-0.4 0.3-0.7 0.5-0.1 0.1-0.2 0.2-0.3 0.2-0.1 0.1-0.3 0.2-0.4 0.3s-0.3 0.2-0.4 0.3c-0.3 0.2-0.6 0.3-0.9 0.5-0.2 0.1-0.3 0.2-0.5 0.3-0.4 0.2-0.9 0.4-1.3 0.6-0.2 0.1-0.3 0.1-0.5 0.2-0.1 0.1-0.3 0.1-0.4 0.2-0.3 0.1-0.6 0.2-0.9 0.3s-0.6 0.2-0.9 0.3c-0.1 0-0.2 0-0.3 0.1-0.2 0-0.4 0.1-0.7 0.1h-0.1-0.2c-0.2 0-0.3 0-0.5 0.1h-0.1c-0.2 0-0.5 0.1-0.8 0.1h-0.3c-0.2 0-0.4 0-0.6 0.1h-0.7-1.3-2.3c11.8 0 21.5-9.6 21.5-21.4v-510.3c0-11.8-9.6-21.5-21.5-21.5h2.2c1.2 0 2.4 0.1 3.5 0.3 0.3 0 0.5 0.1 0.8 0.1 0.3 0.1 0.7 0.1 1 0.2s0.6 0.2 0.9 0.3 0.6 0.2 0.9 0.3c0.2 0.1 0.4 0.1 0.5 0.2 0.2 0.1 0.4 0.1 0.5 0.2 0.4 0.2 0.9 0.4 1.3 0.6 0.2 0.1 0.4 0.2 0.5 0.3 0.3 0.1 0.6 0.3 0.9 0.5 0.1 0.1 0.3 0.2 0.4 0.3s0.3 0.2 0.4 0.3 0.2 0.2 0.3 0.2c0.2 0.1 0.4 0.3 0.7 0.5s0.5 0.4 0.8 0.6c0.2 0.2 0.5 0.4 0.7 0.6l1.4 1.4c0.1 0.1 0.2 0.2 0.2 0.3 0.2 0.2 0.3 0.4 0.5 0.5 0.1 0 0.1 0.1 0.2 0.2 0.2 0.2 0.4 0.5 0.6 0.7 0.1 0.2 0.3 0.4 0.4 0.6 0.1 0.1 0.2 0.3 0.3 0.4 0.2 0.2 0.3 0.5 0.5 0.8l0.3 0.6c0.1 0.1 0.1 0.2 0.2 0.3l0.3 0.6c0.1 0.2 0.2 0.5 0.4 0.8l0.3 0.6c0.2 0.4 0.3 0.9 0.5 1.3 0.1 0.2 0.1 0.5 0.2 0.7 0.1 0.3 0.2 0.6 0.2 0.9 0.1 0.3 0.2 0.7 0.2 1 0 0.2 0.1 0.4 0.1 0.6s0.1 0.3 0.1 0.5c0.1 0.3 0.1 0.7 0.1 1v0.3 0.8 0.4c0.4 0.3 0.4 0.5 0.4 0.7z" fill="url(#n)"/><linearGradient id="r" x1="-6.8678" x2="377.37" y1="85.703" y2="469.94" gradientUnits="userSpaceOnUse"><stop stop-color="#F1F2F3" offset="0"/><stop stop-color="#EDEDEE" offset=".4949"/><stop stop-color="#E2E2E2" offset="1"/></linearGradient><rect x="20.4" y="58.4" width="329.7" height="438.8" fill="url(#r)"/><linearGradient id="i" x1="-8.1757" x2="378.68" y1="84.395" y2="471.25" gradientUnits="userSpaceOnUse"><stop stop-color="#F1F2F3" offset="0"/><stop stop-color="#EDEDEE" offset=".4949"/><stop stop-color="#E2E2E2" offset="1"/></linearGradient><path d="m350.6 56.8h-330.7c-0.6 0-1.1 0.5-1.1 1.1v439.9c0 0.6 0.5 1.1 1.1 1.1h330.8c0.6 0 1.1-0.5 1.1-1.1v-439.9c-0.1-0.6-0.6-1.1-1.2-1.1zm-0.5 440.4h-329.7v-438.8h329.7v438.8z" fill="url(#i)"/><linearGradient id="k" x1="175.11" x2="195.39" y1="543.71" y2="523.43" gradientUnits="userSpaceOnUse"><stop stop-color="#303030" offset="0"/><stop stop-color="#393939" offset=".022461"/><stop stop-color="#757575" offset=".1906"/><stop stop-color="#A0A0A0" offset=".3338"/><stop stop-color="#bbb" offset=".4447"/><stop stop-color="#C5C5C5" offset=".51"/><stop stop-color="#BABABA" offset=".5737"/><stop stop-color="#9E9E9E" offset=".6846"/><stop stop-color="#6F6F6F" offset=".8295"/><stop stop-color="#303030" offset="1"/></linearGradient><circle cx="185.2" cy="533.6" r="14.3" fill="url(#k)"/><linearGradient id="x" x1="175.07" x2="195.16" y1="523.39" y2="543.48" gradientUnits="userSpaceOnUse"><stop stop-color="#4C4C4C" offset="0"/><stop stop-color="#757575" offset=".1373"/><stop stop-color="#A0A0A0" offset=".3037"/><stop stop-color="#bbb" offset=".4336"/><stop stop-color="#C5C5C5" offset=".51"/><stop stop-color="#BABABA" offset=".5848"/><stop stop-color="#9E9E9E" offset=".7151"/><stop stop-color="#707070" offset=".884"/><stop stop-color="#4C4C4C" offset="1"/></linearGradient><circle cx="185.1" cy="533.4" r="14.2" fill="url(#x)"/><ellipse transform="matrix(.2298 -.9732 .9732 .2298 -376.58 591.04)" cx="185.1" cy="533.4" rx="12.4" ry="12.4"/><ellipse class="st12" transform="matrix(.2298 -.9732 .9732 .2298 -376.58 591.04)" cx="185.1" cy="533.4" rx="12" ry="12"/><defs><filter id="y" x=".6" y="560.8" width="369.3" height="558.2" filterUnits="userSpaceOnUse"><feColorMatrix values="1 0 0 0 0 0 1 0 0 0 0 0 1 0 0 0 0 0 1 0"/></filter></defs><mask id="e" x="0.6" y="560.8" width="369.3" height="558.2" maskUnits="userSpaceOnUse"><g class="st13"><linearGradient id="h" x1="219.37" x2="219.37" y1="650.5" y2="1157.7" gradientUnits="userSpaceOnUse"><stop stop-color="#333" offset=".018388"/><stop offset=".2281"/></linearGradient><rect x="-80.5" y="536.7" width="599.7" height="692.1" fill="url(#h)"/></g></mask><g mask="url(#e)"><path class="st0" d="m369.7 1095.2v-510.5-0.6-0.4-0.5-0.1-0.1-0.1-0.3-0.1c0-0.3-0.1-0.7-0.1-1-0.1-0.4-0.1-0.8-0.2-1.1-0.1-0.4-0.1-0.7-0.2-1.1s-0.2-0.7-0.3-1.1c-0.1-0.3-0.2-0.7-0.3-1-0.1-0.4-0.3-0.7-0.4-1s-0.3-0.7-0.4-1-0.3-0.6-0.4-0.8c0-0.1-0.1-0.1-0.1-0.2-0.2-0.3-0.3-0.6-0.5-1-0.5-0.9-1.2-1.8-1.8-2.7-0.4-0.6-0.9-1.1-1.4-1.6-0.2-0.3-0.5-0.5-0.8-0.8l-0.4-0.4c-0.3-0.2-0.5-0.5-0.8-0.7-0.2-0.1-0.3-0.3-0.5-0.4l-1.2-0.9c-0.1-0.1-0.3-0.2-0.5-0.3-0.1-0.1-0.3-0.2-0.4-0.3-0.3-0.2-0.6-0.4-1-0.6l-0.5-0.3c-1.5-0.8-3.1-1.4-4.8-1.9-0.1 0-0.3-0.1-0.4-0.1-0.2 0-0.4-0.1-0.5-0.1-1-0.2-1.9-0.4-2.9-0.5h-0.5c-0.6 0-1.2-0.1-1.8-0.1h-322.1c-0.6 0-1.2 0-1.8 0.1h-0.5c-1 0.1-1.9 0.2-2.9 0.5-0.2 0-0.4 0.1-0.6 0.1-0.1 0-0.3 0.1-0.5 0.1-1.7 0.4-3.3 1.1-4.8 1.9l-0.4-0.2c-0.7 0.4-1.3 0.8-1.9 1.2-0.1 0.1-0.3 0.2-0.4 0.3-0.3 0.2-0.5 0.4-0.8 0.6-0.7 0.5-1.3 1.1-1.9 1.7l-1.4 1.4c-0.2 0.2-0.3 0.4-0.5 0.6-0.1 0.1-0.1 0.2-0.2 0.3 0 0-0.1 0.1-0.1 0.2-0.2 0.2-0.3 0.4-0.5 0.7v0.1c-0.2 0.3-0.4 0.6-0.6 0.8v0.1c-0.2 0.3-0.3 0.6-0.5 0.9s-0.4 0.6-0.5 1c0 0 0 0.1-0.1 0.2-0.1 0.3-0.3 0.6-0.4 0.8-0.2 0.3-0.3 0.7-0.4 1s-0.3 0.7-0.4 1c-0.2 0.5-0.4 1.1-0.5 1.6s-0.3 1.1-0.4 1.7c-0.1 0.4-0.1 0.7-0.2 1.1 0 0.3-0.1 0.7-0.1 1v0.1 0.5 0.6 1.1 510.5 1.1 0.6 0.5 0.2c0 0.3 0.1 0.7 0.1 1 0.1 0.4 0.1 0.8 0.2 1.1 0.1 0.6 0.2 1.1 0.4 1.7 0.1 0.5 0.3 1.1 0.5 1.6 0.1 0.4 0.2 0.7 0.4 1 0.1 0.3 0.3 0.7 0.4 1s0.3 0.6 0.4 0.8c0 0 0 0.1 0.1 0.2 0.2 0.3 0.3 0.6 0.5 1 0.2 0.3 0.3 0.6 0.5 0.9v0.1c0.2 0.3 0.4 0.6 0.6 0.8v0.1c0.2 0.2 0.3 0.5 0.5 0.7 0 0.1 0.1 0.1 0.1 0.2 0.1 0.1 0.1 0.2 0.2 0.3 0.2 0.2 0.3 0.4 0.5 0.6l0.6 0.6c0 0.1 0.1 0.1 0.2 0.2l0.6 0.6c0.6 0.6 1.2 1.2 1.9 1.7 0.3 0.2 0.5 0.4 0.8 0.6 0.1 0.1 0.3 0.2 0.4 0.3 0.6 0.4 1.2 0.8 1.9 1.2 0.2 0.1 0.3 0.2 0.5 0.3 1.5 0.8 3.1 1.4 4.8 1.9 0.1 0 0.3 0.1 0.5 0.1s0.4 0.1 0.6 0.1c0.9 0.2 1.9 0.4 2.9 0.4 0.2 0 0.4 0 0.5 0.1 0.6 0 1.2 0.1 1.8 0.1h321.4c0.6 0 1.2 0 1.8-0.1h0.5c1-0.1 2-0.2 2.9-0.5 0.2 0 0.4-0.1 0.5-0.1s0.3-0.1 0.4-0.1c1.7-0.5 3.3-1.1 4.8-1.9 0.2-0.1 0.3-0.2 0.5-0.3 0.3-0.2 0.7-0.4 1-0.6 0.1-0.1 0.3-0.2 0.4-0.3 0.2-0.1 0.3-0.2 0.5-0.3l1.2-0.9c0.2-0.1 0.3-0.3 0.5-0.4 0.3-0.2 0.5-0.4 0.8-0.7l0.4-0.4c0.3-0.2 0.5-0.5 0.8-0.8 0.5-0.5 1-1.1 1.4-1.6 0.7-0.9 1.3-1.8 1.8-2.7 0.2-0.3 0.4-0.6 0.5-1 0-0.1 0-0.1 0.1-0.2 0.1-0.3 0.3-0.6 0.4-0.8 0.1-0.3 0.3-0.7 0.4-1s0.3-0.7 0.4-1 0.2-0.7 0.3-1v-0.1c0.1-0.3 0.2-0.7 0.3-1.1s0.2-0.7 0.2-1.1c0.1-0.4 0.1-0.8 0.2-1.1 0-0.2 0.1-0.5 0.1-0.7v-0.3-0.2-0.4-0.8-0.4c0.6-0.3 0.6-0.5 0.6-0.7zm-23.7-532c11.8 0 21.5 9.6 21.5 21.4v510.5c0 11.8-9.6 21.5-21.5 21.5h-321.5c-11.8 0-21.5-9.6-21.5-21.5v-510.4c0-11.8 9.6-21.4 21.5-21.4h321.5z"/><path class="st1" d="m369.9 1095.2v-510.5c0-13.2-10.7-23.9-23.9-23.9h-321.5c-13.2 0-23.9 10.7-23.9 23.9v510.5c0 13.2 10.7 23.9 23.9 23.9h321.5c13.2-0.1 23.9-10.8 23.9-23.9zm-0.2 0v0.6 0.4 0.8 0.4 0.2 0.3c0 0.2-0.1 0.5-0.1 0.7 0 0.4-0.1 0.8-0.2 1.1-0.1 0.4-0.1 0.7-0.2 1.1s-0.2 0.7-0.3 1.1v0.1c-0.1 0.3-0.2 0.7-0.3 1-0.1 0.4-0.3 0.7-0.4 1s-0.3 0.7-0.4 1-0.3 0.6-0.4 0.8c0 0-0.1 0.1-0.1 0.2-0.2 0.3-0.3 0.6-0.5 1-0.5 1-1.2 1.9-1.8 2.7-0.4 0.6-0.9 1.1-1.4 1.6-0.2 0.3-0.5 0.5-0.8 0.8l-0.4 0.4c-0.3 0.2-0.5 0.5-0.8 0.7-0.2 0.1-0.3 0.3-0.5 0.4l-1.2 0.9c-0.1 0.1-0.3 0.2-0.5 0.3-0.1 0.1-0.3 0.2-0.4 0.3-0.3 0.2-0.6 0.4-1 0.6-0.2 0.1-0.3 0.2-0.5 0.3-1.5 0.8-3.1 1.4-4.8 1.9-0.1 0-0.3 0.1-0.4 0.1-0.2 0-0.4 0.1-0.5 0.1-1 0.2-1.9 0.4-2.9 0.5h-0.5c-0.6 0-1.2 0.1-1.8 0.1h-322.1c-0.6 0-1.2 0-1.8-0.1-0.2 0-0.4 0-0.5-0.1-1-0.1-1.9-0.2-2.9-0.4-0.2 0-0.4-0.1-0.6-0.1-0.1 0-0.3-0.1-0.5-0.1-1.7-0.4-3.3-1.1-4.8-1.9-0.2-0.1-0.3-0.2-0.5-0.3-0.7-0.4-1.3-0.8-1.9-1.2-0.1-0.1-0.3-0.2-0.4-0.3-0.3-0.2-0.5-0.4-0.8-0.6-0.7-0.5-1.3-1.1-1.9-1.7l-1.4-1.4c-0.2-0.2-0.3-0.4-0.5-0.6-0.1-0.1-0.1-0.2-0.2-0.3 0 0-0.1-0.1-0.1-0.2-0.2-0.2-0.3-0.4-0.5-0.7v-0.1c-0.2-0.3-0.4-0.6-0.6-0.8v-0.1c-0.2-0.3-0.3-0.6-0.5-0.9s-0.4-0.6-0.5-1c0-0.1 0-0.1-0.1-0.2-0.1-0.3-0.3-0.6-0.4-0.8-0.2-0.3-0.3-0.7-0.4-1s-0.3-0.7-0.4-1c-0.2-0.5-0.4-1.1-0.5-1.6s-0.3-1.1-0.4-1.7c-0.1-0.4-0.1-0.8-0.2-1.1 0-0.3-0.1-0.7-0.1-1v-0.2-0.5-0.6-1.1-510.3-1.1-0.6-0.5-0.1c0-0.3 0.1-0.7 0.1-1 0-0.4 0.1-0.8 0.2-1.1 0.1-0.6 0.2-1.1 0.4-1.7s0.3-1.1 0.5-1.6c0.1-0.4 0.2-0.7 0.4-1 0.1-0.3 0.3-0.7 0.4-1s0.3-0.6 0.4-0.8c0-0.1 0-0.1 0.1-0.2 0.2-0.3 0.3-0.6 0.5-1 0.2-0.3 0.3-0.6 0.5-0.9v-0.1c0.2-0.3 0.4-0.6 0.6-0.8v-0.1c0.2-0.2 0.3-0.5 0.5-0.7 0-0.1 0.1-0.1 0.1-0.2 0.1-0.1 0.1-0.2 0.2-0.3 0.2-0.2 0.3-0.4 0.5-0.6l0.6-0.6c0-0.1 0.1-0.1 0.2-0.2l0.6-0.6c0.6-0.6 1.2-1.2 1.9-1.7 0.3-0.2 0.5-0.4 0.8-0.6 0.1-0.1 0.3-0.2 0.4-0.3 0.6-0.4 1.2-0.8 1.9-1.2l0.5-0.3c1.5-0.8 3.1-1.4 4.8-1.9 0.1 0 0.3-0.1 0.5-0.1s0.4-0.1 0.6-0.1c0.9-0.2 1.9-0.4 2.9-0.5h0.5c0.6 0 1.2-0.1 1.8-0.1h321.5c0.6 0 1.2 0 1.8 0.1h0.5c1 0.1 2 0.2 2.9 0.5 0.2 0 0.4 0.1 0.5 0.1s0.3 0.1 0.4 0.1c1.7 0.4 3.3 1.1 4.8 1.9l0.5 0.3c0.3 0.2 0.7 0.4 1 0.6 0.1 0.1 0.3 0.2 0.4 0.3 0.2 0.1 0.3 0.2 0.5 0.3l1.2 0.9c0.2 0.1 0.3 0.3 0.5 0.4 0.3 0.2 0.5 0.5 0.8 0.7l0.4 0.4c0.3 0.2 0.5 0.5 0.8 0.8 0.5 0.5 1 1.1 1.4 1.6 0.7 0.9 1.3 1.8 1.8 2.7 0.2 0.3 0.4 0.6 0.5 1 0 0 0 0.1 0.1 0.2 0.1 0.3 0.3 0.6 0.4 0.8 0.1 0.3 0.3 0.7 0.4 1s0.3 0.7 0.4 1 0.2 0.7 0.3 1 0.2 0.7 0.3 1.1 0.2 0.7 0.2 1.1c0.1 0.4 0.1 0.8 0.2 1.1 0 0.3 0.1 0.7 0.1 1v0.1 0.3 0.1 0.1 0.1 0.5 0.4 0.6 510.9z"/><path d="m367.5 1095.2v-510.5c0-11.8-9.6-21.4-21.5-21.4h-321.5c-11.8 0-21.5 9.6-21.5 21.4v510.5c0 11.8 9.6 21.5 21.5 21.5h321.5c11.9-0.1 21.5-9.7 21.5-21.5z"/><linearGradient id="q" x1="185.24" x2="185.24" y1="4422" y2="4400.1" gradientTransform="matrix(1 0 0 -1 0 4983)" gradientUnits="userSpaceOnUse"><stop stop-color="#F0F0F0" offset="0"/><stop stop-color="#E3E3E3" offset=".0081882"/><stop stop-color="#C2C2C2" offset=".03242"/><stop stop-color="#A6A6A6" offset=".059557"/><stop stop-color="#8F8F8F" offset=".089852"/><stop stop-color="#7E7E7E" offset=".1247"/><stop stop-color="#717171" offset=".1668"/><stop stop-color="#6A6A6A" offset=".2238"/><stop stop-color="#686868" offset=".3607"/><stop stop-color="#686868" offset=".369"/><stop stop-color="#666" offset="1"/></linearGradient><path d="m369.6 582.5v0.2-0.3-0.1c0-0.3-0.1-0.7-0.1-1-0.1-0.4-0.1-0.8-0.2-1.1-0.1-0.4-0.1-0.7-0.2-1.1s-0.2-0.7-0.3-1.1c-0.1-0.3-0.2-0.7-0.3-1-0.1-0.4-0.3-0.7-0.4-1s-0.3-0.7-0.4-1-0.3-0.6-0.4-0.8c0-0.1-0.1-0.1-0.1-0.2-0.2-0.3-0.3-0.6-0.5-1l-1.8-2.7c-0.4-0.6-0.9-1.1-1.4-1.6-0.2-0.3-0.5-0.5-0.8-0.8l-0.4-0.4c-0.3-0.2-0.5-0.5-0.8-0.7-0.2-0.1-0.3-0.3-0.5-0.4l-1.2-0.9c-0.1-0.1-0.3-0.2-0.5-0.3-0.1-0.1-0.3-0.2-0.4-0.3-0.3-0.2-0.6-0.4-1-0.6l-0.5-0.3c-1.5-0.8-3.1-1.4-4.8-1.9-0.1 0-0.3-0.1-0.4-0.1-0.2 0-0.4-0.1-0.5-0.1-1-0.2-1.9-0.4-2.9-0.5h-0.5c-0.6 0-1.2-0.1-1.8-0.1h-322c-0.6 0-1.2 0-1.8 0.1h-0.5c-1 0.1-1.9 0.2-2.9 0.5-0.2 0-0.4 0.1-0.6 0.1-0.1 0-0.3 0.1-0.5 0.1-1.7 0.4-3.3 1.1-4.8 1.9h-0.4c-0.7 0.4-1.3 0.8-1.9 1.2-0.1 0.1-0.3 0.2-0.4 0.3-0.3 0.2-0.5 0.4-0.8 0.6-0.7 0.5-1.3 1.1-1.9 1.7l-1.4 1.4c-0.2 0.2-0.3 0.4-0.5 0.6-0.1 0.1-0.1 0.2-0.2 0.3 0 0-0.1 0.1-0.1 0.2-0.2 0.2-0.3 0.4-0.5 0.7v0.1c-0.2 0.3-0.4 0.6-0.6 0.8v0.1c-0.2 0.3-0.3 0.6-0.5 0.9s-0.4 0.6-0.5 1c0 0 0 0.1-0.1 0.2-0.1 0.3-0.3 0.6-0.4 0.8-0.2 0.3-0.3 0.7-0.4 1s-0.3 0.7-0.4 1c-0.2 0.5-0.4 1.1-0.5 1.6s-0.3 1.1-0.4 1.7c-0.1 0.4-0.1 0.7-0.2 1.1 0 0.3-0.1 0.7-0.1 1v0.1 0.5-0.4c0-0.3 0.1-0.7 0.1-1 0-0.2 0-0.3 0.1-0.5 0-0.2 0.1-0.4 0.1-0.6 0-0.3 0.1-0.6 0.2-0.9s0.2-0.6 0.3-1c0.1-0.3 0.2-0.5 0.3-0.8 0.2-0.6 0.4-1.1 0.6-1.6 0.1-0.2 0.1-0.3 0.2-0.5 0.1-0.3 0.2-0.5 0.4-0.8v-0.1c0.2-0.3 0.3-0.6 0.5-0.8l0.3-0.6c0.1-0.2 0.2-0.3 0.3-0.5 0 0 0-0.1 0.1-0.1 0.2-0.3 0.4-0.5 0.5-0.8 0.2-0.2 0.4-0.5 0.6-0.7 0-0.1 0.1-0.1 0.1-0.1 0.2-0.2 0.4-0.5 0.6-0.7l1.3-1.3c0.1 0 0.1-0.1 0.2-0.2 0.2-0.2 0.5-0.4 0.7-0.6 0.3-0.2 0.5-0.4 0.8-0.6 0.2-0.2 0.4-0.3 0.7-0.5 0.1-0.1 0.2-0.2 0.3-0.2 0.1-0.1 0.3-0.2 0.4-0.3s0.3-0.2 0.4-0.3c0.3-0.2 0.6-0.3 0.9-0.5 0.2-0.1 0.4-0.2 0.5-0.3 0.4-0.2 0.9-0.4 1.3-0.6 0.1-0.1 0.3-0.1 0.4-0.2 0.2-0.1 0.4-0.2 0.7-0.2 0.3-0.1 0.6-0.2 0.9-0.3s0.6-0.2 0.9-0.2c0.3-0.1 0.6-0.2 1-0.2 0.2 0 0.5-0.1 0.7-0.1 1.2-0.2 2.3-0.3 3.6-0.3h325.9 1.3 0.7c0.2 0 0.4 0 0.6 0.1h0.3c0.3 0 0.5 0.1 0.8 0.1h0.1c0.1 0 0.3 0 0.5 0.1h0.2 0.1c0.2 0 0.4 0.1 0.7 0.1 0.1 0 0.2 0 0.3 0.1 0.3 0.1 0.6 0.2 0.9 0.3s0.6 0.2 0.9 0.3c0.1 0.1 0.3 0.1 0.4 0.2 0.2 0 0.3 0.1 0.5 0.2 0.4 0.2 0.9 0.4 1.3 0.6 0.2 0.1 0.4 0.2 0.5 0.3 0.3 0.2 0.6 0.3 0.9 0.5 0.1 0.1 0.3 0.2 0.4 0.3s0.3 0.2 0.4 0.3 0.2 0.1 0.3 0.2c0.2 0.1 0.4 0.3 0.7 0.5s0.5 0.4 0.8 0.6c0.2 0.2 0.4 0.3 0.6 0.5 0 0 0.1 0 0.1 0.1l1.5 1.5c0.1 0.1 0.2 0.2 0.2 0.3 0.2 0.2 0.3 0.4 0.5 0.5l0.2 0.2c0.2 0.2 0.4 0.5 0.6 0.7 0.1 0.2 0.3 0.4 0.4 0.6 0.1 0.1 0.2 0.3 0.3 0.4 0.2 0.2 0.3 0.5 0.5 0.8l0.3 0.5c0.1 0.1 0.1 0.2 0.2 0.3l0.3 0.6c0.1 0.2 0.2 0.5 0.4 0.8l0.3 0.6c0 0.1 0 0.1 0.1 0.2 0.1 0.2 0.1 0.4 0.2 0.6 0 0.1 0.1 0.2 0.1 0.4v0.1c0.1 0.2 0.1 0.5 0.2 0.7s0.1 0.5 0.2 0.8v0.1l0.1 0.3c0.1 0.2 0.1 0.5 0.2 0.7 0 0.2 0.1 0.4 0.1 0.6s0.1 0.3 0.1 0.5c0.1 0.1 0.1 0.5 0.2 0.8z" fill="url(#q)"/><path class="st3" d="m369.7 584.7v-1.1 1.1z"/><linearGradient id="u" x1="185.21" x2="185.21" y1="3886.1" y2="3864.2" gradientTransform="matrix(1 0 0 -1 0 4983)" gradientUnits="userSpaceOnUse"><stop stop-color="#666" offset="0"/><stop stop-color="#686868" offset=".4216"/><stop stop-color="#6F6F6F" offset=".5734"/><stop stop-color="#7A7A7A" offset=".6817"/><stop stop-color="#8B8B8B" offset=".7693"/><stop stop-color="#A1A1A1" offset=".8442"/><stop stop-color="#BDBDBD" offset=".9105"/><stop stop-color="#DCDCDC" offset=".969"/><stop stop-color="#F0F0F0" offset="1"/></linearGradient><path d="m369.4 1098.6c0-0.2 0.1-0.5 0.1-0.7 0 0.2-0.1 0.3-0.1 0.5s0 0.3-0.1 0.5c0 0.2-0.1 0.4-0.1 0.6-0.1 0.3-0.2 0.7-0.2 1-0.1 0.3-0.1 0.6-0.2 0.9-0.1 0.2-0.1 0.5-0.2 0.7-0.2 0.4-0.3 0.9-0.5 1.3l-0.3 0.6c-0.1 0.3-0.2 0.5-0.4 0.8l-0.3 0.6c0 0.1-0.1 0.2-0.2 0.3l-0.3 0.6c-0.1 0.3-0.3 0.5-0.5 0.8-0.1 0.1-0.2 0.3-0.3 0.4-0.1 0.2-0.3 0.4-0.4 0.6-0.2 0.2-0.4 0.5-0.6 0.7 0 0.1-0.1 0.1-0.2 0.2-0.1 0.2-0.3 0.4-0.5 0.5-0.1 0.1-0.1 0.2-0.2 0.3l-1.4 1.4c-0.2 0.2-0.5 0.4-0.7 0.6-0.3 0.2-0.5 0.4-0.8 0.6-0.2 0.2-0.4 0.3-0.7 0.5-0.1 0.1-0.2 0.2-0.3 0.2-0.1 0.1-0.3 0.2-0.4 0.3s-0.3 0.2-0.4 0.3c-0.3 0.2-0.6 0.3-0.9 0.5-0.2 0.1-0.3 0.2-0.5 0.3-0.4 0.2-0.9 0.4-1.3 0.6-0.2 0.1-0.4 0.1-0.5 0.2-0.2 0.1-0.3 0.1-0.5 0.2-0.3 0.1-0.6 0.2-0.9 0.3s-0.6 0.2-0.9 0.3-0.7 0.2-1 0.2c-0.2 0.1-0.5 0.1-0.8 0.1-1.1 0.2-2.3 0.3-3.5 0.3h-326.1c-1.2 0-2.4-0.1-3.6-0.3-0.2 0-0.5-0.1-0.7-0.1-0.3-0.1-0.7-0.1-1-0.2s-0.6-0.2-0.9-0.2c-0.3-0.1-0.6-0.2-0.9-0.3-0.2-0.1-0.4-0.2-0.7-0.2-0.1-0.1-0.3-0.1-0.4-0.2-0.4-0.2-0.9-0.4-1.3-0.6-0.2-0.1-0.4-0.2-0.5-0.3-0.3-0.1-0.6-0.3-0.9-0.5-0.1-0.1-0.3-0.2-0.4-0.3s-0.3-0.2-0.4-0.3-0.2-0.2-0.3-0.2c-0.2-0.1-0.4-0.3-0.7-0.5s-0.5-0.4-0.8-0.6c-0.2-0.2-0.5-0.4-0.7-0.6l-1.5-1.5c-0.2-0.2-0.4-0.5-0.6-0.7l-0.1-0.1c-0.2-0.2-0.4-0.5-0.6-0.7-0.2-0.3-0.4-0.5-0.5-0.8l-0.1-0.1c-0.1-0.2-0.2-0.3-0.3-0.5l-0.3-0.6c-0.2-0.3-0.3-0.6-0.5-0.8v-0.1c-0.1-0.2-0.2-0.5-0.4-0.8-0.1-0.2-0.2-0.3-0.2-0.5-0.2-0.5-0.5-1.1-0.6-1.6-0.1-0.3-0.2-0.5-0.3-0.8s-0.2-0.6-0.3-1c-0.1-0.3-0.1-0.6-0.2-0.9 0-0.2-0.1-0.4-0.1-0.6s-0.1-0.3-0.1-0.5c0-0.3-0.1-0.7-0.1-1v-0.4 0.5 0.2c0 0.3 0.1 0.7 0.1 1 0.1 0.4 0.1 0.8 0.2 1.1 0.1 0.6 0.2 1.1 0.4 1.7 0.1 0.5 0.3 1.1 0.5 1.6 0.1 0.4 0.2 0.7 0.4 1 0.1 0.3 0.3 0.7 0.4 1s0.3 0.6 0.4 0.8c0 0 0 0.1 0.1 0.2 0.2 0.3 0.3 0.6 0.5 1 0.2 0.3 0.3 0.6 0.5 0.9v0.1c0.2 0.3 0.4 0.6 0.6 0.8v0.1c0.2 0.2 0.3 0.5 0.5 0.7 0 0.1 0.1 0.1 0.1 0.2 0.1 0.1 0.1 0.2 0.2 0.3 0.2 0.2 0.3 0.4 0.5 0.6l0.6 0.6c0 0.1 0.1 0.1 0.2 0.2l0.6 0.6c0.6 0.6 1.2 1.2 1.9 1.7 0.3 0.2 0.5 0.4 0.8 0.6 0.1 0.1 0.3 0.2 0.4 0.3 0.6 0.4 1.2 0.8 1.9 1.2 0.2 0.1 0.3 0.2 0.5 0.3 1.5 0.8 3.1 1.4 4.8 1.9 0.1 0 0.3 0.1 0.5 0.1s0.4 0.1 0.6 0.1c0.9 0.2 1.9 0.4 2.9 0.4 0.2 0 0.4 0 0.5 0.1 0.6 0 1.2 0.1 1.8 0.1h321.3c0.6 0 1.2 0 1.8-0.1h0.5c1-0.1 2-0.2 2.9-0.5 0.2 0 0.4-0.1 0.5-0.1s0.3-0.1 0.4-0.1c1.7-0.5 3.3-1.1 4.8-1.9 0.2-0.1 0.3-0.2 0.5-0.3 0.3-0.2 0.7-0.4 1-0.6 0.1-0.1 0.3-0.2 0.4-0.3 0.2-0.1 0.3-0.2 0.5-0.3l1.2-0.9c0.2-0.1 0.3-0.3 0.5-0.4 0.3-0.2 0.5-0.4 0.8-0.7l0.4-0.4c0.3-0.2 0.5-0.5 0.8-0.8 0.5-0.5 1-1.1 1.4-1.6 0.7-0.9 1.3-1.8 1.8-2.7 0.2-0.3 0.4-0.6 0.5-1 0-0.1 0-0.1 0.1-0.2 0.1-0.3 0.3-0.6 0.4-0.8 0.1-0.3 0.3-0.7 0.4-1s0.3-0.7 0.4-1 0.2-0.7 0.3-1v-0.1c0.1-0.3 0.2-0.7 0.3-1.1s0.2-0.7 0.2-1.1c0.5-0.9 0.6-1.3 0.6-1.7z" fill="url(#u)"/><linearGradient id="v" x1="369.51" x2="369.57" y1="3885.4" y2="3885.4" gradientTransform="matrix(1 0 0 -1 0 4983)" gradientUnits="userSpaceOnUse"><stop stop-color="#666" offset="0"/><stop stop-color="#686868" offset=".4216"/><stop stop-color="#6F6F6F" offset=".5734"/><stop stop-color="#7A7A7A" offset=".6817"/><stop stop-color="#8B8B8B" offset=".7693"/><stop stop-color="#A1A1A1" offset=".8442"/><stop stop-color="#BDBDBD" offset=".9105"/><stop stop-color="#DCDCDC" offset=".969"/><stop stop-color="#F0F0F0" offset="1"/></linearGradient><path d="m369.6 1097.4v0.4-0.3c-0.1 0.1-0.1 0 0-0.1z" fill="url(#v)"/><path class="st3" d="m369.7 1095.2v1.1-1.1z"/><linearGradient id="g" x1="12.651" x2="12.651" y1="4419.8" y2="3866.4" gradientTransform="matrix(1 0 0 -1 0 4983)" gradientUnits="userSpaceOnUse"><stop stop-color="#C9C9C9" offset="0"/><stop stop-color="#808080" offset=".2531"/><stop stop-color="#F0F0F0" offset=".4778"/><stop stop-color="#EBEBEB" offset=".5269"/><stop stop-color="#ddd" offset=".5838"/><stop stop-color="#C6C6C6" offset=".6447"/><stop stop-color="#A6A6A6" offset=".7078"/><stop stop-color="#808080" offset=".7674"/><stop stop-color="#A5A5A5" offset=".89"/><stop stop-color="#C9C9C9" offset="1"/></linearGradient><path d="m24.5 563.2h-2.2c-1.2 0-2.4 0.1-3.6 0.3-0.2 0-0.5 0.1-0.7 0.1-0.3 0.1-0.7 0.1-1 0.2s-0.6 0.2-0.9 0.2c-0.3 0.1-0.6 0.2-0.9 0.3-0.2 0.1-0.4 0.2-0.7 0.2-0.1 0.1-0.3 0.1-0.4 0.2-0.4 0.2-0.9 0.4-1.3 0.6-0.2 0.1-0.4 0.2-0.5 0.3-0.3 0.2-0.6 0.3-0.9 0.5-0.1 0.1-0.3 0.2-0.4 0.3s-0.3 0.2-0.4 0.3-0.2 0.1-0.3 0.2c-0.2 0.1-0.4 0.3-0.7 0.5s-0.5 0.4-0.8 0.6c-0.2 0.2-0.5 0.4-0.7 0.6l-1.5 1.5c-0.2 0.2-0.4 0.5-0.6 0.7l-0.1 0.1c-0.2 0.2-0.4 0.5-0.6 0.7-0.2 0.3-0.4 0.5-0.5 0.8l-0.1 0.1c-0.1 0.2-0.2 0.3-0.3 0.5l-0.3 0.6c-0.2 0.3-0.3 0.6-0.5 0.8v0.1c-0.1 0.2-0.2 0.5-0.4 0.8-0.1 0.2-0.2 0.3-0.2 0.5-0.2 0.5-0.5 1.1-0.6 1.6-0.1 0.3-0.2 0.5-0.3 0.8s-0.2 0.6-0.3 1c-0.1 0.3-0.1 0.6-0.2 0.9 0 0.2-0.1 0.4-0.1 0.6s-0.1 0.3-0.1 0.5c0 0.3-0.1 0.7-0.1 1v0.4 0.6 1.1 510.5 1.1 0.6 0.4c0 0.3 0.1 0.7 0.1 1 0 0.2 0 0.3 0.1 0.5 0 0.2 0.1 0.4 0.1 0.6 0 0.3 0.1 0.6 0.2 0.9s0.2 0.7 0.3 1 0.2 0.5 0.3 0.8c0.2 0.6 0.4 1.1 0.6 1.6 0.1 0.2 0.1 0.3 0.2 0.5s0.2 0.5 0.4 0.8v0.1c0.2 0.3 0.3 0.6 0.5 0.8l0.3 0.6c0.1 0.2 0.2 0.3 0.3 0.5 0 0 0 0.1 0.1 0.1 0.2 0.3 0.4 0.5 0.5 0.8 0.2 0.2 0.4 0.5 0.6 0.7l0.1 0.1c0.2 0.2 0.4 0.5 0.6 0.7 0.2 0.3 0.5 0.5 0.7 0.7l0.8 0.8c0.2 0.2 0.5 0.4 0.7 0.6 0.3 0.2 0.5 0.4 0.8 0.6 0.2 0.2 0.4 0.3 0.7 0.5 0.1 0.1 0.2 0.2 0.3 0.2 0.1 0.1 0.3 0.2 0.4 0.3s0.3 0.2 0.4 0.3c0.3 0.2 0.6 0.3 0.9 0.5 0.2 0.1 0.4 0.2 0.5 0.3 0.4 0.2 0.9 0.4 1.3 0.6 0.1 0 0.3 0.1 0.4 0.2 0.2 0.1 0.4 0.2 0.7 0.2 0.3 0.1 0.6 0.2 0.9 0.3s0.6 0.2 0.9 0.2c0.3 0.1 0.6 0.2 1 0.2 0.2 0 0.5 0.1 0.7 0.1 1.2 0.2 2.3 0.3 3.6 0.3h2.2c-11.8 0-21.5-9.6-21.5-21.5v-509.7c0-11.8 9.6-21.5 21.5-21.5z" fill="url(#g)"/><linearGradient id="w" x1="357.85" x2="357.85" y1="4419.8" y2="3866.4" gradientTransform="matrix(1 0 0 -1 0 4983)" gradientUnits="userSpaceOnUse"><stop stop-color="#C9C9C9" offset="0"/><stop stop-color="#808080" offset=".2531"/><stop stop-color="#F0F0F0" offset=".4778"/><stop stop-color="#EBEBEB" offset=".5269"/><stop stop-color="#ddd" offset=".5838"/><stop stop-color="#C6C6C6" offset=".6447"/><stop stop-color="#A6A6A6" offset=".7078"/><stop stop-color="#808080" offset=".7674"/><stop stop-color="#A5A5A5" offset=".89"/><stop stop-color="#C9C9C9" offset="1"/></linearGradient><path d="m369.7 1095.2v-510.5-0.6-0.4-0.5-0.1-0.1-0.1-0.2c0-0.3-0.1-0.7-0.1-1 0-0.2 0-0.3-0.1-0.5 0-0.2-0.1-0.4-0.1-0.6s-0.1-0.5-0.2-0.7l-0.1-0.3v-0.1c-0.1-0.3-0.1-0.5-0.2-0.8-0.1-0.2-0.1-0.5-0.2-0.7v-0.1c0-0.1-0.1-0.3-0.1-0.4-0.1-0.2-0.1-0.4-0.2-0.6 0-0.1-0.1-0.1-0.1-0.2l-0.3-0.6c-0.1-0.3-0.2-0.5-0.4-0.8l-0.3-0.6c0-0.1-0.1-0.2-0.2-0.3l-0.3-0.5c-0.1-0.3-0.3-0.5-0.5-0.8-0.1-0.1-0.2-0.3-0.3-0.4-0.1-0.2-0.3-0.4-0.4-0.6-0.2-0.2-0.4-0.5-0.6-0.7 0-0.1-0.1-0.1-0.2-0.2-0.1-0.2-0.3-0.4-0.5-0.5-0.1-0.1-0.1-0.2-0.2-0.3l-1.3-1.3c-0.1 0-0.1-0.1-0.2-0.2 0 0-0.1 0-0.1-0.1-0.2-0.2-0.4-0.3-0.6-0.5-0.3-0.2-0.5-0.4-0.8-0.6-0.2-0.2-0.4-0.3-0.7-0.5-0.1-0.1-0.2-0.2-0.3-0.2-0.1-0.1-0.3-0.2-0.4-0.3s-0.3-0.2-0.4-0.3c-0.3-0.2-0.6-0.3-0.9-0.5-0.2-0.1-0.3-0.2-0.5-0.3-0.4-0.2-0.9-0.4-1.3-0.6-0.2-0.1-0.3-0.1-0.5-0.2-0.1-0.1-0.3-0.1-0.4-0.2-0.3-0.1-0.6-0.2-0.9-0.3s-0.6-0.2-0.9-0.3c-0.1 0-0.2 0-0.3-0.1-0.2 0-0.4-0.1-0.7-0.1h-0.1-0.2c-0.2 0-0.3 0-0.5-0.1h-0.1c-0.2 0-0.5-0.1-0.8-0.1h-0.3c-0.2 0-0.4 0-0.6-0.1h-0.7-1.3-2.3c11.8 0 21.5 9.6 21.5 21.4v510.5c0 11.8-9.6 21.5-21.5 21.5h2.2c1.2 0 2.4-0.1 3.5-0.3 0.3 0 0.5-0.1 0.8-0.1 0.3-0.1 0.7-0.1 1-0.2s0.6-0.2 0.9-0.3 0.6-0.2 0.9-0.3c0.2-0.1 0.4-0.1 0.5-0.2 0.2-0.1 0.4-0.1 0.5-0.2 0.4-0.2 0.9-0.4 1.3-0.6 0.2-0.1 0.4-0.2 0.5-0.3 0.3-0.1 0.6-0.3 0.9-0.5 0.1-0.1 0.3-0.2 0.4-0.3s0.3-0.2 0.4-0.3 0.2-0.2 0.3-0.2c0.2-0.1 0.4-0.3 0.7-0.5s0.5-0.4 0.8-0.6c0.2-0.2 0.5-0.4 0.7-0.6l1.4-1.4c0.1-0.1 0.2-0.2 0.2-0.3 0.2-0.2 0.3-0.4 0.5-0.5 0.1 0 0.1-0.1 0.2-0.2 0.2-0.2 0.4-0.5 0.6-0.7 0.1-0.2 0.3-0.4 0.4-0.6 0.1-0.1 0.2-0.3 0.3-0.4 0.2-0.2 0.3-0.5 0.5-0.8l0.3-0.6c0.1-0.1 0.1-0.2 0.2-0.3l0.3-0.6c0.1-0.2 0.2-0.5 0.4-0.8l0.3-0.6c0.2-0.4 0.3-0.9 0.5-1.3 0.1-0.2 0.1-0.5 0.2-0.7 0.1-0.3 0.2-0.6 0.2-0.9 0.1-0.3 0.2-0.7 0.2-1 0-0.2 0.1-0.4 0.1-0.6s0.1-0.3 0.1-0.5c0.1-0.3 0.1-0.7 0.1-1v-0.3-0.8-0.4c0.4-0.5 0.4-0.7 0.4-0.9z" fill="url(#w)"/><linearGradient id="f" x1="-6.8678" x2="377.37" y1="3948.2" y2="4332.5" gradientTransform="matrix(1 0 0 -1 0 4983)" gradientUnits="userSpaceOnUse"><stop stop-color="#F1F2F3" offset="0"/><stop stop-color="#EDEDEE" offset=".4949"/><stop stop-color="#E2E2E2" offset="1"/></linearGradient><rect x="20.4" y="623.3" width="329.7" height="438.8" fill="url(#f)"/><linearGradient id="l" x1="-8.1757" x2="378.68" y1="3946.9" y2="4333.8" gradientTransform="matrix(1 0 0 -1 0 4983)" gradientUnits="userSpaceOnUse"><stop stop-color="#F1F2F3" offset="0"/><stop stop-color="#EDEDEE" offset=".4949"/><stop stop-color="#E2E2E2" offset="1"/></linearGradient><path d="m351.7 1062.6v-439.9c0-0.6-0.5-1.1-1.1-1.1h-330.7c-0.6 0-1.1 0.5-1.1 1.1v439.9c0 0.6 0.5 1.1 1.1 1.1h330.8c0.5 0 1-0.5 1-1.1zm-1.6-0.5h-329.7v-438.8h329.7v438.8z" fill="url(#l)"/><linearGradient id="d" x1="175.11" x2="195.39" y1="4406.3" y2="4386" gradientTransform="matrix(1 0 0 -1 0 4983)" gradientUnits="userSpaceOnUse"><stop stop-color="#303030" offset="0"/><stop stop-color="#393939" offset=".022461"/><stop stop-color="#757575" offset=".1906"/><stop stop-color="#A0A0A0" offset=".3338"/><stop stop-color="#bbb" offset=".4447"/><stop stop-color="#C5C5C5" offset=".51"/><stop stop-color="#BABABA" offset=".5737"/><stop stop-color="#9E9E9E" offset=".6846"/><stop stop-color="#6F6F6F" offset=".8295"/><stop stop-color="#303030" offset="1"/></linearGradient><circle cx="185.2" cy="586.9" r="14.3" fill="url(#d)"/><linearGradient id="o" x1="175.07" x2="195.16" y1="4385.9" y2="4406" gradientTransform="matrix(1 0 0 -1 0 4983)" gradientUnits="userSpaceOnUse"><stop stop-color="#4C4C4C" offset="0"/><stop stop-color="#757575" offset=".1373"/><stop stop-color="#A0A0A0" offset=".3037"/><stop stop-color="#bbb" offset=".4336"/><stop stop-color="#C5C5C5" offset=".51"/><stop stop-color="#BABABA" offset=".5848"/><stop stop-color="#9E9E9E" offset=".7151"/><stop stop-color="#707070" offset=".884"/><stop stop-color="#4C4C4C" offset="1"/></linearGradient><circle cx="185.1" cy="587.1" r="14.2" fill="url(#o)"/><ellipse transform="matrix(.9732 -.2298 .2298 .9732 -129.93 58.236)" cx="185.1" cy="587.1" rx="12.4" ry="12.4"/><ellipse class="st12" transform="matrix(.9732 -.2298 .2298 .9732 -129.93 58.236)" cx="185.1" cy="587.1" rx="12" ry="12"/></g><rect class="st25" x="15.7" y="31" width="335.8" height="474.9"/><defs><rect id="j" x="168.3" y="260.1" width="159.2" height="245.8"/></defs><clipPath id="a"><use xlink:href="#j"/></clipPath><path d="m248.8 279.9c1.8 0 3.2-1.5 3.2-3.2 0-1.8-1.5-3.2-3.2-3.2-1.8 0-3.2 1.5-3.2 3.2-0.1 1.7 1.4 3.2 3.2 3.2m0-6.1c1.5 0 2.8 1.2 2.8 2.8 0 1.5-1.2 2.8-2.8 2.8-1.5 0-2.8-1.2-2.8-2.8 0-1.5 1.2-2.8 2.8-2.8" clip-path="url(#a)" fill="#fff"/><path d="m236.8 293h22.8c1.9 0 3.4-1.5 3.4-3.4s-1.5-3.4-3.4-3.4h-22.8c-1.9 0-3.4 1.5-3.4 3.4 0 1.8 1.5 3.4 3.4 3.4m0-6.4h22.8c1.6 0 3 1.3 3 3 0 1.6-1.3 3-3 3h-22.8c-1.6 0-3-1.3-3-3 0.1-1.7 1.4-3 3-3" clip-path="url(#a)" fill="#fff"/><path d="m180.9 547.3h135.1v-239.2h-135.1v239.2zm0.5-238.7h134.2v238.2h-134.2v-238.2z" clip-path="url(#a)" fill="#fff"/><path d="m306 261.9h-4.5v-0.9c0-0.5-0.4-0.9-0.9-0.9h-23.7c-0.5 0-0.9 0.4-0.9 0.9v0.9h-84.4c-11.9 0-21.5 9.6-21.5 21.5v23.3h-0.7c-0.5 0-0.9 0.4-0.9 0.9v13.5c0 0.5 0.4 0.9 0.9 0.9h0.7v16.6h-0.7c-0.5 0-0.9 0.4-0.9 0.9v9.5c0 0.5 0.4 0.9 0.9 0.9h0.7v16.2h-0.7c-0.5 0-0.9 0.4-0.9 0.9v9.7c0 0.5 0.4 0.9 0.9 0.9h0.7v195.2c0 11.9 9.6 21.5 21.5 21.5h114.4c11.9 0 21.5-9.6 21.5-21.5v-289.4c0-11.9-9.6-21.5-21.5-21.5m20.6 311.3c0 11.3-9.2 20.6-20.6 20.6h-114.5c-11.3 0-20.6-9.2-20.6-20.6v-289.8c0-11.3 9.2-20.6 20.6-20.6h114.5c11.3 0 20.6 9.2 20.6 20.6v289.8z" clip-path="url(#a)" fill="#fff"/><path d="m248.8 557.1c-7.6 0-13.9 6.2-13.9 13.9 0 7.6 6.2 13.9 13.9 13.9 7.6 0 13.9-6.2 13.9-13.9-0.1-7.7-6.3-13.9-13.9-13.9m0 27.3c-7.4 0-13.4-6-13.4-13.4s6-13.4 13.4-13.4 13.4 6 13.4 13.4-6.1 13.4-13.4 13.4" clip-path="url(#a)" fill="#fff"/><path class="st27" d="m75.5 78.8c-0.5 0.5-1.2 0.9-2 1.1s-1.7 0.4-2.6 0.4h-2v4.8h-3.3v-16h5.7c2.9 0 4.7 1 5.4 3 0.3 0.7 0.4 1.5 0.4 2.5s-0.1 1.7-0.3 2.4c-0.3 0.7-0.7 1.3-1.3 1.8zm-1.6-4.2c0-1.1-0.3-2-0.8-2.5s-1.2-0.8-2.1-0.8-1.6 0.1-2 0.2v6.1c0.4 0.1 0.9 0.1 1.5 0.1s1.1 0 1.4-0.1c0.4-0.1 0.7-0.3 1-0.5 0.6-0.5 1-1.3 1-2.5z"/><path class="st27" d="m86 84c-0.9 0.8-1.9 1.2-3.1 1.2s-2.1-0.4-2.8-1.1-1.1-1.7-1.1-2.8c0-1.4 0.7-2.4 2.1-3 1-0.5 2.6-0.7 4.8-0.7v-0.7c0-0.6-0.1-1-0.4-1.1-0.3-0.2-0.9-0.3-1.9-0.3-0.6 0-1.2 0.1-1.9 0.3s-1.1 0.4-1.4 0.5l-0.7-2c0.8-0.5 1.9-0.9 3.4-1.1 0.5-0.1 1-0.1 1.7-0.1s1.3 0.1 1.9 0.2 1.1 0.4 1.5 0.7c0.8 0.7 1.2 1.8 1.2 3.4v7.8h-1.9c-0.4 0-0.7 0-0.9-0.1-0.4-0.2-0.5-0.5-0.5-1.1zm-3.7-2.7c0 0.3 0 0.5 0.1 0.7s0.2 0.4 0.3 0.5c0.3 0.3 0.7 0.4 1.2 0.4 0.6 0 1.1-0.1 1.6-0.4 0.1-0.1 0.2-0.1 0.3-0.2v-2.8c-1.2 0-2.1 0.2-2.8 0.6-0.4 0.2-0.7 0.6-0.7 1.2z"/><path class="st27" d="m98.3 76.1c-1 0-1.9 0.4-2.7 1.2v7.9h-3.3v-12.1h2.9l0.1 1.8c0.4-0.8 1.2-1.3 2.3-1.6 0.3-0.1 0.7-0.2 1.1-0.2h0.9v3.4c-0.3-0.3-0.7-0.4-1.3-0.4z"/><path class="st27" d="m111.4 75.5c0.3 0.6 0.4 1.3 0.4 2.2s0 1.6-0.1 2.1h-7.1c0.1 1.9 1.2 2.9 3.2 2.9 0.8 0 1.4-0.1 2-0.2 0.6-0.2 0.9-0.3 1.1-0.4l0.5 1.9c-0.7 0.5-1.7 0.9-3.1 1.1-0.4 0.1-1 0.1-1.7 0.1s-1.4-0.1-2.1-0.4-1.3-0.7-1.8-1.2c-1-1.1-1.5-2.6-1.5-4.5 0-1.8 0.5-3.2 1.5-4.3 1-1.2 2.5-1.7 4.3-1.7 2.3 0 3.7 0.8 4.4 2.4zm-2.6 2.1c0-1.5-0.6-2.2-1.8-2.2-0.6 0-1.2 0.2-1.5 0.6-0.4 0.4-0.7 1.1-0.8 2.1h4.1v-0.5z"/><path class="st27" d="m125.2 76.8c0 0.4 0.1 0.8 0.1 1.1v7.3h-3.3v-6.8c0-1-0.1-1.7-0.4-2-0.2-0.4-0.7-0.6-1.3-0.6s-1.2 0.2-1.9 0.6c-0.2 0.1-0.4 0.3-0.6 0.4v8.3h-3.3v-12h3l0.1 1.4c0.8-0.6 1.7-1 2.8-1.2 0.4-0.1 0.9-0.2 1.3-0.2 1.4 0 2.3 0.4 2.9 1.3 0.8-0.6 1.7-1 2.8-1.2 0.4-0.1 0.9-0.1 1.4-0.1s1 0.1 1.5 0.2 0.9 0.4 1.2 0.8c0.7 0.7 1 1.9 1 3.6v7.5h-3.3v-6.8c0-1-0.1-1.6-0.3-1.9s-0.4-0.5-0.6-0.5c-0.2-0.1-0.4-0.1-0.6-0.1h-0.4s-0.3 0-0.5 0.1-0.4 0.1-0.6 0.2c-0.3 0.1-0.7 0.4-1 0.6z"/><path class="st27" d="m143.7 84.7c-0.7 0.3-1.5 0.5-2.3 0.5s-1.5-0.1-2.1-0.3v1.7 4h-3.3v-17.5h3v1.2c0.9-0.8 2.1-1.2 3.5-1.2s2.5 0.5 3.3 1.4c1 1 1.4 2.4 1.4 4.2 0 1.9-0.6 3.5-1.7 4.7-0.4 0.6-1 1-1.8 1.3zm-2.1-9.4c-0.9 0-1.7 0.3-2.2 0.8v6.3c0.4 0.3 1 0.5 1.8 0.5s1.5-0.3 1.9-1c0.5-0.7 0.8-1.8 0.8-3.1 0-1.8-0.5-2.9-1.4-3.2-0.3-0.2-0.6-0.3-0.9-0.3z"/><path class="st27" d="m151.8 71.5c-0.3 0-0.5 0-0.8-0.1s-0.4-0.2-0.6-0.4c-0.4-0.3-0.6-0.8-0.6-1.3s0.2-1 0.6-1.4 0.9-0.6 1.4-0.6c0.6 0 1 0.2 1.4 0.5 0.3 0.3 0.5 0.7 0.5 1.3 0 0.5-0.2 1-0.6 1.4-0.3 0.4-0.8 0.6-1.3 0.6zm-1.7 1.6h3.3v12.1h-3.3v-12.1z"/><path class="st27" d="m163.3 84c-0.9 0.8-1.9 1.2-3.1 1.2s-2.1-0.4-2.8-1.1-1.1-1.7-1.1-2.8c0-1.4 0.7-2.4 2.1-3 1-0.5 2.6-0.7 4.8-0.7v-0.7c0-0.6-0.1-1-0.4-1.1-0.3-0.2-0.9-0.3-1.9-0.3-0.6 0-1.2 0.1-1.9 0.3s-1.1 0.4-1.4 0.5l-0.7-2c0.8-0.5 1.9-0.9 3.4-1.1 0.5-0.1 1-0.1 1.7-0.1s1.3 0.1 1.9 0.2 1.1 0.4 1.5 0.7c0.8 0.7 1.2 1.8 1.2 3.4v7.8h-1.9c-0.4 0-0.7 0-0.9-0.1-0.4-0.2-0.5-0.5-0.5-1.1zm-3.6-2.7c0 0.3 0 0.5 0.1 0.7s0.2 0.4 0.3 0.5c0.3 0.3 0.7 0.4 1.2 0.4 0.6 0 1.1-0.1 1.6-0.4 0.1-0.1 0.2-0.1 0.3-0.2v-2.8c-1.2 0-2.1 0.2-2.8 0.6-0.5 0.2-0.7 0.6-0.7 1.2z"/><path class="st27" d="m186 75.5c0.3 0.6 0.4 1.3 0.4 2.2s0 1.6-0.1 2.1h-7.1c0.1 1.9 1.2 2.9 3.2 2.9 0.8 0 1.4-0.1 2-0.2 0.6-0.2 0.9-0.3 1.1-0.4l0.5 1.9c-0.7 0.5-1.7 0.9-3.1 1.1-0.4 0.1-1 0.1-1.7 0.1s-1.4-0.1-2.1-0.4-1.3-0.7-1.8-1.2c-1-1.1-1.5-2.6-1.5-4.5 0-1.8 0.5-3.2 1.5-4.3 1-1.2 2.5-1.7 4.3-1.7 2.3 0 3.7 0.8 4.4 2.4zm-2.6 2.1c0-1.5-0.6-2.2-1.8-2.2-0.6 0-1.2 0.2-1.5 0.6-0.4 0.4-0.7 1.1-0.8 2.1h4.1v-0.5z"/><path class="st27" d="m189 81.9c0.4 0.3 1.2 0.6 2.3 0.8 0.4 0.1 0.8 0.1 1.3 0.1s0.9-0.1 1.2-0.2 0.4-0.4 0.4-0.7c0-0.4-0.2-0.7-0.6-0.9-0.4-0.3-1-0.5-1.7-0.7s-1.3-0.5-1.6-0.7c-0.4-0.2-0.7-0.5-0.9-0.8-0.5-0.6-0.7-1.3-0.7-2.2 0-1.1 0.5-1.9 1.4-2.5s2-0.9 3.4-0.9c1.5 0 2.6 0.2 3.4 0.7l-0.4 2.6c-0.4-0.4-1-0.6-1.9-0.8-0.3 0-0.6-0.1-1.1-0.1-1.1 0-1.7 0.3-1.7 0.9 0 0.4 0.2 0.7 0.5 0.9s0.9 0.5 1.6 0.7 1.3 0.5 1.8 0.7c0.4 0.2 0.8 0.5 1 0.8 0.5 0.5 0.8 1.2 0.8 1.9s-0.1 1.3-0.3 1.8-0.5 0.8-0.9 1.1c-0.8 0.6-1.9 0.9-3.4 0.9-1.3 0-2.4-0.2-3.5-0.6-0.3-0.1-0.5-0.2-0.7-0.3l0.3-2.5z"/><path class="st27" d="m201.9 71.5c-0.3 0-0.5 0-0.8-0.1s-0.4-0.2-0.6-0.4c-0.4-0.3-0.6-0.8-0.6-1.3s0.2-1 0.6-1.4 0.9-0.6 1.4-0.6c0.6 0 1 0.2 1.4 0.5 0.3 0.3 0.5 0.7 0.5 1.3 0 0.5-0.2 1-0.6 1.4-0.3 0.4-0.8 0.6-1.3 0.6zm-1.6 1.6h3.3v12.1h-3.3v-12.1z"/><path class="st27" d="m207.6 75.3h-1.4v-1.8c0.7-0.2 1.1-0.3 1.2-0.4 0.3-0.2 0.5-0.4 0.7-0.7 0.2-0.6 0.5-1.3 0.8-2.1h2v2.7h3.2v2.3h-3.2v4.8c0 1.1 0.1 1.9 0.3 2.2 0.1 0.2 0.2 0.3 0.4 0.3s0.4 0.1 0.6 0.1 0.4 0 0.6 0 0.3-0.1 0.5-0.1c0.4-0.1 0.7-0.2 0.9-0.3l0.4 1.8c-0.6 0.5-1.4 0.8-2.4 1-0.4 0.1-0.8 0.1-1.3 0.1s-1-0.1-1.4-0.2-0.8-0.4-1-0.7c-0.5-0.6-0.8-1.5-0.8-2.9v-6.1z"/><path class="st27" d="m216.2 87.6c0.4 0.1 0.7 0.2 1.1 0.2s0.7 0 1 0 0.6-0.1 0.9-0.3c0.7-0.4 1.2-1.2 1.5-2.3h-1.4l-4.1-12.1h3.5l1.8 6.5 0.9 3.5 2.3-10h3.5l-3.7 12.4c-0.8 2.6-2.1 4.3-4 4.8-0.5 0.1-0.9 0.2-1.2 0.2h-0.7c-0.2 0-0.3 0-0.5-0.1-0.4 0-0.7-0.1-0.7-0.1v-2.7z"/><path class="st27" d="m229.1 67.8h3.3v7.2l-0.1 3 4-4.9h3.7l-4.3 4.8 4.7 7.3h-3.7l-3.1-5-1.3 1.4 0.1 1.4v2.2h-3.3v-17.4z"/><path class="st27" d="m241.8 81.9c0.4 0.3 1.2 0.6 2.3 0.8 0.4 0.1 0.8 0.1 1.3 0.1s0.9-0.1 1.2-0.2 0.4-0.4 0.4-0.7c0-0.4-0.2-0.7-0.6-0.9-0.4-0.3-1-0.5-1.7-0.7s-1.3-0.5-1.6-0.7c-0.4-0.2-0.7-0.5-0.9-0.8-0.5-0.6-0.7-1.3-0.7-2.2 0-1.1 0.5-1.9 1.4-2.5s2-0.9 3.4-0.9c1.5 0 2.6 0.2 3.4 0.7l-0.4 2.6c-0.4-0.4-1-0.6-1.9-0.8-0.3 0-0.6-0.1-1.1-0.1-1.1 0-1.7 0.3-1.7 0.9 0 0.4 0.2 0.7 0.5 0.9s0.9 0.5 1.6 0.7 1.3 0.5 1.8 0.7c0.4 0.2 0.8 0.5 1 0.8 0.5 0.5 0.8 1.2 0.8 1.9s-0.1 1.3-0.3 1.8-0.5 0.8-0.9 1.1c-0.8 0.6-1.9 0.9-3.4 0.9-1.3 0-2.4-0.2-3.5-0.6-0.3-0.1-0.5-0.2-0.7-0.3l0.3-2.5z"/><path class="st27" d="m254.7 71.5c-0.3 0-0.5 0-0.8-0.1s-0.4-0.2-0.6-0.4c-0.4-0.3-0.6-0.8-0.6-1.3s0.2-1 0.6-1.4 0.9-0.6 1.4-0.6c0.6 0 1 0.2 1.4 0.5 0.3 0.3 0.5 0.7 0.5 1.3 0 0.5-0.2 1-0.6 1.4-0.2 0.4-0.7 0.6-1.3 0.6zm-1.6 1.6h3.3v12.1h-3.3v-12.1z"/><path class="st27" d="m266.2 84c-0.9 0.8-1.9 1.2-3.1 1.2s-2.1-0.4-2.8-1.1-1.1-1.7-1.1-2.8c0-1.4 0.7-2.4 2.1-3 1-0.5 2.6-0.7 4.8-0.7v-0.7c0-0.6-0.1-1-0.4-1.1-0.3-0.2-0.9-0.3-1.9-0.3-0.6 0-1.2 0.1-1.9 0.3s-1.1 0.4-1.4 0.5l-0.7-2c0.8-0.5 1.9-0.9 3.4-1.1 0.5-0.1 1-0.1 1.7-0.1s1.3 0.1 1.9 0.2 1.1 0.4 1.5 0.7c0.8 0.7 1.2 1.8 1.2 3.4v7.8h-1.9c-0.4 0-0.7 0-0.9-0.1-0.3-0.2-0.5-0.5-0.5-1.1zm-2.7-13.1c-0.2 0.2-0.4 0.3-0.6 0.4s-0.5 0.2-0.8 0.2-0.5 0-0.7-0.1-0.4-0.2-0.5-0.4c-0.3-0.3-0.5-0.7-0.5-1.3 0-0.5 0.2-1 0.6-1.4s0.8-0.6 1.4-0.6c0.8 0 1.4 0.4 1.6 1.1 0.1 0.2 0.1 0.5 0.1 0.7 0 0.3 0 0.5-0.1 0.7-0.2 0.3-0.4 0.5-0.5 0.7zm-0.9 10.4c0 0.3 0 0.5 0.1 0.7s0.2 0.4 0.3 0.5c0.3 0.3 0.7 0.4 1.2 0.4 0.6 0 1.1-0.1 1.6-0.4 0.1-0.1 0.2-0.1 0.3-0.2v-2.8c-1.2 0-2.1 0.2-2.8 0.6-0.5 0.2-0.7 0.6-0.7 1.2zm5.9-10.4c-0.2 0.2-0.4 0.3-0.6 0.4s-0.5 0.2-0.8 0.2-0.5 0-0.7-0.1-0.4-0.2-0.5-0.4c-0.3-0.3-0.5-0.7-0.5-1.3 0-0.5 0.2-1 0.6-1.4s0.8-0.6 1.4-0.6c0.8 0 1.4 0.4 1.6 1.1 0.1 0.2 0.1 0.5 0.1 0.7 0 0.3 0 0.5-0.1 0.7s-0.3 0.5-0.5 0.7z"/><line class="st28" x1="63.7" x2="311.5" y1="90.2" y2="90.2"/><path class="st27" d="m65.5 98.5c-0.6-0.3-1-0.7-1.3-1.4-0.1-0.3-0.2-0.7-0.2-1.2 0-0.4 0.1-0.8 0.2-1.2s0.3-0.6 0.5-0.9c0.5-0.5 1.1-0.7 1.9-0.7 0.7 0 1.3 0.2 1.7 0.7s0.6 1.1 0.6 1.9c0 0.9-0.2 1.6-0.7 2.1s-1.1 0.7-1.9 0.7c-0.2 0.2-0.5 0.1-0.8 0zm0-1.2c0.1 0.2 0.2 0.3 0.4 0.4s0.4 0.1 0.6 0.1 0.4 0 0.6-0.1 0.3-0.2 0.4-0.4c0.2-0.3 0.4-0.8 0.4-1.5 0-0.6-0.1-1-0.3-1.3-0.2-0.4-0.5-0.5-1-0.5-0.6 0-1.1 0.3-1.3 1-0.1 0.2-0.1 0.5-0.1 0.8s0 0.6 0.1 0.8 0.1 0.5 0.2 0.7z"/><path class="st27" d="m72.6 98.5c-0.3 0.1-0.5 0.2-0.8 0.2s-0.5 0-0.7-0.1v0.6 1.4h-1.1v-6h1v0.4c0.3-0.3 0.7-0.4 1.2-0.4s0.8 0.2 1.1 0.5 0.5 0.8 0.5 1.4c0 0.7-0.2 1.2-0.6 1.6-0.1 0.2-0.3 0.3-0.6 0.4zm-0.7-3.2c-0.3 0-0.6 0.1-0.8 0.3v2.2c0.1 0.1 0.3 0.2 0.6 0.2s0.5-0.1 0.7-0.4 0.3-0.6 0.3-1.1c0-0.6-0.2-1-0.5-1.1-0.1 0-0.2-0.1-0.3-0.1z"/><path class="st27" d="m77 98.3c-0.3 0.3-0.6 0.4-1.1 0.4-0.4 0-0.7-0.1-1-0.4-0.2-0.2-0.4-0.6-0.4-1 0-0.5 0.2-0.8 0.7-1 0.4-0.2 0.9-0.2 1.6-0.2v-0.2c0-0.2 0-0.3-0.1-0.4s-0.3-0.1-0.7-0.1c-0.2 0-0.4 0-0.6 0.1s-0.4 0.1-0.5 0.2l-0.2-0.7c0.3-0.2 0.7-0.3 1.1-0.4h0.6c0.2 0 0.4 0 0.6 0.1s0.4 0.1 0.5 0.2c0.3 0.2 0.4 0.6 0.4 1.2v2.7h-0.7-0.3c0.1-0.2 0.1-0.3 0.1-0.5zm-1.3-0.9v0.2c0 0.1 0.1 0.1 0.1 0.2 0.1 0.1 0.2 0.1 0.4 0.1s0.4 0 0.5-0.2l0.1-0.1v-1c-0.4 0-0.7 0.1-1 0.2 0 0.2-0.1 0.4-0.1 0.6z"/><path class="st27" d="m79.1 97.6c0.1 0.1 0.4 0.2 0.8 0.3h0.5c0.2 0 0.3 0 0.4-0.1 0.1 0 0.2-0.1 0.2-0.3s-0.1-0.2-0.2-0.3-0.3-0.2-0.6-0.3c-0.2-0.1-0.4-0.2-0.6-0.2l-0.3-0.3c-0.2-0.1-0.3-0.4-0.3-0.7 0-0.4 0.2-0.7 0.5-0.9s0.7-0.3 1.2-0.3 0.9 0.1 1.1 0.2l-0.1 0.9c-0.1-0.1-0.4-0.2-0.7-0.3h-0.4c-0.4 0-0.6 0.1-0.6 0.3 0 0.1 0.1 0.2 0.2 0.3s0.3 0.2 0.6 0.2c0.3 0.1 0.5 0.2 0.6 0.2 0.1 0.1 0.3 0.2 0.4 0.3 0.2 0.2 0.3 0.4 0.3 0.7s0 0.5-0.1 0.6c-0.1 0.2-0.2 0.3-0.3 0.4-0.3 0.2-0.7 0.3-1.2 0.3-0.4 0-0.8-0.1-1.2-0.2-0.1 0-0.2-0.1-0.2-0.1v-0.7z"/><path class="st27" d="m87.9 98.5c-0.3 0.1-0.5 0.2-0.8 0.2s-0.5 0-0.7-0.1v0.6 1.4h-1.1v-6h1v0.4c0.3-0.3 0.7-0.4 1.2-0.4s0.8 0.2 1.1 0.5 0.5 0.8 0.5 1.4c0 0.7-0.2 1.2-0.6 1.6-0.1 0.2-0.3 0.3-0.6 0.4zm-0.7-3.2c-0.3 0-0.6 0.1-0.8 0.3v2.2c0.1 0.1 0.3 0.2 0.6 0.2s0.5-0.1 0.7-0.4 0.3-0.6 0.3-1.1c0-0.6-0.2-1-0.5-1.1-0.1 0-0.2-0.1-0.3-0.1z"/><path class="st27" d="m92.1 95.6c-0.3 0-0.6 0.1-0.9 0.4v2.7h-1.1v-4.1h1v0.6c0.2-0.3 0.4-0.4 0.8-0.5 0.1 0 0.2-0.1 0.4-0.1s0.2 0 0.3 0v1.2c-0.1-0.2-0.3-0.2-0.5-0.2z"/><path class="st27" d="m96.6 95.4c0.1 0.2 0.1 0.5 0.1 0.8s0 0.6 0 0.7h-2.4c0 0.7 0.4 1 1.1 1 0.3 0 0.5 0 0.7-0.1s0.3-0.1 0.4-0.1l0.2 0.6c-0.2 0.2-0.6 0.3-1 0.4h-0.6s-0.5 0-0.7-0.1-0.4-0.2-0.6-0.4c-0.3-0.4-0.5-0.9-0.5-1.5s0.2-1.1 0.5-1.5c0.4-0.4 0.8-0.6 1.5-0.6 0.6 0 1.1 0.2 1.3 0.8zm-0.9 0.7c0-0.5-0.2-0.8-0.6-0.8-0.2 0-0.4 0.1-0.5 0.2s-0.2 0.4-0.3 0.7h1.4v-0.1z"/><path class="st27" d="m97.6 97.6c0.1 0.1 0.4 0.2 0.8 0.3h0.5c0.2 0 0.3 0 0.4-0.1 0.1 0 0.2-0.1 0.2-0.3s-0.1-0.2-0.2-0.3-0.3-0.2-0.6-0.3c-0.2-0.1-0.4-0.2-0.6-0.2l-0.3-0.3c-0.2-0.2-0.2-0.4-0.2-0.7 0-0.4 0.2-0.7 0.5-0.9s0.7-0.3 1.2-0.3 0.9 0.1 1.1 0.2l-0.1 0.9c-0.1-0.1-0.4-0.2-0.7-0.3h-0.4c-0.4 0-0.6 0.1-0.6 0.3 0 0.1 0.1 0.2 0.2 0.3s0.3 0.2 0.6 0.2c0.3 0.1 0.5 0.2 0.6 0.2 0.1 0.1 0.3 0.2 0.4 0.3 0.2 0.2 0.3 0.4 0.3 0.7s0 0.5-0.1 0.6c-0.1 0.2-0.2 0.3-0.3 0.4-0.3 0.2-0.7 0.3-1.2 0.3-0.4 0-0.8-0.1-1.2-0.2-0.1 0-0.2-0.1-0.2-0.1l-0.1-0.7z"/><path class="st27" d="m104.6 95.4c0.1 0.2 0.1 0.5 0.1 0.8s0 0.6 0 0.7h-2.4c0 0.7 0.4 1 1.1 1 0.3 0 0.5 0 0.7-0.1s0.3-0.1 0.4-0.1l0.2 0.6c-0.2 0.2-0.6 0.3-1 0.4h-0.6s-0.5 0-0.7-0.1-0.4-0.2-0.6-0.4c-0.3-0.4-0.5-0.9-0.5-1.5s0.2-1.1 0.5-1.5c0.4-0.4 0.8-0.6 1.5-0.6 0.6 0 1.1 0.2 1.3 0.8zm-0.9 0.7c0-0.5-0.2-0.8-0.6-0.8-0.2 0-0.4 0.1-0.5 0.2s-0.2 0.4-0.3 0.7h1.4v-0.1z"/><path class="st27" d="m105.7 94.6h1v0.5c0.3-0.2 0.6-0.3 0.9-0.4 0.1 0 0.3-0.1 0.5-0.1s0.3 0 0.5 0.1 0.3 0.1 0.4 0.3c0.2 0.2 0.3 0.7 0.3 1.3v2.6h-1.1v-2.3c0-0.3 0-0.6-0.1-0.7s-0.2-0.2-0.5-0.2c-0.2 0-0.4 0.1-0.6 0.2-0.1 0-0.1 0.1-0.2 0.2v2.9h-1.1v-4.4z"/><path class="st27" d="m110.7 95.3h-0.5v-0.6c0.2-0.1 0.4-0.1 0.4-0.1 0.1-0.1 0.2-0.1 0.2-0.2 0.1-0.2 0.2-0.4 0.3-0.7h0.7v0.9h1.1v0.8h-1.1v1.6c0 0.4 0 0.6 0.1 0.8 0 0.1 0.1 0.1 0.1 0.1s0.1 0 0.2 0 0.1 0 0.2 0h0.2c0.1 0 0.2-0.1 0.3-0.1l0.1 0.6c-0.2 0.2-0.5 0.3-0.8 0.4h-0.4s-0.3 0-0.5-0.1-0.3-0.1-0.3-0.2c-0.2-0.2-0.3-0.5-0.3-1v-2.2z"/><path class="st27" d="m116 98.3c-0.3 0.3-0.6 0.4-1.1 0.4-0.4 0-0.7-0.1-1-0.4-0.2-0.2-0.4-0.6-0.4-1 0-0.5 0.2-0.8 0.7-1 0.4-0.2 0.9-0.2 1.6-0.2v-0.2c0-0.2 0-0.3-0.1-0.4s-0.3-0.1-0.7-0.1c-0.2 0-0.4 0-0.6 0.1s-0.4 0.1-0.5 0.2l-0.2-0.7c0.3-0.2 0.7-0.3 1.1-0.4h0.6c0.2 0 0.4 0 0.6 0.1s0.4 0.1 0.5 0.2c0.3 0.2 0.4 0.6 0.4 1.2v2.7h-0.7-0.3c0.1-0.2 0.1-0.3 0.1-0.5zm-1.3-0.9v0.2c0 0.1 0.1 0.1 0.1 0.2 0.1 0.1 0.2 0.1 0.4 0.1s0.4 0 0.5-0.2l0.1-0.1v-1c-0.4 0-0.7 0.1-1 0.2 0 0.2-0.1 0.4-0.1 0.6z"/><path class="st27" d="m120.4 98.3c-0.3 0.3-0.6 0.4-1.1 0.4-0.4 0-0.7-0.1-1-0.4-0.2-0.2-0.4-0.6-0.4-1 0-0.5 0.2-0.8 0.7-1 0.4-0.2 0.9-0.2 1.6-0.2v-0.2c0-0.2 0-0.3-0.1-0.4s-0.3-0.1-0.7-0.1c-0.2 0-0.4 0-0.6 0.1s-0.4 0.1-0.5 0.2l-0.2-0.7c0.3-0.2 0.7-0.3 1.1-0.4h0.6c0.2 0 0.4 0 0.6 0.1s0.4 0.1 0.5 0.2c0.3 0.2 0.4 0.6 0.4 1.2v2.7h-0.7-0.3c0.1-0.2 0.1-0.3 0.1-0.5zm-1.3-0.9v0.2c0 0.1 0.1 0.1 0.1 0.2 0.1 0.1 0.2 0.1 0.4 0.1s0.4 0 0.5-0.2l0.1-0.1v-1c-0.4 0-0.7 0.1-1 0.2 0 0.2-0.1 0.4-0.1 0.6z"/><path class="st27" d="m122.7 95.3h-0.5v-0.6c0.2-0.1 0.4-0.1 0.4-0.1 0.1-0.1 0.2-0.1 0.2-0.2 0.1-0.2 0.2-0.4 0.3-0.7h0.7v0.9h1.1v0.8h-1.1v1.6c0 0.4 0 0.6 0.1 0.8 0 0.1 0.1 0.1 0.1 0.1s0.1 0 0.2 0 0.1 0 0.2 0h0.2c0.1 0 0.2-0.1 0.3-0.1l0.1 0.6c-0.2 0.2-0.5 0.3-0.8 0.4h-0.4s-0.3 0-0.5-0.1-0.3-0.1-0.3-0.2c-0.2-0.2-0.3-0.5-0.3-1v-2.2z"/><path class="st27" d="m126.4 94h-0.3c-0.1 0-0.1-0.1-0.2-0.1-0.1-0.1-0.2-0.3-0.2-0.4 0-0.2 0.1-0.3 0.2-0.5 0.1-0.1 0.3-0.2 0.5-0.2s0.4 0.1 0.5 0.2 0.2 0.3 0.2 0.4c0 0.2-0.1 0.3-0.2 0.5-0.1 0.1-0.3 0.1-0.5 0.1zm-0.5 0.6h1.1v4.1h-1.1v-4.1z"/><path class="st27" d="m128.4 98.1c-0.2-0.2-0.3-0.4-0.3-0.7s-0.1-0.5-0.1-0.8 0.1-0.6 0.2-0.8c0.1-0.3 0.2-0.5 0.4-0.6 0.4-0.3 0.8-0.5 1.4-0.5 0.7 0 1.2 0.2 1.5 0.6s0.4 0.9 0.4 1.5c0 0.7-0.2 1.2-0.6 1.5s-0.8 0.5-1.4 0.5c-0.7-0.1-1.2-0.3-1.5-0.7zm1.6-2.7c-0.6 0-0.8 0.4-0.8 1.2 0 0.6 0.1 1 0.4 1.2 0.1 0.1 0.2 0.1 0.4 0.1 0.5 0 0.8-0.4 0.8-1.3 0-0.6-0.1-1-0.4-1.2h-0.4z"/><path class="st27" d="m132.9 94.6h1v0.5c0.3-0.2 0.6-0.3 0.9-0.4 0.1 0 0.3-0.1 0.5-0.1s0.3 0 0.5 0.1 0.3 0.1 0.4 0.3c0.2 0.2 0.3 0.7 0.3 1.3v2.6h-1.1v-2.3c0-0.3 0-0.6-0.1-0.7s-0.2-0.2-0.5-0.2c-0.2 0-0.4 0.1-0.6 0.2-0.1 0-0.1 0.1-0.2 0.2v2.9h-1.1v-4.4z"/><path class="st27" d="m140.3 95.3h-0.5v-0.6c0.2-0.1 0.4-0.1 0.4-0.1 0.1-0.1 0.2-0.1 0.2-0.2 0.1-0.2 0.2-0.4 0.3-0.7h0.7v0.9h1.1v0.8h-1.1v1.6c0 0.4 0 0.6 0.1 0.8 0 0.1 0.1 0.1 0.1 0.1s0.1 0 0.2 0 0.1 0 0.2 0h0.2c0.1 0 0.2-0.1 0.3-0.1l0.1 0.6c-0.2 0.2-0.5 0.3-0.8 0.4h-0.4s-0.3 0-0.5-0.1-0.3-0.1-0.3-0.2c-0.2-0.2-0.3-0.5-0.3-1v-2.2z"/><path class="st27" d="m146.5 95.4c0.1 0.2 0.1 0.5 0.1 0.8s0 0.6 0 0.7h-2.4c0 0.7 0.4 1 1.1 1 0.3 0 0.5 0 0.7-0.1s0.3-0.1 0.4-0.1l0.2 0.6c-0.2 0.2-0.6 0.3-1 0.4h-0.6s-0.5 0-0.7-0.1-0.4-0.2-0.6-0.4c-0.3-0.4-0.5-0.9-0.5-1.5s0.2-1.1 0.5-1.5c0.4-0.4 0.8-0.6 1.5-0.6 0.6 0 1.1 0.2 1.3 0.8zm-0.8 0.7c0-0.5-0.2-0.8-0.6-0.8-0.2 0-0.4 0.1-0.5 0.2s-0.2 0.4-0.3 0.7h1.4v-0.1z"/><path class="st27" d="m147.6 92.8h1.1v2.5 1l1.4-1.7h1.3l-1.5 1.6 1.6 2.5h-1.3l-1.1-1.7-0.4 0.5v0.5 0.8h-1.1v-6z"/><path class="st27" d="m152.7 94h-0.3c-0.1 0-0.1-0.1-0.2-0.1-0.1-0.1-0.2-0.3-0.2-0.4 0-0.2 0.1-0.3 0.2-0.5 0.1-0.1 0.3-0.2 0.5-0.2s0.4 0.1 0.5 0.2 0.2 0.3 0.2 0.4c0 0.2-0.1 0.3-0.2 0.5-0.2 0.1-0.4 0.1-0.5 0.1zm-0.6 0.6h1.1v4.1h-1.1v-4.1z"/><path class="st27" d="m153.5 99.7c0.1 0.1 0.2 0.1 0.4 0.1 0.1 0 0.2 0 0.3-0.1 0.1 0 0.1-0.1 0.2-0.2 0.1-0.2 0.1-0.5 0.1-0.9v-4.1h1.1v3.8c0 1.1-0.3 1.8-0.9 2-0.2 0.1-0.4 0.1-0.6 0.1h-0.4-0.2v-0.7zm1.5-5.7h-0.3c-0.1 0-0.1-0.1-0.2-0.1-0.1-0.1-0.2-0.3-0.2-0.4 0-0.2 0.1-0.3 0.2-0.5 0.1-0.1 0.3-0.2 0.5-0.2s0.4 0.1 0.5 0.2 0.2 0.3 0.2 0.4c0 0.2-0.1 0.3-0.2 0.5-0.2 0.1-0.3 0.1-0.5 0.1z"/><path class="st27" d="m156.9 98.1c-0.2-0.2-0.3-0.4-0.3-0.7s-0.1-0.5-0.1-0.8 0.1-0.6 0.2-0.8c0.1-0.3 0.2-0.5 0.4-0.6 0.4-0.3 0.8-0.5 1.4-0.5 0.7 0 1.2 0.2 1.5 0.6s0.4 0.9 0.4 1.5c0 0.7-0.2 1.2-0.6 1.5s-0.8 0.5-1.4 0.5c-0.6-0.1-1.1-0.3-1.5-0.7zm1.2-4.3c-0.1 0.1-0.1 0.1-0.2 0.1s-0.2 0.1-0.3 0.1h-0.2c-0.1 0-0.1-0.1-0.2-0.1-0.1-0.1-0.2-0.3-0.2-0.4 0-0.2 0.1-0.3 0.2-0.5 0.1-0.1 0.3-0.2 0.5-0.2 0.3 0 0.5 0.1 0.6 0.4v0.2c0 0.1 0 0.2-0.1 0.3l-0.1 0.1zm0.4 1.6c-0.6 0-0.8 0.4-0.8 1.2 0 0.6 0.1 1 0.4 1.2 0.1 0.1 0.2 0.1 0.4 0.1 0.5 0 0.8-0.4 0.8-1.3 0-0.6-0.1-1-0.4-1.2h-0.4zm1.3-1.6c-0.1 0.1-0.1 0.1-0.2 0.1s-0.2 0.1-0.3 0.1-0.2 0-0.2 0c-0.1 0-0.1-0.1-0.2-0.1-0.1-0.1-0.2-0.3-0.2-0.4 0-0.2 0.1-0.3 0.2-0.5 0.1-0.1 0.3-0.2 0.5-0.2 0.3 0 0.5 0.1 0.6 0.4v0.2 0.3c-0.1 0-0.1 0.1-0.2 0.1z"/><path class="st27" d="m162 94h-0.3c-0.1 0-0.1-0.1-0.2-0.1-0.1-0.1-0.2-0.3-0.2-0.4 0-0.2 0.1-0.3 0.2-0.5 0.1-0.1 0.3-0.2 0.5-0.2s0.4 0.1 0.5 0.2 0.2 0.3 0.2 0.4c0 0.2-0.1 0.3-0.2 0.5-0.2 0.1-0.3 0.1-0.5 0.1zm-0.6 0.6h1.1v4.1h-1.1v-4.1z"/><path class="st27" d="m163.8 92.8h1.1v6h-1.1v-6z"/><path class="st27" d="m166.2 92.8h1.1v6h-1.1v-6z"/><path class="st27" d="m171.8 95.4c0.1 0.2 0.1 0.5 0.1 0.8s0 0.6 0 0.7h-2.4c0 0.7 0.4 1 1.1 1 0.3 0 0.5 0 0.7-0.1s0.3-0.1 0.4-0.1l0.2 0.6c-0.2 0.2-0.6 0.3-1 0.4h-0.6s-0.5 0-0.7-0.1-0.4-0.2-0.6-0.4c-0.3-0.4-0.5-0.9-0.5-1.5s0.2-1.1 0.5-1.5c0.4-0.4 0.8-0.6 1.5-0.6 0.5 0 1 0.2 1.3 0.8zm-0.9 0.7c0-0.5-0.2-0.8-0.6-0.8-0.2 0-0.4 0.1-0.5 0.2s-0.2 0.4-0.3 0.7h1.4v-0.1z"/><path class="st27" d="m175.4 95.3h-0.5v-0.6c0.2-0.1 0.4-0.1 0.4-0.1 0.1-0.1 0.2-0.1 0.2-0.2 0.1-0.2 0.2-0.4 0.3-0.7h0.7v0.9h1.1v0.8h-1.1v1.6c0 0.4 0 0.6 0.1 0.8 0 0.1 0.1 0.1 0.1 0.1s0.1 0 0.2 0 0.1 0 0.2 0h0.2c0.1 0 0.2-0.1 0.3-0.1l0.1 0.6c-0.2 0.2-0.5 0.3-0.8 0.4h-0.4s-0.3 0-0.5-0.1-0.3-0.1-0.3-0.2c-0.2-0.2-0.3-0.5-0.3-1v-2.2z"/><path class="st27" d="m179.1 94h-0.3c-0.1 0-0.1-0.1-0.2-0.1-0.1-0.1-0.2-0.3-0.2-0.4 0-0.2 0.1-0.3 0.2-0.5 0.1-0.1 0.3-0.2 0.5-0.2s0.4 0.1 0.5 0.2 0.2 0.3 0.2 0.4c0 0.2-0.1 0.3-0.2 0.5-0.2 0.1-0.3 0.1-0.5 0.1zm-0.6 0.6h1.1v4.1h-1.1v-4.1z"/><path class="st27" d="m184 95.4c0.1 0.2 0.1 0.5 0.1 0.8s0 0.6 0 0.7h-2.4c0 0.7 0.4 1 1.1 1 0.3 0 0.5 0 0.7-0.1s0.3-0.1 0.4-0.1l0.2 0.6c-0.2 0.2-0.6 0.3-1 0.4h-0.6s-0.5 0-0.7-0.1-0.4-0.2-0.6-0.4c-0.3-0.4-0.5-0.9-0.5-1.5s0.2-1.1 0.5-1.5c0.4-0.4 0.8-0.6 1.5-0.6 0.6 0 1.1 0.2 1.3 0.8zm-0.9 0.7c0-0.5-0.2-0.8-0.6-0.8-0.2 0-0.4 0.1-0.5 0.2s-0.2 0.4-0.3 0.7h1.4v-0.1z"/><path class="st27" d="m187.7 98.2c-0.3 0.3-0.7 0.5-1.2 0.5s-0.8-0.2-1.1-0.5c-0.3-0.4-0.5-0.8-0.5-1.5s0.2-1.2 0.6-1.6 0.9-0.6 1.5-0.6c0.2 0 0.5 0 0.7 0.1v-0.4-1.6h1.1v6h-0.8-0.2s-0.1-0.1-0.1-0.2v-0.2zm-0.1-2.7c-0.1-0.1-0.3-0.1-0.5-0.1s-0.4 0-0.5 0.1-0.2 0.1-0.3 0.2c-0.2 0.2-0.3 0.6-0.3 1 0 0.6 0.2 1 0.5 1.1 0.1 0 0.2 0.1 0.3 0.1 0.3 0 0.6-0.1 0.8-0.2v-2.2z"/><path class="st27" d="m190.1 98.1c-0.2-0.2-0.3-0.4-0.3-0.7s-0.1-0.5-0.1-0.8 0.1-0.6 0.2-0.8c0.1-0.3 0.2-0.5 0.4-0.6 0.4-0.3 0.8-0.5 1.4-0.5 0.7 0 1.2 0.2 1.5 0.6s0.4 0.9 0.4 1.5c0 0.7-0.2 1.2-0.6 1.5s-0.8 0.5-1.4 0.5c-0.7-0.1-1.2-0.3-1.5-0.7zm1.6-2.7c-0.6 0-0.8 0.4-0.8 1.2 0 0.6 0.1 1 0.4 1.2 0.1 0.1 0.2 0.1 0.4 0.1 0.5 0 0.8-0.4 0.8-1.3 0-0.6-0.1-1-0.4-1.2h-0.4z"/><path class="st27" d="m194.6 94.6h1v0.5c0.3-0.2 0.6-0.3 0.9-0.4 0.1 0 0.3-0.1 0.5-0.1s0.3 0 0.5 0.1 0.3 0.1 0.4 0.3c0.2 0.2 0.3 0.7 0.3 1.3v2.6h-1.1v-2.3c0-0.3 0-0.6-0.1-0.7s-0.2-0.2-0.5-0.2c-0.2 0-0.4 0.1-0.6 0.2-0.1 0-0.1 0.1-0.2 0.2v2.9h-1.1v-4.4z"/><path class="st27" d="m200.8 99.7c0.1 0.1 0.2 0.1 0.4 0.1 0.1 0 0.2 0 0.3-0.1 0.1 0 0.1-0.1 0.2-0.2 0.1-0.2 0.1-0.5 0.1-0.9v-4.1h1.1v3.8c0 1.1-0.3 1.8-0.9 2-0.2 0.1-0.4 0.1-0.6 0.1h-0.4-0.2v-0.7zm1.6-5.7h-0.3c-0.1 0-0.1-0.1-0.2-0.1-0.1-0.1-0.2-0.3-0.2-0.4 0-0.2 0.1-0.3 0.2-0.5 0.1-0.1 0.3-0.2 0.5-0.2s0.4 0.1 0.5 0.2 0.2 0.3 0.2 0.4c0 0.2-0.1 0.3-0.2 0.5-0.2 0.1-0.3 0.1-0.5 0.1z"/><path class="st27" d="m206.3 98.3c-0.3 0.3-0.6 0.4-1.1 0.4-0.4 0-0.7-0.1-1-0.4-0.2-0.2-0.4-0.6-0.4-1 0-0.5 0.2-0.8 0.7-1 0.4-0.2 0.9-0.2 1.6-0.2v-0.2c0-0.2 0-0.3-0.1-0.4s-0.3-0.1-0.7-0.1c-0.2 0-0.4 0-0.6 0.1s-0.4 0.1-0.5 0.2l-0.2-0.7c0.3-0.2 0.7-0.3 1.1-0.4h0.6c0.2 0 0.4 0 0.6 0.1s0.4 0.1 0.5 0.2c0.3 0.2 0.4 0.6 0.4 1.2v2.7h-0.7-0.3c0.1-0.2 0.1-0.3 0.1-0.5zm-1.3-0.9v0.2c0 0.1 0.1 0.1 0.1 0.2 0.1 0.1 0.2 0.1 0.4 0.1s0.4 0 0.5-0.2l0.1-0.1v-1c-0.4 0-0.7 0.1-1 0.2 0 0.2-0.1 0.4-0.1 0.6z"/><path class="st27" d="m213.5 98.2c-0.3 0.3-0.7 0.5-1.2 0.5s-0.8-0.2-1.1-0.5c-0.3-0.4-0.5-0.8-0.5-1.5s0.2-1.2 0.6-1.6 0.9-0.6 1.5-0.6c0.2 0 0.5 0 0.7 0.1v-0.4-1.6h1.1v6h-0.8-0.2s-0.1-0.1-0.1-0.2v-0.2zm-0.1-2.7c-0.1-0.1-0.3-0.1-0.5-0.1s-0.4 0-0.5 0.1-0.2 0.1-0.3 0.2c-0.2 0.2-0.3 0.6-0.3 1 0 0.6 0.2 1 0.5 1.1 0.1 0 0.2 0.1 0.3 0.1 0.3 0 0.6-0.1 0.8-0.2v-2.2z"/><path class="st27" d="m217.9 98.3c-0.3 0.3-0.6 0.4-1.1 0.4-0.4 0-0.7-0.1-1-0.4-0.2-0.2-0.4-0.6-0.4-1 0-0.5 0.2-0.8 0.7-1 0.4-0.2 0.9-0.2 1.6-0.2v-0.2c0-0.2 0-0.3-0.1-0.4s-0.3-0.1-0.7-0.1c-0.2 0-0.4 0-0.6 0.1s-0.4 0.1-0.5 0.2l-0.2-0.7c0.3-0.2 0.7-0.3 1.1-0.4h0.6c0.2 0 0.4 0 0.6 0.1s0.4 0.1 0.5 0.2c0.3 0.2 0.4 0.6 0.4 1.2v2.7h-0.7-0.3c0.1-0.2 0.1-0.3 0.1-0.5zm-1.3-0.9v0.2c0 0.1 0.1 0.1 0.1 0.2 0.1 0.1 0.2 0.1 0.4 0.1s0.4 0 0.5-0.2l0.1-0.1v-1c-0.4 0-0.7 0.1-1 0.2 0 0.2-0.1 0.4-0.1 0.6z"/><path class="st27" d="m220.2 95.3h-0.5v-0.6c0.2-0.1 0.4-0.1 0.4-0.1 0.1-0.1 0.2-0.1 0.2-0.2 0.1-0.2 0.2-0.4 0.3-0.7h0.7v0.9h1.1v0.8h-1.1v1.6c0 0.4 0 0.6 0.1 0.8 0 0.1 0.1 0.1 0.1 0.1s0.1 0 0.2 0 0.1 0 0.2 0h0.2c0.1 0 0.2-0.1 0.3-0.1l0.1 0.6c-0.2 0.2-0.5 0.3-0.8 0.4h-0.4s-0.3 0-0.5-0.1-0.3-0.1-0.3-0.2c-0.2-0.2-0.3-0.5-0.3-1v-2.2z"/><path class="st27" d="m225.5 98.3c-0.3 0.3-0.6 0.4-1.1 0.4-0.4 0-0.7-0.1-1-0.4-0.2-0.2-0.4-0.6-0.4-1 0-0.5 0.2-0.8 0.7-1 0.4-0.2 0.9-0.2 1.6-0.2v-0.2c0-0.2 0-0.3-0.1-0.4s-0.3-0.1-0.7-0.1c-0.2 0-0.4 0-0.6 0.1s-0.4 0.1-0.5 0.2l-0.2-0.7c0.3-0.2 0.7-0.3 1.1-0.4h0.6c0.2 0 0.4 0 0.6 0.1s0.4 0.1 0.5 0.2c0.3 0.2 0.4 0.6 0.4 1.2v2.7h-0.7-0.3c0.1-0.2 0.1-0.3 0.1-0.5zm-1.2-0.9v0.2c0 0.1 0.1 0.1 0.1 0.2 0.1 0.1 0.2 0.1 0.4 0.1s0.4 0 0.5-0.2l0.1-0.1v-1c-0.4 0-0.7 0.1-1 0.2-0.1 0.2-0.1 0.4-0.1 0.6z"/><path class="st27" d="m227.7 94.6h1v0.5c0.3-0.2 0.6-0.3 0.9-0.4 0.1 0 0.3-0.1 0.5-0.1s0.3 0 0.5 0.1 0.3 0.1 0.4 0.3c0.2 0.2 0.3 0.7 0.3 1.3v2.6h-1.1v-2.3c0-0.3 0-0.6-0.1-0.7s-0.2-0.2-0.5-0.2c-0.2 0-0.4 0.1-0.6 0.2-0.1 0-0.1 0.1-0.2 0.2v2.9h-1.1v-4.4z"/><path class="st27" d="m238.1 95.4c0.1 0.2 0.1 0.5 0.1 0.8s0 0.6 0 0.7h-2.4c0 0.7 0.4 1 1.1 1 0.3 0 0.5 0 0.7-0.1s0.3-0.1 0.4-0.1l0.2 0.6c-0.2 0.2-0.6 0.3-1 0.4h-0.6s-0.5 0-0.7-0.1-0.4-0.2-0.6-0.4c-0.3-0.4-0.5-0.9-0.5-1.5s0.2-1.1 0.5-1.5c0.4-0.4 0.8-0.6 1.5-0.6 0.6 0 1.1 0.2 1.3 0.8zm-0.9 0.7c0-0.5-0.2-0.8-0.6-0.8-0.2 0-0.4 0.1-0.5 0.2s-0.2 0.4-0.3 0.7h1.4v-0.1z"/><path class="st27" d="m239.1 97.6c0.1 0.1 0.4 0.2 0.8 0.3h0.5c0.2 0 0.3 0 0.4-0.1 0.1 0 0.2-0.1 0.2-0.3s-0.1-0.2-0.2-0.3-0.3-0.2-0.6-0.3c-0.2-0.1-0.4-0.2-0.6-0.2l-0.3-0.3c-0.2-0.2-0.2-0.4-0.2-0.7 0-0.4 0.2-0.7 0.5-0.9s0.7-0.3 1.2-0.3 0.9 0.1 1.1 0.2l-0.1 0.9c-0.1-0.1-0.4-0.2-0.7-0.3h-0.4c-0.4 0-0.6 0.1-0.6 0.3 0 0.1 0.1 0.2 0.2 0.3s0.3 0.2 0.6 0.2c0.3 0.1 0.5 0.2 0.6 0.2 0.1 0.1 0.3 0.2 0.4 0.3 0.2 0.2 0.3 0.4 0.3 0.7s0 0.5-0.1 0.6c-0.1 0.2-0.2 0.3-0.3 0.4-0.3 0.2-0.7 0.3-1.2 0.3-0.4 0-0.8-0.1-1.2-0.2-0.1 0-0.2-0.1-0.2-0.1l-0.1-0.7z"/><path class="st27" d="m243.6 94h-0.3c-0.1 0-0.1-0.1-0.2-0.1-0.1-0.1-0.2-0.3-0.2-0.4 0-0.2 0.1-0.3 0.2-0.5 0.1-0.1 0.3-0.2 0.5-0.2s0.4 0.1 0.5 0.2 0.2 0.3 0.2 0.4c0 0.2-0.1 0.3-0.2 0.5-0.2 0.1-0.4 0.1-0.5 0.1zm-0.6 0.6h1.1v4.1h-1.1v-4.1z"/><path class="st27" d="m245.5 95.3h-0.5v-0.6c0.2-0.1 0.4-0.1 0.4-0.1 0.1-0.1 0.2-0.1 0.2-0.2 0.1-0.2 0.2-0.4 0.3-0.7h0.7v0.9h1.1v0.8h-1.1v1.6c0 0.4 0 0.6 0.1 0.8 0 0.1 0.1 0.1 0.1 0.1s0.1 0 0.2 0 0.1 0 0.2 0h0.2c0.1 0 0.2-0.1 0.3-0.1l0.1 0.6c-0.2 0.2-0.5 0.3-0.8 0.4h-0.4s-0.3 0-0.5-0.1-0.3-0.1-0.3-0.2c-0.2-0.2-0.3-0.5-0.3-1v-2.2z"/><path class="st27" d="m248.8 95.3h-0.5v-0.6c0.2-0.1 0.4-0.1 0.4-0.1 0.1-0.1 0.2-0.1 0.2-0.2 0.1-0.2 0.2-0.4 0.3-0.7h0.7v0.9h1.1v0.8h-1.1v1.6c0 0.4 0 0.6 0.1 0.8 0 0.1 0.1 0.1 0.1 0.1s0.1 0 0.2 0 0.1 0 0.2 0h0.2c0.1 0 0.2-0.1 0.3-0.1l0.1 0.6c-0.2 0.2-0.5 0.3-0.8 0.4h-0.4s-0.3 0-0.5-0.1-0.3-0.1-0.3-0.2c-0.2-0.2-0.3-0.5-0.3-1v-2.2z"/><path class="st27" d="m254 98.3c-0.3 0.3-0.6 0.4-1.1 0.4-0.4 0-0.7-0.1-1-0.4-0.2-0.2-0.4-0.6-0.4-1 0-0.5 0.2-0.8 0.7-1 0.4-0.2 0.9-0.2 1.6-0.2v-0.2c0-0.2 0-0.3-0.1-0.4s-0.3-0.1-0.7-0.1c-0.2 0-0.4 0-0.6 0.1s-0.4 0.1-0.5 0.2l-0.2-0.7c0.3-0.2 0.7-0.3 1.1-0.4h0.6c0.2 0 0.4 0 0.6 0.1s0.4 0.1 0.5 0.2c0.3 0.2 0.4 0.6 0.4 1.2v2.7h-0.7-0.3c0.2-0.2 0.1-0.3 0.1-0.5zm-0.9-4.5c-0.1 0.1-0.1 0.1-0.2 0.1s-0.2 0.1-0.3 0.1-0.2 0-0.2 0c-0.1 0-0.1-0.1-0.2-0.1-0.1-0.1-0.2-0.3-0.2-0.4 0-0.2 0.1-0.3 0.2-0.5 0.1-0.1 0.3-0.2 0.5-0.2 0.3 0 0.5 0.1 0.6 0.4v0.2 0.3c-0.1 0-0.2 0.1-0.2 0.1zm-0.3 3.6v0.2c0 0.1 0.1 0.1 0.1 0.2 0.1 0.1 0.2 0.1 0.4 0.1s0.4 0 0.5-0.2l0.1-0.1v-1c-0.4 0-0.7 0.1-1 0.2 0 0.2-0.1 0.4-0.1 0.6zm2-3.6c-0.1 0.1-0.1 0.1-0.2 0.1s-0.2 0.1-0.3 0.1-0.2 0-0.2 0c-0.1 0-0.1-0.1-0.2-0.1-0.1-0.1-0.2-0.3-0.2-0.4 0-0.2 0.1-0.3 0.2-0.5 0.1-0.1 0.3-0.2 0.5-0.2 0.3 0 0.5 0.1 0.6 0.4v0.2 0.3s-0.1 0.1-0.2 0.1z"/><path class="st27" d="m259.9 95.8v0.4 2.5h-1.1v-2.3c0-0.3 0-0.6-0.1-0.7s-0.2-0.2-0.4-0.2-0.4 0.1-0.6 0.2c-0.1 0-0.1 0.1-0.2 0.2v2.9h-1.1v-4.1h1v0.5c0.3-0.2 0.6-0.3 0.9-0.4 0.1 0 0.3-0.1 0.4-0.1 0.5 0 0.8 0.2 1 0.5 0.3-0.2 0.6-0.3 1-0.4h0.5s0.4 0 0.5 0.1c0.2 0.1 0.3 0.1 0.4 0.3 0.2 0.3 0.3 0.7 0.3 1.2v2.6h-1.1v-2.3c0-0.3 0-0.6-0.1-0.7s-0.1-0.2-0.2-0.2-0.1 0-0.2 0h-0.1s-0.1 0-0.2 0-0.1 0-0.2 0.1c-0.2-0.2-0.3-0.1-0.4-0.1z"/><path class="st27" d="m264.2 94h-0.3c-0.1 0-0.1-0.1-0.2-0.1-0.1-0.1-0.2-0.3-0.2-0.4 0-0.2 0.1-0.3 0.2-0.5 0.1-0.1 0.3-0.2 0.5-0.2s0.4 0.1 0.5 0.2 0.2 0.3 0.2 0.4c0 0.2-0.1 0.3-0.2 0.5-0.2 0.1-0.3 0.1-0.5 0.1zm-0.6 0.6h1.1v4.1h-1.1v-4.1z"/><path class="st27" d="m265.9 97.6c0.1 0.1 0.4 0.2 0.8 0.3h0.5c0.2 0 0.3 0 0.4-0.1 0.1 0 0.2-0.1 0.2-0.3s-0.1-0.2-0.2-0.3-0.3-0.2-0.6-0.3c-0.2-0.1-0.4-0.2-0.6-0.2l-0.3-0.3c-0.2-0.2-0.2-0.4-0.2-0.7 0-0.4 0.2-0.7 0.5-0.9s0.7-0.3 1.2-0.3 0.9 0.1 1.1 0.2l-0.1 0.9c-0.1-0.1-0.4-0.2-0.7-0.3h-0.4c-0.4 0-0.6 0.1-0.6 0.3 0 0.1 0.1 0.2 0.2 0.3s0.3 0.2 0.6 0.2c0.3 0.1 0.5 0.2 0.6 0.2 0.1 0.1 0.3 0.2 0.4 0.3 0.2 0.2 0.3 0.4 0.3 0.7s0 0.5-0.1 0.6c-0.1 0.2-0.2 0.3-0.3 0.4-0.3 0.2-0.7 0.3-1.2 0.3-0.4 0-0.8-0.1-1.2-0.2-0.1 0-0.2-0.1-0.2-0.1l-0.1-0.7z"/><path class="st27" d="m272.9 95.4c0.1 0.2 0.1 0.5 0.1 0.8s0 0.6 0 0.7h-2.4c0 0.7 0.4 1 1.1 1 0.3 0 0.5 0 0.7-0.1s0.3-0.1 0.4-0.1l0.2 0.6c-0.2 0.2-0.6 0.3-1 0.4h-0.6s-0.5 0-0.7-0.1-0.4-0.2-0.6-0.4c-0.3-0.4-0.5-0.9-0.5-1.5s0.2-1.1 0.5-1.5c0.4-0.4 0.8-0.6 1.5-0.6 0.5 0 1 0.2 1.3 0.8zm-0.9 0.7c0-0.5-0.2-0.8-0.6-0.8-0.2 0-0.4 0.1-0.5 0.2s-0.2 0.4-0.3 0.7h1.4v-0.1z"/><path class="st27" d="m277.1 95.4c0.1 0.2 0.1 0.5 0.1 0.8s0 0.6 0 0.7h-2.4c0 0.7 0.4 1 1.1 1 0.3 0 0.5 0 0.7-0.1s0.3-0.1 0.4-0.1l0.2 0.6c-0.2 0.2-0.6 0.3-1 0.4h-0.6s-0.5 0-0.7-0.1-0.4-0.2-0.6-0.4c-0.3-0.4-0.5-0.9-0.5-1.5s0.2-1.1 0.5-1.5c0.4-0.4 0.8-0.6 1.5-0.6 0.6 0 1.1 0.2 1.3 0.8zm-0.9 0.7c0-0.5-0.2-0.8-0.6-0.8-0.2 0-0.4 0.1-0.5 0.2s-0.2 0.4-0.3 0.7h1.4v-0.1z"/><path class="st27" d="m278.2 94.6h1v0.5c0.3-0.2 0.6-0.3 0.9-0.4 0.1 0 0.3-0.1 0.5-0.1s0.3 0 0.5 0.1 0.3 0.1 0.4 0.3c0.2 0.2 0.3 0.7 0.3 1.3v2.6h-1.1v-2.3c0-0.3 0-0.6-0.1-0.7s-0.2-0.2-0.5-0.2c-0.2 0-0.4 0.1-0.6 0.2-0.1 0-0.1 0.1-0.2 0.2v2.9h-1.1v-4.4z"/><polyline class="st28" points="206.2 443.6 236 413.7 261.8 439.6 292.5 408.9"/><defs><rect id="m" x="15.7" y="31" width="335.8" height="474.9"/></defs><clipPath id="b"><use xlink:href="#m"/></clipPath><path d="m205.4 448.9c2.5 0 4.5-2 4.5-4.5s-2-4.5-4.5-4.5-4.5 2-4.5 4.5 2 4.5 4.5 4.5" clip-path="url(#b)" fill="#fff"/><path d="m236.2 418.5c2.1 0 3.8-1.7 3.8-3.8s-1.7-3.8-3.8-3.8-3.8 1.7-3.8 3.8 1.6 3.8 3.8 3.8" clip-path="url(#b)" fill="#fff"/><path d="m262 443.2c2.1 0 3.8-1.7 3.8-3.8s-1.7-3.8-3.8-3.8-3.8 1.7-3.8 3.8 1.7 3.8 3.8 3.8" clip-path="url(#b)" fill="#fff"/><path d="m293.3 412.6c2.5 0 4.5-2 4.5-4.5s-2-4.5-4.5-4.5-4.5 2-4.5 4.5 2 4.5 4.5 4.5" clip-path="url(#b)" fill="#fff"/></svg>