<?xml version="1.0" standalone="no"?>
<!DOCTYPE svg PUBLIC "-//W3C//DTD SVG 20010904//EN"
 "http://www.w3.org/TR/2001/REC-SVG-20010904/DTD/svg10.dtd">
<svg version="1.0" xmlns="http://www.w3.org/2000/svg"
 width="2062.000000pt" height="2282.000000pt" viewBox="0 0 2062.000000 2282.000000"
 preserveAspectRatio="xMidYMid meet">
<metadata>
Created by potrace 1.13, written by Peter Selinger 2001-2015
</metadata>
<g transform="translate(0.000000,2282.000000) scale(0.100000,-0.100000)"
fill="#000000" stroke="none">
<path d="M12540 22790 c-292 -32 -546 -83 -740 -149 -248 -84 -452 -175 -653
-289 -60 -34 -113 -62 -119 -62 -7 0 -7 -4 -1 -12 6 -7 112 -214 237 -460 125
-247 229 -448 231 -448 1 0 41 20 88 45 229 122 509 221 747 263 225 41 301
47 580 47 253 0 283 -2 380 -24 346 -78 549 -257 638 -561 23 -79 25 -105 29
-357 3 -150 3 -273 1 -273 -2 0 -56 18 -120 39 -137 46 -363 95 -543 117 -175
22 -664 30 -838 14 -665 -60 -1173 -272 -1502 -629 -298 -322 -435 -702 -435
-1210 -1 -449 89 -778 304 -1111 233 -361 606 -624 1041 -731 246 -61 442 -83
681 -76 374 11 631 85 980 284 175 99 271 164 372 251 l62 54 0 -236 0 -236
585 0 585 0 0 2028 c0 1752 -2 2044 -15 2147 -58 454 -224 805 -499 1055 -318
290 -752 469 -1271 525 -183 20 -594 18 -805 -5z m596 -3160 c266 -22 504 -74
711 -157 l113 -45 0 -382 0 -382 -92 -99 c-263 -280 -556 -456 -878 -528 -81
-18 -129 -21 -320 -21 -201 -1 -237 2 -335 23 -135 29 -279 91 -365 156 -179
135 -288 344 -308 590 -39 480 265 775 873 848 70 9 482 6 601 -3z"/>
<path d="M17945 22804 c-16 -2 -82 -11 -145 -20 -225 -31 -496 -115 -695 -216
-122 -61 -325 -194 -420 -273 -462 -384 -792 -969 -924 -1636 -96 -485 -98
-1084 -5 -1579 86 -463 286 -917 556 -1263 320 -410 740 -693 1222 -821 229
-61 317 -71 626 -71 369 0 479 18 806 129 211 72 324 126 491 238 226 151 468
376 642 598 l90 115 -379 379 -379 380 -138 -135 c-288 -280 -508 -437 -708
-506 -229 -79 -559 -85 -787 -15 -236 73 -480 273 -620 507 -216 362 -310 833
-286 1440 25 661 240 1165 609 1428 184 130 380 187 650 187 167 0 306 -22
450 -70 240 -80 522 -268 780 -517 58 -57 108 -103 112 -103 9 0 707 827 707
838 0 18 -231 260 -337 354 -364 321 -783 523 -1255 604 -130 22 -189 26 -393
29 -132 2 -253 2 -270 -1z"/>
<path d="M2495 16214 c-16 -2 -82 -11 -145 -20 -410 -56 -823 -240 -1143 -508
-142 -119 -233 -214 -333 -346 -458 -603 -666 -1344 -633 -2250 24 -641 172
-1161 463 -1630 331 -532 805 -891 1380 -1044 231 -62 316 -71 641 -71 391 0
510 19 818 131 421 153 793 431 1107 828 l94 119 -364 359 c-201 197 -375 366
-388 375 -23 16 -25 14 -175 -134 -433 -426 -684 -553 -1096 -553 -244 0 -433
55 -636 184 -199 127 -383 372 -491 653 -82 213 -140 527 -152 817 -32 776
137 1341 504 1686 202 190 425 270 750 270 257 0 443 -46 681 -169 204 -107
378 -238 568 -430 49 -50 93 -91 97 -91 4 0 166 189 359 421 l350 420 -38 47
c-21 26 -108 117 -194 203 -398 397 -816 617 -1344 705 -125 21 -191 26 -400
29 -137 2 -263 2 -280 -1z"/>
<path d="M7265 16214 c-22 -3 -98 -13 -170 -24 -667 -101 -1250 -481 -1611
-1050 -359 -566 -534 -1277 -502 -2035 32 -737 239 -1352 626 -1850 378 -486
876 -787 1467 -887 179 -30 615 -33 805 -5 420 63 824 234 1140 485 135 107
218 189 333 327 358 428 577 973 654 1626 26 221 26 782 0 989 -101 797 -425
1443 -942 1875 -334 279 -712 451 -1150 526 -93 16 -176 21 -365 24 -135 1
-263 1 -285 -1z m440 -1149 c405 -65 719 -315 921 -730 136 -282 193 -556 201
-980 6 -278 -6 -433 -47 -634 -99 -486 -327 -849 -675 -1073 -199 -129 -365
-178 -599 -178 -339 0 -605 108 -836 340 -302 302 -457 728 -479 1320 -17 467
33 832 158 1143 179 447 481 716 891 793 95 17 352 17 465 -1z"/>
<path d="M18045 16200 c-206 -30 -443 -101 -580 -171 -115 -60 -286 -181 -375
-266 l-90 -85 0 216 0 216 -600 0 -600 0 0 -2830 0 -2830 600 0 600 0 0 1628
c1 1771 4 1890 54 2132 15 69 36 154 48 190 100 304 308 544 556 638 150 58
215 67 452 66 196 -2 224 -4 315 -28 124 -32 260 -98 355 -172 167 -131 287
-347 345 -624 52 -246 49 -130 52 -2047 l4 -1783 599 0 600 0 0 1758 c0 1462
-3 1785 -15 1922 -78 881 -361 1460 -875 1793 -223 144 -468 230 -788 277
-175 26 -483 26 -657 0z"/>
<path d="M10583 14348 c5 -1890 4 -1876 57 -2219 181 -1184 847 -1790 1965
-1789 368 1 621 57 918 206 151 76 249 146 375 268 l62 60 0 -212 0 -212 600
0 600 0 0 2830 0 2830 -600 0 -599 0 -3 -1797 -3 -1798 -33 -150 c-42 -193
-106 -360 -190 -490 -139 -216 -301 -335 -547 -402 -94 -25 -113 -27 -315 -27
-202 0 -221 2 -315 27 -139 37 -298 121 -401 211 -184 162 -281 382 -339 767
-29 192 -35 539 -35 2102 l0 1557 -601 0 -600 0 4 -1762z"/>
<path d="M12485 9624 c-16 -2 -84 -11 -150 -20 -561 -74 -1107 -383 -1462
-827 -421 -527 -634 -1144 -662 -1912 -16 -459 31 -870 140 -1235 307 -1026
1004 -1690 1946 -1852 177 -30 616 -33 793 -4 445 71 834 235 1140 479 108 86
289 267 380 378 324 397 540 941 622 1569 30 227 33 773 5 980 -59 439 -160
781 -329 1114 -129 254 -236 404 -432 604 -368 377 -822 617 -1329 703 -96 16
-176 21 -377 24 -140 2 -268 1 -285 -1z m489 -1148 c373 -86 650 -300 840
-650 165 -302 246 -676 246 -1131 0 -597 -178 -1114 -500 -1448 -180 -188
-360 -287 -619 -342 -93 -19 -307 -20 -427 0 -567 92 -958 560 -1068 1280 -38
243 -49 609 -26 835 54 529 222 922 514 1198 152 144 316 227 530 267 97 19
416 13 510 -9z"/>
<path d="M18020 9611 c-392 -63 -705 -213 -962 -460 l-58 -55 0 217 0 217
-600 0 -600 0 0 -2830 0 -2830 600 0 600 0 0 1628 c1 1771 4 1891 54 2132 66
315 230 595 429 732 86 58 189 105 302 134 136 36 383 45 501 19 296 -64 563
-243 862 -579 l61 -68 561 312 c308 171 560 316 560 320 0 5 -16 30 -37 57
-437 577 -936 918 -1518 1034 -137 28 -172 31 -395 34 -204 3 -264 1 -360 -14z"/>
<path d="M6480 8460 l0 -1160 -990 0 -990 0 0 -555 0 -555 990 0 990 0 0
-1150 0 -1150 610 0 610 0 0 1145 0 1145 990 0 990 0 0 565 0 565 -990 0 -990
0 0 1155 0 1155 -610 0 -610 0 0 -1160z"/>
<path d="M17840 5210 l0 -100 205 0 205 0 0 -600 0 -600 105 0 105 0 0 600 0
600 205 0 205 0 0 100 0 100 -515 0 -515 0 0 -100z"/>
<path d="M19010 4610 l0 -700 100 0 100 0 1 493 c0 426 2 488 14 462 8 -16
100 -232 206 -480 105 -247 197 -461 204 -474 11 -22 29 17 214 450 111 261
206 483 211 494 5 12 9 -171 9 -462 l1 -483 100 0 100 0 0 700 0 700 -107 0
-108 -1 -167 -402 c-92 -221 -184 -444 -204 -495 l-37 -94 -34 89 c-19 48 -43
113 -54 143 -11 30 -89 213 -172 405 l-152 350 -113 3 -112 3 0 -701z"/>
<path d="M0 845 l0 -835 10305 0 10305 0 0 835 0 835 -10305 0 -10305 0 0
-835z"/>
</g>
</svg>
