<?xml version="1.0" encoding="utf-8"?>

<svg xmlns="http://www.w3.org/2000/svg" xmlns:xlink="http://www.w3.org/1999/xlink" x="0px" y="0px" viewBox="0 0 770.7 319.8">
<path d="M1.6,284.2H767.8v18.1H1.6Z" style="fill:#ff3862;fill-rule:evenodd"></path>
<path d="M389.9,204.2H364.5c-7.7,0-11.5-3.7-11.5-11.2V122.6c0-10.4-2.5-18.4-7.5-24.1s-12.3-8.6-22-8.6c-7.3,0-12.9,1.2-16.9,3.5a50.24,50.24,0,0,0-8.6,5.9,27.15,27.15,0,0,0-4.8,4.8,63.12,63.12,0,0,0-5.4,8.8v73.4H302c2.3,0,3.5,1.1,3.5,3.2V201c0,2.1-1.2,3.2-3.5,3.2H251c-2.3,0-3.5-1.1-3.5-3.2V189.5c0-2.1,1.2-3.2,3.5-3.2h14.7V30H251c-2.3,0-3.5-1.1-3.5-3.2V15.2c0-2.1,1.2-3.2,3.5-3.2h33.7a2.86,2.86,0,0,1,3.2,3.2V74.9a117.18,117.18,0,0,1-1.1,16.3h.5C296,77.5,310,70.6,329.1,70.6c14.3,0,25.4,4.2,33.5,12.6s12.1,19.7,12.3,34v69.1h15c2.3,0,3.5,1.1,3.5,3.2V201C393.4,203.2,392.2,204.2,389.9,204.2ZM235.9,193a3.36,3.36,0,0,0-1.1-2.4l-6.4-8.3q-2.1-2.7-4.8-.3-5.1,5.1-15.3,5.1c-6.6,0-12-2.2-16.1-6.7-3.9-4.6-5.9-11.4-5.9-20.3V90.5h34c2.5,0,3.7-1.2,3.7-3.5V76c0-2.3-1.2-3.5-3.7-3.5h-34v-27c0-2.5-1.2-3.7-3.5-3.7h-15c-2.5,0-3.7,1.2-3.7,3.7v27h-15c-2.5,0-3.7,1.2-3.7,3.5V87c0,2.3,1.2,3.5,3.7,3.5h15v70.1c0,14.8,3.7,26.1,11.2,34,7.7,7.7,17.4,11.5,29.2,11.5,12,0,21.9-3.5,29.7-10.4C235.4,194.6,235.9,193.7,235.9,193ZM30.8,141.1h96.4c2.5,0,3.7-1.2,3.7-3.5v-2.1q0-29.7-15.5-47.1Q99.8,70.55,72.5,70.6q-27,0-45.8,18.2C14.3,100.8,8,117.2,8,138.1q0,31.05,18.7,49.5,19.05,18.45,47.1,18.5a74.38,74.38,0,0,0,23-3.5,58.4,58.4,0,0,0,17.7-8.6,78.7,78.7,0,0,0,10.7-9.1A35.91,35.91,0,0,0,130,179a5.38,5.38,0,0,0,1.3-2.9,4.1,4.1,0,0,0-1.6-2.9l-7.2-7.2c-1.8-1.2-3.4-1-4.8.8-2.7,4.5-7.9,9-15.8,13.7-7.7,4.6-17,7-27.8,7s-20.7-4-29.4-12C36.1,167.3,31.5,155.9,30.8,141.1ZM98.2,98.2c6.4,6.6,9.9,15.4,10.4,26.5H31.3c1.4-12.1,6-21.2,13.7-27.3s16.9-9.1,27.6-9.1S91.8,91.6,98.2,98.2Zm317.5,106h51.1c2.3,0,3.5-1.1,3.5-3.2V189.5c0-2.1-1.2-3.2-3.5-3.2H452.6V75.7a2.86,2.86,0,0,0-3.2-3.2H415.7c-2.3,0-3.5,1.1-3.5,3.2V87.2c0,2.1,1.2,3.2,3.5,3.2h14.7v95.8H415.7c-2.3,0-3.5,1.1-3.5,3.2V201C412.2,203.2,413.4,204.2,415.7,204.2ZM456.1,43.6a14.39,14.39,0,0,0-4.6-10.7,14,14,0,0,0-10.4-4.6,14.39,14.39,0,0,0-10.7,4.6,14.88,14.88,0,0,0-4.3,10.7A13.88,13.88,0,0,0,430.4,54a14.88,14.88,0,0,0,10.7,4.3A13.88,13.88,0,0,0,451.5,54,13.46,13.46,0,0,0,456.1,43.6ZM763,204.2H739.7c-7.7,0-11.5-3.7-11.5-11.2V179.3h-.5q-19.5,27-52.2,27c-12.8,0-23.4-3.3-31.6-9.9q-12.3-10.2-12.3-27.3c0-14.6,6.3-25.3,19-32.1,12.9-7,30.4-10.4,52.7-10.4h22.5v-3.2q0-33.45-34.8-33.5c-10.9,0-18.7,1.1-23.6,3.2A104.45,104.45,0,0,0,657,97.9c-2,1.2-3.5,2.2-4.6,2.9-2.7,2.1-4.6,2.3-5.9.5L639,91.9c-1.2-1.4-1.1-2.9.5-4.3,3-3.9,9.3-7.8,18.7-11.5s20.6-5.6,33.5-5.6q56.25,0,56.2,53.5v62.1h15a2.86,2.86,0,0,1,3.2,3.2V201C766.2,203.2,765.1,204.2,763,204.2Zm-37.2-61.5H704.7a165.73,165.73,0,0,0-25.7,1.6,38.77,38.77,0,0,0-17.4,7,17.75,17.75,0,0,0-7,14.7,19.26,19.26,0,0,0,7.5,15.5c5.2,3.9,11.9,5.9,20.1,5.9,17.3,0,31.9-7.7,43.6-23V142.7ZM558.4,109.5l3.3-11.1a2.59,2.59,0,0,1,3.2-1.7s9.6,2.9,21,6.3a44.06,44.06,0,0,0-4.9-4.7c-7.1-5.9-16.2-8.8-27.3-8.8-10.9,0-20.9,4.4-30,13.1S510,123.3,510,138.5c0,15,4.5,27,13.4,35.9,8.9,8.7,18.9,13.1,30,13.1s20.4-2.3,28.1-7c7.9-4.8,13.1-9.5,15.8-13.9,1.2-2.1,2.8-2.4,4.6-.8l7.8,7.5a3.59,3.59,0,0,1,1.6,2.7,6.77,6.77,0,0,1-1.3,3.2,36.11,36.11,0,0,1-5.1,5.9,78.7,78.7,0,0,1-10.7,9.1c-4.5,3.4-10.4,6.2-17.7,8.6a74.38,74.38,0,0,1-23,3.5q-28.05,0-47.1-18.5-18.75-18.45-18.7-49.5,0-31.35,18.7-49.3,19.05-18.15,46.3-18.2t41.2,19.8h.3l-.3-14.7c0-2.3,1.2-3.5,3.5-3.5h10.2c2.1,0,3.2,1.2,3.2,3.5v36.4a5.94,5.94,0,0,1-.2,1.3,4.8,4.8,0,0,1-1.1,2.5,5,5,0,0,1-.7.8,5.55,5.55,0,0,1-.8.6c-1.8,1.5-4.1,3.4-6.7,5.4-1.9,1.4-3.9,1.4-7.8,0l-33.3-10A2.83,2.83,0,0,1,558.4,109.5Z" style="fill:#000;fill-rule:evenodd"></path>
</svg>