<?xml version="1.0" encoding="utf-8"?>
<!-- Generator: Adobe Illustrator 25.4.1, SVG Export Plug-In . SVG Version: 6.00 Build 0)  -->
<svg version="1.1" id="Layer_1" xmlns="http://www.w3.org/2000/svg" xmlns:xlink="http://www.w3.org/1999/xlink" x="0px" y="0px"
	 viewBox="0 0 1173.5 330.2" style="enable-background:new 0 0 1173.5 330.2;" xml:space="preserve">
<style type="text/css">
	.st0{fill:#6ABF4B;}
	.st1{fill:#0047BA;}
</style>
<path d="M1167.1,232v-41h-4.4v32.8l-21.8-32.8h-4.1v41h4.4V199l21.8,32.9H1167.1z M1123.3,232V228h-21.1v-14.8h18v-3.9h-18v-14.5
	h21.1v-3.9h-25.5v41H1123.3z M1084.4,220.7c0-3.4-1.2-6.2-3.5-8.1c-1.7-1.5-3.6-2.3-7.5-2.9l-4.5-0.7c-2.1-0.3-4.3-1.2-5.5-2.2
	c-1.3-1.1-1.8-2.7-1.8-4.7c0-4.6,3.2-7.6,8.6-7.6c4.3,0,7,1.2,9.6,3.5l2.8-2.8c-3.5-3.2-7-4.5-12.2-4.5c-8.1,0-13.1,4.6-13.1,11.6
	c0,3.3,1,5.8,3.1,7.7c1.8,1.6,4.3,2.6,7.5,3.1l4.8,0.7c3,0.5,4,0.8,5.4,2c1.3,1.2,2,3,2,5.1c0,4.8-3.7,7.6-9.7,7.6
	c-4.6,0-7.8-1.1-11.2-4.5l-3,3c3.9,3.9,7.9,5.4,14.1,5.4C1078.7,232.3,1084.4,227.9,1084.4,220.7 M1050,232V228h-21v-37.1h-4.4v41
	H1050z M1011.2,232V228h-21.1v-14.8h18v-3.9h-18v-14.5h21.1v-3.9h-25.5v41H1011.2z M967.1,202.4c0,5-3.4,7.5-8.2,7.5h-11v-15h11
	C963.7,194.8,967.1,197.4,967.1,202.4 M972.3,232l-9.7-18.6c5.3-1.1,8.9-5,8.9-11c0-7.1-5-11.4-12.2-11.4h-15.7v41h4.4v-18.2h9.9
	l9.3,18.2H972.3z M932.9,190.9h-4.7l-9.6,19.7l-9.7-19.7h-4.7l12.2,24.1V232h4.4V215L932.9,190.9z M896.8,194.8v-3.9h-28.1v3.9h11.9
	V232h4.4v-37.1H896.8z M862.3,220.7c0-3.4-1.2-6.2-3.5-8.1c-1.7-1.5-3.6-2.3-7.5-2.9l-4.5-0.7c-2.1-0.3-4.3-1.2-5.5-2.2
	c-1.3-1.1-1.8-2.7-1.8-4.7c0-4.6,3.2-7.6,8.6-7.6c4.3,0,7,1.2,9.6,3.5l2.8-2.8c-3.5-3.2-7-4.5-12.2-4.5c-8.1,0-13.1,4.6-13.1,11.6
	c0,3.3,1,5.8,3.1,7.7c1.8,1.6,4.3,2.6,7.5,3.1l4.8,0.7c3,0.5,4,0.8,5.4,2c1.3,1.2,2,3,2,5.1c0,4.8-3.7,7.6-9.7,7.6
	c-4.6,0-7.8-1.1-11.2-4.5l-3,3c3.9,3.9,7.9,5.4,14.1,5.4C856.6,232.3,862.3,227.9,862.3,220.7 M825,220.7c0-3.4-1.2-6.2-3.5-8.1
	c-1.7-1.5-3.6-2.3-7.5-2.9l-4.5-0.7c-2.1-0.3-4.3-1.2-5.5-2.2c-1.3-1.1-1.8-2.7-1.8-4.7c0-4.6,3.2-7.6,8.6-7.6c4.3,0,7,1.2,9.6,3.5
	l2.8-2.8c-3.5-3.2-7-4.5-12.2-4.5c-8.1,0-13.1,4.6-13.1,11.6c0,3.3,1,5.8,3.1,7.7c1.8,1.6,4.3,2.6,7.5,3.1l4.8,0.7
	c3,0.5,4,0.8,5.4,2c1.3,1.2,2,3,2,5.1c0,4.8-3.7,7.6-9.7,7.6c-4.6,0-7.8-1.1-11.2-4.5l-3,3c3.9,3.9,7.9,5.4,14.1,5.4
	C819.3,232.3,825,227.9,825,220.7 M785.7,217v-6.5h-14.5v3.9h10.1v3.1c0,3.2-0.6,5.4-2.3,7.4c-1.9,2.3-4.8,3.5-7.8,3.5
	c-2.7,0-5.3-1-7.1-2.9c-2.6-2.7-2.9-5.5-2.9-14.1c0-8.6,0.3-11.4,2.9-14c1.8-1.8,4.4-2.9,7.1-2.9c5.1,0,8.8,3.2,10,8.4h4.4
	c-1.2-7.2-6.5-12.3-14.4-12.3c-4.1,0-7.7,1.5-10.5,4.3c-3.9,3.9-3.9,7.9-3.9,16.6c0,8.7,0,12.7,3.9,16.6c2.8,2.8,6.5,4.3,10.5,4.3
	c4.2,0,8.1-1.6,11-4.7C784.7,224.9,785.7,221.7,785.7,217 M742.3,232v-41h-4.4v32.8l-21.8-32.8H712v41h4.4V199l21.8,32.9H742.3z
	 M695.8,190.9h-4.4v41h4.4V190.9z M675.2,232v-41h-4.4v32.8L649,190.9h-4.1v41h4.4V199L671,232H675.2z M625.9,211
	c0,5,0.1,11.1-2.7,14.1c-2.1,2.2-4.9,3-8.1,3h-8.9v-33.2h8.9c3.2,0,5.9,0.8,8.1,3C626,200.8,625.9,206,625.9,211 M630.2,211
	c0-5.7,0.2-12-4-16.3c-2.5-2.5-6.1-3.8-10.4-3.8h-14.1v41h14.1c4.3,0,7.9-1.3,10.4-3.8C630.5,223.9,630.2,216.7,630.2,211
	 M589.8,232V228h-21v-37.1h-4.4v41H589.8z M548.2,190.9h-4.4v41h4.4V190.9z M524.8,220.5c0,4.6-3.2,7.5-8.2,7.5h-11.2v-15h11.2
	C521.7,213,524.8,215.9,524.8,220.5 M524.2,201.9c0,4.9-3.5,7.1-8.1,7.1h-10.7v-14.2h10.7C520.7,194.8,524.2,197,524.2,201.9
	 M529.2,220.6c0-4.9-2.8-8.3-6.7-9.7c3.5-1.3,6.1-4.7,6.1-9c0-6.9-5-11-12.1-11H501v41h16C524.2,232,529.2,228,529.2,220.6
	 M489,194.8v-3.9h-28.1v3.9h11.9V232h4.4v-37.1H489z M449.5,218.4v-27.5h-4.4v27.1c0,6.2-4,10.3-10,10.3c-6,0-9.9-4.1-9.9-10.3
	v-27.1h-4.4v27.5c0,8.2,6,13.9,14.3,13.9C443.4,232.3,449.5,226.6,449.5,218.4"/>
<path d="M944.1,136.1c0-3.4-1.2-6.2-3.5-8.1c-1.7-1.5-3.6-2.3-7.5-2.9l-4.5-0.7c-2.1-0.3-4.3-1.2-5.5-2.2c-1.3-1.1-1.8-2.7-1.8-4.7
	c0-4.6,3.2-7.6,8.6-7.6c4.3,0,7,1.2,9.6,3.5l2.8-2.8c-3.5-3.2-7-4.5-12.2-4.5c-8.1,0-13.1,4.6-13.1,11.6c0,3.3,1,5.8,3.1,7.7
	c1.8,1.6,4.3,2.6,7.5,3.1l4.8,0.7c3,0.5,4,0.8,5.4,2c1.3,1.2,2,3,2,5.1c0,4.8-3.7,7.6-9.7,7.6c-4.6,0-7.8-1.1-11.2-4.5l-3,3
	c3.9,3.9,7.9,5.4,14.1,5.4C938.5,147.8,944.1,143.3,944.1,136.1 M903.8,133.9v-27.5h-4.4v27.1c0,6.2-4,10.3-10,10.3
	s-9.9-4.1-9.9-10.3v-27.1h-4.4v27.5c0,8.2,6,13.9,14.3,13.9C897.7,147.8,903.8,142.1,903.8,133.9 M863.7,110.3v-3.9h-28.1v3.9h11.9
	v37.1h4.4v-37.1H863.7z M823.6,106.4h-4.4v41h4.4V106.4z M807.2,147.4v-3.9h-21v-37.1h-4.4v41H807.2z M769.9,147.4v-3.9h-21v-37.1
	h-4.4v41H769.9z M724.3,134.3H709l7.7-21.7L724.3,134.3z M733.6,147.4l-15-41h-3.7l-15.1,41h4.7l3.3-9.3h17.9l3.3,9.3H733.6z
	 M688.8,147.4v-41h-4.4v18.4h-19.5v-18.4h-4.4v41h4.4v-18.7h19.5v18.7H688.8z M647.1,136.1c0-3.4-1.2-6.2-3.5-8.1
	c-1.7-1.5-3.6-2.3-7.5-2.9l-4.5-0.7c-2.1-0.3-4.3-1.2-5.5-2.2s-1.8-2.7-1.8-4.7c0-4.6,3.2-7.6,8.6-7.6c4.3,0,7,1.2,9.6,3.5l2.8-2.8
	c-3.5-3.2-7-4.5-12.2-4.5c-8.1,0-13.1,4.6-13.1,11.6c0,3.3,1,5.8,3.1,7.7c1.8,1.6,4.3,2.6,7.5,3.1l4.8,0.7c3,0.5,4,0.8,5.4,2
	c1.3,1.2,2,3,2,5.1c0,4.8-3.7,7.6-9.7,7.6c-4.6,0-7.8-1.1-11.2-4.5l-3,3c3.9,3.9,7.9,5.4,14.1,5.4
	C641.4,147.8,647.1,143.3,647.1,136.1 M606.7,133.9v-27.5h-4.4v27.1c0,6.2-4,10.3-10,10.3c-6,0-9.9-4.1-9.9-10.3v-27.1h-4.4v27.5
	c0,8.2,6,13.9,14.3,13.9C600.7,147.8,606.7,142.1,606.7,133.9 M566.7,110.3v-3.9h-28.1v3.9h11.9v37.1h4.4v-37.1H566.7z M529.3,147.4
	v-3.9h-21.1v-14.8h18v-3.9h-18v-14.5h21.1v-3.9h-25.5v41H529.3z M486.8,118.4c0,5.4-3.6,8.2-8.7,8.2h-10.5v-16.3h10.5
	C483.2,110.3,486.8,113,486.8,118.4 M491.2,118.4c0-7.4-5.2-12-12.7-12h-15.3v41h4.4v-16.9h10.9C486,130.5,491.2,125.8,491.2,118.4
	 M444.2,126.9c0,8.6-0.3,11.4-2.9,14c-1.8,1.8-4.4,2.9-7.1,2.9c-2.7,0-5.3-1.1-7.1-2.9c-2.6-2.7-2.9-5.4-2.9-14s0.3-11.4,2.9-14
	c1.8-1.8,4.4-2.9,7.1-2.9c2.7,0,5.3,1.1,7.1,2.9C443.9,115.6,444.2,118.3,444.2,126.9 M448.6,126.9c0-8.7,0-12.7-3.9-16.6
	c-2.8-2.8-6.4-4.3-10.5-4.3c-4.1,0-7.7,1.5-10.5,4.3c-3.9,3.9-3.9,7.9-3.9,16.6s0,12.7,3.9,16.6c2.8,2.8,6.4,4.3,10.5,4.3
	c4.1,0,7.7-1.5,10.5-4.3C448.6,139.6,448.6,135.6,448.6,126.9"/>
<path class="st0" d="M96.3,93c25.9-52.1,64.8-97.6,39-94.7c-13.8,1.6-28.1,6-42.1,13c6-2.9,12.1-5.4,18.4-7.5
	c0,0-53.6,22.1-73.7,85.1c7.4-7.2,16.2-14.1,26.5-20.7c44.5-28.2-0.8,28.1-10.7,99.5c8.9-11.5,20.2-29.5,33.1-49.1
	C89.2,109.6,92.4,100.9,96.3,93 M236.6,85.8c-10.4-3-21.2,3.1-32,14.7c-3.8,9.3-7.8,19.9-11.9,31.9
	c-17.3,50.3-38.9,143.4-70.4,131.9c-2.7-1-5.4-2.3-7.8-3.9c-4.7,7.8-9.1,14-13.1,17.8c-3,2.9-7,5.9-11.9,8.1
	c59.8,58.8,169.9,56.4,163.6-16.8c-7.7-89.5-6.9-125.7-6.2-179.5C243.7,88.1,240.3,86.7,236.6,85.8 M337.5,161.3
	c-0.1-12.4-1.5-25-4.4-37.5c-10.4-45.6-50.5-99.4-73-95.9c-4.7,0.7-13,2.3-24.3,15.6c4.1,5.1,8.2,10.6,12.4,16.5
	c8.3-82.3,58.5,20.3,71.8,107.5c2.4,1.9,4.5,2.8,7.2,3.4C335.9,172.9,337.3,163,337.5,161.3"/>
<path class="st1" d="M213.2,21.4C137-25,40,235.8,32.7,170.2C14,43.9,111.5,3.9,111.5,3.9C48.8,24.6-0.5,88.3,0.7,161.9
	c1.1,74,42.4,116.4,57.3,123.7c18.8,9.3,35.3,0.5,43.4-7.5c31.2-29.7,87.7-206,135.2-192.3c53.2,12.7,46.2,125,48.7,146.5
	c5.1,42.9,17.1,37.8,33.8,6.3c11.2-21.1,18.5-45.5,18.3-77.5c0,0-0.8,12-10.4,10c-8.6-1.8-11.8-6.7-33.5-40.7
	C270.8,94.9,236.1,35.4,213.2,21.4"/>
</svg>
