<?xml version="1.0" encoding="utf-8"?>
<!-- Generator: Adobe Illustrator 25.4.1, SVG Export Plug-In . SVG Version: 6.00 Build 0)  -->
<svg version="1.1" id="Layer_1" xmlns="http://www.w3.org/2000/svg" xmlns:xlink="http://www.w3.org/1999/xlink" x="0px" y="0px"
	 viewBox="0 0 248 72" style="enable-background:new 0 0 248 72;" xml:space="preserve">
<style type="text/css">
	.st0{fill:#066069;}
	.st1{fill:none;}
	.st2{fill:#F58220;}
	.st3{fill:#FFFFFF;}
	.st4{fill:#F7B5C9;}
</style>
<path class="st0" d="M72.9,44.4c-0.1-0.1-0.1-0.2-0.1-0.4V33.8h-3.5c-0.1,0-0.3,0-0.4-0.1c-0.1-0.1-0.1-0.2-0.1-0.4v-2.2
	c0-0.1,0-0.3,0.1-0.4c0.1-0.1,0.2-0.1,0.4-0.1H80c0.1,0,0.3,0,0.4,0.1c0.1,0.1,0.1,0.2,0.1,0.4v2.2c0,0.1,0,0.3-0.1,0.4
	c-0.1,0.1-0.2,0.1-0.4,0.1h-3.5V44c0,0.1,0,0.3-0.1,0.4c-0.1,0.1-0.2,0.1-0.4,0.1h-2.8C73.1,44.5,73,44.5,72.9,44.4"/>
<path class="st0" d="M82.4,44.3c-0.1-0.1-0.1-0.2-0.1-0.3V31.1c0-0.1,0-0.3,0.1-0.4c0.1-0.1,0.2-0.1,0.3-0.1h2.8
	c0.1,0,0.3,0,0.4,0.1c0.1,0.1,0.1,0.2,0.1,0.4V44c0,0.1,0,0.2-0.1,0.3c-0.1,0.1-0.2,0.1-0.4,0.1h-2.8C82.6,44.5,82.5,44.4,82.4,44.3
	"/>
<path class="st0" d="M89,44.3c-0.1-0.1-0.1-0.2-0.1-0.3V31.1c0-0.1,0-0.3,0.1-0.4c0.1-0.1,0.2-0.1,0.4-0.1h9.4c0.1,0,0.3,0,0.4,0.1
	c0.1,0.1,0.1,0.2,0.1,0.4v2c0,0.1,0,0.3-0.1,0.4c-0.1,0.1-0.2,0.1-0.4,0.1h-6.3v2.5h5.8c0.1,0,0.3,0,0.4,0.1
	c0.1,0.1,0.1,0.2,0.1,0.4v1.8c0,0.1,0,0.3-0.1,0.4c-0.1,0.1-0.2,0.1-0.4,0.1h-5.8v2.6h6.4c0.1,0,0.3,0,0.4,0.1
	c0.1,0.1,0.1,0.2,0.1,0.4v2c0,0.1,0,0.3-0.1,0.4c-0.1,0.1-0.2,0.1-0.4,0.1h-9.5C89.2,44.5,89.1,44.4,89,44.3"/>
<path class="st0" d="M105.2,44.4c-0.1-0.1-0.1-0.2-0.1-0.4V33.8h-3.5c-0.1,0-0.3,0-0.4-0.1c-0.1-0.1-0.1-0.2-0.1-0.4v-2.2
	c0-0.1,0-0.3,0.1-0.4c0.1-0.1,0.2-0.1,0.4-0.1h10.8c0.1,0,0.3,0,0.4,0.1c0.1,0.1,0.1,0.2,0.1,0.4v2.2c0,0.1,0,0.3-0.1,0.4
	c-0.1,0.1-0.2,0.1-0.4,0.1h-3.5V44c0,0.1,0,0.3-0.1,0.4c-0.1,0.1-0.2,0.1-0.4,0.1h-2.8C105.4,44.5,105.3,44.5,105.2,44.4"/>
<path class="st0" d="M114.7,44.3c-0.1-0.1-0.1-0.2-0.1-0.3V31.1c0-0.1,0-0.3,0.1-0.4c0.1-0.1,0.2-0.1,0.4-0.1h9.4
	c0.1,0,0.3,0,0.4,0.1c0.1,0.1,0.1,0.2,0.1,0.4v2c0,0.1,0,0.3-0.1,0.4c-0.1,0.1-0.2,0.1-0.4,0.1h-6.3v2.5h5.8c0.1,0,0.3,0,0.4,0.1
	c0.1,0.1,0.1,0.2,0.1,0.4v1.8c0,0.1,0,0.3-0.1,0.4c-0.1,0.1-0.2,0.1-0.4,0.1h-5.8v2.6h6.4c0.1,0,0.3,0,0.4,0.1
	c0.1,0.1,0.1,0.2,0.1,0.4v2c0,0.1,0,0.3-0.1,0.4c-0.1,0.1-0.2,0.1-0.4,0.1h-9.5C114.9,44.5,114.8,44.4,114.7,44.3"/>
<path class="st0" d="M127.5,44.3c-0.1-0.1-0.1-0.2-0.1-0.3V31.1c0-0.1,0-0.3,0.1-0.4c0.1-0.1,0.2-0.1,0.4-0.1h9.4
	c0.1,0,0.3,0,0.4,0.1c0.1,0.1,0.1,0.2,0.1,0.4v2c0,0.1,0,0.3-0.1,0.4c-0.1,0.1-0.2,0.1-0.4,0.1h-6.3v2.5h5.8c0.1,0,0.3,0,0.4,0.1
	c0.1,0.1,0.1,0.2,0.1,0.4v1.8c0,0.1,0,0.3-0.1,0.4c-0.1,0.1-0.2,0.1-0.4,0.1h-5.8v2.6h6.4c0.1,0,0.3,0,0.4,0.1
	c0.1,0.1,0.1,0.2,0.1,0.4v2c0,0.1,0,0.3-0.1,0.4c-0.1,0.1-0.2,0.1-0.4,0.1h-9.5C127.7,44.5,127.6,44.4,127.5,44.3"/>
<path class="st0" d="M140.2,44.3c-0.1-0.1-0.1-0.2-0.1-0.3V31.1c0-0.1,0-0.3,0.1-0.4c0.1-0.1,0.2-0.1,0.4-0.1h2.2
	c0.3,0,0.5,0.1,0.7,0.4l4.7,7.4v-7.3c0-0.1,0-0.3,0.1-0.4c0.1-0.1,0.2-0.1,0.4-0.1h2.5c0.1,0,0.3,0,0.4,0.1c0.1,0.1,0.1,0.2,0.1,0.4
	V44c0,0.1,0,0.3-0.1,0.4c-0.1,0.1-0.2,0.1-0.4,0.1h-2.2c-0.3,0-0.5-0.1-0.7-0.4l-4.7-7.1v7c0,0.1,0,0.3-0.1,0.4
	c-0.1,0.1-0.2,0.1-0.4,0.1h-2.5C140.4,44.5,140.3,44.4,140.2,44.3"/>
<path class="st0" d="M157.6,44.4c-0.1-0.1-0.1-0.2-0.1-0.4V33.8H154c-0.1,0-0.3,0-0.4-0.1c-0.1-0.1-0.1-0.2-0.1-0.4v-2.2
	c0-0.1,0-0.3,0.1-0.4c0.1-0.1,0.2-0.1,0.4-0.1h10.8c0.1,0,0.3,0,0.4,0.1c0.1,0.1,0.1,0.2,0.1,0.4v2.2c0,0.1,0,0.3-0.1,0.4
	c-0.1,0.1-0.2,0.1-0.4,0.1h-3.5V44c0,0.1,0,0.3-0.1,0.4c-0.1,0.1-0.2,0.1-0.4,0.1H158C157.8,44.5,157.7,44.5,157.6,44.4"/>
<path class="st0" d="M167.1,44.3c-0.1-0.1-0.1-0.2-0.1-0.3V31.1c0-0.1,0-0.3,0.1-0.4c0.1-0.1,0.2-0.1,0.4-0.1h9.4
	c0.1,0,0.3,0,0.4,0.1c0.1,0.1,0.1,0.2,0.1,0.4v2c0,0.1,0,0.3-0.1,0.4c-0.1,0.1-0.2,0.1-0.4,0.1h-6.3v2.5h5.8c0.1,0,0.3,0,0.4,0.1
	c0.1,0.1,0.1,0.2,0.1,0.4v1.8c0,0.1,0,0.3-0.1,0.4c-0.1,0.1-0.2,0.1-0.4,0.1h-5.8v2.6h6.4c0.1,0,0.3,0,0.4,0.1
	c0.1,0.1,0.1,0.2,0.1,0.4v2c0,0.1,0,0.3-0.1,0.4c-0.1,0.1-0.2,0.1-0.4,0.1h-9.5C167.4,44.5,167.2,44.4,167.1,44.3"/>
<path class="st0" d="M179.9,44.3c-0.1-0.1-0.1-0.2-0.1-0.3V31.1c0-0.1,0-0.3,0.1-0.4c0.1-0.1,0.2-0.1,0.4-0.1h2.7
	c0.1,0,0.3,0,0.4,0.1c0.1,0.1,0.1,0.2,0.1,0.4v4.3l3.5-4.4c0.1-0.3,0.4-0.4,0.8-0.4h3c0.1,0,0.2,0,0.3,0.1c0.1,0.1,0.1,0.2,0.1,0.3
	c0,0.1,0,0.2-0.1,0.2l-4.6,6l5,6.6c0.1,0.1,0.1,0.1,0.1,0.2c0,0.1,0,0.2-0.1,0.3c-0.1,0.1-0.2,0.1-0.3,0.1H188c-0.2,0-0.4,0-0.5-0.1
	c-0.1-0.1-0.2-0.2-0.3-0.3l-3.8-4.8V44c0,0.1,0,0.2-0.1,0.3c-0.1,0.1-0.2,0.1-0.4,0.1h-2.7C180.1,44.5,180,44.4,179.9,44.3"/>
<path class="st0" d="M193.6,44.3c-0.1-0.1-0.1-0.2-0.1-0.3V31.1c0-0.1,0-0.3,0.1-0.4c0.1-0.1,0.2-0.1,0.3-0.1h2.8
	c0.1,0,0.3,0,0.4,0.1c0.1,0.1,0.1,0.2,0.1,0.4V44c0,0.1,0,0.2-0.1,0.3c-0.1,0.1-0.2,0.1-0.4,0.1h-2.8
	C193.8,44.5,193.7,44.4,193.6,44.3"/>
<path class="st0" d="M202,44.2c-0.9-0.4-1.6-0.9-2.1-1.6c-0.5-0.7-0.8-1.5-0.8-2.5c0-0.1,0-0.2,0.1-0.3c0.1-0.1,0.2-0.1,0.3-0.1h2.8
	c0.2,0,0.3,0,0.4,0.1c0.1,0.1,0.2,0.2,0.3,0.4c0.2,1,0.9,1.5,1.9,1.5c0.6,0,1.1-0.2,1.5-0.6c0.3-0.4,0.5-1,0.5-1.8v-5.6h-6.4
	c-0.1,0-0.2,0-0.3-0.1c-0.1-0.1-0.1-0.2-0.1-0.3v-2.1c0-0.1,0-0.3,0.1-0.4c0.1-0.1,0.2-0.1,0.3-0.1h9.7c0.1,0,0.3,0,0.4,0.1
	c0.1,0.1,0.1,0.2,0.1,0.4v8.3c0,1.1-0.2,2.1-0.7,2.9c-0.5,0.8-1.2,1.4-2.1,1.8c-0.9,0.4-1.9,0.6-3.1,0.6
	C203.8,44.7,202.8,44.5,202,44.2"/>
<path class="st0" d="M219.7,29.5c-0.1-0.1-0.1-0.2-0.1-0.3v-1.9c0-0.1,0-0.2,0.1-0.3c0.1-0.1,0.2-0.1,0.3-0.1h1.9
	c0.1,0,0.2,0,0.3,0.1c0.1,0.1,0.1,0.2,0.1,0.3v1.9c0,0.1,0,0.2-0.1,0.3c-0.1,0.1-0.2,0.1-0.3,0.1H220
	C219.9,29.6,219.7,29.6,219.7,29.5 M216.8,39.2h3.5l-1.8-5.1L216.8,39.2z M214.9,29.5c-0.1-0.1-0.1-0.2-0.1-0.3v-1.9
	c0-0.1,0-0.2,0.1-0.3c0.1-0.1,0.2-0.1,0.3-0.1h1.9c0.1,0,0.2,0,0.3,0.1c0.1,0.1,0.1,0.2,0.1,0.3v1.9c0,0.1,0,0.2-0.1,0.3
	c-0.1,0.1-0.2,0.1-0.3,0.1h-1.9C215.1,29.6,215,29.6,214.9,29.5 M211.7,44.4c-0.1-0.1-0.1-0.2-0.1-0.3c0-0.1,0-0.1,0-0.2l4.6-12.7
	c0.1-0.4,0.4-0.6,0.8-0.6h3.1c0.4,0,0.7,0.2,0.8,0.6l4.6,12.7c0,0,0,0.1,0,0.2c0,0.1,0,0.2-0.1,0.3c-0.1,0.1-0.2,0.1-0.3,0.1h-2.6
	c-0.3,0-0.5-0.1-0.7-0.4l-0.7-1.9H216l-0.7,1.9c-0.1,0.3-0.4,0.4-0.7,0.4H212C211.9,44.5,211.8,44.5,211.7,44.4"/>
<path class="st0" d="M228.8,44.4c-0.1-0.1-0.1-0.2-0.1-0.4V33.8h-3.5c-0.1,0-0.3,0-0.4-0.1c-0.1-0.1-0.1-0.2-0.1-0.4v-2.2
	c0-0.1,0-0.3,0.1-0.4c0.1-0.1,0.2-0.1,0.4-0.1H236c0.1,0,0.3,0,0.4,0.1c0.1,0.1,0.1,0.2,0.1,0.4v2.2c0,0.1,0,0.3-0.1,0.4
	c-0.1,0.1-0.2,0.1-0.4,0.1h-3.5V44c0,0.1-0.1,0.3-0.1,0.4c-0.1,0.1-0.2,0.1-0.4,0.1h-2.8C229.1,44.5,228.9,44.5,228.8,44.4"/>
<rect x="-110.3" y="-92" class="st1" width="465.3" height="261.8"/>
<rect x="8.2" y="9.8" class="st2" width="52" height="52"/>
<g>
	<defs>
		<rect id="SVGID_1_" x="-110.3" y="-92" width="465.3" height="261.8"/>
	</defs>
	<clipPath id="SVGID_00000161626979180643948250000001002209251288496049_">
		<use xlink:href="#SVGID_1_"  style="overflow:visible;"/>
	</clipPath>
</g>
<rect x="29.9" y="18.7" class="st3" width="8.5" height="34.2"/>
<polygon class="st4" points="15.3,18.7 29.9,18.7 15.3,33.3 "/>
<rect x="-3.6" y="0.9" class="st1" width="252.9" height="70.3"/>
<circle class="st0" cx="47.4" cy="24.4" r="6.4"/>
</svg>
