<?xml version="1.0" encoding="utf-8"?>
<!-- Generator: Adobe Illustrator 25.4.1, SVG Export Plug-In . SVG Version: 6.00 Build 0)  -->
<svg version="1.1" id="Layer_1" xmlns="http://www.w3.org/2000/svg" xmlns:xlink="http://www.w3.org/1999/xlink" x="0px" y="0px"
	 viewBox="0 0 434 132" style="enable-background:new 0 0 434 132;" xml:space="preserve">
<path d="M51.1,14.1c0.2-1.2,0.4-2.6,0.4-4.1c0-1.4-0.2-2.9-0.6-4.3c1.4,1.2,2.2,2.7,2.5,4.3C53.2,11.2,52.2,12.6,51.1,14.1 M66.2,31
	c-2.2-0.9-4.8-1.3-7.4-1.3c-1.1,0-2.1,0-3.2,0.2c-0.6-1.5-0.9-2.9-0.9-4.2c0-3.3,1.8-6.2,3.8-8.8c0.6-0.9,1.2-1.8,1.9-2.6l0.7-0.9
	c0.5-0.7,1.1-1.4,1.6-2.1c0.3-0.5,0.6-0.9,0.9-1.3c0.3-0.6,0.6-1.1,0.9-1.6c0.4-0.8,0.8-1.6,1.1-2.3c0.3,1.4,0.4,2.8,0.4,4.2
	c0,0.5,0,1,0,1.4c-0.1,0.7-0.2,1.5-0.5,2.3c-0.1,0.5-0.3,1-0.5,1.5c-0.3,0.7-0.7,1.4-1,1.9c-0.2,0.5-0.5,1-0.8,1.4
	c-0.3,0.5-0.6,0.9-0.8,1.4c-1.1,1.7-2,3.1-2.1,4.6c0,0.3,0,0.5,0.1,0.7c0.2,0.7,0.5,1.8,1.8,1.9c0.7,0,1.2-0.3,1.5-1
	c0.2-0.4,0.3-0.9,0.3-1.5c0-0.7-0.1-1.4-0.5-2.1C64,22,64.6,21,65.2,20c0.4-0.5,0.7-1.2,1.1-1.8c1.4,2.5,2.1,4.8,2.1,6.9
	C68.4,27.3,67.7,29.2,66.2,31 M50.8,31.2c-0.9-1.1-2.3-3.4-2.3-6.6c0-0.5,0-0.9,0-1.3c0.3-2.4,1.9-4.6,3.7-6.8l0.3-0.5
	c1.6-2,3.3-4.1,3.3-6.6c0-0.3,0-0.6-0.1-0.8c-0.1-0.9-0.1-1.8-0.1-2.6c0-2.6,0.7-4.6,2.1-6.3c0,0.2,0,0.4,0,0.5
	c0,3.6,1.7,6.9,3.2,9.5c-0.7,1-1.5,2.1-2.4,3.2c-0.6,0.8-1.3,1.7-2,2.6c-2.1,3-4.2,6.2-4.2,10.2c0,1.5,0.3,3.1,1,4.7
	C52.4,30.6,51.6,30.9,50.8,31.2 M85.3,35.5c0-0.2-0.1-0.5-0.2-0.7c-0.4-0.7-1-1.4-1.7-2L93,8c0.2,0,0.4,0,0.7,0c1.5,0,3,0.7,4.1,2
	c0.9,1,1.4,2.3,1.5,3.7L85.3,35.5z M18.2,13.7c0.1-1.4,0.6-2.7,1.5-3.7c1.1-1.3,2.6-2,4.2-2c0.2,0,0.4,0,0.6,0l9.6,24.8
	c-0.7,0.6-1.2,1.2-1.6,2c-0.1,0.2-0.2,0.5-0.3,0.7L18.2,13.7z M87.3,40.3c-0.5-0.4-1.1-0.7-1.7-0.9L101,15.5c1.6,0.1,3,1.1,3.9,2.7
	c0.9,1.4,1.1,3.1,0.7,4.7L87.3,40.3z M11.9,22.9c-0.4-1.6-0.2-3.3,0.7-4.7c0.9-1.6,2.4-2.6,3.9-2.7l15.4,23.9
	c-0.6,0.2-1.2,0.5-1.7,0.9L11.9,22.9z M6.8,32.8c-0.7-1.5-0.7-3.4,0-5c0.8-1.6,2.1-2.7,3.7-3.1l18.1,17.4c0,0.1-0.1,0.1-0.1,0.2
	c-0.4,0.8-0.6,1.7-0.6,2.6V45L6.8,32.8z M89.7,44.9c0-0.9-0.2-1.8-0.7-2.6c0-0.1-0.1-0.1-0.1-0.2l18.2-17.4c1.5,0.4,2.8,1.5,3.6,3.1
	c0.7,1.6,0.7,3.5,0,5L89.7,44.9L89.7,44.9z M89.8,50.1c-0.2-0.7-0.6-1.3-1.1-1.8L112,34.8c1.2,0.6,2.2,1.8,2.7,3.3
	c0.5,1.7,0.3,3.6-0.7,5L89.8,50.1z M3.5,43.1c-0.9-1.4-1.2-3.3-0.6-5c0.4-1.5,1.4-2.7,2.7-3.3l23.3,13.5c-0.5,0.5-0.9,1.1-1.2,1.8
	L3.5,43.1z M89.5,55.1c0.5-0.8,0.7-1.7,0.8-2.7l23.9-6.9c1.2,0.9,1.9,2.4,1.9,4.2c0,1.5-0.6,3.1-1.6,4.1L89.5,55.1z M3,53.9
	c-1-1.1-1.6-2.7-1.5-4.2c0-1.7,0.6-3.3,1.8-4.2l24,7c0,0.9,0.3,1.8,0.7,2.6L3,53.9z M89.9,60.2c0-1-0.2-1.9-0.8-2.8l25.5-1.2
	c0.8,1,1.2,2.5,1,4c-0.2,1.8-1.2,3.4-2.5,4.3L89.9,60.2z M4.5,64.5c-1.4-0.9-2.3-2.5-2.6-4.3c-0.1-1.5,0.2-3,1.1-4l25.4,1.2
	c-0.5,0.9-0.8,1.8-0.8,2.8L4.5,64.5z M7.6,73.6c-1.3-0.6-2.4-1.9-2.8-3.5c-0.3-1.2-0.1-2.4,0.4-3.3L28,62.5c0.4,0.8,0.9,1.5,1.5,2.1
	L7.6,73.6z M88,64.6c0.7-0.6,1.2-1.3,1.5-2.1l22.9,4.3c0.5,0.9,0.6,2.1,0.3,3.3c-0.4,1.6-1.5,2.9-2.8,3.5L88,64.6z M87.7,70.4
	c0.4-0.7,0.5-1.5,0.5-2.3c0-0.3,0-0.6,0-0.9l20.3,8.3c0.4,1.1,0.2,2.4-0.3,3.6c-0.7,1.3-1.7,2.3-3,2.7L87.7,70.4z M12.3,81.8
	c-1.2-0.4-2.3-1.4-2.9-2.7c-0.6-1.2-0.7-2.5-0.3-3.6l20.3-8.3c-0.1,0.3-0.1,0.6-0.1,0.9c0,0.8,0.2,1.6,0.5,2.3L12.3,81.8z M18,88.7
	c-1.4-0.3-2.7-1.1-3.5-2.4c-0.6-0.8-0.9-1.6-0.9-2.5l17.6-11.5c0.7,0.7,1.5,1.1,2.4,1.4v0.1L18,88.7z M83.9,73.8v-0.1
	c0.9-0.3,1.7-0.7,2.4-1.4l17.6,11.5c0,0.8-0.3,1.7-0.8,2.5c-0.9,1.3-2.2,2.1-3.6,2.4L83.9,73.8z M24.7,93.9c-1.3,0-2.6-0.6-3.7-1.6
	c-0.6-0.6-1-1.3-1.3-2l14-13.4c0.3,0.7,0.6,1.3,1.1,1.8c0,0.1,0.1,0.2,0.2,0.3L24.7,93.9z M82.5,79c0.1-0.1,0.2-0.2,0.3-0.3
	c0.4-0.5,0.8-1.1,1-1.8l14,13.4c-0.3,0.7-0.7,1.4-1.3,2c-1,1-2.3,1.6-3.7,1.6L82.5,79z M85.9,98.2c-0.3,0-0.5,0-0.8,0L77.5,81h-0.1
	c0,0,0.1,0,0.1-0.1c0.2,0,0.3,0.1,0.5,0.1c0.9,0,1.8-0.2,2.6-0.6l10.3,14.8c-0.4,0.7-1,1.4-1.7,1.9C88.2,97.8,87.1,98.2,85.9,98.2
	 M31.6,98.2c-1.1,0-2.3-0.4-3.3-1.1c-0.7-0.5-1.3-1.2-1.6-1.9l10.2-14.8c0.9,0.4,1.7,0.6,2.6,0.6c0.2,0,0.4-0.1,0.6-0.1
	c0,0.1,0,0.1,0,0.1l-7.7,17.2C32.1,98.2,31.9,98.2,31.6,98.2 M38.4,101.4c-0.7,0-1.4-0.1-2-0.4c-0.9-0.3-1.6-0.9-2-1.6l7-15.5
	c0.1,0.1,0.3,0.3,0.4,0.4c0.5,0.5,1.1,0.8,1.7,1.1L40.1,101C39.6,101.3,39,101.4,38.4,101.4 M79.2,101.4c-0.7,0-1.3-0.1-1.8-0.4
	L74,85.4c0.7-0.3,1.2-0.6,1.7-1.1c0.2-0.1,0.3-0.3,0.4-0.4l7,15.5c-0.4,0.7-1.1,1.3-1.9,1.6C80.5,101.3,79.8,101.4,79.2,101.4
	 M45.8,102.5c-0.1,0-0.3-0.1-0.4-0.1c-1.2-0.1-2.2-0.5-2.8-1.3L45.8,86c0.1,0,0.1,0,0.2,0c1,0,2-0.3,2.9-0.7l-0.7,16.6
	C47.5,102.3,46.6,102.5,45.8,102.5 M71.7,102.5c-0.8,0-1.6-0.2-2.3-0.6l-0.8-16.6c0.9,0.4,1.9,0.7,2.9,0.7c0.1,0,0.2,0,0.2,0
	l3.3,15.1c-0.7,0.8-1.7,1.2-2.9,1.3C72,102.4,71.9,102.5,71.7,102.5 M57.4,131.1l-0.1-5.4c0-0.4-0.2-0.8-0.6-1
	c-1.4-0.7-2.2-2-2.2-3.5c0-1.4,0.8-2.7,2.1-3.5c0.3-0.2,0.6-0.6,0.5-1c-0.1-9.2-0.3-16.5-0.7-22.2c-0.2-3.2-0.4-5.7-0.7-7.5
	c-0.4-2.2-0.7-3.5-1.4-4.4c-0.8-0.9-1.8-1.4-2.7-1.4c-1.4,0.1-2.3,0.8-2.8,1.3C48,83.3,47,83.6,46,83.6c-0.9,0-1.9-0.3-2.5-1
	c-0.7-0.6-1.1-1.5-1.1-2.5c0-0.2,0-0.3,0-0.5c0.1-0.4-0.1-0.8-0.5-1c-0.2-0.2-0.4-0.3-0.7-0.3c-0.1,0-0.3,0.1-0.4,0.1
	c-0.4,0.2-0.9,0.2-1.3,0.2c-1.1,0-2.2-0.5-2.9-1.3c-0.5-0.7-0.8-1.4-0.8-2.2c0-0.6,0.2-1.2,0.5-1.8c0.2-0.3,0.2-0.8,0-1.1
	c-0.2-0.4-0.6-0.6-1-0.6c-1.4,0-2.6-0.8-3.2-1.9c-0.3-0.5-0.4-1.1-0.4-1.6c0-1,0.4-1.9,1-2.5c0.3-0.3,0.4-0.7,0.3-1.1
	s-0.3-0.7-0.7-0.8c-1.4-0.6-2.4-1.9-2.3-3.4c0-1.2,0.6-2.3,1.6-3c0.4-0.2,0.6-0.6,0.6-1s-0.3-0.8-0.6-1c-1.2-0.6-2-1.8-2-3.1
	c0-1.2,0.6-2.2,1.6-2.9c0.3-0.2,0.5-0.5,0.5-0.9c0-0.3-0.1-0.6-0.3-0.9c-0.8-0.7-1.2-1.6-1.2-2.6c0-0.5,0.2-1,0.4-1.5
	c0.6-1.2,1.9-2,3.4-2c0.4,0,0.8-0.2,1-0.6s0.2-0.9-0.1-1.3c-0.4-0.6-0.7-1.3-0.7-2.1c0-0.5,0.1-1,0.4-1.5c0.5-1.1,1.6-1.8,2.8-2
	c0.3,0,0.6-0.2,0.7-0.5c0.2-0.2,0.3-0.5,0.2-0.8c0-0.6-0.5-1-1.1-1c-0.1,0-0.1,0-0.2,0c-0.2,0.1-0.5,0.1-0.7,0.2l-9.7-25
	c0.3-1.7,1.5-3.2,3.1-4.2c1-0.6,2.2-0.9,3.2-0.9s1.9,0.3,2.7,0.7l0.2,1.5c1.6,9.7,5.2,32.2,6,35.7c0.1,0.6,0.2,1,0.2,1.4
	c0,0.9-0.4,1.4-1.1,2.6l-0.2,0.3c-1,1.7-2.2,3.7-3.3,7.3c-0.6,2.1-0.9,4.3-0.9,6.7c0,7.9,3.3,15.4,8.1,18.7c1.9,1.3,3.6,1.9,5.2,1.9
	c1.8,0,3.3-0.9,4.3-2.4c0.8-1.4,1.3-3.3,1.3-5.6c0-0.2,0-0.4,0-0.7c-0.1-1.5-0.1-3.6-0.1-6s-0.1-5.2-0.1-7.9
	c-0.2-4.4-0.4-9-1.2-11.4l-0.1-0.2c0-0.1,0-0.3-0.1-0.4l-0.1-0.1c-0.9-1.7-2.6-2.9-5.3-3.8c0-0.4,0-0.9,0-1.3c0-1,0.1-2.1,0.2-3.2
	c1.9-2.1,5.9-3.5,10.1-3.5h0.1c2.6,0,5.1,0.5,7.1,1.4c0.1,0.1,0.2,0.2,0.4,0.2c1.1,0.5,2,1.2,2.6,1.9c0.2,1.1,0.2,2.2,0.2,3.2
	c0,0.4,0,0.8,0,1.3c-2.7,0.9-4.4,2.1-5.3,3.8v0.1h-0.1c0,0.1-0.1,0.2-0.1,0.4c-0.1,0.1-0.1,0.1-0.1,0.2c-0.7,2.1-1,5.9-1.1,11.4
	c-0.1,2.7-0.1,5.5-0.1,7.9c-0.1,2.4-0.1,4.5-0.1,6c0,0.3-0.1,0.5-0.1,0.7c0,2.3,0.5,4.2,1.4,5.6c0.9,1.5,2.5,2.4,4.2,2.4
	c1.6,0,3.4-0.6,5.3-1.9c4.8-3.3,8-10.8,8-18.7c0-2.4-0.3-4.6-0.9-6.7c-1.1-3.6-2.2-5.6-3.3-7.3l-0.2-0.4c-0.7-1.1-1-1.6-1-2.5
	c0-0.4,0-0.8,0.1-1.4c0.8-3.6,4.9-28.7,6.2-37L82,2.4c0.7-0.4,1.6-0.7,2.6-0.7c1.1,0,2.2,0.3,3.2,0.9c1.6,1,2.8,2.5,3.1,4.2l-9.6,25
	c-0.3-0.1-0.5-0.1-0.8-0.2h-0.1c-0.6,0-1.1,0.4-1.2,1c-0.1,0.3,0,0.6,0.2,0.9c0.2,0.2,0.5,0.4,0.8,0.4c1.2,0.2,2.2,0.9,2.8,2
	c0.2,0.5,0.3,1,0.3,1.5c0,0.8-0.2,1.5-0.7,2.1l-0.1,0.2c-0.1,0.3-0.1,0.5-0.1,0.6v0.3c0.2,0.4,0.6,0.7,1,0.8h0.3
	c1.3,0,2.6,0.8,3.2,2c0.3,0.5,0.4,1,0.4,1.5c0,1-0.4,1.9-1.1,2.6c-0.3,0.2-0.4,0.6-0.4,0.9c0,0.4,0.2,0.7,0.5,0.9
	c1,0.7,1.6,1.7,1.6,2.9c0,1.3-0.7,2.5-1.9,3.1c-0.4,0.2-0.6,0.6-0.6,1c-0.1,0.4,0.1,0.8,0.5,1c1,0.7,1.7,1.8,1.7,3
	c0,1.5-0.9,2.8-2.4,3.4c-0.4,0.1-0.6,0.4-0.7,0.8c-0.1,0.4,0,0.8,0.3,1.1c0.7,0.6,1.1,1.5,1.1,2.5c0,0.5-0.2,1.1-0.4,1.6
	c-0.7,1.1-1.9,1.8-3.2,1.9c-0.4,0-0.8,0.2-1,0.6c-0.2,0.3-0.2,0.8,0,1.1c0.3,0.6,0.4,1.1,0.4,1.8c0,0.8-0.3,1.5-0.8,2.2
	c-0.7,0.8-1.7,1.3-2.9,1.3c-0.4,0-0.9-0.1-1.3-0.2c-0.1,0-0.3-0.1-0.4-0.1c-0.3,0-0.5,0.1-0.7,0.3c-0.3,0.2-0.5,0.6-0.5,1
	c0,0.2,0.1,0.3,0.1,0.5c0,1-0.4,1.9-1.1,2.5c-0.7,0.7-1.6,1-2.6,1s-2-0.3-2.7-1c-0.6-0.6-1.5-1.3-2.8-1.4c-1,0-2,0.5-2.8,1.4
	c-0.7,0.9-1,2.2-1.4,4.3c-0.9,6.1-1.2,18-1.4,29.8c0,0.4,0.2,0.8,0.6,1c1.2,0.8,2,2.1,2,3.5s-0.8,2.8-2.1,3.5
	c-0.4,0.2-0.7,0.6-0.7,1v5.4L57.4,131.1z"/>
<path d="M165.5,17.1v32.5H157V17.1h-11V10h30.6v7.1H165.5z"/>
<path d="M214.8,35.2c0,9.3-6.1,15.2-16.5,15.2s-16.6-5.9-16.6-15.2V10h8.5v24.4c0,5.2,2.9,8.2,8.1,8.2s8-3,8-8.2V10h8.5V35.2z"/>
<path d="M232,17.1v11.8h6c3.8,0,6.4-1.8,6.4-5.8s-2.7-6-6.6-6H232z M237.6,10c9.2,0,15.3,4.6,15.3,13.1c0,5.7-3.3,9.5-7.6,11.2
	l8.3,15.3h-8.9l-7-13.8H232v13.8h-8.3V10H237.6z"/>
<path d="M293,35.2c0,9.3-6.1,15.2-16.6,15.2c-10.4,0-16.5-5.9-16.5-15.2V10h8.4v24.4c0,5.2,2.9,8.2,8.1,8.2s8.1-3,8.1-8.2V10h8.5
	V35.2z"/>
<path d="M334.4,50.2l-21.7-20.8l-2.6-2.3v22.5h-8.3V9.4h0.4l21.6,20.9l2.6,2.2V10h8.3v40.2H334.4z"/>
<path d="M153.7,63.3l9,16.2l9.1-16.2h9.6L167,87.5v15.4h-8.5V87.5l-14.4-24.2H153.7z"/>
<path d="M185.2,102.9V63.3h8.4v32.5h15.3v7.1L185.2,102.9z"/>
<path d="M215,63.3h8.5v39.6H215V63.3z"/>
<path d="M251.1,95.9c7.1,0,12.2-5.7,12.2-12.8s-5.1-12.8-12.2-12.8c-7.2,0-12.2,5.7-12.2,12.8S243.9,95.9,251.1,95.9 M251.1,62.5
	c11.9,0,20.7,9.1,20.7,20.6s-8.7,20.5-20.7,20.5s-20.8-9-20.8-20.5C230.3,71.7,239.1,62.5,251.1,62.5z"/>
<path d="M287.2,70.4v11.8h4.8c3.7,0,6.3-1.9,6.3-5.9c0-3.9-2.7-5.9-6.5-5.9L287.2,70.4z M287.2,89.3v13.6h-8.5V63.3h12.9
	c9.1,0,15.2,4.5,15.2,13s-6.1,13-15.2,13L287.2,89.3z"/>
<path d="M313,63.3h8.5v39.6H313V63.3z"/>
<path d="M329.1,101.4v-8.2c2.7,1.5,6.3,2.7,9.9,2.9c1.3,0.1,2.5,0,3.5-0.2c3.1-0.5,4.8-1.6,4.8-3.5c0-2.7-2.4-4-7.8-6
	c-6.9-2.6-11-5.5-11-12.3c0-7.1,5.8-11.6,14.4-11.6c3.9,0,7.8,0.9,10.3,2v7.8c-2.3-1.4-6.1-2.4-9.7-2.4c-4.1,0-6.7,1.6-6.7,4.1
	c0,2.3,2.2,3.9,7.5,5.9c7,2.7,11.3,5.6,11.3,12.3c0,7.2-5.4,11.4-14.8,11.4C336.3,103.6,331.9,102.7,329.1,101.4L329.1,101.4z"/>
<path d="M377.9,70.4v32.5h-8.4V70.4h-11.1v-7.1h30.7v7.1H377.9z"/>
<path d="M412.9,95.9c7.2,0,12.2-5.7,12.2-12.8s-5-12.8-12.2-12.8c-7.1,0-12.2,5.7-12.2,12.8S405.8,95.9,412.9,95.9 M412.9,62.5
	c12,0,20.8,9.1,20.8,20.6s-8.8,20.5-20.8,20.5s-20.7-9-20.7-20.5C392.2,71.7,400.9,62.5,412.9,62.5z"/>
</svg>
