<?xml version="1.0" encoding="utf-8"?>
<!-- Generator: Adobe Illustrator 25.4.1, SVG Export Plug-In . SVG Version: 6.00 Build 0)  -->
<svg version="1.1" id="layer" xmlns="http://www.w3.org/2000/svg" xmlns:xlink="http://www.w3.org/1999/xlink" x="0px" y="0px"
	 viewBox="0 0 602.5 282.1" style="enable-background:new 0 0 602.5 282.1;" xml:space="preserve">
<path d="M583.7,18v160.1c-0.3,30.8-25.4,55.6-56.3,55.4H356.3c-20.4-0.1-40.1,7.5-55.3,21.2c-15.2-13.7-34.9-21.2-55.3-21.2H74.1
	c-30.7,0.1-55.7-24.7-55.8-55.4V18H583.7z M310.1,270c12.2-12.3,28.9-19.2,46.2-19.1h171.2c40.4,0.2,73.3-32.4,73.5-72.7V0.7H1
	v177.4c0.1,40.3,32.8,72.8,73.1,72.7h171.6c17.3-0.1,33.9,6.8,46.2,19.1l9,9L310.1,270z M517.9,90.9c0.2,5.3-4,9.8-9.3,10
	s-9.8-4-10-9.3s4-9.8,9.3-10c0.1,0,0.2,0,0.4,0c5.1-0.2,9.4,3.7,9.6,8.8C517.9,90.6,517.9,90.8,517.9,90.9 M499.9,166.6h16.7v-59.3
	h-16.7V166.6z M470,130.8l21.8,35.8h-18.1l-14.6-23.7l-7.9,10v13.8h-16.6V81.4h16.6v39.3c0,7.3-0.8,14.6-0.8,14.6h0.4
	c0,0,3.9-6.5,7.2-11.1l12.7-16.9h19.4L470,130.8z M417.8,128.6c0-14.7-7.2-22.7-18.6-22.7c-7.6-0.1-14.6,4.3-17.8,11.3H381l0.8-9.8
	h-16.6v59.3h16.6v-35.3c0-6.8,4-11.5,10.2-11.5s9,4.1,9,12v34.7h16.7L417.8,128.6z M349.4,90.9c0.2,5.3-4,9.8-9.3,10s-9.8-4-10-9.3
	s4-9.8,9.3-10c0.1,0,0.2,0,0.4,0c5.1-0.2,9.4,3.7,9.6,8.8C349.4,90.6,349.4,90.8,349.4,90.9 M331.4,166.6h16.7v-59.3h-16.7V166.6z
	 M302.7,150.1c0-4.7-6.6-5.8-14.2-7.9c-9-2.3-20.1-6.8-20.1-18.1s10.7-18.2,23.4-18.2c11.8,0,22.5,5.6,27.2,13.5l-14.2,8
	c-1.4-5.6-6.5-9.6-12.4-9.4c-4.2,0-7.8,1.9-7.8,5.3c0,4.5,7.8,5,16.6,7.8c9.3,2.9,17.8,7.2,17.8,18c0,11.9-11.1,18.9-23.9,18.9
	c-13.9,0-24.8-5.9-29.7-15.3l14.5-8.1c1.7,6.8,7.9,11.5,14.9,11.3C299.3,155.8,302.7,153.8,302.7,150.1 M249,82h-16.7v68.2
	c0,6.1,1.3,10.6,3.9,13.4s6.8,4.2,12.5,4.2c2,0,4-0.2,6-0.7c1.7-0.3,3.4-0.9,5-1.8l1.4-11.3c-1.1,0.4-2.3,0.7-3.5,1
	c-1.1,0.2-2.3,0.3-3.5,0.3c-1.5,0.2-3-0.4-3.9-1.6c-1-1.8-1.4-3.8-1.2-5.9L249,82z M193.4,118c-6.1,0-11.1,4.4-12.4,12.5h23.4
	C204.5,123.3,200,118,193.4,118 M219.1,141.5h-38.3c0.7,9.7,6.1,14.4,13.1,14.4c5.7,0.1,10.7-4.1,11.4-9.8l14,7.9
	c-5.2,9-15,14.4-25.4,14.1c-16.6,0-28.7-11.5-28.7-31.1s12.4-31.1,28.4-31.1s26.5,11.3,26.5,27.4C220,136.1,219.7,138.8,219.1,141.5
	 M135.5,166.6h17.3V85.2h-17.3v32.2H103V85.2H85.7v81.4H103v-33.8h32.5V166.6z"/>
</svg>
